<svg xmlns="http://www.w3.org/2000/svg" viewBox="0 0 375.19 664.95"><defs><style>.cls-1{fill:#051424;}.cls-2{fill:#0c1428;}.cls-3{fill:#14192f;}.cls-4{fill:#1d253d;}.cls-5{fill:#0d1022;}.cls-6{fill:#061222;}.cls-7{fill:#30162e;}.cls-8{fill:#0d1629;}.cls-9{fill:#1e3049;}.cls-10{fill:#0f2136;}.cls-11{fill:#1d1026;}.cls-12{fill:#26152e;}.cls-13{fill:#251730;}.cls-14{fill:#551e34;}.cls-15{fill:#29263e;}.cls-16{fill:#17273e;}.cls-17{fill:#332943;}.cls-18{fill:#3e1930;}.cls-19{fill:#441a31;}.cls-20{fill:#334864;}.cls-21{fill:#111024;}.cls-22{fill:#5b2036;}.cls-23{fill:#271229;}.cls-24{fill:#826d90;}.cls-25{fill:#76263d;}.cls-26{fill:#20172f;}.cls-27{fill:#15162d;}.cls-28{fill:#33152c;}.cls-29{fill:#351a36;}.cls-30{fill:#3b172e;}.cls-31{fill:#3e1a32;}.cls-32{fill:#4b1931;}.cls-33{fill:#33162c;}.cls-34{fill:#681f37;}.cls-35{fill:#1c1025;}.cls-36{fill:#190f24;}.cls-37{fill:#241328;}.cls-38{fill:#36172e;}.cls-39{fill:#421b33;}.cls-40{fill:#2a132a;}.cls-41{fill:#0e1e32;}.cls-42{fill:#2d2641;}.cls-43{fill:#16243b;}.cls-44{fill:#1e2e46;}.cls-45{fill:#312e49;}.cls-46{fill:#354762;}.cls-47{fill:#ab8aa1;}.cls-48{fill:#5f5169;}.cls-49{fill:#323a57;}.cls-50{fill:#271831;}.cls-51{fill:#282c46;}.cls-52{fill:#122035;}.cls-53{fill:#39304c;}.cls-54{fill:#1b2b43;}.cls-55{fill:#34304c;}.cls-56{fill:#524969;}.cls-57{fill:#383956;}.cls-58{fill:#354965;}.cls-59{fill:#86789b;}.cls-60{fill:#443451;}.cls-61{fill:#353350;}.cls-62{fill:#24334d;}.cls-63{fill:#7b7497;}.cls-64{fill:#505677;}.cls-65{fill:#34334f;}.cls-66{fill:#4f3f5d;}.cls-67{fill:#404563;}.cls-68{fill:#4a4e6c;}.cls-69{fill:#445777;}.cls-70{fill:#675273;}.cls-71{fill:#354865;}.cls-72{fill:#6b5a7a;}.cls-73{fill:#3e4967;}.cls-74{fill:#384a68;}.cls-75{fill:#626a8e;}.cls-76{fill:#685979;}.cls-77{fill:#4e5576;}.cls-78{fill:#561f36;}.cls-79{fill:#42223c;}.cls-80{fill:#0e1d32;}.cls-81{fill:#221b32;}.cls-82{fill:#692138;}.cls-83{fill:#283854;}.cls-84{fill:#22354e;}.cls-85{fill:#465e7e;}.cls-86{fill:#354a65;}.cls-87{fill:#2d415d;}.cls-88{fill:#2f4863;}.cls-89{fill:#521b33;}.cls-90{fill:#32172c;}.cls-91{fill:#aa3e40;}.cls-92{fill:#97353e;}.cls-93{fill:#9a373b;}.cls-94{fill:#3f2d48;}.cls-95{fill:#31435f;}.cls-96{fill:#742539;}.cls-97{fill:#162b41;}.cls-98{fill:#48607f;}.cls-99{fill:#2b2742;}.cls-100{fill:#1e2e47;}.cls-101{fill:#314864;}.cls-102{fill:#1d3048;}.cls-103{fill:#324b67;}.cls-104{fill:#465f7c;}.cls-105{fill:#334763;}.cls-106{fill:#30405c;}.cls-107{fill:#475978;}.cls-108{fill:#636d8f;}.cls-109{fill:#40536f;}.cls-110{fill:#3f4a67;}.cls-111{fill:#485474;}.cls-112{fill:#6e7599;}.cls-113{fill:#715a7a;}.cls-114{fill:#425575;}.cls-115{fill:#344966;}.cls-116{fill:#2a3b58;}.cls-117{fill:#4a3855;}.cls-118{fill:#745a7c;}.cls-119{fill:#514a6a;}.cls-120{fill:#5b4767;}.cls-121{fill:#907ca0;}.cls-122{fill:#7c7399;}.cls-123{fill:#765e7f;}.cls-124{fill:#7c6687;}.cls-125{fill:#83779b;}.cls-126{fill:#8a7b9e;}.cls-127{fill:#745b7f;}</style></defs><title>Asset 2</title><g id="Layer_2" data-name="Layer 2"><g id="Layer_1-2" data-name="Layer 1"><path class="cls-1" d="M375.1,354.86q0,153,.09,306c0,3.42-.67,4.1-4.09,4.09q-183.51-.16-367,0C.67,665,0,664.28,0,660.86q.2-101.5.1-203a1.66,1.66,0,0,1,2.62.19c2,3.7,5.76,5.92,7.5,9.83s3.89,4.43,7.52,2.08c3.07-2,6.16-3.94,8.3-7.09,2.79-4.13,1.4-8.41-3.59-9.33-5.29-1-8.66-3.2-8.47-9.08,0-1.2-.83-2.15-1.34-3.19-2-4.07-.62-6.7,3.91-7.39,3.59-.54,7,.5,10.17,2a16,16,0,0,0,9.71,1.53c4.37-.75,8,2.6,12.62,1.74,2.55-.48,4.77-.55,6.46-2.74a6.24,6.24,0,0,1,4.18-2.52c1.66-.2,3.49-.45,4.53,1.22s-.4,2.75-1.27,3.94c-2.52,3.47-2.12,5.09,1.53,6.2,1.25.38,2.79,1,3.8,0,1.3-1.38-.47-2.3-1-3.39-2.18-4.27-3.72-8.83-6.48-12.85-1.32-1.93-1-4,1.69-5.76s4.86-4,8.66-2.76c1.51.5,3.29-.63,4.08-2.28a5,5,0,0,0-.68-5.2c-3.92-5.92-4-6,.61-10.6,1.13-1.14.88-2,.11-3a23.66,23.66,0,0,1-3-4.61c-1.7-3.69-1.17-6.9,2.16-9.29,3.64-2.6,7.1-5.6,11.39-7.12,2.69-.95,5.69-1.5,7.91,1s1.05,5-.39,7.39c-1.06,1.75-2,3.55-1.2,5.64a4.45,4.45,0,0,1-1.38,5.37c-.72.65-1.44,1.49-.75,2.6a1.2,1.2,0,0,0,1.31.51,2.27,2.27,0,0,0,1.9-2.53,14.6,14.6,0,0,0-.28-2c-.25-2,.89-3.12,2.59-3.76,1.88-.7,3.25.06,4.2,1.69,3,5.25,6.59,9.9,12.59,12.1a9.15,9.15,0,0,1,3.42,2.88c2.71,3.1,5.55,5,10,3.24,2.89-1.12,5,.82,6.44,3.38,3.14,5.45,4.51,6.19,10.41,4.76,3.59-.86,4.54.65,4.59,3.75.09,5.25-.88,6.67-6.12,7.73-3,.61-3.83,2.22-3.24,5,1,4.91,5.58,8.43,10.51,9.6,4.42,1,8.61,2.76,10.32,8.18,1.4,4.44,2.68,8.86,3.64,13.4.67,3.21,2.36,4.4,5.22,1.84,1.52-1.37,3.16-2.46,5.36-2.17,3.33.46,4.76,2.89,2.75,5.52-1.73,2.25-1.13,3.06,1,3.95s3.44,2.61,4.69,4.37c2,2.77,4,2.56,6.15.27.34-.37.88-.66,1-1.1,1.75-6.39,6.79-11.08,8.89-17.3a20.57,20.57,0,0,1,5-8c2.5-2.47,1.67-3.72-.69-5.36a24.23,24.23,0,0,1-5.88-5.37c-.88-1.19-2-2.63-.74-4,1.45-1.59,3.15-.72,4.45.38a32.11,32.11,0,0,0,7.47,5,3.35,3.35,0,0,1,1.85,1.62c2.78,7.86,7.13,15.41,1.45,24.07-3.23,4.93-4.54,11-8.7,15.57a2.41,2.41,0,0,0,.91,4.13c2.25.92,4.46,3.74,7.17,1.06,1.82-1.8,2.91-5.24,6.1-4.12,3.38,1.18,2.49,4.74,2.49,7.45,0,4.25,2.35,5.86,6.15,6.4,2.43.34,5-1.17,7.29.55,1.29,1,.55-.57.91-.74,8.7-4.35,5.59-12.36,5.77-19.23.07-2.46-.26-5-.27-7.48,0-1.35.2-2.73,1.8-3.21s2.54.42,3.39,1.53,1.43,2.38,2.63,3c4.36,2.17,4,5.46,1.78,8.69-2.35,3.48-.89,5.09,2,7.16,4.86,3.48,9.85,6.1,16,5.8a7.72,7.72,0,0,1,2.44.52c7.84,2.18,8,2.14,12.22-4.84.92-1.52,2.2-2.9,3.87-2.83,4.2.19,6.89-3.16,10.56-4.11a3.19,3.19,0,0,0,2.27-2.49c.83-3.9,2.88-4.83,6.85-4.1,5.51,1,6.76-.68,5.4-6.1a9.07,9.07,0,0,1,0-4.93c.86-2.78,2-5.8,5.27-5.92,3.56-.13,5.18,2.59,5.66,5.87.7,4.8,3.82,8,7.12,11.09.24.23.53.69.73.64,5.77-1.6,10.31,4.13,16.08,2.67,2.06-.52,4.41-1.33,5.17,1.92.92,3.94-.6,8.17-3.24,9-.64.19.16,0-.5.08-2.42.35-5.47-.08-6.23,3s1.14,5.74,3.34,7.89c5.08,5,10.62,5.68,17.37,2.22,1.63-.84,2.83-.89,3.63,1,.58,1.34,1.5,1.72,2.78,1,1.11-.67,1.84-1.76,1.37-2.94-1.92-4.82-.32-8.58,2.82-12.34,1.57-1.88,1.06-4.56-.74-6.44-2.44-2.55-4.16-5.62-6.37-8.31s-4.62-4.79-3.83-8.69c.27-1.35-1.06-2.36-1.9-3.39-3-3.66-3.77-8.18-4.43-12.57s2.4-7,6.71-5.94c2.24.55,4.33,1.16,5.68-1.31s.29-4.52-1.81-6c-2.58-1.87-1.88-4.3-1.46-6.8,1-5.74-.85-9.59-5.2-11.28-7.95.92-14.5-2.1-20.65-6.85-4.48-3.45-8.42-8.17-15.09-7.61-1.59.14-3-1.48-4-2.78-3-3.77-6.9-6.18-11.07-8.31-.89-.46-1.72-1.24-2.7-1.25-9-.08-15.89-5.74-23.82-8.58-8.19-2.91-16.89-5.1-25.65-1.55-2.3.94-4.67,1.29-6.78.23-5.51-2.76-11.65-3.77-17.14-6.52-1.84-.92-3.71-1.78-5.69-.86-3.52,1.65-6.76,1.05-10-.68a12.52,12.52,0,0,0-7.76-1.18c-3.93.54-7.2-.51-9.66-3.81-2.23-3-5.59-4-9-4.93-6.1-1.59-12.22-3.12-18.24-5.05-7.35-2.35-14.7-1.65-22,.53a34.25,34.25,0,0,1-4.33,1.19c-6.14,1.26-6.72.85-7.19-5.27-.07-.87-.07-1.93-.81-2.23-5.8-2.37-9.86-9-17.33-7.18A20.75,20.75,0,0,1,104,349.6c-2.75-1.35-4.83-.88-6.91,1.68-2.92,3.58-5.48,3.36-8.65-.18a18.09,18.09,0,0,1-3.16-3.84c-2.73-5.73-7.68-7.51-13.41-7.75-4.43-.19-8.43-3.6-13.1-1.67-3.47.82-6.8-.59-10.21-.61s-6.09-.68-8.2-3.66c-2.44-3.43-6-1.79-8.58-.52-3.84,1.88-7,1.55-10.16-.92-1.85-1.42-4-1.36-6.19-1.34-1.58,0-3.21-.49-3.3-2.33s1.56-2.31,3.09-2.55c.82-.13,2,.16,2.43-.34,5.85-6,13-2.93,19.66-2.91,1.56,0,3.59.59,4.1-1.72A4.84,4.84,0,0,0,39.62,316a14.06,14.06,0,0,0-6.83-2.84c-3.45-.57-6.79-1.61-10.25-2.14s-5.1-3-4.15-6.1,0-5.46-.47-8.15c4.08-2,8.91-2,12.5-5.45,1.45-1.38,3.75-.44,5.57.7,3.52,2.2,7.61,3.32,11,5.81a5.48,5.48,0,0,0,2.32.89c3,.45,6.41,2.27,8.82-.5,1.52-1.76-3.36-9.91-6.08-10.84-.78-.27-1.62-.36-2.42-.6a3.33,3.33,0,0,1-2.73-3.14c-.07-1.57,1.14-2.27,2.39-2.86a41.78,41.78,0,0,1,9-2.94,11.14,11.14,0,0,0,5.94-3.42c.89-1,1.4-1.85.6-3.06-2.63-4,.25-4.45,3.12-4.84,4.94-.66,10.06-1,14.74-2.28,6-1.67,11.36-4.54,17.11.39.86.73,2.92.33,4.38-.08,2.4-.69,3.36-2.08,1.92-4.45-1.12-1.85-2.68-3.39-3.89-5.17-1.61-2.36-3.24-4.8-.93-7.68,11.1-7.37,22.86-4.95,34.62-2.33,2,.44,2.95,2,3.48,3.88a19.86,19.86,0,0,0,2.52,6.06,30.28,30.28,0,0,0-5.59-14.56c-3.37-4.48-1.78-7.48,4-7.69,10.45-.39,20.91-.25,31.36-.07,3.63.83,7.27.15,10.91.12,6.49-.06,8.26,3,5.33,8.72-.3.59-.92,1.2-.84,1.78.86,7-3.11,13.1-3.92,19.77.19,3.66,2,4.6,5.63,4.3a19.49,19.49,0,0,1,17.74,7.88c1,1.3,2,3.07,3.95,2.11,1.54-.77,1.19-2.59,1-4.07-.74-5.6-4.86-9.62-7-14.58-.93-2.13-4.16-1.51-6.49-1.28-3,.31-5.78,1.63-8.84,1.06-3.3-2-3.71-4.68-1.09-7.4a8.81,8.81,0,0,0,2.75-7.64c-.19-1.54,0-3.07,1.59-3.86,1.79-.86,3.31-.12,4.48,1.18a21.6,21.6,0,0,0,14.92,7.08c.49,0,1.13,0,1.44.31,4,4,8.83,5.61,14.38,4.33-1-3.16-4-5.93-5.49-9.57-.93-2.28-1.66-4.42.32-6.46,1.75-1.78.44-3.45-.19-5-1-2.43-2.77-4.68-.3-7.3,2.31-2.45,4.94-2.37,7.79-1.36a1.65,1.65,0,0,0,1.26-.18c.1-2-1-3.13-2.76-3.93s-2.34-2.23-1.16-4c4.71-2.24,10.19-1.08,14.89-3.37,1-.27,2.33-.43,2.82.36,3.09,4.9,7.42,8.73,8.64,15.14,2.21,11.56,3.16,23.75,11,33.54,1,1.31,1,1.38,4.38,2.92-2.2-8.52-1-17.08-3.1-25.32-.48-1.88-.64-3.76.89-5.61a6.14,6.14,0,0,0-2.27-9.27c-1.66-.69-3.07-1.17-3-3.32.11-2.38,2.23-2,3.63-2.69-.3-1.69-1.87-1.75-2.93-2.41s-2.5-1.31-2.2-2.94a2.62,2.62,0,0,1,2.62-2c5.92-.3,7.76-4,8.05-9.21,1.22-1.73,3-1.76,4.79-1.52,2,.56,2.28,1.66,1,3.24-2.32,2.82-1.53,4.85,1.62,6.21,1.68.73,2.09,3,5,3.49a13.61,13.61,0,0,1-3.46-10c.14-2.45.78-3.93,3.18-4.12,2.76-.22,5.3-1.29,8.29-1,4.37.41,3.71-3.48,3.85-6.34,3.9-3.29,7.88-.7,11.64.18,2.08.49,1.06,2.82.21,4.22-1.5,2.45-1.61,4.57.69,6.61,1.9,1.7,1.28,3.47,0,5.27-1.6,2.18-1.69,4.34-.49,6.94,1.65,3.55,1,7.82,3.12,11.32.38,3.29.71,6.59-1.65,9.4a4.74,4.74,0,0,1-3.38.22c-5-.9-7.45.8-7,5.79.39,4.65-1.37,6.5-5.69,6.65a2.87,2.87,0,0,0-1.86.65c-3.28,3-6,1.9-8.4-1.17-.84-1.06-1.59-2.33-3.2-1.36s-1,2.28-.44,3.5c1.86,4.07.09,9.15,3.79,12.68.27-2.74,2-4,4.81-4a17.42,17.42,0,0,1,3,.33c2.29.4,5.5-.57,6,3s-2.54,3.27-4.69,3.86a3.78,3.78,0,0,0-2.85,2.58c-1.15,5-4.3,9.82-2.45,15.33,1,3-.57,5.48-1.71,8-2.42,4.22-2.68,9.27-5.18,13.45-1,1.66-1.73,3.26.59,4.51a5.2,5.2,0,0,1,1.51,1.25C285.61,315,285.6,315,291.7,311c2-1.35,3.93-3,6.49-3.31,3.72-.29,6.73,1.64,9.67,3.39,3.78,2.25,3.88,5,.63,8-1.32,1.21-3,2.08-4.1,3.56,5.58,3.46,6.9,3,8.31-3,.73-3.07,2.21-5.14,5.41-5.65s4.65,1.74,5.57,4c1.94,4.76,5.71,8.27,8.18,12.65-.24,2-1.66,3.17-3,4.42-2.23,2.08-1.4,3.49,1.07,4.28,7.15,2.29,14.6,2.87,22,3.58,1.81.17,4.09-2,5.35.48,1,2-1.19,3.56-2.08,5.5C362.45,349,370.1,347.6,375.1,354.86Z"/><path class="cls-2" d="M358.1,422.86c.59-.84,1.54-1.06,2-.24,1.71,2.79,4.34,5.35,4.16,8.83-.24,4.5-2.15,8.95,3.05,12.4,1.79,1.19,1,4.28-.92,6.2-1.76,1.73-3.54,2.51-5.72.88-1.47-1.1-3.11-1.65-4.54-.32a4.85,4.85,0,0,0-1.56,5c1.63,4.59,1.43,10,6,13.33.51.37,1.23,1.15,1.13,1.57-1.91,8,5.54,11,8.86,16.09,2.81,4.3,3.37,7-.35,10.87-2.33,2.4-2.91,5.21-1.22,8.21,1.42,2.5,1.18,4.2-1.62,5.61-4.14,2.09-4.8,1.82-5.16-4-3.73,8-10.2,2.41-15.19,4.23-2,.71-10-10.24-9.58-12.69.56-3,2.32-5,5.84-5s6.7-5.28,5.15-8.54c-.78-1.66-2.1-.65-3-.31-3.54,1.32-6.75,1.51-9.59-1.58a3.89,3.89,0,0,0-2.67-1.14c-1.95.1-3.93,3.22-5.75.75-2.83-3.85-7.65-6.52-8.19-11.76-.35-3.46-.8-6.6-4.93-6.61-2.6,0-5.21,6.81-3.73,9.8,1.08,2.17,2.62,4.45.65,6.34a7.15,7.15,0,0,1-7.4,1.32c-3.87-1.65-5,0-5.47,3.3-.35,2.26-1.65,3.07-4,3.63-3.74.89-6.58,4.33-11,3.86-1.5-.15-2.11,1.73-2.35,3.37-.57,3.83-4,6-6.76,5.36-8.31-1.86-17.66-.77-24.5-7.52a8.71,8.71,0,0,0-2.5-1.61c-3.09-1.4-3.88-2.85-1.5-6,1.93-2.59,5.49-6.44-1-8.5-.15-.05-.23-.25-.37-.33-1.93-1-1.55-5.67-4.45-4.11-2.33,1.26-.84,5.39-.33,7.3,1.46,5.38-1.8,10.95,1.23,16.1.65,1.1-.33,2.39-1.56,2.69-2.79.69-5.55,1.24-6.23,4.69-.05.25-.34.45-.51.67-3.36-3.54-7.84.28-11.64-1.86-2.51-1.41-4-2.76-3.81-5.65a27.25,27.25,0,0,0,0-3.5c-.11-1.73.66-4.16-1.78-4.58-2-.35-3.43,1.64-3.89,3.27-1.14,4.05-3.34,3.37-6,1.89a15.15,15.15,0,0,0-3.16-1.48c-4.25-1.18-4-4.16-1.72-6.38,5.77-5.74,7.46-13.48,10.78-20.39a9.78,9.78,0,0,0-1.5-11.21c-.22-.25-.68-.53-.64-.73,1.43-8.27-7.6-7.64-10.46-12.28-.58-.94-1.91-1.76-3-.58-.86,1,.3,1.81.89,2.51a38.84,38.84,0,0,0,7.43,6.52c1.88,1.33,3.54,2.27.42,5.07s-7.17,6-5.59,11.64c.5,1.78-1.35,2.31-2.84,2.82-2.61.9-3.81,2.51-3.71,5.62.14,4.65-3.44,7.35-6.79,9.79-1.64,1.2-2.92-.1-4.1-1.55-2.14-2.63-3.8-5.7-7.88-6.32-2.25-.33-1.78-2.36-.23-3.74,1.08-1,3.79-1.35,2-3.48-1.44-1.77-3.61-2.06-5.81-.48-1.74,1.26-2.52,4.46-5.5,3.38-3.52-1.28-3.74-5.11-3.6-7.62.26-4.86-2.86-8.38-3.87-12.69-.66-2.86-6-5.88-8.12-5.08-6.73,2.51-6.57-4.58-10.15-6.17-1.19-.53-1.75-3.17-2-4.93-.51-3.28,0-6,4.45-5.95,3.53,0,6.54-5.12,5.26-8.43-.7-1.82-1.71-.91-2.78-.58-6.6,2-9.14.87-12.13-5.48-1.41-3-3.41-3.85-6.39-2.29-2.68,1.39-5,1.08-7.2-1.2-3.08-3.19-6.24-5.91-10.72-7.67-3.24-1.27-5.36-5.76-7.56-9.08-.88-1.33-.63-3.48-3.11-2.67-2.05.66-3.12,1.6-1.46,3.94,1.07,1.5.33,3.18-1,4.45a3.26,3.26,0,0,1-3.69.79c-2.22-1.07-3.85-2.72-1.13-4.81,2.39-1.85,3.23-3.39,1.54-6.38-1-1.75.85-3.69,2-5.35s2.5-3.67.83-5.9-4.2-1.71-6-1a34,34,0,0,0-13.91,9.31c-2.63,3.1,0,6.43,2,8.87,2.56,3.13,5.92,5.36-1.22,7-2.16.48-3.14,4.44-.53,6,3.89,2.3,4.57,5.83,3,8.77-1.26,2.42-4.52,4.83-8.2,2.13-.76-.56-2.79,0-2.62.32,2.23,4.63-7.78,1.81-4.19,7a48.64,48.64,0,0,1,2.85,4.06c2,3.53,2.5,7.8,5.78,10.66.94.83.77,2.06.13,3.23-.8,1.44-1.81,1-3,.66-1.57-.46-3.27-.2-4.83-1-3.87-2-4.24-4.19-1.11-7.3,1-1,3.21-1.71,1.88-3.34-1-1.24-3.11-.69-4.72-.15a1.38,1.38,0,0,0-.8.57c-2.62,6.23-9.38,5.84-12.85,4.47-6.14-2.44-12.68.29-18.44-3.16a14,14,0,0,0-10.53-2c-3.23.8-4.63,2.6-2.21,5.71,1.08,1.39,2.38,2.33,1.79,4.72a5.48,5.48,0,0,0,6,6.45c5-.79,5.7,3.44,7.71,5.83,1.76,2.09-1.07,3.67-2,5.48-2.18,4.34-6.63,5.94-10.07,8.7-2.87,2.29-6.6.26-8.17-3.31-1.92-4.37-5.28-7.76-8.91-10.84v-22a5.5,5.5,0,0,1,3.11-1.34c3.31-.73,4.92-3,4.26-6.14-.82-3.89-.21-7.15,2.48-10.06a4.24,4.24,0,0,0,1-2.24c.2-1.19.22-2.49-1.11-2.93s-1.58.87-2,1.71c-1.63,3.15-3.68,5.48-7.71,4v-42c1.64-1.55,3.72-1.34,5.68-1.27a8,8,0,0,0,8.08-4.75c1-2,2.63-3.4,4.1-5,2.83-3.05,3-6.18.24-9.32-2.12-2.38-2.74-4.66-.67-7.08,2.43-2.82,4.56-6.42,9.39-5,7.92,2.39,10,4.93,10.49,13.11.06,1,.13,2,.24,3-4.28,5.78-4,13.88-9.72,18.94-1.81.84-4,.41-6.13,2.12,4.48,1.13,5.86,5.29,8.5,8.09,6.25,6.63,13.38,5.34,20.75,4.07,1.94-.34,3.84-1.46,5.82-1.14,6,1,9.85-2.07,12.9-6.59a18.53,18.53,0,0,1,10.1-7.68c2.24-.71,4-2.45,6.1-3.34,11.15-4.7,16-4.75,20.23,6.47,2.26-1.08,3.09-3.42,4.62-5,1.31-1.37,2.6-2.82,4.68-1.68s2.44,2.87,1.79,5.12c-2.44,8.4-1.46,10,6.47,13.44,9.73,4.19,20,4.06,30.21,4.21,10.6,2,21.52,1.84,32,4.23,7.5,1.7,7.8,3,4.65,9.8a9.61,9.61,0,0,0-1.14,3.81c-.12,5.16-.2,10.3-1.35,15.39-.54,2.35.25,3.67,2.92,2.37,2.41-1.18,4.55-.51,6.51,1s4.13,2.11,6.27,3.05c2.47,1.08,4.72,2.43,5.1,5.59.33,2.9,3.12,4.14,4.65,6.25a1.3,1.3,0,0,0,2.16-.07c1.9-2.67,5.43-2.44,7.68-4.47.7-.63,1.76-1.26,2.68-.41s.75,2.19.16,3.24c-1.8,3.2-4.34,5.9-6.21,9.07-1.18,2-2.53,3.91-2.32,6.44.17,2-1,3.45-2.18,4.89a28.54,28.54,0,0,0-5,8.57c-1.29,3.75-.18,4.92,3.79,4.13A4.58,4.58,0,0,0,217,479.3c3.78-4.43,8.57-7.79,12.56-12,1.27-1.33,2.4-3,2-4.94-.84-3.94.93-5.94,4.45-7.07,1.77-.57,3.1-1.92,4.57-3s3.08-1.69,4.65-.72c3.24,2,5.11.85,6.8-2.17,2-3.56,4.79-5.58,9-3.14a5.91,5.91,0,0,0,3.44.34c1.51-.1,2.87.5,3.07,2,.56,4.35,2.14,8.57-.36,13.1-2.33,4.23-5.79,8.24-5.29,14.44,4.62-4.14,10.92-4.18,14.27-10.12,2.25-4,7.17-6.3,11.61-8.29,1.57-.71,3-1.43,3.75-3.06,6.25-12.78,21.13-15.63,33-12.8,3.69.89,6.78,1.33,9.62-1.63a3.36,3.36,0,0,1,2.19-1.12c6.28,0,10.88-4.15,16.29-6.31,1.3-.51,1.81-.94,1.88-2.37C354.68,427.44,356.34,425.11,358.1,422.86Z"/><path class="cls-3" d="M.1,191.86v-29a36.74,36.74,0,0,0,3.57-6.49c1-2.74,3.31-3.81,6-1.79a124.77,124.77,0,0,1,13.73,12c.3-3.54,1.76-7,2.35-10.66.76-4.71,8.3-6.58,12.53-3.55,1.5-2.21.51-4.51.31-6.72s-.07-4.42,2.47-5.33,4.8.25,7,1.19a1.18,1.18,0,0,1,.6,1.28c-3.13,6.19,2.72,8,5.64,11.35-1.31-2.93-2.11-5.81-.83-9,.81-2,1.14-4.25,4-4.34,2.53-.07,3.95,1.32,4.93,3.47.14.32-.2,1.45.8.93.27-.14.31-.9.59-1.31,3.84,1.82,5,6,2.26,8.54-.72.67-1.61,1.16-2,2.12A1.29,1.29,0,0,0,64.1,156a1,1,0,0,0,1.66-.16c1.35-2.79,5-4.7,3.44-8.64-1-2.39.85-3.62,2-5.16A37.88,37.88,0,0,1,76,135.66c2.61-3.14,6-2.65,7.45,1,1,2.44,2.42,4.71,2.17,7.57-.15,1.78,1.18,3,2.46,4.14s2.41,1.94,2.33,3.65c-.13,2.81,1.31,3.54,3.78,3,3.92-.88,4.17.7,2,3.69,2.07-.07,3.71.35,5.34.37,4.11.06,5.72-1.5,5.53-5.63-.11-2.52.91-4.92.46-7.45-.18-1,.2-2.38,1.41-2.17,5.12.9,5.24-3.73,6-6.24,1.49-4.59,4.23-5.47,8.3-4.9,2.81,4.31,7.58,5,11.94,6.47,2.19.72,4.71,1,4.88,4.12,0,.76.54,1.1,1.24,1.33,7.35,2.36,13.25,7.87,21.19,9.2,3.83.64,6.75,4,10.27,7.29-.57-4,.56-5.87,4.22-4.87a13.31,13.31,0,0,1,6.58,5.6c.12,2.65,4.86,2.88,3.52,5.85-1,2.28-4.32,1.17-6.25,2.46-3.37,2.27-7.67,2.94-10.15,6.85-1.6,2.53-6.66,2.44-9.09.5-2-1.6-1.46-3.41,1.44-4.77,3.7-1.73,8.08-2.33,10.5-6.75-6.46,1.65-10.05-4.32-15.49-5.49-1.09-.23-2.08-1-3.29-.89-1.72.14-3.05.42-1.9,2.67s1.21,4.19-2.26,4.24c-2,0-3.07,1.84-4.46,3-1.79,1.45-3.64,1.74-5.39.14s.36-2.91.67-4.37c.66-3.14,4.92-2.93,5.44-6.09.17-1.56,1.23-2.93.91-5-1.09.48-1,1.91-1.95,2.19a4.61,4.61,0,0,1-1,.13c-1.64.16-3.32-3.34-4.56-.59-.92,2-4.38,3.91-1.35,7.15,1.57,1.68-2.44,8-5.44,9.53C126.77,176,119.15,176,112,178.06c-7.7,2.22-15.69,2.29-23.59,3-1.67.16-4.56-.25-4.17,2.22s1.39,5.51,4.77,5.52c2.66,0,5.39.38,8-.07,6.31-1.11,11.3,1.28,15.85,5.17,2,1.71,3.84,1.93,6.37.93a75.93,75.93,0,0,1,30-5.69,7.53,7.53,0,0,1,5,2.05c3.93,3.51,7.57,4.11,11.24.69,4.49-4.2,9.65-2.64,14.63-2.93a2.43,2.43,0,0,1,2.65,1.89c.74,3.59,3.23,3.19,5.8,2.7s5.2-1.17,7.89-.41a2.33,2.33,0,0,0,2.32-.53c5.49-5.09,11.24-3.59,17-.58s11.15,4.25,16.72-.09c1.11-.86,2.52-1.23,3.61,0s.3,2.55-.54,3.57c-2.51,3.07-5.83,5.53-6.95,9.6a3.08,3.08,0,0,1-3.37,1.21,9.5,9.5,0,0,0-9.71-2c-2.63.82-5.85,1.71-6.09-3-.11-2.08-1.69-1-2.67-.87-2.66.37-5,1.89-7.6,2.41a15.15,15.15,0,0,1-8.38-.46c-.77-.29-1.57-1-2.34-.79-6,1.23-10.63-.12-15-5.11-1.87-2.15-6.84.3-9.44,2.29-3.82,2.92-8.11,4.5-12.37,6.31a3,3,0,0,1-.92.38c-12.07.54-23.58,7.16-36.19,2.85-3.6-1.23-7.79-1.13-11.68-1.93-3.23-.66-5.74-1.72-6.45-5.23-.81-4.06,2.8-4.15,5.14-5.68-5-.51-9.83-1.2-14.7-1.55a36.66,36.66,0,0,1-5.41-.58c-3.12-.69-6.39-1.55-7.22,3.29-.28,1.62-2.06,2.1-3.61,2.15-2.33.07-4.7.56-7,.12-3.17-.62-5.26.47-7.38,2.83-3.44,3.84-5.41,3.64-9-.17-2.95-3.17-6.67-3.58-10.51-2.54-3.32.9-6.5,1.25-9.79.08a9.16,9.16,0,0,0-4.93-.2C13.4,200.53,6.53,196.85.1,191.86Z"/><path class="cls-4" d="M85.12,15.05a4.63,4.63,0,0,1,3.69,1.06c3.38,2.2,6.52,4.82,9.33-.79.55-1.1,2.55-1,3.63-.21,3.27,2.52,6.32,1.59,9.42-.23,4.34,1,3.31,4.08,2,6.43-1.66,2.92-1.9,5.88-1.93,9.57,1.79-2.47,3.66-3,5.37-.72,4.19,5.47,5.42,12.05,6.17,18.62a4.35,4.35,0,0,1-4.58,4.87c-2,0-3.11-1-2.28-3.23-2.65,1.13-3.08,4.76-6.08,5.52-1.86.28-3.44,2.08-5.62,1.34,4.36,2,7.82,5.77,12.86,6.67,1.26.16,2.38,2.85,3.85,0,.61-1.19,2.43-.78,3.75-.79,2,0,4,0,5.66-1.44a9.6,9.6,0,0,1,5-2.77,3.9,3.9,0,0,1,2.8.63c1.25,3.58,0,6.1-3.71,6.33s-4.62,4.21-8,4.79c2.39,1.14,5,1.5,7.19,2.87a3.35,3.35,0,0,0,4.14-.43c3.11-2.57,5-1.43,6.29,2,.3.65.4,2.11,1.06,1.71,1.38-.83,0-2.2,0-3.36a6.78,6.78,0,0,1,1.1-4.85c3.24-3,4.67-7.74,8.93-9.86,1.67,3.4.63,6.58-1,9.73,2.11-2.21,4.48-3.91,5.8-6.81,1.15-2.54,3.54-2.52,5.41-.11-.91,1.76-1.28,4.19-2.93,5.07-2.88,1.54-.26,2.37.05,3.49.05.67,0,1.73-.42,1.83-6.53,1.59-8,10.22-15.91,10.59,3.83,3.69,8.46,5.42,11.22,9.32a1.72,1.72,0,0,1-1.06,1.72c-1.94.76-3.83.1-5.74-.16a9.42,9.42,0,0,1-1.85-.71c-4.58-2.12-4.58-2.12-4.86,2.74-.17,2.94-6.32,7.38-9.53,6.8-.68,1.78,1.22,3.48.21,5.28-.23.4-1.07,1.17.35,1.19.49,0,1.11.4,1.44.18.52-.33,0-.8-.23-1.18-.77-1.41-1.24-3,.3-4,1.33-.91,2.92-.31,4.32.23,3.36,1.29,6.06,5.27,5.18,8.7-.79,3.07.08,5,2.11,7.09,2.33,2.35,2.3,4.68-.71,6.58a2.14,2.14,0,0,1-2.85-1.23c-.73-1.61-.69-3.68-2.6-4.57-1.57-.72-2-2.54-3.51-3.36-1.44.65-1.62,2.54-3.12,3.07l-.72.1-.71-.21a3.71,3.71,0,0,1-1.59-3.15c.54-2.3-1-3.66-2.3-5.16-2.27-2.6-2.51-5.3-.23-8.18-1.9-.47-4.56,2-5.84-1-1.17-2.74-5.77-4.36-2.91-8.48a4.35,4.35,0,0,1,1-.84c-.48,0-.46.5-.8.67-3.29.91-4-.92-4-3.63,0-.62,1.46-1.07.22-1.76-.21-.11-.64.14-.93.29-1.12.58-.66,1.51-.19,2.08,2.32,2.81,3.41,6.38,5.66,9.19a11.18,11.18,0,0,1,2.75,5.13,8,8,0,0,1-1.64,3,2.76,2.76,0,0,1-3.44,1.14,2.39,2.39,0,0,1-1.49-3.2c.91-2.78-.78-3.88-2.88-4.78-.75-2.49-4.32-3.89-2.8-7.25-3.55.75-3.14-3.49-5.95-5,1,3.58,2.92,6,3.36,8.9-.19,3.32-1.76,6.84,3.9,7.85,3.06.55,2.85,5.73-.06,8.88,1.88,1.07,3.93.47,5.84.54,3.72.13,4.15,2.86,4.66,5.42.38,1.92-1.38,2.35-2.61,2-3-.84-3.24,1.42-4.09,3.11-4.35.2-4.69-4.09-7-6.21a15.46,15.46,0,0,1-1.6-3.17c-1.42-3.42-5-5.9-4-10.43.4-1.86-2.18-2.61-3.25-4a4.69,4.69,0,0,1-.48-1.36,3.93,3.93,0,0,1,.59-2.74c1.78-.85,1.49-1.92.19-2.92-2.32-1.8-3.63-4.24-4.83-6.84a6.17,6.17,0,0,1,.58-6.58c1.27-1.86,3.45-3.65,1.24-6.09-2.45-2.71-3.85-6.92-8.64-6.59a15.73,15.73,0,0,1-3,.07,9.28,9.28,0,0,1-1.37-.29c-2.21-.36-4.63-3-6.33-1.46-1.88,1.76,1.19,3.57,1.88,5.44a3.48,3.48,0,0,1-.06,3.3c-2.93,1.46-3.91-.89-4.87-2.72-1.56-3-2.78-6-6.43-7.19-1.45-.45-1.86-1.93-1.38-3.34.58-1.67.32-2.92-1.29-3.72-1.86,1.78-1.31,4-1.11,6.1a19.63,19.63,0,0,1-4.95,15.55c-1.89,2.12-1.89,5.32-4,7.37-3.67.1-4.29-2.71-4.1-5.19.26-3.33-1.56-3.27-3.75-3.22-1.92-.09-1.22,1-.74,1.82,1,1.71,2.24,3.31,2.23,5.44-.22,3.24-4.56,3-5.06,6-.83,1.21-1.49,2.68-3.38,2.41-2.1-1.28-1.64-3.41-1.77-5.34-.06-1.32.68-3-1.41-3.5-1.81-.57-1.74-2.4-2.5-3.68a5.28,5.28,0,0,1-1.15-2.61c-.48,1.41.67,2,1.35,2.82-1.41,4.23-.8,8.91-1.73,12.86-1.07,4.55-2.53,9-2.63,13.74,0,.89-1.18,1.53-2.26,1.65-1.64-1.13-2.29-.26-2.59,1.3-.67,1.48,1.37,1.91,1.24,3.18a8.78,8.78,0,0,1,.07,3c-.24,1.79-1.06,3.19-3,3.44s-3.13-1-3.76-2.63c-.86-2.17-1.6-4.36-3.46-5.92-2.93-9-5.1-18.2-4.61-27.65-2,5.23.26,10.5,1.49,15.49,1.11,4.49-.29,6-3.93,7.27-2.16.74-4.85,1.39-2.81,4.72a13.35,13.35,0,0,1,1.18,6.7c0,1.77.9,1.27,1.84.8,1.66-.69,3.32-1.23,5.09-.43,1.75,1.23,2.08,3,1.69,4.92a4.71,4.71,0,0,1-2.24,2.94c-3.36,1.73-7.06,2.89-10,5.7.39,1.42,2.92,1.05,2.72,2.89s-1.87,1.59-3.07,1.95c-1.57.46-2.4,1.69-3.24,2.93-1,1.41-1.95,1.77-3,.12v-67c2.25-4.91,7.19-3.34,11-4.58.65.08,1.7.72,1.74.58,1.49-4.47,6-2.11,8.69-3.88,1.2-.8,2.21.07,2.68,1.26a23.52,23.52,0,0,1,1.41,4.67c.29,6.85,1.79,13.76-1.1,20.47A17.85,17.85,0,0,0,27.12,86c-.24-4.29,2.73-7.38,4.24-11,1-2.36,1.18-4.29,0-6.6C29.8,65.24,28.61,61.91,29,58.29,29.44,54,32,52,36.26,53.1c.93.23.82,0,1.19-.46,2.46-3.23,5.8-4,9.72-3.72A9.1,9.1,0,0,0,54.78,46c-3.94-1.26-4.77-3.71-4.35-7.32.33-2.84-1.25-5.67-1.32-8.62,4.09-2.05,9.38-1.59,12.66-5,5.44-5.61,12.11-5.62,19-5.46C84.22,20,83.61,16.54,85.12,15.05Z"/><path class="cls-5" d="M.1,191.86c5.33,2,10.33,4.87,15.89,6.3.31.08.69.52.86.43,5.49-2.66,11,.36,16.37-.16,3.55-.35,6.9-1.51,10.62-.68,2.09.46,3.67.6,4.45,3.05,1,3.2,4.33,3.91,5.6,1.34,3.6-7.22,9.9-3.94,15.08-4.69,2.4-.35,5.36,1.23,3.57-3.47-.61-1.6,5.71-3.51,8.49-2.55,5,1.76,10.33,1.38,15.54,1.77,2.29.17,4.56.5,6.84.74.78.09,1.33.54,1.2,1.26-.2,1.1-1.39,1.32-2.09,2-1.58,1.48-5.87-.88-5.25,3.56.55,3.89,3.68,3.68,6.69,4.4,8.56,2.07,17.24,2.87,26,3.52.17,0,.41.14.48.07,5.84-5.82,13.83-2.18,20.48-4.67,7.34-2.74,13.5-7.7,20.86-10.37,2.06-.75,2.51,0,3.34,1.47,3.33,6,4.68,6.55,11.64,4.89.32-.08.75-.44.91-.34,8.26,5.47,15.74-.8,23.38-1.69a1.26,1.26,0,0,1,.4,1.9c-.63,1-1.72,1.93-.88,3.11.95,1.36,2.34.65,3.63.34,3.45-.85,7-2.85,10.13.74a7.39,7.39,0,0,1,.81,1.75c-1.68,2-4.08,2-6.36,2.38-5.94,2.09-12.33,2.61-18.11,5.24a3.17,3.17,0,0,1-2.42-.05c-1.34-.68-1.66-1.9-1.71-3.5-7.06,3.89-13.94,8.59-21.41,10.5-7.22,1.85-13.63,5-20.31,7.8a186.45,186.45,0,0,1-41.37,10.09c-7.77,1-15,4.23-22.59,5.85-2.09.44-4.2.93-6.26,1.56-3,.87-6,1.58-8.94,2.49s-5.78,1.89-8.88,1.67c-2.55-.18-4.78.85-7.36,1.53,1.66,2.09,4.72.42,5.82,3.27-7,4.44-14.36,7.61-22.92,6.66-3.72-.41-5.83-2.35-4.79-6.47.6-2.39-.47-2.76-2.36-1.77-4.86,2.54-9.7,4.41-15,1-1-.66-2.23.32-3.36.51-5.52.9-11,2.48-16.66,1.23v-4c11.17-6.62,22.63-12.92,35.44-15.37,6.39-1.22,12.92-3,19.56-2.67,3.38.19,6-1.91,9.1-2.37,6.14-.88,6.85-.59,8.89,6.37.67-10.42,8.28-12.28,15.14-14.56,9.16-3,17.66-7.47,26.84-11.39a4.6,4.6,0,0,0-4.75-1.54c-6.62,1.08-12-1.7-17.07-5.33-.54-.39-1.08-1.13-1.64-1.07-5.63.65-10.79-2.88-16.46-1.73-1.34.27-2.74.44-3.53,1.62-2.35,3.5-5.71,3.6-9.33,3-1.48-.27-3.06-.61-4.44,0-6.08,2.66-11-.34-15.87-3.21-1.28-.74-2.49-2.29-4-1.47-4.15,2.28-8.55,1.22-12.72.86-7-.59-13.95-.66-20.93-.95-1.47-.06-3,0-4.24-1.14Z"/><path class="cls-6" d="M.1,200.86c7.26.11,14.51.1,21.78.51,5.07.29,10.67,3,15.63-1.05,1.07-.87,3-.84,3.62.4,1.9,3.89,6.14,4.78,9.13,5.24,5.94.92,12.13-1.11,18.27-.48,1.77-4.87,6-4.58,10-5,2.06-.23,3.89-1.18,4.88,1.56.13.35,1,.81,1.19.69,7.51-3.88,11.2,4.5,17.28,5.48,2.33.37,4.37,1.87,7,.8,1-.41,2.31-.12,3.47-.1,2.08,0,4.68.46,5,2.41.49,2.62-2.63,2.2-4.23,3-11,5.77-23.07,8.86-34.12,14.48-3,1.5-4.37,3.25-4,6.55.25,2.06,0,4.66-2.45,4.69-2.14,0-1.35-2.57-1.51-4.11-.42-4.26-2.7-5.07-9.08-2.85-7.51,2.62-15.38,2.78-23.1,4a70,70,0,0,0-22.28,7.48C11.38,247.41,6.28,251,.1,251.86Z"/><path class="cls-7" d="M.1,255.86C6.6,254,13.7,255.3,20,252.08a1.42,1.42,0,0,1,1.35.21c4.08,5.7,8.52,1.66,12.32,0,1.92-.85,3.74-1.95,5.38-1,2.32,1.28,0,2.76-.53,4.15-.69,2-.39,3.54,1.82,4.42,4.59,1.81,9.26-1.71,13.83.3,1.6-4.85,7.15-3.09,10.27-6.24-2,0-3.59,0-5.22,0-1.14,0-2-.48-1.63-1.84.21-.88-.06-2.29,1.45-2.07,2.51.37,4.54-2.12,7.11-1.07,1.19,1.37,4.55,1.16,3,4.57-.57,1.28,1,.53,1.54.66a20.68,20.68,0,0,0,14.86-1.43c3.69-1.82,7.59-3.23,11.45-4.7,1.35-.51,2.77-1.29,4.17-.06-.92,5.37,3.81,7.81,6.08,11.48s2.15,5.47-2.1,6.27c-3.53.66-7.88,2.36-10.49-2.42-.83-1.53-2.89-2-3.89-1-4.75,5.05-11.25,3.09-16.86,4.56-3,.77-6.09,1-9.12,1.48,0,.52-.08.94.08,1.11,3.53,3.81,2.16,7.21-3.6,9-3.75,1.14-7.47,2.36-11.22,3.48-1.11.33-2.5.31-2.22,2a2.28,2.28,0,0,0,2.47,2c5.26.11,8,2.68,7.83,8.07a2.92,2.92,0,0,0,.16,1c2.13,6.22,2.13,6.3-4.77,5.93-3.3-.18-6.51-.69-9.19-3.1-3.07-2.75-7.64-2.77-10.8-5.66-1-.87-3.12-.35-4,1-2.83,4.3-7.26,3.46-11.34,3.79a16.43,16.43,0,0,1-2.72,2.87c-1.59,1.48-5,2.35-3.71,5.09s3.45,5.37,7.11,5.37A5.64,5.64,0,0,1,24,312.59c2,2.91,1.51,4.53-1.91,5.32a18,18,0,0,1-3.95.24c-4.95.05-9.94-.38-14.75,1.33a3,3,0,0,1-3.24-.62Z"/><path class="cls-8" d="M375.1,131.86v32c-2,3.37-5.79,1.85-8.59,3.06-11.59,2.48-21.61,8.91-32.57,13-3.25,1.21-6.35,2.79-9.61,4-1.94.39-3.83,1-5.79,1.33-3.44.58-7.22,3.05-9.83,2.63-4.08-.66-7.4,1.08-11.07,1a4.25,4.25,0,0,0-4.07,2.37,3.66,3.66,0,0,1-4.2.61c-3-1.57-6-1.14-9.19-.77-5.84.67-11.6,2.71-17.61,1.66a100.42,100.42,0,0,0-13.7-7.82c-4.57-2.33-7.72-6-11.46-9.21-1.63-1.38-2.16-2.9-.27-4.54a7.87,7.87,0,0,1,3.14-1.4c4.47-1,9.06-1.53,12.49-5.17,1-1.06,2.74-1,4.23-1.08,5.31-1.34,10.58.16,15.86.27a5.21,5.21,0,0,1,4.72,3.22c1,2.29,2.95,3.09,5.19,3.26a158.86,158.86,0,0,0,19.78.05c-3.36-2.38-6.26-4.14-9.92-4.25-1.52-.05-3.08-.57-3.53-2.27s1-2.32,2-3.11c1.25-1,1.69-2.44,2.53-3.67a2.43,2.43,0,0,1,2-.76c8.71,3.22,17.64,2,26.53,1.24,2.34-.19,3-2.39,4.23-3.91,3.88-4.86,5.22-5.24,10.84-2.44,3.23,1.6,6.2.77,9.06-.65,3.09-1.54,5.93-2.38,8.19,1.17,2.74-2.89,3-6.69,5.77-9.13,2.09-1.83-1.73-1.76-1.59-3.2a2.5,2.5,0,0,1,.08-1.38c3.16-2.58,7.53-1.94,10.86-4.08C371.36,133,372.5,130.39,375.1,131.86Z"/><path class="cls-9" d="M375.1,131.86c-2.33-.09-3.17,2.28-5,3-.13.09-.3.29-.4.26-4.92-1.27-9.58-3.34-14.88-3.38-2,0-2.82-2.52-1.58-4.74a14.56,14.56,0,0,1,2.83-3.69c-3.76.06-4,9.11-8.83,2.46-.39-.26-.75-.55-1.11-.83-2.68-3.27-5.69-5.86-10-4.93,2,.37,3.95,1,2.82,4.07-1,2.65-2.52,4.42-5.61,3.06-2.29-1-4.17-2.11-6.63.27-1.79,1.71-2.69-.44-3.28-2.09-.75-2,1.19-3.74.73-5.82a48.21,48.21,0,0,0-6.86,10.55c-2.64-1.5-6.76.78-8.43-3.34-.19-.47.22-.34-.35-.19-8.18,2-8.12-5.41-10.88-9.51-2.3-3.41-5.52-6.19-7-10.14a.74.74,0,0,0-.83-.42c-5.06,2.08-7-1.93-9.48-4.85-1-1.18-2.45-.8-3.69-1.16-1.91-.55-4-.83-4.05-3.54a8.88,8.88,0,0,1,.43-2.75,15.71,15.71,0,0,1,1.78-4.47,12.07,12.07,0,0,1,3.5-2.17,5.12,5.12,0,0,1,3.21,1.19c3.83,2.61,3.78,4.49-.17,7.78,11.4-1.84,22.78-3.09,34.32.05-.07-2-3.12-2.46-2.89-4.6.29-2.67,3.4-1.66,4.52-3.28-2.39-1.68-4.7-1.24-7,.18-1.84,1-4,1.76-5.4-.15-1.47-2.08-4.06-4.49-3.59-6.68.66-3.1,4.19-3.43,7.05-2.83A44,44,0,0,1,315,80.69c4.26,1.66,9.45,1.33,12.24,6.45,1.48,2.72,3.71,1.53,4.65-2.43a2.35,2.35,0,0,1,2-.35c4.11,1.33,7.84,2.88,6.95,8.45a2.74,2.74,0,0,0,2.44,3.28c4.37.43,3.73,3.2,3.26,6.18-.3,1.88-1.91,4.56-.11,5.56,2.13,1.18,3.65-1.58,5.13-3,2.37-2.27,4.67-1.87,7.72-1.24,5.93,1.23,10.13,5.72,15.76,7.28v3c-1,.64-2.54.52-3,1.56-1.75,3.82-4.84,4-7.46,3.47,3.54.22,8.06.24,10.48,5Z"/><path class="cls-10" d="M335.28,21.76c6.22-.1,8.65,5.38,12.61,8.59a8.2,8.2,0,0,1,1.35,2c2.66-.53,2.8-4.58,5.44-4.19,2.4.35,4,3,6.13,4a61,61,0,0,1,14.29,9.65v19c-1.46,1.29-3,3.2-5.07,1.72-4.4-3.22-8.19-2-12,1a23.86,23.86,0,0,0-8.59,1.74c-3.47,1.52-6.74.08-9.76-1.86s-6.13-3.14-9.63-1.13c-3.19-1.53-4.06-.16-3.45,2.86s2.34,5.79,1.27,9c-.62,1.52-1.85,2.86-3.33,2.52-4.88-1.12-10-2.06-14.05-5.12a6.51,6.51,0,0,1-2.25-8c2.08-5.17-.3-8.89-3.92-12.25-3.87-3.6-4.52-7.37-2.13-12,.38-.73.9-1.39,1.28-2.13,4.05-7.82,4.05-7.82,11.26-2.42a7.49,7.49,0,0,1,2.49,3.59c.43,1.85,2.11,3,2.91,4.68-.86-3.2,2.12-4.66,3.12-7s3.11-4.33.58-7.12c-1.05-1.16-.74-2.86,1.22-3.5,5.79,2.6,9.34,7.76,13.69,12,.92.9,1.2,2.32,2.36,3-2.43-5.69-5.64-11.05-7.64-17C333.67,22.37,333.83,21.34,335.28,21.76Z"/><path class="cls-11" d="M331.11,330.86c-4.73-3.77-6.69-9.42-9.76-14.32-1.49-2.38-5.5-1.76-6.88.91a6.74,6.74,0,0,0-.35,1.44c-1.94,8.15-1.94,8.14-10.53,6-.76-.19-1.92.06-2-1a3,3,0,0,1,1.1-2,41.14,41.14,0,0,1,5.18-3.85c3-1.78,2.72-3.88.21-5.35-3.06-1.79-6.13-4-10-3.77-.84-2.35.6-4,2.12-5.12,3.83-2.85,7.68-5.82,12.42-7.05,1.83-.48,3.7-.93,4.61-2.63a22.37,22.37,0,0,1,11.19-10.13c1.19-.53,2-1.75,3-2.6,8.28-4.06,14.69-10.51,21.28-16.72,6-2.75,12.27-5.05,17.78-8.86a3.46,3.46,0,0,1,4.6.1v14a31.77,31.77,0,0,1-11.79,10.38,8.9,8.9,0,0,0-3.81,3.8,26.58,26.58,0,0,1-10.22,10.57c-1.26.7-2.08,1.51.19,1.95,2.49.38,5.94-.74,6.69,2.74.64,3-2,4.66-4.25,6.13-2.62,1.74-5.26,3.74-8.51,3.82-3.59.08-5.38,1.67-6.3,5-1,3.62-3.25,6-6.67,6.14a11.26,11.26,0,0,0,5.43-.9c1.27-.54,3-.74,3.39.82.62,2.85-.7,5.57-2.07,7.95C336,330.4,334.1,332.32,331.11,330.86Z"/><path class="cls-12" d="M331.11,330.86c6.19-.33,5.54-6.08,7.51-9.69.51-.92-1.28-1.51-1.53-1.08-2,3.52-5.79.08-8.23,2.18-1.14,1-2.26-.13-2.53-1.38-.35-1.59.8-2.21,2.09-1.94,5.32,1.14,6.9-2,7.76-6.34.52-2.65,2.32-5,5.06-4.58,5,.71,8-2.67,11.64-4.68,1.48-.82,2.89-2.34,2.49-4-.5-2.14-2.71-1.31-4.27-1.46-.66-.06-1.33,0-2,0-.26-2.11,1.72-2,2.79-2.82,3.32-2.48,7-4.25,10.26-7.1a27.51,27.51,0,0,1,12.94-6.08v4c-3.41,4.27-6.85,8.48-11.23,11.87-3.45,2.66-3.08,7.13-4.35,10.82a1.37,1.37,0,0,0,1.22,1.81,8.57,8.57,0,0,0,7-1.83c2.14-1.87.56-3.15-.66-4.51-.47-.52-.82-1.61-.51-1.79,4.22-2.37,3.31-8.63,8.07-10.52.12,0,.31.09.47.15v63c-.49-.09-1.17,0-1.44-.29-5-5.49-11.59-4.11-17.81-4.42a12.55,12.55,0,0,1-2.29-.63l3.55-6.11c-10.05,2-19.11-1-28.29-2.82a4.13,4.13,0,0,1-3.37-3.3c-.34-1.69,1.32-2,2.28-2.85A45.92,45.92,0,0,0,331.11,330.86Z"/><path class="cls-13" d="M.1,318.86c6.71-2.26,13.64-2.16,20.59-2,1.28,0,3,.41,3.56-1.07C25,314,22.3,313.9,22,312.33s-1.43-1.51-2.71-1c-5.75,2.33-6.71-3.83-9.5-6.09-2.24-1.8,1.43-4.06,3.37-5.34,1.6-1.06,2.64-3.15,5-3,2.18,2.15,3.92,3.95,1.54,7.5-1.62,2.43-.34,4.86,3.29,5.55,5.13,1,10.28,1.7,15.28,3.58a6.84,6.84,0,0,1,4.65,5.71c.6,3.07.78,6-4.41,4.87-3.74-.81-7.79.39-11.57-1.65-2-1.09-3.61,1.24-5.06,2.36-2,1.53-3.42,3.53-6.4,2.18-1-.46-2.68,0-2.65,1.41s1.74,1.84,2.71,1.34c3.42-1.75,5.67.39,8,2.12,2,1.5,3.82,2.1,6.3.66,5.7-3.31,8.28-2.82,12.7,2.07,1.64,1.82,3.68,1.05,5.58,1.3.84,4.26-2.26,4.65-5,4.62-4.08,0-6.06-2.42-5.81-6.18-9.15,6-9.15,6-14.93,7,4.43-.76,8.79-.24,13.17.25,2.94.33,4.15,1.63,5,4.51,1.22,4.34,1.44,8.34-.6,12.45-.64,1.29-1.2,2.35-2.8,2.36-.89-.69-.91-1.68-1-2.69-.58-8.87-1.86-10.64-10.15-12.82-4.39-1.15-5.71,3.21-8,5.44s-.13,3.7,1.68,5.13c2.33,1.83,2.68,7.84.2,10a30.43,30.43,0,0,0-6.06,7.61,6.59,6.59,0,0,1-6.71,3.36,64.4,64.4,0,0,0-6.95-.05Z"/><path class="cls-14" d="M366.09,165.88c2.72-1.94,6.28-.14,9-2v24c-.91,1.94-3.32,1.21-4.44,2.7,1.42-.21,3-1.13,4.44.3v3c-2.23,3.69-6.43,4.08-9.87,5.21-2.74.9-5.36-1.82-5.28-4.64.1-3.57-1.93-2-3.95-2.18,1.71,1.48,5,2.18,2.34,5-1.24.9-2.83.88-4.65,1.71a23.84,23.84,0,0,1,4.82,3.53,2.63,2.63,0,0,1,.79,2.72c-1.45,3.43-2.74,6.69.51,10,.82.84.4,2.62-.68,3.62a2.37,2.37,0,0,1-3.21,0c-3.34-2.71-4.34,0-5.19,2.32-2.58,6.94-2.51,7-9.93,7.29-.43,1.66,2.25,2,1.69,3.62-2.25,3.78-6.11,4.78-10.53,2.72s-6.41-6.58-4.2-11.71c1.36-3.15-1.65-5.82-.14-8.85.35-.72-1.18-.82-2-.74-2.69.29-3.67-1.3-3.67-3.57,0-3.63.41-7.24-3.32-9.66-.84-.55-1-2.07-1.19-3.22,1.38-3.59.83-8.53,6.46-9.19-.82-3.08-5.44-.27-5.75-3.89l6-1a83.81,83.81,0,0,0,10.76-3.13c1.05-.44,2.33-1,3.11.29.59,1-.32,1.83-.85,2.65-1,1.52-2.83,2.19-3.81,3.81,1.84,1.29,3,.95,3.78-1.14a5.62,5.62,0,0,1,4.16-3.89,2,2,0,0,1,1.53,1.32c.71,3.13-1.11,5.39-2.77,7.61-3.9,5.19-9.29,9.37-10.24,15.88,1.93-1.26,3.45-4.73,7.25-3.8,2,5.2,1.16,8.06-3.22,10.8,4.07-.59,9.65-7.05,9.11-10.91s-1.84-7.52,3.53-9.11c1.05-.32,2.64-2.39,1.8-3.71-2.35-3.72,1-7,.47-10.51a3.06,3.06,0,0,1,2.68-3.17c1.6-.15,2,1.41,2.41,3.27,2.1-3.56,5.11-5.67,8.22-7.71.53-.34-1.42-.93-1.26-2,1.67-2.85,4.23-1.49,6.18-1.55A1.53,1.53,0,0,1,366.09,165.88Z"/><path class="cls-15" d="M.1,141.86c.73.17,1.58.85,2-.41,1-3.19,3.09-4.82,7-3.92-1.43-2.61-4-.77-5.28-3,3.87-2.49,7-6.39,12.28-6.64a12,12,0,0,0,9.59-.12c4.16-1.79,8.84-.83,13.23-1.69.95-.19,2.46.4,2.16,1.45-.77,2.65-.37,6.41-3,7.59-4.26,1.88-2.51,5-3,8.17,2.92-1.65,2.28-6.09,6.24-6.2.72,0-.08-1.62.11-2.53.94-4.49,3.85-5.91,7.85-3.86,3.57,1.83,8.21,1.87,10.11,6.43.39.95,1.43.29,2.14-.12,1.43-.83,2.84-1.75,4.6-1.7a2.12,2.12,0,0,1,1.58,1.2c.22,3.13-2.39,4.91-3.52,7.4l.45,5.37c-2.23-.9-2.85-2.86-3.4-4.74a3.35,3.35,0,0,0-3.66-2.64c-2.13,0-1.93,1.64-2.62,2.92-1.87,3.44-.24,6.3,1,9.27.36.83,1.61,1.63.31,2.47-1,.61-2,0-2.59-.83a15.61,15.61,0,0,0-6.57-5.29c-2.08-.93.55-3.89-.53-5.82,1.87-.5,1.92-2.6.81-2.62-2.11,0-4-1.8-6.25-.62a2.72,2.72,0,0,0-1.64,2.73,16.21,16.21,0,0,0,.82,5.36c1.35,3.25-1.07,4-2.95,5.19-1.71-3.7-3.72-3.47-6.68-1.28-6,4.46-5,11-6.38,17.68-3.36-7.46-10.3-10.67-15.41-15.77-2-2-4.17-.42-4.33,1.7-.24,3.19-1.92,4.7-4.41,5.89Z"/><path class="cls-16" d="M375.1,110.86c-4.66,1-7.79-2.06-10.91-4.58-1.45-1.18-1.63-2.28-2.54.35-.48,1.41-1.49-.3-1.95-.85-2.56-3-4.75-2.65-7.38.11-1.93,2-4.14,5.57-7.2,3.9-2.79-1.54-.19-5,.22-7.32.54-3.1,1.44-5.17-3.06-5.19-1.54,0-3-1.08-2.73-3.78.34-3.21.69-7.5-4.89-7.21-.16,0-.36-.85-.54-1.3.33-1.47,1.51-2,2.72-2.5,3.53-1.67,8.08.29,11.12-3.15,2.64-1.51,5.38-1.1,8.08-.29a40.44,40.44,0,0,0,8.13,1.72c3.7-.29,7.41-.59,10.93,1.09Z"/><path class="cls-17" d="M25.1,72.86c-2-1.15-1.58-3.33-1.85-5.77-2.47,1.42-4.34,3.26-7,1.9a1.23,1.23,0,0,0-1.71,1.57c.36,1.29.38,2.54-1,2.84-1.83.38-1.16-2.17-2.5-2.57-2.32-1.6-4.65-.66-6.9.09-1.42.48-2.7,1.18-4-.06v-3c2.58-1.35,6.59-1.17,6-5.87-.08-.7.84-1.42,1.55-1.85a35.53,35.53,0,0,0,8.43-7.66A6.49,6.49,0,0,1,19,50.56a5.59,5.59,0,0,1,5.56,1.26c1.41,1.14,1.12,2.59.54,4.09a36.57,36.57,0,0,0-1,4.24C26.53,56.8,25,52,27.09,48c8-5.23,13.15-13.83,22-17.93,2.76,2.75,3,6.46,2.62,9.79-.26,2.68-.6,4.16,2.67,4a2.13,2.13,0,0,1,2.27,1.58c.31,1.19-.58,1.84-1.46,2.31-2.51,1.32-4.92,3.16-8,2.58-4.5-.84-8.21-.46-9.23,5a1.34,1.34,0,0,1-1.28,1.26c-1,.07-.89-.57-.9-1.29-.06-4.17-2-2.45-3.62-1.05-3.82,3.38-2.73,7.88-.61,10.9,3.82,5.46,1.39,10.15-1,14.43a50,50,0,0,0-2.55,6.2c-2.51-.1-2.21-2.33-2.3-3.67C25.59,79.08,24.88,76,25.1,72.86Z"/><path class="cls-18" d="M357.94,197.07c.68-1.5,1.29-3.07-1.34-2.9-1.75.11-2.22-1.06-1.86-2.09.88-2.46,3.48,0,4.95-1.36.15-.14,1.3-.15,1.18,1.6-.37,5.09,1.6,5.49,6.72,4.19,2.66-.67,4.91-2.09,7.51-2.65v3c-2.84,4.32-4.22,9.29-5.83,14.09-1,3.06.4,6.51-1.84,9.77-1,1.47,2.14,2.08,3.59,1.54,2.07-.76,3.41-.73,4.08,1.6v8c-1.52,2-2.73,4,0,6v15c-1,.59-1.72-.05-2.45-.6a3.07,3.07,0,0,1-.94-1.81c-1.39-5-5.49-7.49-9.47-10-1.52-.95-3.33-1.49-4.75-2.65-1.81-1.47-3.23-3.15-.94-5.3,1.82-1.72-.35-2.44-.64-3.38,1.78,2.46-.26,4.38-1.59,6.21s-3.32,1.39-5.06.71c-2.57-1-5.17-2.07-7.13-4.17-.13-2.12-4.28-1-3.2-3.46.81-1.82,2.79-2.14,5.3-1.4,3.71,1.1,3.64.41,4.3-4.23a14.25,14.25,0,0,1,3.5-6.95c1.83-2.06,2.51.89,3.73,1.65.88.56,1.93,1.85,3,.44.68-.94.84-2.73-.07-3.23-4.24-2.38-2.62-5.2-.92-8.11.69-1.19,1.24-2.37.36-3.71C357.12,201,356.6,199,357.94,197.07Z"/><path class="cls-4" d="M27.09,48c1,5.75-1.75,10.84-2.5,16.85-4.19-3.14.08-6.42-1-9.31-.23-.59,2.12-2.1.25-3.1-1.46-.79-3.28-2.24-5-.67-3.74,3.37-6.72,7.6-11.35,10a1.32,1.32,0,0,0-.53,1.16c1.5,6.89-3.64,4.56-6.82,4.94v-26c1.65.82,2.67,2.87,5.14,2.23a3.57,3.57,0,0,1,3.16,1c3.8,6.42,9,3.85,13.35,1.58C24.64,45.21,25.66,46.18,27.09,48Z"/><path class="cls-19" d="M375.1,281.86c-3.56,2-6.17,5.74-10.87,5.53-.58,0-1.59.44-1.71.88-1.92,6.82-9.39,5.79-13.41,9.59-1.47-.06-3.29.18-3.54-1.81-.18-1.44,1.46-1.62,2.42-2.11A22.62,22.62,0,0,0,358,284a11.51,11.51,0,0,1,6.52-5.68c4.39-1.63,6.16-6.69,10.54-8.44Z"/><path class="cls-20" d="M375.1,81.86c-3.35.64-6.67,0-10-.12a10.49,10.49,0,0,0-3-1.72,4.41,4.41,0,0,1-1.9-1.56c-1-1.64-.63-2.59,1.25-3.41.88-.39-.77-1.35-.55-2.3.49-2.06,2.06-1.79,3.53-1.79,2.17.37,4.32.65,5.92-1.5-1.52-1.54-2.9-.09-4.24-.24a13.09,13.09,0,0,1-8-6.36c3.45-3.83,7.33-5.44,11.68-1.57,2.18,1.94,3.48-1.45,5.32-.43Z"/><path class="cls-21" d="M375.1,291.86c-2.48,1.51-3.14,4.14-3.93,6.63-.3.93-.13,2.38-1.1,2.6-3.73.85-3.59,1.76-.41,3.45a2.19,2.19,0,0,1,.9,3,9.8,9.8,0,0,1-5.95,4.15c-7.31,1.53-6.87,1.5-5-7.47,1.92-9.18,10.05-12.52,15.49-18.39Z"/><path class="cls-1" d="M.1,418.86c3.17-.61,6.26-1.4,6.88-5.28.26-1.66.69-3,2.74-2.59s3.64,2.78,2.92,3.93c-3.49,5.5-3.9,11.52-4.68,17.72-.49,4-4.75,3.23-7.86,3.22Z"/><path class="cls-22" d="M375.1,223.86c-2.16-3-4.65,1.86-7.09-.3-.55-.49-2.35.12-2.37-1.52,0-1.28-1.29-3.27,1.08-3.64,2.08-.33,1.86-2.1,1.77-3-.69-6.65,2-14.61,6.61-18.56Z"/><path class="cls-23" d="M373.1,251.85l2,1v3c-.83,0-1.86-.24-2.44.15-6.1,4.16-12.9,6.91-19.61,9.83-1.08-1.5-.22-2.7.94-3.32,4.26-2.25,6.74-6.32,10-9.54,1.1-1.15,1.64-2.78,3.07-3.62,1.68-1,3.29-1.41,4.32.87C371.17,251.6,371.45,252.43,373.1,251.85Z"/><path class="cls-16" d="M375.1,123.86c-4.2-4.2-10-3.82-15.28-5.07,2.27-1.24,4.49-1,6.69-.67,1.95.34,3.23-.18,3.57-2.26.57-3.46,2.55-3.32,5-2Z"/><path class="cls-24" d="M.1,70.86c3.48-.34,6.46-2.57,10.18-2.34,3.22.19.88,1.44.75,2.31C7.81,73.32,3,71.44.1,74.86Z"/><path class="cls-18" d="M375.1,190.86l-7.65,1.57c1.94-3.5,4.63-4.31,7.65-4.57Z"/><path class="cls-25" d="M375.1,237.86c-1.21-.18-3.38.57-3.4-.82,0-2.1.57-4.58,3.4-5.18Z"/><path class="cls-26" d="M154.1,398.86c-7.61,1.29-15.09-.9-22.59-1.39-5-.32-10.34-3-14.64-6.4-3.55-2.82-3.78-6.34-1.44-10.12,1.06-1.72,2.39-3.48,0-5.16-2.62-1.84-2.9.91-4,2.1-.45.5-.92,1-1.34,1.48-1.44,1.74-2.24,5-4.66,4.66s-.64-3.61-1.59-5.19c-1.93-3.19-3.53-6.44-8.74-5.27-11.5,2.59-21,7.95-28.06,17.46-.8,1.08-1.61,2.62-2.91,2.54-9.39-.57-18.38,4.45-27.9,1.87-4.87-1.32-7.51-5.37-10.52-8.75-1.37-1.53-1.42-4-4.46-2.92a1.84,1.84,0,0,1-2.45-1.15c-.32-1.27,1.08-1.4,1.74-2.05,2.17-2.14,4.89-1.69,7.51-1.72,3.13,2,5.75.09,8.39-1.19,4-2,7.76-4.87,12.53-2.05a1.6,1.6,0,0,0,1.46-.05C55.61,372.7,61,369,62.8,363.83c2.33-6.8,6-12.7,9.07-19,.22-.45.55-.84.35-1.45-1.41-1-2.82,0-4.22.2-2,.25-3.84-.23-4.53-2.22-.8-2.29-2.83-3.13-4.4-4.54,4.41-3.19,8.05,1.74,12.3,1.19,2-.27,4.2.75,6.33.9C84,339.36,85,345.54,88.38,349c4.76,4.94,4.84,5.36,8.72-.24,1.13-1.63,2.69-2.58,4.17-1.65,7,4.39,14.55,3,22,2.69,2.33-.08,4.3.4,5.54,2.53,1.1,1.89,3.12,2.43,4.87,3.27,3.13,1.5,7,2.19,3.73,7.25-1,1.55.59,3,2.88,2.42,2.56-.62,5.18-1,7.77-1.46,2.89-.77,6.77-2.25,8.61-.69,4.13,3.51,7.48,2.06,11.31.32a2.1,2.1,0,0,1,2.36.39c2.36,3.5,5.93,3,9.34,3,5.11-.09,4.74,4.15,5.74,7.4,3.66-5.18,6.09-5,9.47.38a32.94,32.94,0,0,1,2.7,5.88c1.67,4.33.95,8-2.85,11.23,2.22.49,4.15-.13,4.51-1.32,1.67-5.55,7.92-5.7,10.88-9.66a3.52,3.52,0,0,1,4-1.38c4.73,2.15,9.88.95,14.71,2.15,2.14.54,3.6,1,3.47,3.82-.15,3.47,2.29,6.44,2.11,10.14-.24,5.11-1.75,9.1-7.15,11.59,5.29,1.67,5.33,5.61,4.89,9.7-.32,3-1.72,5-5,5.28-2.26.19-4.48.62-4.87,3.35s-.4,5.66,2.09,7.81c1.32,1.14,3.64,2,2.87,4.19a6.46,6.46,0,0,1-5.73,4.22,5.83,5.83,0,0,0-4.89,2.69c-2,3-5.82,2.2-7.4-1.26-2.38-5.21-5.71-9.42-11-12.05-6-3-9.3-15-6.2-21.69,2.08-4.49,1.71-5.72-3-7.16a55.56,55.56,0,0,0-16.22-2.42c-.83,0-1.66.11-2.49.12-9.16,0-11.05-1.9-10.69-10.72C159.78,393.63,158.89,397.49,154.1,398.86Z"/><path class="cls-27" d="M154.1,398.86c1.7-2.71,6.64-4.32,2.83-8.91-.86-1,.44-1.72,1.32-2.14s2.08-1.36,3.23-.47a2.31,2.31,0,0,1,1,2.63c-.74,2.16-3.71,4.32-.8,6.55a13.21,13.21,0,0,0,9.88,2.18c6.59-.91,12.78.83,18.9,2.52,4.85,1.33,5.44,3.67,3,8.11-.93,1.65-1.7,3.4-1.25,5.22,1.65,6.62.4,14.53,10.36,16.92,2.76.67,6.33,5.83,7.47,10.17a4.13,4.13,0,0,0,3.58,3.47c2.82.58,2.25-1.66,2.69-3.09.54-1.75,1.76-2.51,3.44-1.77s3,.22,4.51-.88c2.36-1.75,3.18-2.91.09-4.86-3.36-2.11-4.44-7.67-2.84-11.33.91-2.1,2.47-2.53,4.43-2.31,3.29.36,5.36-1,5.12-4.36-.19-2.87,2.06-7.21-3.55-7.66-1.33-.1-2.25-.54-2.26-2,0-1.22.64-1.95,1.84-1.79,4.59.63,5.36-3.45,5.78-5.94.58-3.5,1.69-7.68-1.72-10.81-1.87-1.7.78-3.36.18-5-5.63-1.82-11.66-.64-17.12-2.93-1.62-.68-2.47.45-3.41,1.36-2.26,2.16-4.2,4.8-7.7,5.14-.65.06-1.37.22-1.22,1.15.91,5.57-4.62,4.06-6.83,6.19a1,1,0,0,1-1.62-.43c-.44-1.47-.7-3.35.75-4.11,2.31-1.19,3.93-2.52,3.23-5.28-1.18-4.64-2.36-9.34-6.34-12.53-1.52-1.22-3-.87-3.27,1.14s-1.12,3.32-3,3.79c-1.75-.62-.61-1.74-.66-2.58-.37-5.74-2.2-7.37-7.83-6.15-2.59.57-4.09.94-5.4-2.16-1.54-3.68-4.31-1.11-6.13,0-3.94,2.46-3.84,2.64-6.08-1.21-.65-1.1-1.71-.74-2.65-.86-2.63-.32-5.26.89-7.89,0,7.73-3.12,15.54-3.1,23.46-.71,5.53,1.67,11.11,3.18,16.67,4.73,4.33,1.21,8.61,2.33,11.16,6.68,1.73,2.95,4.89,2.57,7.65,2.23,2.37-.29,4.75-.44,6.81.58,3.82,1.88,7.41,3.8,11.54.71a3,3,0,0,1,2.86.07c4.72,4.11,11.35,3.24,16.42,6.6,3.33,2.21,7.28,3.21,11,.12,2.15-1.78,4.82-1,7.24-.92,12.66.42,23.78,5.46,34.49,11.69a2.78,2.78,0,0,0,1.76.56c8.12-2.09,12.65,3.73,17.81,8.06,2.68,2.25,4.49,6.15,9.14,3.84,1.17-.58,2.08.6,3,1.3,5.28,4,10.36,8.31,16,11.69,3.77,2.27,8.54,1.81,13,1.79.63,3.75-4.82,6.44-1.18,10.88-4.4-.18-7.89.31-10,4.1a3.89,3.89,0,0,1-4,1.62,10.37,10.37,0,0,0-10.48,3.94c-1,1.21-2.44,1.21-4.1.77-3.88-1-8.08-2.9-11.75-2.23-6,1.1-13,.12-17.76,5.66a82.44,82.44,0,0,0-7.22,9.08c-2,3.09-6.92,3.81-10.19,6.35-2.64,2-5.32,3.64-6.7,7-.87,2.16-2.47,4.45-5.76,3.35-2.38-.81-3.11,1.31-4.09,2.77s-2.25,2.12-3.82,1.34-1.08-2.33-.84-3.58c1.05-5.3,4-9.79,6.63-14.36,2.3-4.07-1.49-7.53-.31-11.35.18-.61-11.2-1.29-11.87-.43a34.11,34.11,0,0,0-2.45,3.72c-1.62,2.83-3.39,4.77-6.48,1.59-1.19-1.23-2.66-1.73-3.93-.35a18,18,0,0,1-8,4.81,1.71,1.71,0,0,0-1.26,2.3c1.74,6.44-2.38,9.78-7,12.71a13.14,13.14,0,0,0-3.84,3.77c-2.45,3.5-5.36,5.85-10.25,5.79-3.43,0-3.7-1.14-3.13-3.71a7.47,7.47,0,0,1,.94-2.81c6.46-8.7,7.73-20.27,15.63-28.16.7-.7,1.37-1.49.42-3.41-1.71,4.32-7.57,2.28-8.9,7.12-.26.94-2,1-2.64.36-2.28-2.5-5.4-5-6.11-7.93-.53-2.2-1-3.52-2.8-4.41-3.37-1.66-7-2.65-10-5.25-1.74-1.53-3.36.29-4.84,1.28a2.78,2.78,0,0,1-3.26.21c-1-.73-.37-1.74-.23-2.71.82-5.68,2-11.33,1.51-17.13-.21-2.63,1.26-4.86,2.73-6.82,2-2.67.77-3.72-1.64-4.76-6.09-2.63-12.7-2.83-19-2.86C164.6,401.1,159.62,398.26,154.1,398.86Z"/><path class="cls-28" d="M182.05,262.88c-.66-2.92.47-5.55,1.74-8,1.43-2.75,2.18-5.37,1.45-8.47a5.87,5.87,0,0,1,1.63-5.95c1.14-1.11,2.55-2.6,1.63-4.33s-2.83-2.19-4.72-2.29c-3.9-.2-7.8,1.59-11.69,0-1.31-2.26.63-3,2-3.64,2.94-1.44,6-2.87,9.37-2.48,2.52.3,3.63-.86,4.51-2.79,2-7,8.26-6.3,13.53-7.4,7.09-.41,14-2.19,21.08-2.79,1.58-.13,3.18-1.19,4.66.28,0,.94-.28,2.61.92,2.4,4.56-.82,3.25,3.7,5,5.38,1.17,1.1-.56,2.07-1.73,1.89a17.06,17.06,0,0,1-3.68-1.45c-2.25-.94-3.73.26-5.26,1.72-1.71,1.63-.71,2.77.19,4.29a40.33,40.33,0,0,1,2.54,5.82c.15.39.17,1.23,0,1.27-7.31,2.37-1.57,6.67-.47,8.77,1.29,2.46,2.48,5.34,4.54,7.5.76.79,2,1.69.44,2.78a1.7,1.7,0,0,1-2.59-.52c-1.41-2.27-2.64-1.93-4.82-.58-2.47,1.53-4.74-.2-6.24-2.43-1.06-1.58-2.16-2.95-4.27-3-6.44-.08-11.83-2.34-15.85-7.54a2.72,2.72,0,0,0-3-1.26c-1.9.61-1.05,2.06-.92,3.32.32,3.21.29,6.16-3.06,8.2-3.11,1.89-1.49,4.19.14,6.25C187.62,260.7,185.47,262.69,182.05,262.88Z"/><path class="cls-29" d="M59.07,336.83c2.12.09,4.59-.34,5,2.76.42,3.4,2.21,3.25,5,2.58,1.66-.41,4-2.37,5.41-.07,1.31,2.13-1.6,2.85-2.35,4.35-1.38,2.79-2.66,5.63-4,8.45-3.37,7.2-6.09,14.86-13.15,19.58-2.75,1.84-5.14,4.69-9,1.13-1.82-1.67-4.21,1-6.33,1.71a32.9,32.9,0,0,0-7,3.58c-2.66,1.61-4,.82-4.52-2,1.35-4,4.65-7,4.33-11.82-.17-2.61,3.54-3.72,4.66-6.15,4-5.28,3.3-11.05,1.71-16.87-.31-1.16-1.53-1.18-2.51-1.12-4.08.26-8.06-1.85-12.27-.19a6.21,6.21,0,0,1-5.75-.76c2.27-2,4.45-3.84,7.39-2.67,3.49,1.38,5.32-.43,7.11-2.81a14.28,14.28,0,0,1,1.75-2.39c1.37-1.17,3.19-3,4.77-1.67,2.42,2-.65,3.25-1.6,5,3.77.54,7.91,5.68,10.44-1.51Z"/><path class="cls-30" d="M371.12,250.84c-4.47-3.92-4.13,1.8-6,3a33.06,33.06,0,0,1-2.71-2.84c-.52-.68-1.11-1.49-.83-2.27,1.66-4.6-1.47-6.65-4.49-8.88-2.68-2-5.26-2.15-7.56.36a6.25,6.25,0,0,1-6.25,2.07,8.67,8.67,0,0,0-7.75,2.49c-5.58,5.21-10.29,11.33-16.62,15.77-1.38,1-1.61,2.9-2.62,4.2-2,2.55-3.25,5.94-7.13,6.37-1.64-1.26-2.65-3.37-1.47-4.77,3.95-4.65,4.33-12,12.47-13.8,3.17-.68,7.11-4.49,9.46-8.24a44.57,44.57,0,0,1,5-6.35c-1.7,1.84-3.57.86-5.22.27a8.23,8.23,0,0,0-9.53,2.46c-3.1,3.69-7.86,4.82-11.11,8.13a1.5,1.5,0,0,1-1.85,0c.7-5-1.28-10.17,1.25-15l1-9c-1.22-4.79,1.45-9,2.12-13.49.48-3.2.79-5.91-1.37-8.86s-1.24-4.54,2.54-4.45c2.11.05,3.83-.87,5.76-1.23,1.65,1.52,1.15,4.45,4.55,5.16,2.08.43.16,3.85.32,5.92.21,2.77-.48,5.42,4.11,4.1,3.4-1,2.3,2.19,1.8,3.43-1.23,3-.63,4.69,4,5.05-4.28,2.08-6.37,4-3.72,7.67.83,1.17-.27,2.46-2.2,2.74,5.23,1.07,9.76,7.37,15.1,1,3-.09,4.92,2.33,7.56,3.1,1.92.56,3.6.9,4.77-1.1.87-1.49,2.46-3-.15-4.53a1.41,1.41,0,0,1,.05-2.49c.93-.64,1.4.68,1.8,1.17,1.24,1.54,2.22,3.27,3.3,4.9-.75,1.54-2.74-.89-3.17,1.11-.3,1.38.58,2.21,1.68,2.75,4.71,2.29,9.16,4.89,12.79,8.83,1.55,1.68,3.6,2.75,1.34,5.22A.73.73,0,0,1,371.12,250.84Z"/><path class="cls-31" d="M189.09,225.85c-1.65,1.7-2.17,3.89-6.12,3.13-3.38-.65-8.59.25-10.88,4.85l-30.45.08c-2.15,0-4.9-.48-5.89,1.63s1.37,3.9,2.61,5.55a25.91,25.91,0,0,1,4.78,17.34,13.82,13.82,0,0,1-5-8.84c-.25-1.79-.49-3.47-2.62-3.6-5.39-.33-10.54-2.12-16-2.23s-10.45.35-15,3.53c-.85.59-2.22.43-3.35.61-5.85,2.15-11.56,4.61-17.26,7.14-5,2.22-10.78,1.6-16.16-.2-.51-.17-1-.57-.46-.91,4.16-2.79-2-3.12-1.18-5.07a24,24,0,0,0,9-2c4.23,3.19,6.76,2.61,9-2.06,13.88-4.5,27.93-8.29,42.47-10,10-1.14,19.06-5.22,28.53-8,6,1.77,11.37-.7,16.81-2.54a43.72,43.72,0,0,1,4.14-1.59C180.94,221.55,185.49,221.69,189.09,225.85Z"/><path class="cls-32" d="M307.09,248.86c3.58-4.15,9.14-5.69,12.76-10,2.19-2.59,5.55-3.61,9.36-1.94.67.3,3.12,2.43,4.93-.25,1.15-1.68,2.48.1,3.48,1.83a4.65,4.65,0,0,0-4.51,3.17c-2,5.68-9,6.91-11.1,12.52a1,1,0,0,1-.84.45c-9.57-1.75-7.64,8.82-12.71,12-1.15.72.72,2.7.64,4.2a1.47,1.47,0,0,1,.22,1.37c-1.47,2.45-3.95,4-5.68,6.21s-4.5,3.78-3.16,7.53c.55,1.54-1.28,2.9-2.39,4.12-4.11,4.52-8.84,8.48-12.17,13.72a8,8,0,0,1-5.37,3.37c-2.81.54-3.8-.61-2.46-3.32,1.69-4.64,2.31-9.68,5.06-13.94a14.36,14.36,0,0,0,2.79-6.49c.56-4.59,4-8.27,7.25-11.33a16.56,16.56,0,0,0,5.61-9.89C299.73,256.87,301.23,251.37,307.09,248.86Z"/><path class="cls-33" d="M271.07,200.83c.05,7.18.05,7.18-10.5,10.78.74,2.2,2.77,1.95,4.41,2.42,2.07.59,2.3,2.27,2,4-.38,2.43-1.66,1.28-2.81.59s-1.91-.25-2,1,.65,2.43,2.09,1.91c2.32-.83,4.24,0,3.6,2.16-.93,3.18,5.76,6.37-.19,9.2-2.48,1.17-1.17,3.22-.72,4.65,2.05,6.49.6,13.31,2.11,19.82.22,1,.2,2,.33,2.95.21,1.66,2.2,4.27.22,4.67-1.66.34-4.5-.79-6-3.09a57.59,57.59,0,0,1-8.86-23.13c-.86-5-1.67-10.39-3.21-15-1.43-4.3-4.05-9.74-9.44-11.89,2.2-4.22,5.17-6.89,10.43-6.19s9.32-3,14-4.41C268.08,200.78,269.4,199.38,271.07,200.83Z"/><path class="cls-34" d="M271.07,200.83c-3.83,1.63-7.71,3.17-11.48,4.95-.89.41-1.69,1.18-2.68,1a16.62,16.62,0,0,0-14.82,5c-4.56,3-9.83,2.58-14.9,3.16-8.57,2.12-17.34,2.85-26.08,3.82a1.06,1.06,0,0,1,0-1.39c1.9-1.8,4.39-2.23,6.78-2.51,4.16-.48,7.76-1.38,8.53-6.35.12-.8,1-1.26,1.7-1.67l7-1.06,3-1.06c1.63-2.78,4.48-4.11,7.26-4.86,7.08-1.89,13.41-5.53,20.2-8.05,2.5-.92,5-1.83,7.53.06,6.07-.76,12.22-1.1,18.16-2.42,3.4-.75,6.09-.46,8.81,1.39,1.75,2.64-.27,3.36-2.11,4.32-3.78,2-8.41,1.74-11.83,4.61C274.41,200.13,272.49,199.19,271.07,200.83Z"/><path class="cls-35" d="M307.09,248.86c-3.81,4.6-7.53,9.12-7.12,15.78a8.71,8.71,0,0,1-4.21,7.35c-4.55,2.06-4.92,7.07-8.42,9.6a3,3,0,0,0-1,2.66c1.35,3.36-1.22,4.29-3.16,5.67a20.52,20.52,0,0,0,.94-9.67c-.76-5.58,1.31-11.69,4.61-16.79.74-1.15,2.5-.52,3.8-.61s2.37-.27,2.45-1.84-.79-2.06-2.15-2.11c-2.15-.08-4.31-.5-6.4-.57-4.72-.17-2.69,4.21-3.85,7.52-1.72-5.05-5.6-8.29-4.55-13.49a5,5,0,0,0-1.11-3.7c-2.88-3.38-.67-4.18,2.11-5.5,2.05-1,2.47-1.13,3.29,1.28,1.41,4.14,3.62,4.51,7,1.8.38-.32.86-.93,1.17-.86,6.25,1.51,6.05-1.83,6.06-6.67,0-5.43,3.69-7,9.14-5.16a12.45,12.45,0,0,0,2.46.31C308.22,238.89,308.52,243.93,307.09,248.86Z"/><path class="cls-36" d="M278.09,303.86c0,1.89.23,3.49,2.8,2.1a12.22,12.22,0,0,0,5.4-4.72c2.8-4.84,7.43-8.24,11.25-12.29,1.5-1.59,3.34-2.9,1.11-5.32-.79-.87-1-2.72.1-3.1,4.6-1.61,5.88-7,10.32-8.69,3-2,6.14-3.77,8.71-6.5,2.39-2.53,5.46-2.07,8,.2,3,2.63,2.51,5.5-1.28,6.48s-5.53,2.51-3.7,6.62c1.44,3.25-.47,6.1-1.82,8.94-4.49,6.17-11.38,9.38-17.32,13.73-4.64,3.41-9.86,6-15.09,9.21-.3.08.43,1,.18.37-.1-.24,0-.33.22-.44,2.16-1.1,3.76-.27,5.11,1.44-1.33,2.4-4.1,2.52-6.16,3.72-1.3.75-4.61-.08-4.16-1C284.21,309.49,272.28,309.67,278.09,303.86Z"/><path class="cls-37" d="M318.14,196.83c-1.65,4.27-5.14,2.19-8.18,2.09,0,.66-.18,1.28,0,1.5,5.19,5.12,2.74,10.73,1.13,16.31-.78,2.68-1.36,5.42-2,8.13-4-3.65-1.29-9.74-4.87-13.6-.29-.31,0-1.31.21-1.89,1.47-3.5,4.22-6.73-.5-10.28-2-1.53,1.12-3.32,1.67-5.07.33-1,2.28-2.94,0-2.83-3.53.16-6.93-2.88-10.45-.4a1.49,1.49,0,0,1-2.13,0c.46-2.22,2.24-2.69,4.06-2.87a14.49,14.49,0,0,0,6.46-2.05c1.37-.86,2.63-1.63,3.53.48.37.85,1.18,1.67,1.76.85,2.4-3.36,6.31-2,9.33-3.28,1.11,1.45,2.72,1,4.12.93a3.64,3.64,0,0,1,4,3.49c0,2-2.06,1.4-3.53,1s-2.75.63-2.4,1.61C321.37,193.7,318.52,194.75,318.14,196.83Z"/><path class="cls-38" d="M182.05,262.88l7.08-5c4-.81,8-2.22,12.18-1.95,3.23.21,6.06,1.06,5.79,5.17-.12,1.79,1,2.63,2.17,3.6,3.27,2.62,3,6.67,3.66,10.24.27,1.5-.11,4.16-2.13,4.42a5.36,5.36,0,0,1-5.11-2.53c-4.2-6.79-10.36-9.19-18.06-8C182.85,269.52,181.87,266.77,182.05,262.88Z"/><path class="cls-39" d="M292.11,311.89l-7.22-1.64c11.83-7.18,23-14.09,33.19-22.43a59.77,59.77,0,0,1,11.69-8.28,3.74,3.74,0,0,1,2.35,2.34,9.78,9.78,0,0,1-5.6,4.67c-3.31,1-5.3,3.27-6.8,6.12-1.63,3.11-4.06,4.28-7.47,5.53-5.48,2-11.58,4.32-14.15,10.67C295.72,309.12,294.29,311.24,292.11,311.89Z"/><path class="cls-33" d="M293,190.77l2.13,0c.93,1.44,2.39,3.29.9,4.59-1.66,1.45-2.52,5.46-6.65,2.33-1.52-1.15-5.43.76-8.2,1.45-.8.2-.39,8.29.51,8.65a3.55,3.55,0,0,1,2.4,3.36c.26,2.39-2.17,2.8-2.7,2.27-2.25-2.22-4.89-3.93-7.16-6-2.8-2.5.32-5.24,1.82-7.64,1-2.7,2.78-3.67,5.79-4.24s7.27-.06,8.15-4.69A2.65,2.65,0,0,0,293,190.77Z"/><path class="cls-40" d="M238,263.93c2.6,1.2,5.41,2,7,4.64a28.4,28.4,0,0,1,1.62,3.09c.58,1.33,3.44,2.09,1.56,4s-4.51,1.6-6.37-.09c-2.59-2.35-4.15-5.55-5.46-8.77A1.89,1.89,0,0,1,238,263.93Z"/><path class="cls-41" d="M192.86,8.87c.56,1.14,1.06,2.31,1.68,3.42,2.14,3.83,3.92,2.82,5.49-.45a1.92,1.92,0,0,1,2.3-.41c3.57,2,7.21,3.91,10.83,5.84,2.47,1.32,3.37,4.13,2,7-1.77,3.54.41,5.27,3.18,5.7s4.57,1.6,5.54,4.32a53.18,53.18,0,0,1-.17-13.45c.21-1.59.41-3,2.18-3.49,1.54-.42,2.57.4,3.26,1.65,1.08,1.95,2.94,2.59,4.9,3.1,3.76,1,5.06,3.48,4.41,7.14-.85,4.74-1.52,9.51-2.47,14.23-.78,3.91-2.21,4.39-5.41,2-1.81-1.36-3.37-3.45-6.41-1.34C226.05,46,228,47.74,229,50.18a186.84,186.84,0,0,0,20.42,25.56,2.26,2.26,0,0,1-.72,2.26c-3.35,2.41-3.11,5.49-1.81,8.81,1.45,5.14,5.13,9.39,5.85,14.81a10,10,0,0,0,2.4,3.94c4.26,3,5.17,6.42,4.49,11.89-1,7.72.13,15.75,5.22,22.38.43.57,1.25-.68.74-.26-.2.16-.35.06-.35-.31,0-2.26,1.47-4.45-.1-6.86-.48-.74,1.15-1.42,2.14-1.49a6.91,6.91,0,0,1,7.08,3.7c1.35,2.64,4,5.22,3.89,7.88-.19,4.13-4.92,1.63-7.25,3.34-2.95,2.15-6.32,1.33-9.43-.27-1.35,3,.67,6-.57,8.83-2.2,1.88-4.74,1.92-7.38,1.39-5.72-2.61-5.86-2.75-4.05-8.23a7,7,0,0,0-.89-6.47c-4.11-2-8.9-1.27-13-3.35a3.05,3.05,0,0,1-1-1c-.57-3.29,2.12-3.77,4.32-4.86a60.28,60.28,0,0,0-6.25,1.85c-5,1.11-9.06-2.23-13.76-2.68-1.93-.19-3.79-.75-5.73-.23a4.68,4.68,0,0,1-3.37-.53c-8.48-6.3-19.4-9.79-24-20.61a2.5,2.5,0,0,0-.65-.73c-9.62-1.44-14.5-9.8-21.57-14.94-2.31-1.67-2.33-4.6.39-6.24,3-1.78,2.39-4,.78-5.74-3.86-4.18-3.74-8.49-1.34-13.18A3.45,3.45,0,0,1,166,67.35a53.74,53.74,0,0,0,11.29-6.47c7.77-5.73,10-13.17,8.66-22.4-.58-4.07,0-8.3-2-12.15-.9-1.73-2.38-3.56-.35-5.38,1.79-1.61,3.69-.93,5.46.28a7.32,7.32,0,0,1,1.37,1.62c3.23,2.57,2.64,6,2,9.35-.33,1.62-.73,3.11-.25,4.72a5.87,5.87,0,0,1,.1,3c-2,5,2.35,6.35,4.95,8.12,2.38,1.62,4.07-.13,3.92-3a41.43,41.43,0,0,1,1.09-11.85c.94-2.45-1-3.05-2.49-4-2.52-1.62-4.91-3.29-4.35-7,.46-3-2.57-2.32-4-3.34A7.28,7.28,0,0,1,190,18.1a6.85,6.85,0,0,1-2.56-4.68C186.74,9.44,188.44,8,192.86,8.87Z"/><path class="cls-16" d="M227.85,50.89c-1.07-1.6-1.18-3.81-3.29-4.75-1.25-.56-4.35-.68-2.43-2.74,1.16-1.24,3.88-3.66,6.55-1.39,1.62,1.37,3.09,2.92,5.36,5.09,1.23-7.31,2.51-13.79,3.33-20.33.35-2.78-2.38-3.28-4.43-3.74-2.32-.52-4.68-.7-5-3.8a1.37,1.37,0,0,0-1.85-1.15c-1.12.26-1.33,1-1.33,2.23,0,4.55-.52,9.12.52,13.63.33,1.4.48,3-1.05,3.32-1.37.32-1.74-1.39-1.95-2.43-.5-2.47-.52-4.7-4.28-2.84-2,1-2.21-2.63-4.35-3.3-3-1-.83-2.83.1-4.17,2-2.89.8-6.26-1.56-6.62-4.91-.76-7.47-5.45-12.16-6.06a7.38,7.38,0,0,1,9.34-5.56C214.05,7.51,217,5,219.71,2.38c2-2,3.22-2.33,5.23-.33,2.55,2.53,7.4,1.45,8.68,6.08,4.23-6.8,6.54-7,11-1a6.91,6.91,0,0,0,4.28,2.71c4.14,1.17,8,3.07,10.5,6.85,2.81,4.24,6.6,6.13,11.68,5.17.39-.34,1.08-.7,1.31-.44,3,3.33,5.56,2,8.44-.4,2.13-1.73,6.24-.58,7.44-2.06,1.56-1.9,1.65-5.07,4.71-6a17.31,17.31,0,0,0,14.37,4.91,5.89,5.89,0,0,1,4.75,2.24c2.54,4.66,2.3,5.32-2.51,6.76,5.6.83,7.18,4,4.47,9.07-2-1.45-4-4.12-5.94-4.08-3,.07-1.6,4.26-3.23,6-3.1,3.31-4,7.09-1.6,10.83,1.21,1.88,3.34,3.41,5,5,3.6,3.44,2.14,6.8,1.2,10.28-1.22,4.52,1.39,8.36,6,8.27,2.05,0,3.29,1.29,4.85,2.18,2.34,1.35,4.8,2.85,6.79-.57,1.13-.42,1.87.21,2.56,1,.75,1.57,2,3.18-.33,4.55-.2.11-.16.2.32.55,1.67,1.23,3.75,2.26,2.43,5-.66,1.53,3.11,3.15-.35,4.81-2.8,1.34-5.75-.45-6-1.57-1.38-6.54-7.62-5.12-11.18-6.09s-8.58-4.68-13,.4c4.44-.46,1.26,9.59,8.41,5.5.9.68,1.6,1.13,3,.42a4.32,4.32,0,0,1,5.11.55c.72.69,1,1.41-.19,1.82a7.38,7.38,0,0,1-2,.18c-.95.09-2.2-.16-2.38,1.16a1.57,1.57,0,0,0,1.52,1.67c1.72.1,1.27,1.65,1.88,2.48s1.36,1.62.49,2.61-1.71,0-2.52-.43c-5.14-2.75-15.85-1.8-22.55-1.36-3.71.25-7.51,2.18-11.37,1-1.08-.34-2.5-.38-2.23-2,.16-1,.64-2.12,2-1.64s2.24.12,2.67-1.22-.66-2.1-1.57-2.76c-1.19-.88-2.47-1.64-3.72-2.45-2.84-2.67-3.25-6.62-5.14-9.83-1.42-2.4-.23-4.59,2.87-4.81A12.83,12.83,0,0,0,282,71.57a6.37,6.37,0,0,1,7-.21,13.58,13.58,0,0,0,6.74,1.26c1.95,0,3.88.82,6.54,0-5.67-2.1-8.64-6.46-11.91-10.52-1.56-3.19-2.24-6.89-5.29-9.23-2.59-1.52-5.2-2.6-8.06-.62-1.68.07-3.06-1.15-4.74-1.05-2.45-.13-4.95,0-7-1.67-1.29-1.5-1.32-3.24.25-4.25,2-1.3,3.95-.54,5.45,1.6-.57-2.7-6.44-1.47-4-6a9.64,9.64,0,0,0,2.77-5.65c-.18,2.17-1.34,3.84-2.54,5.49-1.72,1-3.16,0-4.67-.61-4.39-1.8-7.21-.75-9.66,3.59-2.85,6.56-8.06,8.26-14.61,7C234.73,50.06,231.31,51.05,227.85,50.89Z"/><path class="cls-42" d="M155.1,58.86a65.24,65.24,0,0,1-7.89,10l-.6-.2a10.39,10.39,0,0,0-3-.87c-4.62-1-5.09-2.27-2.12-5.79a29.07,29.07,0,0,1,2.83-2.6A30.77,30.77,0,0,0,148,55.9a1.38,1.38,0,0,1,.6-.55c-.3-.05-.38.17-.57.48-.34.56.1-.2-.3.36-3.84,4-8.36,3.42-13,2.05-6.84-.19-13.68-.37-20.48-1-2-.2-4.41.51-5.37-2.22,3.8-1.66,5.33-5.19,7.07-8.62,1.73.74,1,2.19,1,3.39,0,1-1.33,2.28.49,2.9a2.69,2.69,0,0,0,3.38-1.38c.48-.85,1.27-2,1.05-2.7-1.8-6.07-2.24-12.65-6.16-17.95-1.26-1.71-2.32-1.39-3,.76-.35,1.13-.9,2.88-2.7,2.08-1.48-.65-.62-2-.29-3,1.09-3.44-.9-7.58,3-10.54,1.21-.93.72-3.83-1.54-5,4.73-3,6.8-8.85,12.62-11,3.73-1.39,7.58-1.7,11.28-2.85,3.28,8.82,7.15,17.52,6,24.83,0-3-.76-8.45-.2-13.92.18-1.72-.23-4.19,2.28-4.28,2.11-.08,2.33,2.26,2.43,3.79.42,6.79,3.59,13.1,3.24,20-.21,4.25,3.48,5.19,6.5,6.54a18.61,18.61,0,0,0,8,7.72,21.57,21.57,0,0,1-3.75,10.62C158.39,57.92,157.27,59.25,155.1,58.86Z"/><path class="cls-43" d="M155.09,38.87c-4.12-.78-8-1.84-7.65-7.28.47-6.59-2.67-12.59-3.07-19-.08-1.28.33-3-1.52-4.36-2.38,8,.41,16.09-2.34,23.9-.42-3.37-1.56-6.85-1.1-10.09.72-5-1-9-3-13.15-1.2-2.53-2.64-4.91-1.34-7.82l2,0c1.83.68,2,2.42,2.53,3.82.92-1.19-3.31-4.71,1.9-4.13,3.59-.23,5.8,1.37,6.89,4.84,1.34,4.24,5.3,6.69,7.71,10.23.61.91,5.46-.94,8.31-1.71s5.48-2.45,8.6-2.21a2.62,2.62,0,0,1,3.3.18c.64,2.12,2,2.31,3.66,1.25s3.19-2.15,5.21-2.27l4.7-3.46c1.76-1.29,2.66-.67,2.94,1.33-1.76.05-4.23-.39-4.41,1.92-.19,2.46.19,5.21,2.67,6.88A22.79,22.79,0,0,1,189,21.88c-1.7,0-3.5-2-5.07-.08s1,2.73,1.52,4.12a27.06,27.06,0,0,1,1.69,7.68c.26,5.44-.83,10.94.76,16.33a3.33,3.33,0,0,1-1.29,3.57c-6,2.94-7.64,11.46-15.46,12.19-.77.08-1.35,1.76-2.07,2.65-1.21,1.5-2.19,1.17-3-.43-.54-2.63,2-3.09,3.19-4.48s3.12-2.51,3.91-5.19c-2.95.84-3.79,3.43-5.56,4.83s-1.89,1.16-2.54-1.21c-2.07-1.19-3.46-2.59-4.45,1.57-.64,2.73-4.11,4.83-6.46,7.07a2.47,2.47,0,0,1-2.26-.12c-1-.61-.33-1.55.27-2,3.1-2.53,2.49-6.15,2.9-9.48,3.06-2.44,5.93-5.1,5.94-9.38,0-1.76,1.4-2.52,1.91-3.86-3.6-6.21-3.24-7.1,3.32-8.09-1.77-1.62-1.84-1.8-4.09-1-2.87,1.06-4.77.42-5.83-2.49.48-4.18-2-7.84-2.24-11.91-1.82,4.67,1,8.73,1.91,13C156.46,36.61,156.85,38,155.09,38.87Z"/><path class="cls-44" d="M335.28,21.76a2,2,0,0,0-1.13,2c-2,1.17-4.07,2-6.2.26-2.75-2.22-1.9,1.17-2.83,1.8-.74.52-1.38,1.66-.79,2.05,5.29,3.43,1.14,6.49-.49,9.32s-3.07,5.47-2.19,9c-2.3-2.21-4.44-4.39-5.5-7.4,3.18-4.28,2.94-8.52.31-13.07-1.43-2.47.78-4.66,1.6-6.93,4-1.81,8.38-.69,12.56-1.4C333,17,334.09,19.87,335.28,21.76Z"/><path class="cls-45" d="M292.94,12.9c-1.24,2.45-4.17,4.19-3,7.66.22.63-.65,2-1.38,1.44-4.95-4.07-8.21.67-10.89,2.87s-3.05,2.64-3.74-.81c-.31-1.56-1.46-2.1-2.9-2.22a4.53,4.53,0,0,0,.82-1.19c3.11-11.79,13-7.86,20.76-9A12,12,0,0,1,292.94,12.9Z"/><path class="cls-46" d="M318.06,18.79c.16.63.66,1.57.42,1.83-3.4,3.7.41,6.83,1.19,9.92.54,2.19,2.5,3.54-.79,4.82-1.53.6-.49,3.34-2.73,3.44A3.23,3.23,0,0,0,314,35.88c0-3.74,1.55-8.44-5.18-7.75-.65.07-2.22.07-2-1.47.12-.76.57-1.73,1.61-1.42,6.62,2,3.37-2.79,3.57-5.19C314.58,22.1,316,19.08,318.06,18.79Z"/><path class="cls-47" d="M185.22,11a19.88,19.88,0,0,1-7,4.52c-2.82,1-3.3-.33-2.23-2.73,1.64-2.56,5.06-1.77,7-3.72Z"/><path class="cls-42" d="M141.54.69c-.76.33-2.39.09-1.36,1.7,1.18,1.84,1.1,3.69.55,5.81-3.21-1.51-2-5.07-3.62-7.2C138.55.47,140-.77,141.54.69Z"/><path class="cls-48" d="M183,9.07c-.84,4.07-5,1.84-7,3.72-.73-1.08-2-.5-2.93-.95C176.45,11.19,179.28,8.52,183,9.07Z"/><path class="cls-49" d="M85.12,15.05c-.81,2.14,2.12,7.8-4.34,4.62C82.11,18,83,16,85.12,15.05Z"/><path class="cls-26" d="M27.59,400.3c5.6.39,10.1,1.23,14.63.59,1.16-.17,2.54-.08,3.16,1,1.48,2.65,3.25,3.59,6,1.82,1.32-.84,2.89-1.37,4,.23a4.22,4.22,0,0,1-.14,5.11c-2.42,3.46-9.08,5.18-13.17,3.43-4.58-1.95-11.53.13-13.56,4.68-2.56,5.75-7.27,9.16-12,12.7-1.24.93-2.78,1.72-4.11,1.21-1.8-.69-.59-2.59-.23-3.48,3.19-7.92.66-17.93,8.71-24.05C23.18,401.84,25.15,399.13,27.59,400.3Z"/><path class="cls-1" d="M256.77,474.61c-1.51-4.45-2.74-7.53-3.56-10.72-.32-1.23-.79-3.29,1.21-3.73a3.56,3.56,0,0,1,3.92,2.34C260.12,466.31,258.42,469.69,256.77,474.61Z"/><path class="cls-1" d="M58.72,421.45c-.09,1.16-.85,1.41-1.73,1.34-2.63-.23-4.32-1.62-4.7-4.28A1.26,1.26,0,0,1,53.82,417C56.5,417.35,57.54,419.52,58.72,421.45Z"/><path class="cls-1" d="M190.81,452.72c-2.63-.06-2.57-2.26-3.16-3.88-.47-1.28.19-1.87,1.43-1.9,2.36-.07,3.13,1.71,3.62,3.47C193.09,451.79,192,452.48,190.81,452.72Z"/><path class="cls-1" d="M316,458.45c-.42,1.09-.38,3-2.35,2.88-1.26-.1-1.58-1.52-1.48-2.75.12-1.49.87-2.56,2.44-2.52C315.88,456.09,316.07,457.16,316,458.45Z"/><path class="cls-50" d="M263.06,191.94a13.8,13.8,0,0,0-7.26,1.19c-9.26,3.85-18.49,7.77-27.73,11.66-.65-4.72,3.6-6.35,5.83-9.26.71-.94,2.75-1.74,1.43-3.12s-2.23.24-3.16,1.23c-2.93,3.14-11.07,3.46-16,.09a17,17,0,0,0-10.77-2.92c-2.45.1-4.66.1-5.7,2.88-.33.88-.89,2.08-2.17,1.27-3.8-2.38-7.42.19-11.11.24-2.15,0-5.42,1.18-4.51-3.28a2.18,2.18,0,0,0-.65-1.71c-.86-.81-12.33.15-13.12,1.25-2.06,2.86-5.14,3.27-8.19,4-2.61.65-4.4.4-5.72-2.28s-3.76-3.53-6.67-2.53c-3.16,1.09-6.36-1.14-9.54.17-6.23,2.55-13.28,2.31-19.3,5.78a5,5,0,0,1-6.61-1.52c-1.49-2-3.43-2.51-5.45-3.56-6-3.11-11.94-1.37-17.91-1-1.77.12-2.85-.19-3.52-1.88a15.83,15.83,0,0,0-1.79-3.5c-.61-.85-2.31-1.15-1.35-2.68s1.72-2.66,3.8-2.72c5.23-.15,10.57,0,15.64-1.1,5.4-1.14,10.94-1.54,16.25-3.63,3.73-1.46,8-1.28,12.16-2.52,5.17-1.56,5.94-5.69,9-8.26-1.11-2.38-3.33.74-4.46-1.59,1.69-2,3.51-4.17,4.19-7.22.37-1.68,2.35-5.56,4.91-.92a2.86,2.86,0,0,0,2.56,1.29c1.18.66.91,2.29,2,3,.05,2.08.17,4-2.89,4.08-3.24.09-1.47,4.73-5,4.92,5.91,5.26,7.14-6.57,12-2.2a1.67,1.67,0,0,0,.23-2.1c-.63-1.68-4-3.47-1.58-4.79a9.17,9.17,0,0,1,7.47-.2c5.77,2.37,10.11,9.26,18.79,4.64-3.44,6.63-8.2,8.78-13.25,10.53-1,.36-2.62,0-2.48,1.75s1.75,1.12,2.74,1.55c3.35,1.43,5,.27,7.26-2.71,2.78-3.66,7.71-5,12.19-6.43a16,16,0,0,1,3-.35c-.13-2.75-6.11-1.61-3.5-5.68,6.6-2.47,13.2-1.61,19.7.29a35.08,35.08,0,0,1,7.85,3c1.69,2.2-.52,2.92-1.64,3.79-1.73,1.34-2.78,2.44-1.73,4.94,1,2.3-.68,3.36-2.93,3.22a7.71,7.71,0,0,0-6.92,2.89c7.44-2.71,14.89,0,21.39-3.53,2-1.08,4.6,1.24,5.81-.71,1.82-2.95,5-2.11,7.35-3.47,1.46-.85,3.31-1.78,5.13-.41-1.32,2.42,1.16,2.28,2.07,3.37,5.75,6.95,13.69,10.51,21.44,14.39A4.15,4.15,0,0,1,263.06,191.94Z"/><path class="cls-43" d="M211.13,165.88c-5-1.34-9.93-3.09-15-3.87-4.25-.64-8.67-.13-13-.14q-3-2.51-6-5c-5.62-3.81-11-7.9-14.88-13.6-.91-1.33-2.25-2.55-1.36-4.44a2.29,2.29,0,0,1,1.31-.49c4.3,2.3,6.5,6.94,10.92,9.35-4.23-5.11-2.18-12.45-6.7-17.54-1.28-1.45-1.77-3.85-4.18-3.6-2.82.29-1.1,3-2,4.44a3.41,3.41,0,0,1-1,1.07c-4.08-.48-1.6-5.14-4.43-6.47-.47,1.83-.06,4.8-3.09,4.84-2.73,0-4.66-1.43-4.62-4.55,2.21-2.25,1.89-4.14-.53-6.13-2.12-1.75-4.06-3.3-1.83-6.92,1.93-3.14-3.34-9-7.13-8.61-1.91.21-1.6,1.45-.93,2.47a35.81,35.81,0,0,0,3.06,3.62c-2.69,1.18-5-1.39-7.41-.08-.25.14-1.22-1.22-.71-1.48,3.21-1.67,2.23-3.57.75-5.86a2.35,2.35,0,0,1,1-3c1.86-.86,1.95,1.79,3.4,2.22,1.5-1.37,1-4.77,4.47-4.32,1.48.2,1.92-1,1.53-2.4-.58-2-1.79-4.78.33-5.77,1.88-.88,4.38.77,6.29,2.14L151,92.86a14.78,14.78,0,0,1,7.63,8c.57,1.52-1.15,2.09-1.48,3.43,2.84.18,5.42.83,6.31,3.84.52,1.75-.49,2.81-2.17,3.26-1.67-.09-2.57.46-1.78,2.27.64,1.48,2.08,2.51,2.47,4.16.17,3.46,2.38,1.77,4,1.57,3.24.08,3.2,3.86,5.56,4.91,2-.87,3.85-3.07,6.28-.42,1.4,1.53,2.89-.74,4.44-.62a24.24,24.24,0,0,1,10.39,7.56c.7,3.79-1.46,4.69-4.63,4.49-1-.06-2-.3-2.6.84a1.42,1.42,0,0,0,.52,1.76,3.05,3.05,0,0,0,2.85.34c1.54-.44,2.37-1.78,3.46-2.78,1.25-1.14,2.44-.74,3.6.08,1,.72,1.67,1.55,1,2.95-.22.5-2,1.16.14,1.88,5.71,1.9,8.53,7.7,13.65,10.53,1.52.84,1.57,2.78,1,4.53-.32.93-2,1.74-.43,2.92a2.34,2.34,0,0,0,3.21-.08c2.46-2.45,5.19-2.59,8.25-1.41,1.69.65,3.13.62,4.07-1.47,1.68-3.75,4.88-1.88,7.45-1.55s5.38,1,5.27,4.68c-4.31,3.11-8.68,6-14.37,5.69a22.2,22.2,0,0,0-9.27,1.61C214.27,166.43,212.7,167.24,211.13,165.88Z"/><path class="cls-51" d="M67.09,136.85l-1-1c-3.36-.16-5.65-1.63-6.16-5.17-.2-1.35.54-2.88,1.76-2,3.06,2.11,5.62.62,8.39-.29.64-.22,1.24.36,1.7.82,2.44,2.43,1.86-1,2.13-1.4,1.67-2.75,3.26-4.42,5.78-.54,1.45-3.66-.46-6.83-.15-10.06.11-1.11.51-2.58-1.06-2.9s-2.56.7-3.27,1.86c-1,1.63-.77,3.53-.89,5.34-.15,2.28.51,4.7-1.15,6.72-3.34-.3-6.46-.59-3.73-5.33.79-1.37-.52-2.79-1.57-3.87-2.49-2.56-1.45-4.47,1.2-5.9a116.2,116.2,0,0,1,25.26-10.19c2.54-.68,5.39.83,7.79-1,2.72,0,4.7,2.17,4.17,3.94-1.4,4.67,2.71,6.71,3.79,10.1-3.76,2.47-6.86,1.6-9.39-1.92-.67-.93-1.15-2-2.29-2.52-.67-.3-1.26-1-2.12-.49a4.1,4.1,0,0,0-.72,1.29c-.58,1.59.2,4.23-2.07,4.47s-2.68-2.22-3.8-4.3c1.35,3.52,3,6.37,3.58,9.61a6,6,0,0,1,.39,1.25c0,2.13,1.45,3.4,2.68,4.82a5.3,5.3,0,0,1,.65,1.16c.14,1.16.86,2.23.52,3.45.39-1.08-.28-2.1-.22-3.16a7.15,7.15,0,0,1,.24-1.37c.23-.79.42-1.6.69-2.38.53-1.48,1.4-2.92,3-3,2,0,1.76,2,2.27,3.32a2.14,2.14,0,0,0,1,1.47c2.22-2.86,4.09-6.13,6.67-8.81q3,3.5,6,7c5.59.1,7.89,2.82,6,7.07-6,0-7.07,5-8.75,9-1.24,3-2.25,3.78-5.81,2.66,1.07,4.46-.78,8.84-.32,13.35.18,1.68-2.68,1.2-4.09,1.82-3.55,1.55-7,.49-10.75-1,1.47-1.26,3.18-1.16,3.41-2.77-.69-.78-1.26-.24-1.83-.05-4.51,1.53-5.58.85-5.65-3.67,0-.47.16-1.29,0-1.37-7.32-3.29-4-11.76-8.37-16.52-1.32.41.58,3.38-1.77,3.05-2-.27.36-2-.92-3l-6.1,8.45C66.33,144.32,68.51,139.07,67.09,136.85Z"/><path class="cls-52" d="M123.1,132.92c.89-4.81-2.9-5.64-6-7.07-1-5.63,1.23-6.73,6-3.5-.27-5.76-3.24-6.73-7.4-5.83-2,.43-3.93.63-4.4-1.76-.43-2.2,1-2.87,3.1-2.46a.93.93,0,0,0,1-1.32c-.68-1.61-1.58-4.52-2.31-4.5-8.51.28-4.42-5-4-8.63,3.5-2,4.42,1.21,6,3,3.44-.1,6.17.52,4.31,4.94-.47,1.12-1.29,2,.31,2.74,1.41.61,2-.28,2.5-1.48a9.67,9.67,0,0,1,1.86-2.17c.71-.73,1.92-.68,2.08,0,1,4.31,5.31,7,5.77,11.5-.71,2,.75,2.74,2.14,3.48h0c1.79,1.08,3.1,3,5.39,3.21,3.12,1.37,5.33,4,7.47,6.35,4,4.42,10.31,5,14.13,9.48,2,4.9,5.6,8.56,9.67,11.71a27.86,27.86,0,0,1,6.33,6.26c-1.85.24-5.34-.86-2.53,3.17.59.86.75,2-.45,2.52a2.21,2.21,0,0,1-2.65-.89,37.34,37.34,0,0,0-9-7c-2.34-1.42-5-.33-7.67-2-3.6-2.2-7.63-4.07-11.29-6.35-1.79-1.12-3-.64-4.45.5-.13-5.19-2.43-7.55-9.41-8.34C125.71,138.08,124.28,135.93,123.1,132.92Z"/><path class="cls-53" d="M67.09,136.85c2.67,1.18.65,6.29,5,6-.6,1.42-4.67,2.25-.68,4.49.92.51-.28,1.39-.4,2.1-.55,3.32-3.68,5.14-4.65,8.23-.35,1.09-1.42,1.21-2.35.18-.67-.75-2.46-.62-1.88-2.31.3-.91.61-2.14,1.31-2.55,4.75-2.8,2.48-5.95.62-9.12C63.87,141,66,139.13,67.09,136.85Z"/><path class="cls-50" d="M132.06,197.74a58.11,58.11,0,0,1,5.84-3.62c1.43-.67,3.29-1.45,4.59.22s-.08,3.28-1,4.46C138.33,202.59,135.4,200.78,132.06,197.74Z"/><path class="cls-52" d="M148.1,158.86c-2-.09-2-1.55-2-3,.2-1.4-.44-2.89.47-4.2C151.48,153.16,149.08,156.16,148.1,158.86Z"/><path class="cls-53" d="M71.14,129.88c-.39-.6-1.18-1.1-1.59-.62-2.89,3.36-5.69,2.71-8.5-.49-.69,4.51,2.45,5.58,5,7.08-2.28,1.29-4.95,2-7.33,5.73.19-9.37-8.05-7.37-12-11.08-1.47-1.39-5,2.89-4.44,5.61.2,1.09,1.81,1.62,1.13,3.14-6.72-3.56-4.18,5.26-7.86,5.69-5.27-2.11,1-7.44-3.29-10.33,8.66,3.06,5.33-4.92,7.81-7.6-5.7,2.14-12.09-.37-17.68,3.34-1.76,1.16-4.82-.06-6.34-2.48l2-2c.34-.32.69-.63,1.06-.92,3.86-2,8.81-2,11.42-6.45,1.1-1.9,3.6-.85,5.95-1.09-2.84-2.32-6.23-.29-8.43-2.54.09-.93-2-.61-1.14-2,1-.84,1.79-2.13,3.36-2.08,1.46-1,2.58-2.28,2.06-4.08-.95-3.33-3.92-6.69,2.13-8.71,2.21-.74-.1-4-.46-5.54-1-4.19.74-6.83,3-9.61v0l3.09,3c1.31.52-.36,3,1.89,2.91.4,2-.82,4.33,1.07,6.09,1.25,2,.37,4.42,1.1,6.55.09,4.43.66,4.85,4.71,3.45.63-.22,0,.22.41-.24.6-.72-.48-.32-.62-.64a7.06,7.06,0,0,1-1.55-7.81c1.23-3-1.43-3-2.1-4.37.46-2.87,4-2.64,5-4.95,3.49,1,3.13,4.58,4.61,6.93-1.44,3,2.63,4.27,2.31,6.94.15,1.43-.1,2.92.64,4.26.83,2.4-.56,4.3-1,5.86,2.13-2.51,1-5.82.46-9.07-.25-2.48-.14-5-.82-7.42-.27-1-.83-2.29.25-2.7,2.8-1,2-3.45,2.48-5.42.61-2.47,1.71-4.31,4.7-2.58a81.2,81.2,0,0,1-.12,10.58c-.06,1.61-.4,3.27,1.16,4.44,1.79,1.12,2,3.31,3.41,4.84-.77-1.33-1.21-2.76.07-3.76S71.4,99,73,99.39c2,.48.72,2.06.94,4,1.41-3.05,2.15-6.4,6.07-4.72,2.73,4.52,2.9,4.62,7,1.73C90.56,98,93.13,95,92.87,90.17c-.14-2.44,1.61-4.68,1.56-7.21,0-.89-.15-1.93-1.25-1.31-2.85,1.61-5.07,0-7.44-1.08a1.91,1.91,0,0,1-.66-3c3.51-1.45,7-3,11.86-1.65a13.71,13.71,0,0,0-6.35-4c-1.87-.68-3.83-1.37-3.6-4,6.74-.55,10.77,2,14.19,8.42,1,1.88.09,2.64-.87,3.79-3.43,4.14-3.65,8.79.29,11.93,2.15,1.72,3.28,3.93,5.19,5.67-1.35,1.62-2.52-.25-3.69.13-.61.74-1.58-.16-2.22.49,1.19.43,1.49,1.65,2.21,2.5,0,.34,0,.67,0,1-.91,1.23-.47,3.77-3.65,2.41-4.21-1.79-8,1.33-11.84,2.44-6,1.73-11.67,4.66-17.28,7.54-2.36,1.21-3.32,2.83-.26,4,3.24,1.23.82,4.17,2.22,6,.37.47-1.58-.71-2.57.42,1.08,1.41,2,3.08,4.29,3.16C73.53,129.54,72.67,130,71.14,129.88Z"/><path class="cls-54" d="M161.09,110.86c1.21-.66,2.46-1.49,1.33-3-.81-1.06-1.68-3-3.3-2.26-3.49,1.69-3.43-1.49-4.88-2.65,1.06-1.66,3.76,1,3.83-2,.37-3-3.53-4.86-2-8.11l1.06-1a2.64,2.64,0,0,1,4.27.73c2.51,4.14,7.31,6.4,9,11.2.32.93,1.14,2.18,2,2,5.55-1.19,7.39,3.32,10.41,6.83,1.18-1.76.3-4.88,3.33-4.82,4.52,11.14,15.67,14.84,24.18,21.49.68.54,1.89.41,2.85.59,8.42.18,13,6.18,17.54,12.12-.72-1.52-2.44-2.57-1.42-4.39,1.52-2.7,4,.49,5.85-.75l15,3c-1.12,1.16-.69,2.82-1.38,4.15-1,2-2.71,3.58-4.68,2.39-2.68-1.61-2.38,0-3.17,1.67-1.23,2.51-.18,3.27,1.93,3.79,2.37.59,4.72,1.19,3.44,4.55-2.11,1.79-4.3,3.19-7.12,1.46-2.2-4-6.53-2.42-9.78-3.65a1.26,1.26,0,0,0-1.63,1.37c.59,5.36-2.83,3.18-5,2.52-3-.91-5.51-1.84-7.73,1.61-1.49,2.33-3.38.83-5-.49-2-1.63-1.35-2.22.47-3.64,1.55-1.21,1-3.62-1-4.51-3.65-1.6-6-4.69-8.79-7.19-1.39-1.23-2.37-4.07-5.15-1.64-.73.63-1.33-.56-1.71-1.27-.62-1.18-.17-1.8,1.06-2.16s2.56-.72.83-2.17c-1-.84-2-1.9-3,.12-1.24,2.5-3.27,3.47-6.09,3.11-2.34-.29-3.41-1.63-2.84-3.68.47-1.72,1-4.07,4.08-2.37,2.71,1.5,4.35.27,4.38-2.88-6.68-6.35-13.31-12.76-21.06-17.84,3.94,2.3,6.62,6.17,10.54,8.51a1.73,1.73,0,0,1,.56,2.23c-1.9,1.36-3.63,4.58-6,.34-1-1.84-1.86-.62-2.43.47s-1.09,2.12-2.57,1.22c-1-1.4-2.08-2.74-1.63-4.63.27-1,2.13-1.2,1.46-2.65a1.33,1.33,0,0,0-2.29-.52,6,6,0,0,1-2.61,1.76c-1,1.4-3,1.07-3.76,2.84-1.92-1.57-1-3.33-1.24-4.83C164.63,115.52,160.78,113.19,161.09,110.86Z"/><path class="cls-43" d="M186.1,107.8c-1.23,1.19-2.12,2.36-1.17,4.26a1.75,1.75,0,0,1-.88,2.51,2.07,2.07,0,0,1-2.53-1,31.81,31.81,0,0,0-3-4.52c-1.19-1.22-2-3.83-4.89-1.27-1,.91-3.48-1.54-4.73-3.75-2.82-5-6.13-9.76-11.77-12.12-4.31-1.76-7.1-5.89-11.57-7.43A1.93,1.93,0,0,1,144.32,82c.31-1.07,1.29-.56,2-.71,3.61-.69,7.25-1.38,7.88-6.08.28-2.11,2-2.48,3.78-2.31,2.29.23,3.25-1.18,4.1-2.88.31-1,.87-1.58,2-1.08-1.55,4.72-1.86,8.93,2.21,13,1.46,1.47,4.57,6.08-2.12,6.86-1.82.21-1.56,3.21.14,4.48a103.88,103.88,0,0,1,13.48,11.74C180.13,107.51,183.65,106,186.1,107.8Z"/><path class="cls-55" d="M67.07,56.88c2.05,1.66,5.42,2.76,2.47,6.42a1.21,1.21,0,0,0,.9,1.89c4.41.16,5.28,3.66,6.72,6.74.81,1.73,1.34,3.89,3.91,3.93s2.66,2.25,2.38,3.84c-.55,3,.34,5.88.53,8.81.23,1.75.07,3.37-1.5,4.51-4.17-.38-8.51-.17-12.24-2.48-1.34-.83-4,1.87-4.17-1.68-.77-4.73,2.54-6.25,6.63-7.52-6.69-1.14-7.1-1.93-4.07-7.58.62-1.15,1-2,0-3.11C65.13,66.42,65.83,61.67,67.07,56.88Z"/><path class="cls-56" d="M67.07,56.88c.18,1.46,1,3.44.4,4.3-2.85,3.85.68,6.67,2.18,8.54,1.71,2.13,2,2.66.17,4.47-1.08,1.1-2.88,2.39-2.24,4.15.79,2.17,3.11,1.33,4.85,1.54l1.84.16c-1.22,1.63-.9,3.9-4.21,3.61-3.15-.27-2.89,2.92-3,5.21a1,1,0,0,1-1.19.18c-1.59-1.33-1.76-3.4-2.67-5.08-3-.38-3,1.53-3.18,3.78-.15,1.65,2.26,5.28-2.61,4.55-.9-.14-.32.89,0,1.4,1.46,2.68.56,5.54.68,8.32-1,.76.27,2.39-1.19,2.94-1.11-1.25-.67-2.76-.67-4.19.22-2.61,0-5.07-2.2-6.91s-2-4.94-3.86-6.95a9.65,9.65,0,0,0-3-5.58c-1.17-1.25-.28-2.72.36-3.58s1.22.47,1.65,1.11c2.8,2.16,3.39,5.79,5.57,8.37.7.83,1.13,2.27,2.44.66,0-5,3.59-8.63,5.94-12.34s2.12-6.85,1.84-10.23c-.23-2.92,1.08-5.61.54-8.51C65.36,56.18,66.51,56.8,67.07,56.88Z"/><path class="cls-57" d="M145.1,59.88c-1.39,2.15-4.16,3.26-4.68,6.3l3.65.67c.74,1.49-.13,2.37-1.15,3.21,1.31-.46,2.12-2.68,4-1.25l.25.08a7.2,7.2,0,0,0-1.14,4.93c-.64,1.19-1.06,2.7-3,2.06-.91-3.31-2.24-5.09-4.93-1.25-.93,1.33-2.38,1.7-3.43.91C131.4,73,127,73.21,123.31,70.61c5.13,0,6.15-7,12.06-6,2.22.37,2-2.86,2.65-4.62C140.39,60.54,142.71,56.75,145.1,59.88Z"/><path class="cls-58" d="M161.09,138.9c-8.93-2.69-15.39-9-22.05-15-1.6-1-3.27-2-3.93-4l3-6.22c2.88,4.62,6.93,7.66,9,12.25.72.88,1.38,1.82,2.19,2.63s2.13,1.94,3.39.71c.88-.86,1.78-2.09.4-3.4-.8-.76-1.24-1.74-.22-2.5s2,.16,3,.78c2.95,1.87.55,5.86,3.21,7.79.18,2.67,3.13,4.15,3,7C161.74,138.85,161.42,138.87,161.09,138.9Z"/><path class="cls-59" d="M108.9,55c1.14,1.3,2.71.94,4.15,1q11.52.45,23,.87c.59,1.32-.14,2.15-1.06,2.92-1.25,1.1-3.23,1.23-4,3-.2.29-.67.6-.74.48-3.22-5-6.51-.41-9.7,0-1.17.16-2.27,1.18-3.5,1.61-5.6,0-8.9-4.43-14.19-7Z"/><path class="cls-60" d="M111.15,118.84c-.51,4.94-5.57,7.12-6.45,12.37-2.57-2.62-2.36-5.2-2.89-7.52-3.43.19-1.86,3.92-3.79,5.11-.44-.2-1.09-.36-1.16-.8-1-5.82-2.53-11.7,1.27-17.16,1-.25,2.48-1.54,2.74.26.9,6,5.19,5,9.19,4.8Z"/><path class="cls-61" d="M8.09,113.84c-.65-1.76-4.14-3.58.23-5.21,2.55-.94,7.13-1.67,7-3.34-.19-3.18.07-7.05-1.72-9.76-2.19-3.34.07-6.77-1.29-10-.57-1.36,1.34-2.3,2.64-2.23a1.71,1.71,0,0,1,1.35,2.6c-2.48,5-.59,10,.42,14.86.84,4,1.54,8.09,2.34,12.13-1.9,1.18-2.54-.34-3.35-1.6,0,2.12,4.48,2.46,2.18,5.43-1.89,2.45-4.41,2.68-7.17,1.84C8.8,117.57,10.42,114.59,8.09,113.84Z"/><path class="cls-15" d="M11.27,117.86c2.63-.15,6.62.61,5.71-3.35a14.31,14.31,0,0,0-4.22-5.88c3.56.23,3.58,4.09,6.33,4.23a4.12,4.12,0,0,1,4,4.15c.14,2,.46,4.34,3,4.07,2.75-.29,1.89-2.92,2-4.75,0-.49,0-1,0-1.47,2.46,0,4.94-.07,7.39.12,1.51.12,3.22,1,2.79,2.66a2.26,2.26,0,0,1-3.58,1.22c-1.67-1.24-2.79-.59-3.76.68-3,3.95-7.35,5.26-11.86,6.32-.53-1.72,1-4.26-2-5l-5.12,1C10.27,120.77,9.7,119.51,11.27,117.86Z"/><path class="cls-49" d="M78.12,40.88l-.49,2.24c-.91-3.27-5.31-.64-6.35-3.76-.19-.57-1-1.52-1.3-1-2.86,5.27-4.56-1.68-7-.59a6.54,6.54,0,0,1,0-4.88c6.45-.28,5.3-5.23,5.81-9.86,1.23,4.64,2.46,8.87,9,6.23-4.11,4.71-.66,8,.27,11.55Z"/><path class="cls-62" d="M131.11,116.85a36.94,36.94,0,0,0-7-11.95L113.23,88.21c1.34-2.16,2.88.31,4.14-.65.47-.36,1-1.7,1.83-.33a1.65,1.65,0,0,1-.22,2.22c-3,3.26-.12,3.68,2.11,4.42h0c-1.39,4.12,3,5.79,4,9,.08.28,3.77-.56,5.79-.87-1.33,5.43-1.38,5.46,2.45,11.69.79,1.29.14,2.17-.27,3.2A1.36,1.36,0,0,1,131.11,116.85Z"/><path class="cls-63" d="M87,67.93c1.51,3.95,6.17,2.16,8.63,4.75,1.11,1.17,3.21,2,2.51,3.63-.6,1.46-2.72.68-4.07.3-3.25-.92-5.8,2.17-9,1.38-.84-1.22-1.12-2.69-1.89-4-2.21-3.7-1.64-4.76,3-6.33A7.24,7.24,0,0,0,87,67.93Z"/><path class="cls-64" d="M86.2,67.68c-3.17,1.81-5,3.8-1.07,6.78,1.45,1.1.37,2.35,0,3.53a4,4,0,0,1,0,.85c-.14,3.11,3.07,6.94-1.94,9-2.77-3.64,1.36-8.47-2.09-12,.63-2.77-1.91-4-2.95-5.91-.78-1.46-1.81-3.08-.44-4.51,1.19-1.25,2.75-.37,4.1.24Z"/><path class="cls-43" d="M141.18,87.63c-4.33-2.46-7-2.84-8.44,1.39A2.8,2.8,0,0,1,129,90.64c-1.27-.44-2.55-1.27-2.55-2.71s.59-3,2.65-2.77a.93.93,0,0,0,.75-.45c.43-2.16,0-4.95,3.54-4.79C135.1,80,138.54,83.18,141.18,87.63Z"/><path class="cls-65" d="M164.12,68.93l-2,1.08c-3.26-1.64-3.28-1.67-.42-3.65,1.65-1.14.28-4.51,3.4-4.5.12,1.51.81,1.72,1.77.64,1.31-1.48,2.37-3.19,3.79-4.55,1-.93,2.3-2.45,3.79-1s.31,2.74-.82,3.82c-2.5,2.38-5,4.73-7.53,7.09Z"/><path class="cls-66" d="M43.18,102a20.59,20.59,0,0,1,0-7.09l2-3.06c3,0,6.38-.91,3.21,4.33-.88,1.45-.95,5.29.8,7.75C46.34,106.46,45.45,106.17,43.18,102Z"/><path class="cls-62" d="M115.12,100.87c-2.05-.93-3.24-3.57-6-3-1.32-3.43-5-6.13-3.19-10.66.42,2.55,6.6.42,4.07,5.28a8.27,8.27,0,0,0,1.15.73c1.19.65.89-3.39,2.61-.87,1,1.39-.31,2.42-.92,3.56-.15.28.25,1.22.33,1.21C117,96.71,114.68,99.52,115.12,100.87Z"/><path class="cls-67" d="M117.09,64.86c3.49-4.72,9.52-4,13.81-6.78,1.55,1.74-4.47,3.1.13,4.66-1.77,1.9-4.18,1-6.25,1.58-1.13.29-4.12-2.34-3.91,2.29C121,68.49,118.7,64.92,117.09,64.86Z"/><path class="cls-68" d="M25.1,72.86c2,2.48.49,5.41,1.06,8.07.37,1.74.58,3.56,1.92,4.93,0,3.57-.86,6.81-3.57,9.36-.33-.26-.81-.5-.78-.64C25.19,87.4,24.45,80.09,25.1,72.86Z"/><path class="cls-49" d="M78.08,40.84c0-2.42.33-4.87-1.18-7.62,5.76,3.71,2.26-3.17,5.19-3,.61,1.66,1.43,3.49,1.94,5.4,1.16,4.28,1.12,4.19-3.19,3.42-1.08-.2-1.1,2.23-2.72,1.89Z"/><path class="cls-53" d="M57.15,87.88c1,.87.76,1.71-.18,2.37a1.49,1.49,0,0,1-2.39-.74c-1.47-3.74-4.69-6.57-5.44-10.66,2.78-.28,7.2-3.1,5.13,3.73C53.66,84.59,55,86.73,57.15,87.88Z"/><path class="cls-69" d="M99,63.28c3.49,1.54,5.84,2.53,8.15,3.62,1.06.49,2.17,1.22,1.45,2.62a2.07,2.07,0,0,1-3.32.8C103.26,68.47,101.6,66.27,99,63.28Z"/><path class="cls-70" d="M135,59.77c.35-1,.71-2,1.06-2.92,4.31,3.42,8.05-.3,12-1l-.06-.06c0,2.07-1.5,3.05-3,4.05-2.37-1.59-4.69,2.07-7.08.08Z"/><path class="cls-71" d="M156,92.89c.19,2.83,4,4.74,2,8.11q-3.52-4.06-7.06-8.14C152.69,91.9,154.36,93.36,156,92.89Z"/><path class="cls-72" d="M11.27,117.86a5.63,5.63,0,0,0,.71,4l-2.2,2.42c-1.66-3.44.29-7.29-1.69-10.41C10.91,113.79,9.43,117.14,11.27,117.86Z"/><path class="cls-73" d="M99.16,58.83c-2.54.19-4.9.49-6.25-2.39C94.86,57.77,98.63,52.09,99.16,58.83Z"/><path class="cls-74" d="M116.58,79.81c3.42.72,5,2.33,5.65,6.43C119.4,84.14,117.14,83.11,116.58,79.81Z"/><path class="cls-43" d="M143.1,75.88l3-2.06c.26,1.26,2.61,2.13.75,3.78-.72.64-1.69,1.72-2.33,1.58C142.86,78.83,143.15,77.18,143.1,75.88Z"/><path class="cls-53" d="M37.1,82.85c-4.85-.34-2.55-3-2.44-5.8,2.72,1.84,2.34,3.9,2.43,5.82Z"/><path class="cls-75" d="M63,32.92c.27,1.63,1.64,3.25,0,4.88C56.77,36.18,61.55,34.55,63,32.92Z"/><path class="cls-76" d="M42.07,88.82c-1.27.43-.28,3.18-2.18,2.53-1.36-.48-.36-2-.08-3a21.71,21.71,0,0,0,.36-2.42C43.73,85,41.31,87.93,42.07,88.82Z"/><path class="cls-43" d="M121.09,93.87c.27-1.33-.69-3.17,1.35-3.74,1-.26,1.48.52,1.56,1.44.18,2.18-1.34,2.28-2.91,2.3Z"/><path class="cls-51" d="M102.09,100.86c-1.58-1.11-3.15-2.27-5.4-2.24,1.78-2.16,3.56-1.84,5.41-.75C102.1,98.87,102.09,99.87,102.09,100.86Z"/><path class="cls-42" d="M115.18,39c.91,1.49,1.91,2.64.83,4.12-.19.25-1.12.34-1.24.17C113.72,41.84,113.82,40.46,115.18,39Z"/><path class="cls-61" d="M17.1,120.86c5.44-.24,2.59,2.83,2,5h-1A8.7,8.7,0,0,0,17.1,120.86Z"/><path class="cls-77" d="M30.33,110.79A3.41,3.41,0,0,1,27,112.87c.21-1.59.05-3.59,1.79-4.22C29.77,108.29,30,109.89,30.33,110.79Z"/><path class="cls-43" d="M135.11,119.85a10.09,10.09,0,0,1,3.93,4c-3,.39-4-1.85-4.94-4Z"/><path class="cls-43" d="M131.11,116.85h2l1,3C129.94,119.73,129.88,119.66,131.11,116.85Z"/><path class="cls-78" d="M201.1,217.88c0,.32,0,.64,0,1-3.41-.28-6.3,1.58-9.47,2.3-2.76.62-1.25,3.39-2.55,4.71-1.12.16-3,.8-3.24.41-4.19-6.67-8.86-1.7-13.3-.64s-8.6,3.29-13.32,3.26c-1.76,0-3.33-.21-4.15-2,5.09-2.65,10.11-5.9,15.71-6.92,10.07-1.82,17.89-8.32,27.66-12-.53,1.77-1.81,3.42-.33,4.94C199.38,214.36,201.7,215.25,201.1,217.88Z"/><path class="cls-28" d="M201.1,217.88c-.69-1.86-3.14-2.68-3-5,.49,0,1.13.17,1.46-.07,5.55-4,12.66-3,18.56-5.86-.47,6.8-4.42,9.42-10.9,9.46C205.19,216.39,203.15,217.35,201.1,217.88Z"/><path class="cls-7" d="M84.08,244.84c1,1.17,2.7,2,0,3.58-5.18,3.05-7.37,2.84-9-1.52Z"/><path class="cls-79" d="M239.11,157.87c2.52,0,4.73-1.08,7-2a6.27,6.27,0,0,1,7-1,20,20,0,0,0,8-1c1.39-1.34,3.07-1.1,4.71-.8a9.57,9.57,0,0,0,8-1.69c.92-.72,2-1.5,3.17-1.32,10.9,1.74,20.62-4.44,31.23-4.57,15.13-1.73,30.2-4,45.34-5.65a5.56,5.56,0,0,1,2.53.26c3.18,2.61.59,3.82-1.4,4.46-4.11,1.31-8.25,2.65-12.66,2.66a25.13,25.13,0,0,0-14.66,4.18,15.7,15.7,0,0,1-9.89,2.85c-1.17-.05-2.5-.2-3.44.42-5.66,3.73-12,1.68-18,2.15l-2,.05c-.64.54-1.43,1.2-2.18,1-5.4-1.58-9.87,1.05-14.55,3-4.22,1.71-8.78.92-13.17,1.33-2.73.26-5.19.62-7.12,2.71-1.28.19-3.23-.08-3.74.65-4.05,5.81-10.86,4.22-16.23,6.38-4,.35-7.16,3.55-11.49,3.06,0,2.3,3.34-.29,2.56,2.13-.34,1.05-1.89,2.26-2.76,1.58-4.18-3.29-7.89.11-11.75.55-3.14.36-6.13,2.66-9.36,0-.95-.79-2.18.21-3.06,1.05-1.73,1.65-4.12,2.86-5.41.34s2-2.74,3.46-3.74c1.66-1.15,3.38-1.82,5.56-.74,1.41.7,2.64-.89,1.68-1.76-4.7-4.25.48-4.81,2.27-6.6a23,23,0,0,1,2.32-1.83c5.87-2.3,11.94-3,18.24-3.35C232.69,162.34,235.87,159.51,239.11,157.87Z"/><path class="cls-80" d="M354.12,140.85c-5.55,1.77-11.37,1.92-17.08,2.4-9.7.81-19.16,3.42-28.93,3.58-4.29-4.71-1.78-10.13-1.28-15.2.2-2.14,2.59-1.5,4.09-.61,2.45,1.46,4.41.84,6.16-1.18a10.36,10.36,0,0,1,4-8.19c2-1.47,1.51-2.74.88-4.52,1.91,1.59,7.2,1.53,2.44,5.88-.62.57.23,2.72.56,5.54,2.58-5.94,5.63-4.36,8.85-2.37,3.38,2.07,3.44-1.49,4.23-3,1.21-2.27-.94-2.14-2.33-2.39a4.23,4.23,0,0,1-3.21-1.87c6.26-.9,11.54-.36,14.58,5.91-1.2,1.29-2.8.57-4.2.83a2.25,2.25,0,1,0,2.56,3.21c.65-1.3.4-3,1.63-4,2.06-.42,2.69.94,2.65,2.9,2.12-1.34,2-3.11,2.56-4.62.64-1.76,1.71-1.64,3.47-.76,2.46,1.22.25,1.59.08,2.51-.34,1.88-3.26,2.87-1.94,5.1s3.89,1.18,5.85,1c2.75-.19,5.3-.62,6.81,2.51.66,1.39,2.18,1.32,3.52,1.33a26.84,26.84,0,0,1-11,3c-2.47.48-4.37-1-6.46-1.85-1.83-.72-3.62-1.44-5.74,0C349.08,138.13,354.26,135.68,354.12,140.85Z"/><path class="cls-81" d="M296.09,156.82c2.84-1.42,5.66-2.5,8.92-1.2a4.36,4.36,0,0,0,3.41.1c6.73-4.4,15.6-1.92,22.1-7.09,3.25-2.58,7.3-3,11.33-2.75,4.52.26,8.49-2.19,12.9-2.48.9-.06,3-.63,1.3-2.55,0-2.17,1.36-2.32,3-2,.76,1.18,2,.95,3.13,1.09,1.68.2,2.21,1.5.9,2.26-4.79,2.74-5.52,8.08-8.56,13-1.46-6.63-4.39-5.46-8.6-3.15-2.46,1.35-6.1,3.21-9.15.21-3.65-3.6-7.15-2.31-8.77,1.46-2.57,6-7.54,5.75-12.22,5.65-5.18-.1-10.4,1-15.59-.41C298.58,158.51,296.89,158.68,296.09,156.82Z"/><path class="cls-81" d="M257.08,164.84c.53-3.4,2.91-3.82,5.84-4,5.15-.4,10.78,1,15.33-2,5.17-3.31,10.39-2.78,15.85-2-.21,2.11,1,4.95-2.85,5.14-.78,0-1.67.57-1.39,1.63a1.67,1.67,0,0,0,2,1.13c5.66-1.35,8.75,3.92,13.5,4.82a2.29,2.29,0,0,1-2.57,2.12c-6.81.11-13.63.35-20.4-.13-2.35-.17-6.62.47-6-4.64.11-1-1.67-2.12-3.11-2C267.85,165.4,262.47,163.25,257.08,164.84Z"/><path class="cls-82" d="M366.09,165.88c.57,1.3,3,3.17-1,3-1.38,0-2.93-.42-4,1a7.86,7.86,0,0,1-6.49,3.77c-3.16.18-5.52,1-6.24,4.84s-4.19,3.45-7.18,3.35c-.8.81-2.16,1.53-2.3,2.44-.93,6.06-4.66,4-8.48,3.12,2.11-2.87,5.7-3.8,7.53-7.84a24,24,0,0,1-13.77,3.41C338.13,177.22,351.25,169.44,366.09,165.88Z"/><path class="cls-83" d="M359.06,138.81l-3,2h-1.93c-1.1-1.67-2.05-3-4.68-2.45-1.65.36-4.82-.15-4.73-2.27.11-2.54,3.08-2.43,5.14-2.22,3.44.34,6.29,2.25,9.19,4C359.06,138.18,359.07,138.5,359.06,138.81Z"/><path class="cls-81" d="M331.5,159.88c-1.44-.17-3.64.36-3.6-1.56s2.23-1.45,3.63-1.43c1.2,0,3.08-.52,3.2,1.28C334.88,160.53,332.7,159.55,331.5,159.88Z"/><path class="cls-16" d="M317.08,129.84c-1.23,4.24-3.19,4.92-6.87,2.23-.66-.48-1.07-1.32-2-.94s-.44,1.31-.47,2.07c-.2,4.56-1.47,9.13.41,13.63-6.37,2-13.63.39-19.43,4.81-.55.42-1.62.17-2.45.2-5.07.15-10.16-1.65-15,2.52-2.57,2.25-6.69-.68-10.17-.49-2.43-2.81-.75-6.37-1.66-9.53-.48-1.68,1.78-1.7,2.78-.59,3,3.32,6.18,3,9,.31,2.09-2,4.22.82,6.46-1-4.13-3.45-2.85-12.35-12-10.95a16.12,16.12,0,0,0,3.85,5.93c-1.69,1.51-2.45-1.86-4-.44,0,1.88,2.76,1.79,2.73,4-4.37.07-7.11-1.87-7.92-6.21-1-5.51-1.91-11-2.82-16.58a2.9,2.9,0,0,1,.17-1.88c2.78-4.13,1.42-7.07-2.5-9.43-.52-.31-.79-1-1.18-1.57,1.5-2.48,2.94-.87,4.51,0,3.86,2.09,6.73,5.76,11.47,7.16.25.15.31-1,0-.36,0,.09-.16.1-.32,0-5.29-4.51-12-6.67-17.57-10.75-1.34-5.29-5.39-9.48-6.1-15,1.62-3.59,4.1-2,6.23-.84,3.23,1.68,5.66,4.53,8.9,6.26,1.49.8,3.11,1.93,4.62,1.25,3.89-1.74,5.72.3,7.25,3.32.79.63.49,2.15,2.25,2.1,3.6-.11,6.21,1.92,8.66,4.42,3,3,3.09,2.9,7.24.64.89,4.25,3.5,7.36,6.12,10.62,2.41,3,3.53,7,6.1,10,1,1.16,1.42,2.77,3.4,1.7,3.24-1.77,3.24-1.77,4.13,2.1,1.84.16,2.79-1.45,4-2.33C316.57,127.1,314.05,130,317.08,129.84Z"/><path class="cls-84" d="M273.1,96.86c-.17,0-.38,0-.49-.06-1.91-1.65-3.87-2.75-6.63-2-4.8,1.21-7.19-3-10.52-5.06-2.9-1.77-5.1-5.65-9.36-2.82-4-5-.31-7.88,2.94-10.9a28.49,28.49,0,0,1,15.1-.94c1.8.36,4.22,2.15,5.36-.25,1.39-2.91-1.89-3.22-3.48-4.4-1.88-1.67-1-2.93.61-4.08,6.51-4.34,13-8.66,18.45-14.43,1,.05,2.66-.13,2.65.75,0,3.57,3.77,5.63,3.37,9.23-.32,3.13,2.84,4.12,4,6.37,1,1.89,2.6,3.38,1,5.62-1.16,0-2.72.51-3.43-.06-6-4.84-11.64,1.24-17.46.42a1.47,1.47,0,0,0-1.73,1.4c.12,1.27.36,3,1.22,3.64,3,2.25,2.31,5.74,3.38,8.61-.09,2-1.53,2-3,2-1-.14-1.47-1.76-2.53-1.19s-.67,1.79-.22,2.66c.6,1.17.64,2.62,1.74,3.53C273.76,95.52,273.43,96.19,273.1,96.86Z"/><path class="cls-85" d="M332.11,84.83c-1.54-3.14-4.44-5.86-3.11-9.9,2.45-4.18,3-8.52,1.1-13.07,2.66-4.28,6.07-2.1,8.63-.4,4.67,3.1,9.09,4.57,14.1,1.11,1.83-1.26,3.48.81,5.27.29,3.12,1.43,5.33,4.07,8,6A2.25,2.25,0,0,1,365,71.83c-1.09.34-3.77.16-3,1,1.93,2.08-4.88,5.51,1.24,6.28,1.26.16,1.78,1.39,1.84,2.66a16.71,16.71,0,0,1-8.72-1.22,13.68,13.68,0,0,0-8.22-.6c-2.79,1.28-5.81.48-8.61.47-3.37,0-2.32,1.84-2.53,3.41L334.12,85Z"/><path class="cls-16" d="M274.1,94.85c-2.07.15-2-1.88-2.83-2.92-1.52-1.92-1.41-4.31.87-5.27,2.76-1.16,2.1,2,3,3.19C274.77,91.52,274.43,93.19,274.1,94.85Z"/><path class="cls-86" d="M318.08,88.85c-2,.55-4.57-1.26-6.07,1.61-.32.61-.74.39-2-2.58,2.66-3.39,6-.43,9-.77C319.41,87.06,318.23,88.15,318.08,88.85Z"/><path class="cls-16" d="M299.79,101.37a1.9,1.9,0,0,1-1.89,2.29c-1.76.18-2.28-1.31-2.43-2.53-.2-1.69,1.17-2.13,2.6-2.23C300,98.77,299.36,100.38,299.79,101.37Z"/><path class="cls-16" d="M331.31,96.09c2.94.35,4.64,2.57,7.92.64C335.89,101.72,335.09,101.56,331.31,96.09Z"/><path class="cls-16" d="M322.31,97.14A2.68,2.68,0,0,1,320.44,95c-.08-1.12.72-1.77,1.79-1.95s1.78.32,1.43,1.3S323.6,96.66,322.31,97.14Z"/><path class="cls-87" d="M325.12,25.83c.34-1.57-1.85-2.36-1.18-4.36,3.54.1,6.45,3.4,10.21,2.3,4.16,6,6.33,13,9.41,19.56C337.11,37.74,331.72,31.15,325.12,25.83Z"/><path class="cls-88" d="M330.1,61.86C331,64.83,335,66.4,333,71c-1,2.31-4.44,1.06-4,3.94l-1.87-1.12c.37-2.93-1-5.43-1.84-8.09-.59-1.87-.69-4.33.92-5.61S328.94,60.89,330.1,61.86Z"/><path class="cls-89" d="M332.12,281.88a1.86,1.86,0,0,1-2-2c-.61-1.81.61-2.94,1.77-3.73,9.91-6.72,17.92-15.55,26.52-23.73,1.23-1.18,2.5-2.9,4.67-1.57,2,.11,2.07,1.53,2,3l-12,12c-4.69,3.09-7.29,8.39-12.39,11.21C337.82,278.62,335.23,280.7,332.12,281.88Z"/><path class="cls-90" d="M341.18,181.81c3.48-1.16,7.4-1.58,6.8-7.08-.16-1.41,2.92-1.86,4.57-2,3.13-.31,5.79-1.63,8.54-2.86a1.58,1.58,0,0,1,.46.18c1.09.89,3.21-.87,3.71,1.43a1.65,1.65,0,0,1-.23,1.3c-1.51,1.72-2.84-.23-4.13-.4-1.38.64,3.47,4.94-2.26,3.16-2.11-.65-2.89,4-5.12,5.52-.46-1.41-.9-2.79-1.85-5.75-.87,2.9-3.53,3.6-1.44,6.2a1.63,1.63,0,0,1-.48,2.56c-2.38.72-1.41,2-.93,3.37,1.4,4.11-.11,6.5-4.29,8.09-2.25.85-.83,3.31-.69,4.75.62,6.48-3.37,12.69-9.56,14.26-.87.23-1.58,1.12-2.78,1.51,2.46-4.18,7.23-7.4,5.61-13.16,1.76-5.16,2.81-10.56,5.25-15.5.73-1.48,1.35-3.11-.26-4.53Z"/><path class="cls-82" d="M342.1,182.84c.93-.27,2.38-.76,2,.86-1.53,6.66-2.94,13.41-7,19.17-2.58.43-4.4,2.18-6.28,3.77-1.73,1.46-3.37,1.45-5.45.23,3.07-.49,3.66-2.41,4.48-4.93,1.36-4.21,5.09-7.06,7.86-10.46C339.8,188.93,342.18,186.49,342.1,182.84Z"/><path class="cls-91" d="M357.94,197.07c-.34,2,1,3.84.16,5.8-2.38-.44-3.81-3.38-7.28-1.9C352.71,197.44,355,196.63,357.94,197.07Z"/><path class="cls-92" d="M348.14,208.67c1.26-2.5-2.75-4.16.07-6.14.73-.51,1.17.27,1.55.78C351.15,205.22,351.33,206.94,348.14,208.67Z"/><path class="cls-93" d="M364.94,184.6a1.62,1.62,0,0,1-1.7,1.48c-1.29.1-1.09-1-1-1.72a1.26,1.26,0,0,1,1.71-1.23A1.24,1.24,0,0,1,364.94,184.6Z"/><path class="cls-94" d="M3.65,147.4c3.73,1.68,5.09-1,7.35-3a23.28,23.28,0,0,1,14.62-5.67c.94,0,2.18,2.7,2.87,4.33.79,1.86-1.14,1.42-2,1.91-2.55,1.43-4,3.34-2.38,6.36.38.7,1.2,1.42.19,2.11-.77.52-1.52.19-2.1-.59-1.59-2.12-4.47-2.34-6.27-4.37-.88-1-3.14-2.06-4.42-.4C8.47,152.05,6.3,148.68,3.65,147.4Z"/><path class="cls-95" d="M337,83.8c-.75-1.77-2.67-3-2.43-5.8,4.29,3.3,9.26-.78,13.57,1.92-.31,2.66-2.18,3-4.34,2.94S339.16,82.68,337,83.8Z"/><path class="cls-96" d="M370.19,231.47c.09,1.77-2,3-4.09,3.17s-3.37-2.21-3.52-3.77c-.17-1.8.84-4.08,3.52-3.91C368.2,227.09,370.06,227.77,370.19,231.47Z"/><path class="cls-11" d="M371.12,250.84h1l1,1c-.92,1-1.39,3.56-3.35,1.81C368.44,252.48,370,251.49,371.12,250.84Z"/><path class="cls-97" d="M365,71.83l1.11-2.93c1-.64,1.46-2.47,3.13-1.8,1.16.46,2.86.65,3.09,2.07s-1.16,2.34-2.43,2.55C368.35,72,366.7,73.89,365,71.83Z"/><path class="cls-1" d="M122.78,364.57c-1.81-.87-4.53-.55-4.61-3.56-.06-2.32,1.35-3.18,3.47-3.13s4.08.94,4,3.29A3.19,3.19,0,0,1,122.78,364.57Z"/><path class="cls-26" d="M313.68,410.65a2.81,2.81,0,0,1,.09.49c0,4.93-12.41,17.61-17.3,17.7-1,0-2.21.34-2.74-.65-.74-1.37.72-2,1.39-2.85,2.45-3.06,6.32-4.94,7.38-9.18.46-1.82,1.21-3.68-.14-5.2-1.76-2-3.42,0-4.82.77-3.26,1.85-6.7.12-10.1,1-4.76,1.18-8.54,2.65-10.81,7.53-1.15,2.46-2.65,5.75-7,4.91-2.38-.46-2.63,2.08-2.42,4,.15,1.48.8,3.08-.87,4-3.67,2-6.28,5.35-9.29,8.07-4.07,3.68-8,2.4-12,1.34-2.75-.72-5.67-2.4-2.91-6.26.46-.63.93-1.78.66-2.32-3.85-7.69,2.1-13.64,3.36-20.41.7-3.79.06-7.83,0-11.75a20.44,20.44,0,0,1,.94-7.35,6.37,6.37,0,0,1,5.06-4.31c2.91-.58,2.7,2.25,3.6,3.86s1.21,3.87,3.91,3.9c3.65.05,5.57-2.42,4.4-6.12-.41-1.33-1-2.46.5-3.46,4.21-2.74,14.09-.15,16.51,4.34,1.38,2.57,3.44,3.52,6.31,4.6,3.59,1.34,8,3.19,10.33,6.15,3.05,3.83,5.62,3.38,9.36,2.1C312,403.78,313.73,405.3,313.68,410.65Z"/><path class="cls-26" d="M242.58,448.55c-5.48,5.05-10.66,6-15.61,2.91-1.16-.72-.78-1.65-.29-2.53,1.64-2.94,7.9-4.7,10.89-3.08Z"/><path class="cls-1" d="M321.54,432.83c-1.28,0-2.32-.37-2.33-1.93,0-1.91,1.33-2.06,2.75-2s2.89.41,2.69,2.16S322.92,432.83,321.54,432.83Z"/><path class="cls-26" d="M287.93,432.85c-.87,1.84-2,2.94-3.83,2.93-1.11,0-2.15-.51-1.72-1.71a4.81,4.81,0,0,1,3.67-2.83C287.22,431,287.56,432.13,287.93,432.85Z"/><path class="cls-26" d="M272.71,453a1.9,1.9,0,0,1,1.87,1.31c.3,1.12-.51,1.41-1.39,1.44s-1.69-.13-1.84-1.17S271.74,453.11,272.71,453Z"/><path class="cls-23" d="M363.06,250.83c-3.71,1-6.3,3.94-8.43,6.55-5.9,7.19-13.06,12.8-20.35,18.34a14.22,14.22,0,0,0-4.18,4.14c-3.78,3-7.17,6.59-12,8,.91-4,3.29-7.54.3-12.05-1.66-2.5,1.62-4.11,4.16-4.83,1.47-.42,3.79.82,4.27-1.42.43-2-1.52-3.29-3.05-4.14-1.85-1-4.31-1.07-5.38.89-2.09,3.83-5.43,5-9.31,5.58q0-.5,0-1c3.09-2.31,5.75-5,7-8.74,1.44-4.13,6.12-4.79,8.51-8.1s5.78-5.92,8.66-8.9c3.18-3.31,6.82-5.26,11.5-3.84,1.65.51,2.41-.15,3.28-1.36,2.09-2.89,4.87-4.11,8.17-2.23,6.29,3.6,7.45,5.89,6.19,10.8C362.28,249.17,362.84,250.05,363.06,250.83Z"/><path class="cls-1" d="M250.55,218.38c.06-.52,0-.79.11-.83,1.87-.92,3.67-2.41,5.9-1,.27.16.36,1.26.26,1.3A12.6,12.6,0,0,1,250.55,218.38Z"/><path class="cls-98" d="M266.1,69.85A6.1,6.1,0,0,1,270.34,71c2.05,1.62,1,3.73.51,5.53-.54,2-2.16,1-3.29.51C261.5,74.59,255.2,76.47,249,76c-7.42-4.78-11.39-12.61-16.84-19.13-1.57-1.88-2.9-4-4.35-6,2.38-3.32,6.33-2.24,8.82-1.66,7,1.62,12,0,15.48-6.28,3.61,3.61,8.35,4.66,13.07,5.73a18.76,18.76,0,0,0,7.85,1.22c1.4,1.89-.16,3.05-1.15,4.24a25.94,25.94,0,0,1-6.49,5.25c-1.69,1.06-3.08,1.85-2.49,4.59a4.64,4.64,0,0,1-3.88,5.68C261.33,72.76,263.77,67.69,266.1,69.85Z"/><path class="cls-99" d="M203.1,32.86c.07,4.56-2,9-.31,13.7.89,2.52-2,2.08-3,3.14-1.43,1.48-2.59.72-3.81-.45-1.47-1.41-2.22-3.74-5-3.49-1.61.15-1.23-1.21-.73-2.07,1.23-2.19.76-4.54.86-6.85A30.85,30.85,0,0,0,193,31.72c.94-3.16,3.3-2.82,5.62-2.68S203.41,29.44,203.1,32.86Z"/><path class="cls-100" d="M224.09,98.85c4.71-3,4.28-2.67,5.61,2.47.82,3.17-.79,3.22-2,4.85-1.69,2.25-3.51,5.19-2.16,8.53.54,1.32.24,2.4-1.14,2.76-1.14.29-1.74-.66-2.17-1.63-1.44-3.3-3.72-6.51-.79-10.13-1.1-1.64-3.42-.07-4.34-1.84C216.68,98.37,221,99.48,224.09,98.85Z"/><path class="cls-16" d="M253.09,154.86l-7,1c-.12-2.49-1.72-2.3-3.67-2.73-2.22-.49-6.82-1.27-2.48-5.42,1.43-1.37-.87-3.05.17-4.64.47,0,1.16-.13,1.37.12,3.38,3.87,5.62,3.43,6.92-1.64.17-.66,1.11-1.13,1.69-1.69,1.33,3.42,2.22,6.56-.3,10.15C247.53,153.23,252.32,153,253.09,154.86Z"/><path class="cls-101" d="M235.1,136.86c-.11,1.83-1.26,2.1-2.78,1.9-.93-.13-.66-2.92-2.29-1.12-1.25,1.37.53,2,1.15,2.77s1.55,1.67,3.33,3.53c-4.19-1.52-7.65-.31-8.45-5.82-.36-2.49-5.19-5.38-9.08-6.29a6.19,6.19,0,0,1-3.85-2c4.49-2.54,8.18,1.25,12.31,1.68,2.53.25,5,1.61,7.65,1.28,1.58-.75,2.42-.44,1.95,1.46-.22.89-.77,1.73.06,2.57Z"/><path class="cls-43" d="M203.1,32.86c-1.13-4.11-4.71-2.26-7.16-2.7s-1.51,2.36-2.28,3.59-.49,3.08-2.58,3.09c-2.57-2.93.87-5.61.53-8.71-.26-2.37-1.26-3.15-2.45-4.4,1.5-1.68.69-4.49,2.86-5.84,3,.85,5.72,1.42,4.47,6.05-.63,2.33,2.73,3.71,4.82,4.77S205.14,30.32,203.1,32.86Z"/><path class="cls-102" d="M215.09,93.86c-1.17-1.77-2.67-3.42-1.66-5.85a2.07,2.07,0,0,0-.88-2.61c-4.7-1.54.5-5.25-1.65-7.47-.29-.3,1.9-1.57,3.15-1.85,1.52-.34,1.94.76,2,2.07.32,4.57.68,9.14,1,13.71C216.42,92.51,217,94.41,215.09,93.86Z"/><path class="cls-103" d="M252.2,101.89c4.25-.53,6.36,3.69,10.11,4.68,1.32.35,2.76,1.36,4.48,1.36,1,0,3,0,2.38,1.47-1.17,2.58-.15,2.59,1.7,2.06,1.56-.45,2.25,0,2.17,1.56-.09,1.77-1.12,1.37-2.43,1.23-5.05-.55-7.77-4.79-11.68-7.11-1.53-.9-2.78-2.54-4.84-1.25C252.32,105.09,252,103.62,252.2,101.89Z"/><path class="cls-102" d="M224.09,98.85c-.27.4-.45,1-.82,1.16-2.32.92-5.2,2.65-6.19,3.85-.27-2.76-4.33-4.59-2-8,1.75-1.32,3-.64,4,1C220.52,98.16,222.34,98.41,224.09,98.85Z"/><path class="cls-54" d="M235.1,136.86c-2.29-.53.88-3.79-2-4,2.59-1.61,5.19-3,8.3-.58C239,133.58,235.44,133.1,235.1,136.86Z"/><path class="cls-84" d="M242,78.37c-1.47-2.15-3.46-4-2.59-6.78C243.88,72.59,241.77,76,242,78.37Z"/><path class="cls-104" d="M192,17.89c-1.13,1.86.53,5.09-2.86,5.84,0-.62-.11-1.24-.17-1.85-.79-2.16-.29-3.67,2.13-4.21A2.83,2.83,0,0,0,192,17.89Z"/><path class="cls-100" d="M219.11,96.86a6.74,6.74,0,0,0-4-1c0-.67,0-1.33,0-2l2-2A5,5,0,0,1,219.11,96.86Z"/><path class="cls-105" d="M266.1,69.85c-2.41,1.56-4.7,3.66-7.77,1.15-.89-.74-2.29-1.15-1.77-2.58s1.47-.84,2.74-.56c3.06.69,1.37-2.75,2.7-3.74-3.25-3-.14-3.87,1.72-5.11,3.69-2.46,7.88-4.38,9.35-9.11,1.8-.27,2.66,1.38,4,2-2,5.89-5,11.12-10,15C266.52,67.79,265,68.36,266.1,69.85Z"/><path class="cls-106" d="M265.22,48.68c-5.45.59-10.71.74-13.07-5.73a7.29,7.29,0,0,1,10.07-4.4c1.59.84,3.25,1.54,4.87,2.31h0c-.42,5,4.53,2.57,6.54,4.78-1.52,1.13-2.44,4.31-4.67.49a2.67,2.67,0,0,0-2.3-.65C264.93,45.84,265.11,47.33,265.22,48.68Z"/><path class="cls-107" d="M267.09,66.88q5-7.5,10-15c2.66-4.66,5.32-1.68,8,0C281.34,59.58,273.75,62.66,267.09,66.88Z"/><path class="cls-108" d="M221.39,15.6a37.78,37.78,0,0,0-13.5-1.74c-.87,0-1.68-.31-1.73-1.35,0-.69.37-1.59,1.06-1.33,4.92,1.86,9.83-1.85,14.84.14,1.74.68,2.57,1.69,2.47,3C224.41,16,222.55,14.89,221.39,15.6Z"/><path class="cls-109" d="M296.12,73.84c-.26-4.13-2.77-6.77-5.82-9.19-1.31-1-2.73-2.81.8-2.8,4.11,4.14,7.87,8.68,14,11C301.74,75.11,298.9,74.09,296.12,73.84Z"/><path class="cls-110" d="M291.85,29.3c2.1,3.09,0,4-.61,5.41s-1.51,2.7.35,3.86c2.24,1.4.88,2.45-.46,3.29s-2.11,3.54-3.77,1.69c-1.29-1.45-3.44-3.88-1-6.08A22.79,22.79,0,0,0,291.85,29.3Z"/><path class="cls-10" d="M302.08,60.18c.12-1.61-.26-3.75,1.95-3.88,2-.12,2.69,2,2.65,3.47a3.71,3.71,0,0,1-3.41,3.55C301.5,63.37,302.35,61.3,302.08,60.18Z"/><path class="cls-111" d="M279.1,37.14c-1.3,3.21-3.33,4.1-6.43,4.91C273.87,38.86,275.66,37.57,279.1,37.14Z"/><path class="cls-106" d="M267.09,40.86c.06-2.54,2.4-4.29,2.32-6.87,1.26,3,.73,5.35-2.31,6.87Z"/><path class="cls-112" d="M157.05,33.92c1.19,2.19,2.74,3.42,4.95,1.3s4.21-.7,5.76.35c1.37.93,1.49,4-.69,3.53-7.83-1.51-3.93,3.66-4.11,6.52-5,.49-7-2.52-7.87-6.75.53-1,.87-1.94.13-3C155.76,35.18,155.14,33.39,157.05,33.92Z"/><path class="cls-113" d="M147,68.81c-1.83,0-2.82,2.39-4.9,1.75l2-3.71C145.41,67,147,66.64,147,68.81Z"/><path class="cls-70" d="M148.13,55.89c-.35-1.16-1.72-2.51.24-3.33,1.09-.46,2,.72,2.19,1.53.54,2.28-1.35,1.58-2.49,1.74Z"/><path class="cls-114" d="M157.05,33.92l-1.83,2c-.93-5.15-5.4-9.77-2.16-15.58,1-1.7,2.42-1.15,2.32-.19C154.88,24.9,158.72,29.09,157.05,33.92Z"/><path class="cls-52" d="M162.07,138.85c-1.17-2.25-5.36-3.2-3-7a11.46,11.46,0,0,0,.33-2.37c-.12-1.72-1.25-3.86,1.37-4.51a5.33,5.33,0,0,1,5.75,2.11c4.85,6.84,4.4,15.61,8.45,22.91C169.27,147.64,165.9,143,162.07,138.85Z"/><path class="cls-115" d="M182.12,123.85c-4.58-4-9.62-7.46-14-12.85,6.85,1.71,10.91,6.4,15.3,10.18,2.82,2.41,5.06,5.61,8.24,7.79.62.42,1.41,1.08.44,2Z"/><path class="cls-116" d="M161.09,110.86a3.86,3.86,0,0,0,.49.84c3.69,3.73,3.69,3.73-.48,6.15-.9-2.27-4.14-3.16-3.14-6.71C159.08,107.17,160,110.46,161.09,110.86Z"/><path class="cls-116" d="M170.11,120.85c.35,1.68.7,3.35,1.06,5-2.83-1.06-2.35-4.89-5.07-6a3.39,3.39,0,0,1,2-2C169.23,118.55,170.56,119.1,170.11,120.85Z"/><path class="cls-117" d="M71.14,129.88A3.22,3.22,0,0,0,73,127.82c0-3,0-5.95.1-8.93a6.29,6.29,0,0,1,3.84-6c3.21-1.68,4.37-.13,4,2.28-.61,3.74.79,7.17.79,10.79a2.75,2.75,0,0,1-1.9,3c-2.4,1-.82-1.49-1.66-1.94a8.38,8.38,0,0,1-1.47-1.27c-.74,1.33-1.87,2.61-2.1,4s-.72,2.35-1.85,2.4C72.24,132.14,71.67,130.67,71.14,129.88Z"/><path class="cls-60" d="M93.12,122.8c-2.6-3.68-4.1-7.67-3.66-12.22,1.39,1.84,1.92,4.07,4,5.68,1.42-2.3-.12-5.73,2.71-7.38C98.3,112.78,96.66,120.34,93.12,122.8Z"/><path class="cls-118" d="M93.12,122.8c3.8-4,2.95-9.07,3-13.92,1.34,0,1.89.73,2,2-1.07,6-1.48,12-.11,18h0a1.25,1.25,0,0,1-1.92.08l-.05-.06a20.69,20.69,0,0,1-2.92-6Z"/><path class="cls-60" d="M93.15,122.84c.86-.32,2.67-.63,2.25.23-1.15,2.3,1.14,3.81.67,5.76C94.21,127.27,91.08,126.32,93.15,122.84Z"/><path class="cls-60" d="M96.12,128.89l1.92-.08c.12,2-.18,4.12.6,6.16C96.59,133.39,96.89,130.92,96.12,128.89Z"/><path class="cls-119" d="M66.21,88.86H67c3.28.82,6.53,2.07,9.85,2.31a15.69,15.69,0,0,1,5,1.63c1.73,0,4.19-1.87,4.73,1.44.43,2.6-1,3.58-3.56,3.1-1.09-.2-1.6,1-2.46,1.47L80,99c-1.46.51-3.89-.47-2.91,3.1.41,1.51-3,1.83-4.94,2.52-.86-1.77.84-2.67,1.3-4.12-1.36-.54-2.72.23-4.13-.07s-1.2,1.38-.48,2.06c1.17,1.08,1.29,1.27-.32,2.18-2.19,1.25-1.85-.81-2.11-1.41-.57-1.38-.83-2.87-2.4-3.55-.21-.8-.85-2.08-.46-2.34C66.78,95.2,64.89,91.53,66.21,88.86Z"/><path class="cls-120" d="M95.19,83c-.49,7.94-1,15.81-9.69,19.82-3.85,1.77-5.36.9-5.54-3.8l.27-.17c1.52.13,2.89-.54,4.32-.85,2.54-.55,2.7-3.69,2.15-4.18-5.1-4.53,1.15-4.88,2.35-7C89.75,83.3,92,82.3,95.19,83Z"/><path class="cls-121" d="M90.05,86.88c.45,3.51-3.19,1.87-4.57,3.8,3.53,1.81,2.71,5,1.09,7.2-1.1,1.47-3.86,3.23-6.34.92,1.34-.7.48-5.5,4.19-2.06,1,.94,1-1,1.22-1.82.33-1.13.32-2.11-1.23-1.53-1.08.41-1.84.41-2.48-.59a7.59,7.59,0,0,0,1.23-5c3.07-2.49.11-6.27,1.94-9,.31.37.62.75.94,1.12,3,1.9,3,1.9,1.17,6.52C88.12,86.9,89.19,86.19,90.05,86.88Z"/><path class="cls-122" d="M66.21,88.86a5.79,5.79,0,0,0,1,3.7c1,2,.89,2.09-1.73,2.93-2.36.75,0,3.13-1.47,4.2-4-3.9-.28-8.62-1.31-12.85-.21-.87.31-1.92.49-2.88C64.9,85.14,65.38,87.11,66.21,88.86Z"/><path class="cls-123" d="M90.05,86.88A7.47,7.47,0,0,1,85.28,88C84.7,85.25,90,82.94,86,80c2.81.32,5.75,2.82,8.36-.57a.9.9,0,0,1,1.57.4A2.69,2.69,0,0,1,95.19,83C93.4,84.15,90.7,84.18,90.05,86.88Z"/><path class="cls-76" d="M34.49,111.09c-.39-6.93,2.76-11.66,4.44-16.78C39.92,100.09,39.19,105.45,34.49,111.09Z"/><path class="cls-15" d="M44.73,125.27c2.56-.94,4.32.35,6.23.58,1.35.15,2.27.73,1.86,2.18-.29,1-.59,2.31-1.94,2.59s-1.58-.8-1.89-1.73C48.36,127,46.73,126.27,44.73,125.27Z"/><path class="cls-124" d="M43.18,102c1.78,1.22,3,4.14,5.92,1.93l3.14-2.2c-1.73,4.59-4.55,5.88-8.21,5.08S43.9,103.55,43.18,102Z"/><path class="cls-125" d="M54,93.85c4.45,1.12,3.73,3.89,2.2,6.91C55.22,98.52,53.52,96.52,54,93.85Z"/><path class="cls-126" d="M56.82,105c.3-1,0-2.3,1.19-2.94.83,3.51,1.43,7-1.67,10.68Z"/><path class="cls-127" d="M48.78,113c-5.3.24-5.3.24-3.54-4C47,109.86,47.5,111.53,48.78,113Z"/><path class="cls-43" d="M170.11,120.85c-.64-1-2.14-1.45-2-3,.2-1-.37-2.88,1.39-2.53,2.14.42,3.29,2.72,3.61,4.44S171.17,120.49,170.11,120.85Z"/><path class="cls-41" d="M154.48,86.27c-.27-.19-.63-.32-.78-.57-1.48-2.59.27-4.78,1.08-7,.57-1.56.95-3.7,3.36-3.74A1.73,1.73,0,0,1,160,77.26c-.66,3.32-2.77,5.92-4.64,8.61C155.19,86.09,154.78,86.14,154.48,86.27Z"/><path class="cls-9" d="M347.09,124.86c0,6.39-1,7.75-4.7,6.63-2.58-.78-3.47-2.7-2.88-4.91s2.23-3.2,4.67-2.23a14.61,14.61,0,0,0,2.92.51Z"/><path class="cls-9" d="M286.1,141.86c-1-2.21-3.35-2.64-5.23-3.58-3.69-1.86-3.4-5-3.11-8.28.1-1.25,1.08-1.35,1.72-1.29,3.89.4,8.27-.48,10.92,3.57a3.46,3.46,0,0,0,4.39,1.36,3.9,3.9,0,0,0,2.64-3.8c0-1.1-.74-2.22.19-3.26,2.67.15,2.28,5.42,6.12,3.65.12-.06.45.32.68.5-2.87,3.51.86,7.42-.18,10.17-.88,2.3-5.38,3.26-8.89,2.58-3.07-.6-6.17-1.09-9.25-1.62Z"/><path class="cls-9" d="M286.1,141.86c-.39,1.11,1.63,2.66-.51,3.34a2.26,2.26,0,0,1-2-1.08c-.37-1.84,1.11-2.07,2.47-2.26Z"/></g></g></svg>