<svg xmlns="http://www.w3.org/2000/svg" viewBox="0 0 375.21 812.21"><defs><style>.cls-1{fill:#2e4359;}.cls-2{fill:#455974;}.cls-3{fill:#647591;}.cls-4{fill:#5e6d89;}.cls-5{fill:#3a4c63;}.cls-6{fill:#3e4f64;}.cls-7{fill:#4e5f7b;}.cls-8{fill:#828ea7;}.cls-9{fill:#7988a3;}.cls-10{fill:#697997;}.cls-11{fill:#556786;}.cls-12{fill:#52617c;}.cls-13{fill:#5c6a86;}.cls-14{fill:#8290aa;}.cls-15{fill:#71809d;}.cls-16{fill:#8f9ab0;}.cls-17{fill:#74819c;}.cls-18{fill:#79859f;}.cls-19{fill:#73819c;}.cls-20{fill:#898da7;}.cls-21{fill:#3b4d64;}.cls-22{fill:#3d4f64;}.cls-23{fill:#75829e;}</style></defs><title>Asset 1</title><g id="Layer_2" data-name="Layer 2"><g id="Layer_1-2" data-name="Layer 1"><path class="cls-1" d="M375.1,477.11q0,165.51.09,331c0,3.43-.67,4.1-4.09,4.1q-183.51-.16-367,0c-3.43,0-4.1-.67-4.1-4.1q.18-126.49.1-253a5.88,5.88,0,0,1,4.23-2.34c7.25-.41,14.4-1.39,21.76.37A25.81,25.81,0,0,0,45,550.62c5.35-3,7.68-1.68,9,4.45,1.23,5.8,4.58,7.79,10.13,6,3.87-1.23,7.46-2.84,9.78-6.46a16,16,0,0,1,2.76-2.89c3.75-3.47,5.36-3.52,9.38-.16.9.75,1.68,1.87,3,1.13s1-2,.91-3.15c-.55-6.56.5-8,6.68-8.92,5.92-.93,10.5,2.9,11.77,9.84,1.75,9.54,3.48,10.51,12.88,7.22,3.65-1.27,7-2.79,9.29-6.3,2-3,5.65-3.2,8.88-1.18,2,1.23,3.19,4.21,6.35,2.44,3.48-1.95,7.26-3.5,8.69-7.75,3.23-9.66,5.25-10.25,12.84-3.28,3.59,3.29,6.22,7.05,5.94,12.58-.36,7.08,5.91,10.39,12,6.56a25.15,25.15,0,0,0,8-7.45c3.84-6,7.43-5.37,11.91-3,3.81,2,5.61.63,7.24-2.26,3.18-5.63,6.1-11.26,7.86-17.69,1.26-4.61,1.57-10.1,5.74-13.73,2.2-1.92,4.52-3.78,7.52-2.78s4.47,3.82,5,6.92c1.7,10.59,1.81,10.66,11.62,6.41a37.39,37.39,0,0,0,4.19-2.7c2.13-1.29,4.36-3,6.91-2.44,6.63,1.61,12.37-2,18.59-2.72,2.3-.26,3.89-2.07,5-3.86,2.27-3.58,5.43-4.18,9.1-3.2,2.82.75,4.82.11,6.35-2.45,1.1-1.86,2.83-3.26,4.32-4.82,3-3.1,6.43-3.93,10.4-1.77a36.9,36.9,0,0,0,4.9,2.48c6.65,2.47,8.85,1.72,12.41-4.31.94-1.58,1.67-3.61,3.47-4.12,5.74-1.62,6.69-6.08,6.49-10.91s2-6.55,6.48-6.78,8.42-2.92,12.78-4c3.68-.93,7.28-.25,10.91-.44C373.57,475.1,374.25,476.34,375.1,477.11Z"/><path class="cls-2" d="M375.1,250.11v156c-6.07,4.79-13.36,4.95-19.85,2.83-8.76-2.87-16.52-.85-24,2.55-9,4.08-17.69,8.84-27,12.3-7.37,2.74-12.91,8.19-17.95,13.95-3.44,3.94-3,6.68.32,11.17,4.34,5.82,3.27,9.86-2.33,14-4.05,3-8.43,4.12-13.05,5.41-8.5,2.36-16.35,6.65-24.32,10.25-7.3,3.31-13.78,9.1-16.6,17.52-1.34,4-4.67,6-8.29,7.32-8.89,3.25-18.24,5.05-27.37,7.35-5.86,1.47-11.58,2.66-17.38,4.74-6,2.14-12.34,3-18,6.58-2.88,1.81-5.25-.13-4.62-3.68.69-3.94-1.21-4.29-4.16-4-2.5.24-5.39.05-7.1,1.92-3.93,4.27-9.39,5.51-14.26,7.84-5.25,2.51-10.46,3.43-16-.33a18.11,18.11,0,0,0-15.37-2.19c-1.79.51-3.72,1.18-5.38.44-8.13-3.61-16-.2-24,.53a105.28,105.28,0,0,1-21.8.17,203.89,203.89,0,0,0-31.32-1.26c-6.18.22-11.66-.56-15.15-6.4v-255c5.83-5.48,12.53-7.9,20.85-5.27-1.88-2.41-4.44-3.26-5.12-6.19-2-8.38,3.38-15,12.22-14.79,7,.18,8.78,1.66,10.66,8.44.73,2.62.86,5.77,4.53,6.47a9.12,9.12,0,0,0,9.38-3.27c2-2.41,3.67-5.48,7.64-4.17,4.47,1.48,7,5,8.68,9.06.92,2.25,0,4.56-2.17,6.14-.93.66-1.93,1.6-1.19,2.93s2,1.12,3.14,1c3.94-.48,7-2.92,10.4-4.69,2.11-1.11,4.14-2.29,6.53-2.12,6.59.49,12.43-3.35,19-3.1,2.26.09,4.35-1.86,6.2-3.44a7.22,7.22,0,0,1,6.93-1.79c5.75,1.58,10.07-.39,13.18-5.67-3.35,2.3-6.63,1.23-9.65-.1-2.29-1-3-3.55-3-5.92a5.66,5.66,0,0,1,3.56-5c6-2.94,12.58-3.29,18.93-4.08,4.11-.51,7.43,3.45,10.77,5.82A10.43,10.43,0,0,0,161.83,232c3.6-1.15,7.26-2.45,11.18-2.33a4.33,4.33,0,0,0,3.23-1.19c3.61-3.82,9.57-3.49,13.08-7.73,1.81-2.18,5.53-.08,7.38-1.44-7.2-.27-13.95,4.95-22,4a7.3,7.3,0,0,0-5.56,1.92c-2.81,2.46-6.08,2.45-9.43,2.19-3-.23-7.11-4.69-7-7.71.06-2.5,1.69-3.88,3.87-4.66a83,83,0,0,1,10.53-3.07c5.24-1.14,10.33-2.6,14.22-6.74a7.71,7.71,0,0,1,5.42-2.24c11.1-.55,22.26.45,33.31-1.29,3.82-.6,5.57.94,5.71,4.62.09,2.35,1.46,4,2.87,5.66,3.39,4.07,2.86,6.49-1.83,9-.74.39-1.53.68-2.26,1.07-1.21.65-3.71.19-3.32,2.2s2.59,1.62,4.25,1.31c10.75-2,11.08,0,14.36,8.46a19.33,19.33,0,0,0,10.55,11.44c2.85,1.34,5.11,3,5,6.83-.09,3.61,2.35,4.63,5.47,3.37,3.54-1.42,6.83-2.12,10.5-.15,2,1.08,3.78-.46,5.16-2.15-3.63.79-6.07-.26-6.65-4.2-.05-.33-.07-.66-.11-1-1-9.74,2-13.05,11.9-12.86.5,0,1,0,1.5,0,8.33-.3,8.33-.3,9.89,8.12,1.19,6.44,7,8.48,12.15,4.25a27.41,27.41,0,0,0,3.32-3.74c2.49-3,5.29-3.28,8.31-1a21.14,21.14,0,0,1,5.61,6.28c1.57,2.72,1,5.43-1.35,7.72-.77.76-2.08,1.6-1.18,2.92.74,1.07,2.1.78,3.25.75,3.16-.08,5.67-1.89,8.29-3.28a35.26,35.26,0,0,1,10.47-3.52c8.86-1.57,18.07-1.82,25.92-7.53C371.45,243.6,373.25,247.68,375.1,250.11Z"/><path class="cls-3" d="M375.1,158.11v7c-11.89,1.91-23.77,3.71-35.79,4.83-7.94.74-16.32.6-23.61,5.32a8.61,8.61,0,0,1-9-.23c-5.2-3.08-11.1-3.36-16.81-4.35-3.9-.67-5.92,1.47-6.56,5.14-.75,4.33-2.07,8.36-5.23,11.63-.93,1-1.64,2.15-3,2.58a6.52,6.52,0,0,0-4.73,5.83c-.68,4.92-4.82,6.46-8.49,8.29-1.6.8-3.31,0-4.49-1.34-2.13-2.5-4.92-3.17-8-3.27-5.16-.16-9.56-2.58-13.66-5.36-2.89-2-5.37-3.84-9.35-3.21a9.37,9.37,0,0,1-7-1.8,1,1,0,0,0-.42-.26c-10.45-1.44-19.91-7.56-30.89-6.48a10.12,10.12,0,0,0-6.64,3c-2.21,2.27-4.93,3.54-8.13,2.28s-5.34-3.38-5.2-7.11c.06-1.46-.19-2.85-1.88-3-4.39-.42-8.67-2.84-13.22-.78a7.68,7.68,0,0,1-3.44.43c-2.22-.06-3.89-.94-4.61-3.13a4.51,4.51,0,0,1,1.87-5.26c2.13-1.63,4.51-3.19,7.09-3.55,6.64-.94,13.19-2.47,20-2.22,4.3.17,8.62-1.4,13.6-.21-5.14-7.14-12.11-5.23-18.26-5.58-8.54-.48-12.2-2.85-14.62-10.9a3.4,3.4,0,0,0-3.08-2.78c-1.33-.15-2.68,0-4-.28-3.08-.61-5.87-1.56-6-5.47-.12-3.76,2.3-4.8,5.37-5.24.5-.07,1-.25,2.14-1.39-6.64,1.22-10.68-4.43-16.73-3.75-5.62.63-11.28-.5-16.93-.5-6,0-9.35-2.28-10.39-8.15-.29-1.69-.71-3.06-2.55-3.07-4.44,0-8.86-1.66-13.35,0-2.39.86-5,1.11-7.09-.78-2.44-2.16-1-4.58-.3-6.92.21-.43.44-.85.68-1.26.77-3.41,2.89-5,6.4-5.09s7-.7,10-2.79a5.65,5.65,0,0,1,5.26-.44c5.41,1.81,10.83,1.5,16.26.21a19.07,19.07,0,0,1,8.88-.46c1.31.31,2.89.66,3.94,0,6.92-4.57,14.84.4,21.27-2.57-4.12,1.23-7.4.2-8.59-5.24-.53-2.39-3-2.34-5.06-1.59-9.91,3.67-20.53,3.55-30.7,5.89-5,1.13-9.73,3.33-15.14,1.93-2.75-.71-4.79-1.48-6.25-4.18-3.17-5.91-7.45-7.85-14.13-6.7-5.07.88-9.93,1.73-15.26.74-4.3-.8-8.82,1.25-13,2.92-6.15,2.46-12.05,3.3-18.18-.27A11.7,11.7,0,0,0,18.47,88C15,89.11,13,87.56,12.63,84a10.55,10.55,0,0,0-.21-1.48c-2.26-8.35-1.7-10.18,6.49-13.37,5.37-2.09,10.4-5.47,15.62-5.73a23.82,23.82,0,0,1-10.86-8.34,7.78,7.78,0,0,0-7.17-3.5c-2.83.07-5.66-.06-8.49,0A9.17,9.17,0,0,1,.1,48.11v-11c2.93-2.68,6-1,9-.2,4.52,1.18,8.63,3.57,13.18,4.65a112.53,112.53,0,0,0,14.51,2c3.67.38,7.07,1,7.72,5.57A3.26,3.26,0,0,0,47,52c5.09,1,10.11,2.28,15.43.8,7.4-2,14.76-4.3,22.45-5.18,2.59-.29,5.51-1.59,6.75,1.76,1.08,2.92-1.38,4.74-3.42,6-9.9,6.22-18.13,15.22-30,18.12a2.47,2.47,0,0,0-2.07,1.89c1.51,1.64,3.16.83,4.66.35a47.59,47.59,0,0,0,7-2.54c11.91-6.11,23.61-4,35.05,1.08,12.4,5.46,25.22,5.77,38.32,4.18,8.45-1,16.82-2.57,25.19-4.09a13.07,13.07,0,0,1,13.74,5.9,13.64,13.64,0,0,0,2.63,3A10,10,0,0,1,185,87.12c.94,2.24-2,5.8.13,6.36,3.25.89,6.69,2.11,10.12,2a93,93,0,0,1,9.45-.12,6.08,6.08,0,0,0,5-1.84c2.89-3.1,6.48-3.17,10.17-2.5s7.31.51,10.95.92a8.55,8.55,0,0,0,6.21-1.46c2.76-2.11,6.08-2.53,9.17-3.69,7.94-3,15.53-4,24.22-1.81,7.82,2,16.43,1.06,21.88-7a3.31,3.31,0,0,1,1.08-1c4.3-2.33,7.59-4.28,1.68-9.09-2.95-2.41,1.66-12,6.15-12.8s7.65-2.92,9.67-7c2.28-4.59,6.88-3.17,10.53-3.69,7.68-1.08,15.44-1.55,23.19-1.91,4.72-.22,9.19-1.64,13.78-2.43,4-.68,8-.5,11.93-1.37a4.61,4.61,0,0,1,4.72,1.35v6c-1.71,2.31-4.21,2.4-6.75,2.45-10.71.19-21,3.7-31.62,4.43-2.59.18-5.41,1.29-6,4.45s1.52,4.88,3.77,6.49c6.81,4.87,6.94,6.41,2.05,13.13-2.91,4-7.31,6.27-10.63,9.77-.9,1-2.22,1.6-2.75,2.85-1,2.26-2.38,4.77-1,7.1s4.09,1.55,6.39,1.35c8.48-.73,16.92-1.19,25.22,1.52,2.17.71,4.32,1.11,4.42,3.88s-1.82,3.89-4,4.52c-7.51,2.22-14.81,5.09-22.33,7.25a12.46,12.46,0,0,0-3.71,1.47c-11.42,8-24.92,9.77-38,12.77-2.27.53-6.07,0-5.76,3.24s4,3.63,6.88,3.64c6.21,0,12.05-2.37,18.17-3.12,2.65-.32,5.32-1,7.94-.59,10.49,1.47,20.84-.53,31.22-1.22,7.13-.47,14-2.93,21-4.37,2-.41,4-.91,5.52,1v5c-1.28,2.45-2.8,4.12-6,4.46-12,1.32-24,2.85-36.11,3.57-4.67.28-9.3-.18-13.94.07-4.41.24-8.67,1-11.27,5.21-1.66,2.68-1.48,5.17,2.09,5.41,7.15.47,13.29,5.59,20.77,4.31a3.13,3.13,0,0,1,1.92.43c10,5.39,19.3,1.39,28.63-2A13.11,13.11,0,0,1,375.1,158.11Z"/><path class="cls-4" d="M.1,48.11c6.75,1.34,13.6,1,20.42,1,2.89,0,4.91.43,5.53,4.14.69,4.14,9.11,8.83,12.93,7.88,1.57-.39,3.7-1.58,4.15.75s-2.07,2.9-3.82,3c-7.59.37-13.87,4.52-20.65,7.1-6.05,2.3-6.27,3.62-3,9.18,1.12,1.92-.57,3.08-.7,5.48,6.75-3.86,12.23-1,17.91,1.82,3,1.54,6.52.7,9.76-.37,4.42-1.45,8.86-2.85,13.29-4.27.48-.15,1.06-.51,1.43-.37,7.43,2.8,14.71-.34,22-.66,5.4-.23,8.24,3.15,10.91,6.62,3.33,4.34,6.68,6,12,4.78,9.7-2.2,19.3-5,29.36-5.21,3.41-.09,6.29-2,9.42-3.17,5.05-1.8,8,.19,8,5.42,0,1.84.57,2.2,2.24,2.34,3.76.31,7.45.61,11.38-2.24-2.59,5.1-11,9.06-16.4,7.94-3.88-.8-7.5-1.59-10.88,1.25a2.54,2.54,0,0,1-1.91.45c-10.18-2.21-20.41,3.9-30.58-.21a2.79,2.79,0,0,0-2.8.61c-2.94,2.29-6.5,2.62-10,2.64a5.86,5.86,0,0,0-6.07,4.11,2,2,0,0,0-.76-.46,1.73,1.73,0,0,1,.77.45c-.08,1.72-2.42,3.33-.63,5s3.71.36,5.66,0c7.3-1.32,14.4-1,21.13,3.42-1.5,1.07-3.63,1.48-2.67,3.67a6.38,6.38,0,0,0,5.67,4.26c6,.29,11.94.45,17.91.59,4.12.1,8.38-.59,11.7,2.92,1,1,2.48.64,3.82.48a13.18,13.18,0,0,1,4-.09c1.93.38,4.42.81,4.68,3.07.33,2.83-2.55,2.49-4.29,3.09a17.83,17.83,0,0,1-2.95.51c-1.88.31-4.56-.09-4.31,2.84.2,2.41,2.58,2.76,4.58,3a13,13,0,0,0,3,0c6.74-.6,6.74-.6,6,6.16-.35,3.21,5.21,8,9.54,7.64s8.6,1,12.93,0a4.84,4.84,0,0,1,4.66,1.32c2.06,2.45,4.31,3.46,7.44,2.46a1.8,1.8,0,0,1,2.48,1.06,2.25,2.25,0,0,1-1.06,2.6c-3.27,2-6.19,5.41-10.7,2.82a2.65,2.65,0,0,0-1.9-.44c-8.53,3.77-17.91.42-26.54,3.24a5.32,5.32,0,0,0-1.4.52c-2.15,1.51-6.71,1.77-5.53,5.17,1.1,3.18,4.54.48,7,.26,6.47-.58,12.77.68,18.91,2.67,1.63.53,1.46,1.79.05,2.48-2.3,1.13-3.87,2.47-1.66,4.88,2,2.21,5,3.13,7,.66,6.87-8.37,15.75-3.11,23.7-4,3.68,5.17,9.53,2.93,14.36,4.11a7.94,7.94,0,0,1,3.49,1.74c.87.75,1.9,1.84,2.88,1.86,11,.18,18.69,11.23,30.36,9.1,1.5-.27,2.79.78,4,1.74s1.77,4,4.07,2.75c2.53-1.37,5.74-2.49,6.29-5.94.65-4.06,1.19-7.34,6.46-8.65,2.27-.56,5.19-4.32,5.77-8,.36-2.3.8-4.6,1.38-6.86.8-3.07,2.72-5.13,6.1-4.66,5.93.83,11.83,1.89,17.71,3a5.74,5.74,0,0,1,2.37,1.66,6.77,6.77,0,0,0,7.92,1.22c8.29-4.18,17.37-4,26.17-5.6,7.52-1.36,15.2-1.22,22.62-3.2a17,17,0,0,1,10.81.44v2c-3.94,4.38-9.58,4.35-14.68,5.28a77.64,77.64,0,0,1-18.27,1.36c-10.33-.54-22.39,3.34-32.81,8.87,4,1.14,7.76,1.16,11.28,2.32,6.84,2.24,8,5.33,4.6,11.53a50.33,50.33,0,0,1-12,14.48c-2.83,2.37-5.46,2.61-8.71,1.22a44.74,44.74,0,0,0-9.47-3.12c-3-.54-6.06-1-8.87.22s-5.12,1.2-7.72-1c-2.94-2.47-8.2-1.29-10.59,2.13-1.74,2.49-3.07,5-6.72,5.16-4.05.2-8.05.41-11.4-2.22-3.13-2.45-6-4.75-10.47-4.25-2.42.28-3.39-1.8-2.65-4.18,1.62-5.23.66-7.75-4.46-9.73a13.14,13.14,0,0,0-8.15-.88c-4.31,1-9,1.88-13.29.16a39.19,39.19,0,0,0-29.69-.4c-5.11.34-10.29-.08-15.18,2.25-1.75.83-3.86.1-5.85-.38-6.45-1.57-12.82-2.63-19.51-.16-2.93,1.08-6.44,1.35-9.69,1.66s-4.67,1.87-5.07,4.48c-.63,4.18-3.75,5.44-7,6-3.59.68-7.25-.49-10.87-.87a3.42,3.42,0,0,1-2.81-3.15,3.46,3.46,0,0,1,1.84-3.78c1.76-.94,3.48-2,5.46-3-7.92.85-15.23,3.9-22.95,4.51-12,.95-23.62,3.9-35.48,5.56-4.65.66-12.57-5-13.55-9.44-.69-3.08,2-5.53,5.79-4.56s7.26.65,10.89.25c1.58-.17,3.79-.14,3.74-2.39,0-2-2.11-2.33-3.7-2.79a7.2,7.2,0,0,0-4,0c-10.35,2.87-21.08,2.89-31.63,4.21-4.57.58-9,1-12.69,4.82-3,3.2-7.18,1-7.71-3.5-.26-2.27.52-4.7-1-6.78v-2c2.44-1.66,2.52-3.33,0-5v-20c1.58-2.1,3.83-2.38,6.24-2.36,5,0,10-1.23,14.73-1.18,7.75.08,13.33-1.59,17.47-8.29,1.29-2.11,4.21-1.33,6.55-1.23,7.89.34,15.22-1.13,21.26-6.75,2.91-2.71,6.65-3.75,10.44-4.36a74.62,74.62,0,0,0,10.42-2.6c-6.28,1.09-11.87,1.83-17.2,3.62-8.37,2.82-17.13,1.11-25.61,2.52-2.27.38-4.63.49-6.94.68s-4.46.07-5-2.85c.32-2.35,2.06-2.54,4-2.74,2.45-.26,4.75-1.27,6.51-1.54-3.55,1.08-7.91,1.72-12.18,2.74a19.08,19.08,0,0,1-11-.74c-2.12-.76-4-1.72-4.31-4.29s1.18-4.12,3-5.34a27.49,27.49,0,0,1,8.6-3.87,103.1,103.1,0,0,1,18.23-2.7,31.75,31.75,0,0,0,5-.42c1.29-.3,2.94-.63,2.8-2.27-.15-1.79-2-1.6-3.2-1.52-12.83.82-25.91-.55-38.1,5.6-3.26,1.65-7.56,3.85-11.67.89Z"/><path class="cls-5" d="M375.1,477.11c-7.54.68-15.31.19-22.16,4.38a7.08,7.08,0,0,1-1.44.41c-2.11.71-5.59-1-6.26,1.62-.78,3.07-1.85,6.55-.63,9.79,1.06,2.82,1.12,4.06-2.56,4.42-6.25.6-9.18,4.37-9.12,10.81,0,3.4-.88,4.55-3.95,2.23-2-1.49-4.32-1.54-6.65-1.76-1.79-.17-3.6-.14-5.28-1.19-7.28-4.53-12.15-3.35-15,4.43-1.59,4.3-3.17,5.33-7.14,3.08-3.67-2.07-6.86-1.11-8.82,2.63-1.59,3-4,3.88-7.25,4.31-6.35.83-12.36,2.94-19.07,2.69-4.83-.18-8.74,4.79-13.5,6.83-5.56,2.37-9.27,1-10-5.2-.18-1.48,0-3-.21-4.48-.47-3-1.24-6.49-4.95-6.38-3.36.1-5.77,2.73-6.35,6.15-2.23,13.16-6.92,25.08-16.29,34.94-1.89,2-2.25.91-3-.67-2.92-6.2-6.88-6.89-10.28-1.2s-9.18,7.77-13.72,11.67a1.8,1.8,0,0,1-1.85.21c-4.25-1.22-9.74-8.38-9.14-12.56.82-5.7-2.25-9.17-6.42-11.9-5.57-3.65-5.72-3.52-6.9,3a8,8,0,0,1-4,6,19.24,19.24,0,0,0-4.18,2.71c-4.13,4.13-7.38,5.62-10.71-1.17-1.33-2.7-4.45-1.85-6.47.95-5.17,7.17-13.11,7.78-20.91,8-3.39.1-4.67-2.83-4.68-6a19.4,19.4,0,0,0-2.09-9.08c-1.89-3.73-4.44-4.39-8.15-3.63-3.49.73-5.4,2.23-3.37,5.8,2.68,4.74-1.94,6.8-3.5,9.92-.53,1.05-1.58-.15-2.2-1-6-8-6.47-8-12.32.38-4.53,6.51-15.82,8.37-20.42,3.4a10.28,10.28,0,0,1-2.82-7.26c0-3.13-1.77-3.52-3.88-2.23-8.47,5.18-17.17,4.24-26.48,2.6-6.72-1.17-13.87.18-20.83.4v-12c2.28-3.87,6.38-3.64,10-4.09,4.83-.59,8.06-2.55,11.57-6.31a22.47,22.47,0,0,1,13-6.67A2.88,2.88,0,0,1,36,527a4.19,4.19,0,0,1,.45,3,26.2,26.2,0,0,1-4.1,5.7c2-.25,3.7,1.2,5.55,2.13,1.2,1.93,2.72,1.46,4.62,1.08,3.72-.75,7.45-2.34,11.36-1,2.16.34,4,1.88,6.23,1.9,5.69-.66,11.38-1.78,17,.36,9.13-1.44,18-3.14,26.07-8.5,2.7-1.8,6.18-5,10.53-3.27a8.72,8.72,0,0,1,2.59,1.33c3.18,2.72,6.81,1.33,10.33,1.1,1,.22,1.86.78,2.84,1a14.16,14.16,0,0,0,13.29.5c2.4-1.06,4.87-.5,7.34-.39,3.73.15,7,.09,8-5,.78-4,5.11-5.3,10.72-4.32a11.22,11.22,0,0,0,5.26,1c1.87,0,3.54.74,3.37,2.75-.32,3.7,2.31,3.68,4.63,4.19,5,.77,7-4.3,10.8-5.75.42-.51,1.16-1,1.12-1.58-.5-7,5.72-7.88,9.75-10.7,1.89-1.33,3.74-.79,5.45.54,1.75,1.94,1.14,3.85-.06,5.75-1.47,1.89-1.6,3.54.86,4.72,3.21,1.59,6.27,2.54,8.22-1.76,2.22-6.49,6.45-10.56,13.5-11.1,2.38-.18,4.61-.94,6.93-1.3a3.85,3.85,0,0,1,1.55.06c5.38,2.81,10.82,3.69,16.51.75,2.45-1.26,2.5-2.39.26-3.84-.56-.36.12.13-.43-.24-8.12-5.41-8.34-8.25-1-15,1.81-1.66,3.47-3.5,5.86-4.51,2.22-.95,3.93-.93,5.87.8a5.61,5.61,0,0,0,9.2-2.21c2.22-5.41,6.68-8.52,11.15-11.54,3.78-2.56,6.68-1.35,8.18,3,.59,1.68,2.11,2.54,2.8,4,1.29,3.86,4,2.74,6.67,2,1.83,0,3.73-.31,5.23,1.09a4.65,4.65,0,0,0,5.08.92c2.32-.81,4,0,4.88,1.32-1-1.27-4.09-2.44-2.87-5.49,1.53-3.83,5.54-4.55,8.84-5.65,7.8-2.59,15.77-4.68,23.67-7a12.16,12.16,0,0,0,4.24-2.52c1.84-1.46,3.55-2.8,6.13-2.67s4.29-1.68,6-3.23c2.56-2.38,2-4.51-1.38-5.61-6-2-7.12-5.76-3-10.55.84-1,.93-2.08,1.51-3.05-.53.9-.49,2-1.23,2.84-3.32,3.71-7.15,2-10.57.62-3.86-1.56-9.23-3-8.23-8.43.71-3.88,2.19-8,6.29-10.76a46.6,46.6,0,0,0,9.62-8.43c2-2.28,4.24-3.09,7.11-1.95,1.8,1.32,1.77,3,1,4.85a3.83,3.83,0,0,1-.59,1.36c-1.29,1.4-3.28,1.94-4.68,3.84,2.66-1.16,4.53-.12,6.25,1.43,2,1.56,5,1.09,6.56,3.5Z"/><path class="cls-6" d="M128.1,534.11l-2-1c-3.92-1.34-8.19,1.52-12-1-.34-.66-.67-1.33-1-2-.77-1.1-1.32-2.48-3-2.39-3.64.45-7.84-1.67-10.7,2.33a3.46,3.46,0,0,1-1.3.54c-3.83-1.09-6.44.34-8.57,3.63-1.51,2.32-4.34,3.48-6,5.75-1.29.59-2.55,1.3-4.06,1.12-3.62-.08-4.62-2.63-4.79-6.62a15.68,15.68,0,0,1-10,5.07c-1.27.14-2.71.65-3.81.14a23.58,23.58,0,0,0-17.09-.83c-3.8,1.15-5.64-1.76-8.47-2.47a3.24,3.24,0,0,1-1.11-.9,3.55,3.55,0,0,1,1-4.46c1.37-1.22,1.23-2.59.05-3.91h0c-2.12-.93-3.88.21-5.69,1-4.29.11-8.46,1.11-12.68,1.68s-6.09,2.28-5.67,6.48a10.43,10.43,0,0,1-11,3.86v-2c3.67-4.5,3.67-5.93,0-10v-13C9.61,521.3,20.4,518,30.58,519c10.85,1.06,21.79,1.46,32.7,1.47,5.56,0,11.13-1.47,16.69-2.32,1.31-.2,2.91-1.26,3.82-.81,8,4.06,16.65-.21,24.81,1.8,2.14.53,4.35,1,5.94,2.42a9,9,0,0,0,11.15,1.22c5-3,11-3.64,15.49-8.27,3.79-3.88,10.21-3.78,15.63-2.67,4,.81,3.79,3.54-.68,8.49,2.47.71,3.82-.8,5.18-2,1.78-1.56,3.69-3.48,5.92-3.5,6.59-.05,11.83-4.25,17.75-5.45,6.7-1.35,13.49-2.26,20.1-4.22,5.48-1.62,11.19-2.51,16.58-4.39,3.33-1.15,6.92-3,6.07-7.85-.3-1.72.84-2.83,2.28-3.5a5,5,0,0,0,3.13-4.17c.08-.64.36-1.77.64-1.8,5.59-.61,7.56-7.08,12.68-8,8.38-1.55,15.14-6.78,23-9.52a26.78,26.78,0,0,1,6.07-1.41c4.53-.51,7.86-3.92,10.9-6.88,1.71-1.65.09-4.78-1.59-6.77-5.49-6.53-4.56-12.68,2.15-18.21a132.66,132.66,0,0,1,20.8-14.24,5,5,0,0,1,3.34-.54c1.34.2,2.95.41,3.82-.61,3.89-4.57,9.81-5.71,14.77-7.86,8.07-3.49,16.68-7.51,26.12-2.74,3.74,1.9,8.2.37,12.33.13,2.32-.12,4.62-.44,6.94-.67v18c-2.36,2.72-5.13,2.38-8,1.08-4.45-2.93-4.46-3-1-6.08h0c1.1-1.11,1.78-2.42.8-3.84-1.27-1.84-3-1.21-4.73-.58-.41.2-.84.37-1.27.53-3.88,1.66-8.71,1-11.71,4.81a9.33,9.33,0,0,1-1.21.64,6.26,6.26,0,0,0-3.53,3.14c-2.1,4.59-2.2,9.55-2.64,14.43a6.85,6.85,0,0,0,2.21,5.3c3,2.35,2.48,5.77,2.82,8.9a7.87,7.87,0,0,1,.53.8c.06-.09.32.24.36.16a13.32,13.32,0,0,1,5-.26,4.28,4.28,0,0,1,1.77.88c1.68,1.44,4.44,2.22,3.88,5.18-.49,2.6-2.68,3.87-5,4.27-3.13.54-4.23,3.6-6.75,4.78a30.09,30.09,0,0,1-10.18,3.22c-4.09.48-7.32,3.78-11.36,4.86-4.36,1.16-8.86,2-10.76,7.11-.5,1.37-2.33,1.72-3.88.79-1.42-1.82-3.42-1.74-5.38-1.54-6,.6-6.63-.1-5.09-5.8.44-2.9-1.67-2.26-3.26-2.35-4.64-2.49-8.87-1.78-12.79,1.56a12.38,12.38,0,0,1-6.93,1.09c-2.62.25-5.41-.21-7.66,1.71a5,5,0,0,1-1,.86c-1.52.75-1.64,2.29-2.06,3.66-2.79,4-7.59,5.15-11.4,7.59-4.23,2.71-6.52,5.58-6.7,10.54-.07,1.91.06,4-.75,5.83-.77,5.14-4.71,4.67-8.34,4.73-5.82-.21-11.39-.07-15.66,5-1.81,2.15-2,4.76-3.34,7-5.12,1.74-9.57.44-13.6-2.91-.83-1.23-.82-2.29.6-3.09.52-1.28,1.56-2.44,1-4-2.15-2.88-4.35-.71-6.54-.08-5.3.79-9.19,2.82-10.94,8.67-1.39,4.65-7.9,7.75-11.64,6.73a3.34,3.34,0,0,1-1-1c-1.22-4.78-1.23-4.79-8.69-4a5.54,5.54,0,0,1-1.52.16c-4.69-1.35-8.1-.82-10,4.66-1.17,3.39-4.93,4.37-8.34,3.7-4.6-.91-8.8.82-13.1,1.49C133.4,534.91,130.79,535.28,128.1,534.11Z"/><path class="cls-7" d="M375.1,250.11c-3.58-2.33-6.66-1.93-10.37.49-5.36,3.5-12.1,3-18.17,4.43-6.22,1.5-12.18,3.08-17.6,6.49-4.27,2.69-9.14,1.12-13.69,1.84-1.45.23-1.38-1-1-2.05a13.48,13.48,0,0,1,4.51-5.81c3.8-3,2.07-5.09-2.23-10.48-2.52-3.16-5.38-1.34-6.86,1.38-3,5.46-8,5.85-13.22,6.26-2.34.19-3.77-1.12-4.72-3a10.57,10.57,0,0,1-.71-2.88c-1.87-10.13-1.87-10.13-12.19-9.07a8.38,8.38,0,0,0-6.35,12.23c1.09,2.14,2.7,1.92,4,.42.86-1,1.1-2.58,1.68-4,2.19,4.25,1.16,9.81-2.11,12.43a3.52,3.52,0,0,1-4.62-.05c-3.58-2.76-7-2-10.67-.24-5.41,2.61-8,1.25-7.93-4.74.09-4.3-1.9-6-5.21-7.32-5.34-2.06-8.47-5.57-10-11.39-2.17-8.17-4.79-9.31-12.32-6.4-4.45,1.72-6.95-1.92-9.59-3.57-1.74-1.09,1.2-3.92,3.53-4.56s5-.66,7.15-2.05c3-1.89,3.17-3.74-.12-5.45-2.16-1.12-3.36-2.88-3-5.24.57-4.18-1.84-5.29-5-4.47-8.51,2.18-17.18,1.75-25.79,2-5.4.15-9.66,1.5-13.78,5.35-3.35,3.12-8.63,3.14-13.11,4.37-2.88.79-5.79,1.56-8.57,2.63-2.38.92-2.74,2.6-1.14,4.75a7.78,7.78,0,0,0,10.71,1.37c3.42-2.39,7.14-2.49,11.06-3.19,7.15-1.27,15-.84,21.26-5.82,1.26-1,3-3.11,4.67-1,1.35,1.7-.33,3.31-1.54,4.76-2,2.44-4.23,4.19-7.71,3.36-.89-.21-2.63,0-2.8.42-2.44,6.48-9.92,4.58-14,8.59-3.46,3.41-9.11.87-13.33,3.17-1.43.78-3.26.84-4.66,1.65-2.26,1.32-4.09.89-5.92-.67-1-.87-2.13-1.62-3.07-2.55-7.7-7.62-16.45-4.76-25.1-2.49-2.27.6-4.65,1.46-4.62,4.44a3.55,3.55,0,0,0,3,3.53c2.66.63,5.28,1,7.34-1.51,1-1.27,1-3.22,3-4.28,2.07,2.87,1.73,5-.16,8.26a17,17,0,0,1-10.82,8.45c-1,.27-2,1.07-2.82.44-4.17-3.15-7.42-.85-10.79,1.51a5.48,5.48,0,0,1-3.21,1.22c-6-.51-11.18,3-17,3.37-5.18.32-9.65,2.63-13.78,5.33s-8.51,2.48-13,2.38c-2.15-.05-3.23-.94-1.93-3.15a20.68,20.68,0,0,1,2.43-3.76c3.94-4.28,4-7.19-.1-11.3-2.56-2.55-5.13-2.07-7.16.78-3.24,4.56-7.3,6.79-13.15,6.28-3.08-.27-4.61-1.34-5.3-4.1-.44-1.77-1.2-3.55-1.21-5.33-.06-5.14-3.69-5.71-7.42-6.09-6.84-.69-12,4.77-10.59,11,.66,3,1.95,4.18,4.83,2.32,1.1-.71,2.35-1.85,3.47-.33.93,1.27-.07,2.48-.77,3.64-4,6.67-4,6.73-11,3.49-1.82-.85-3.13-.13-4.68.55-3.17,1.39-6.16,3.45-9.88,3v-13c5.5-2.65,5.48-2.65,3.55-8.68a5.1,5.1,0,0,1,2-6.17c2.9-2.14,6.31-2.92,9.72-3.59,5-1,10.1-1.31,14.15-5.13,1.94-1.82,4.43-1.26,6.31.62,2.46,2.46,5.2,2.51,8.29,1.46,4-1.36,8-2,12,.37,2,1.16,3.46,0,4.81-1.41,2.4-2.51,5.06-3.31,7.88-.78,2.16,1.95,1.94,5.91-.3,8.62a19.29,19.29,0,0,1-2.11,2.13c-2.81,2.45-2.31,4.52.72,6.27a44,44,0,0,1,4.24,2.63c7.91,5.91,20.26,7.18,30.05,3.08-1-1.34-2.43-1.09-3.6-.82-3.94.89-7.49.86-10.63-2.32-1.66-1.69-4-1-6.22-.81-5.24.56-7.55-1.63-6.89-6.9s.37-10.73,6.78-13.3c2.63-1,4.83-1.62,6.93.11,2.63,2.16,4.14,1.73,6.51-.74,3.5-3.64,7.2-3.56,11.63-.62a7.38,7.38,0,0,0,5.69,1,122.34,122.34,0,0,0,17.17-4.48,22.73,22.73,0,0,0,9.8-6.2c3.94-4.66,8.92-4.12,13.41-4.66,6.69-.8,12.82-1.23,18.87-5.46a22.94,22.94,0,0,1,14-4.26c4,.18,8.42-2.32,12.69-.75,5.21,1.92,10.55,2.2,16,2.53a27,27,0,0,0,11.9-2.13c2.33-.95,4.52-1.76,6.31.54,1.49,1.93,3,3.82,1.4,6.75-2,3.69-1.65,6.93,2.34,9.79,8.34,6,11.63,15.55,15.94,24.29,1.36,2.77,3,4.72,5.87,5.64,1.61.53,2.93-.2,2.51-1.91-.68-2.73-2.34-5.53.25-7.89,3.11-2.82,6.76-5.27,11-5.58s8.28-1.92,12.32-1.51c9.35.93,18.6-2.94,27.93-.21,1.64.48,2.87-.56,3.84-1.79,2-2.48,4.36-3.09,7-1.38s2.5,4.52,1.79,7.19A8.3,8.3,0,0,1,320.7,235c-3.05,2.35-2.31,4.5.54,6.29a59.77,59.77,0,0,1,8.43,6.23,5.55,5.55,0,0,0,3.06,1.61c7.44.61,14.72-.46,22.89-1.49-2.12-2.67-3.91-2-5.57-1.69-3.51.58-6.91,1-9.66-2.16-1.35-1.58-3.32-1-5.17-.77-5.56.62-8.65-2.48-7-7.68,1.37-4.21.51-10,6.92-11.56,3-.75,5.58-1.14,7.6,1.6,1.63,2.21,2.88,2.32,5.24.53,5.94-4.51,9.44-3.48,13.16,3.25,2.42,4.39,3.56,4.59,7.58,1.41,1.87-1.48,3.53-4,6.35-1.47Z"/><path class="cls-8" d="M22.1.11h103c2.76,1.86,5.9,2.09,9.06,2a49.55,49.55,0,0,1,10,.71c5.33.92,6.54,3.94,3.76,8.46-3.37,5.46-9.29,6.65-14.51,9.05-.59.27-1.32.24-1.92.51-1.82.84-5.25.19-5,3,.29,3.28,3.72,2.81,6.07,2.76,21.8-.41,42.28-5.68,61.23-16.66,5.25-3,11.65-4.25,15.28-9.82h31c1.3,3.53-1.4,4.41-3.71,5.23-3.46,1.23-4.78,3.12-3.42,6.83A9.37,9.37,0,0,1,232.7,19a20.5,20.5,0,0,0-1.59,6.78c-.35,6.05-1.15,11.6-8.25,13.6-1.38.39-2.2,2-2.81,3.39-3.62,8.14-10,12.14-18.77,12.51-3.89.16-7,1.13-9,4.94-1.1,2.1-3.45,2.86-6,2.81a54.48,54.48,0,0,0-19.75,3.49c-5.2,1.88-10.49,3.23-16.17,2.53-4.47-.55-6-2.43-5.42-7.51.45-4,2.35-5.37,6.57-4.37s7.79,0,12.13-1.48c-4.22-3.49-7.5-7.13-13-7.56-2.82-.23-5-1.85-6.85-4.41a15.6,15.6,0,0,0-12.85-6.49,51.44,51.44,0,0,1-10.13-1.2,20.44,20.44,0,0,0-8.92-.14,40.68,40.68,0,0,1-15.28.15c-6.39-1-12.82-1.26-19.23-1.88a4.53,4.53,0,0,0-2.93.28c-6.84,4.21-13.79,1.64-20.62.19-4.76-1-8.13-3.76-8.32-9.18A14.89,14.89,0,0,0,45,23c-1.4-6.88-.41-8.66,6.27-11.28-7.86-3-16.09-4.33-24.27-6C24.92,5.28,19.92,5.22,22.1.11Z"/><path class="cls-9" d="M22.1.11c2.24,4.21,6.56,4.51,10.38,4.75A57.08,57.08,0,0,1,46.6,7.69c2.84.92,5.74,1.71,8.83.93a2.92,2.92,0,0,1,3.73,1.71c.73,1.94-.94,2.59-2.22,3.32a9.21,9.21,0,0,1-4.28,1.12c-5.18.21-6.08,1.79-5.48,7,.67,5.82,2.69,10,9,11.47,5,1.17,9.86,3.48,14.87.21a8.23,8.23,0,0,1,5.76-1.24c6.52.95,13.13-.06,19.68,1.73a26.37,26.37,0,0,0,15.65-.16,8.75,8.75,0,0,1,4.43,0c5.07.83,10.12,2.08,15.32.67a6.06,6.06,0,0,1,4.75,1.15c2.69,1.68,5.35,3.36,8.64,3.67,1.21.11,2.55.57,2.09,2.13-1.31,4.48,2.35,4.35,4.61,4.5,3.73.26,6.71,1.14,8.94,4.38,1.51,2.19,4.53,1.91,6.66,3.18,1.1.65,2.7,1,2.55,2.68-.12,1.4-1.5,1.92-2.57,2-5.65.39-11,4.23-16.93,1.39-1.13-.54-2.36-.67-3,.72a7.21,7.21,0,0,0-.22,4.89c.4,1.52,1.69.86,2.72,1.14,12.83,3.44,23.73-6,36.14-5.29A4.49,4.49,0,0,0,191,56.65c.34-2.75,2.06-3.42,4.52-3.55,3.15-.17,6.27-.69,9.42-1,6.46-.54,10.31-4.57,12.41-10.11,1.19-3.16,2.83-5.15,5.95-6,3.62-1,4.73-3.36,4.92-7,.19-3.89,0-8,2.28-11.57a4.54,4.54,0,0,0-.29-4.77c-3-5-2.27-7,3.42-9.1,2.33-.85,4.92-1.13,6.45-3.45h57c1.8,1.73,1.45,3.45.16,5.34-2.06,3-1.87,6.27-.44,9.51a18.3,18.3,0,0,1,1.65,5.21c.17,1.38.65,2.83,1.93,3.32,4.75,1.79,8.73,5.56,14.32,5.19,5.44-.35,10.83,1.48,16.37.09,3.91-1,7.73-1.85,11-4.4,3.94-3.09,8.93-3.18,13.35-3a43.11,43.11,0,0,0,14.66-2c1.83-.57,3.57-1,5,.79v10a7.26,7.26,0,0,1-3.24,2.23c-17.87,5-35.8,8-54.6,5.61-10.38-1.32-21.05.53-31.58,1.15-9.38.56-18.62,2.85-28.15,1.71-7.4-.89-13.4,2.89-19.21,6.93-7.75,5.39-15.85,10.11-25.25,12A45.17,45.17,0,0,0,198,66c-3.75,2.35-7.41,3.62-11.6,1.13-3-1.78-6.12-1.45-9,.09a30.55,30.55,0,0,1-8,2.49,23.59,23.59,0,0,0-3.81,1.42c-3.57.55-7.19.73-10.77,1.39-4.3.79-8.45-.32-12.45-1.88-6-2.31-11.82-4.9-18.27-5.72a3.94,3.94,0,0,1-3.49-2.49,6.85,6.85,0,0,0-5.8-5.38,2.94,2.94,0,0,1-2.43-3.31,4.13,4.13,0,0,1,3.36-3.87c3.25-.65,5.12-3,7.12-5.14,2.48-2.64,1.93-4.53-1.66-5a71.77,71.77,0,0,0-20.27.66,9.91,9.91,0,0,1-1.53.15c-9.25-1.59-18.49-2-27.8-.24a19.34,19.34,0,0,1-9.38-.59,18.76,18.76,0,0,0-6.89-1A13.58,13.58,0,0,1,42.87,33c-4-5.42-8.53-8-15.27-6.52a24.79,24.79,0,0,1-7.25.09c-2.66-.22-5.5-.54-6.2-3.86a6.16,6.16,0,0,1,4.14-7.58c3.85-1.46,7.72-3,12.82-3.17C26.55,10.42,22.89,9,19,8.31,14,7.41,13.09,4.46,16.1.11Z"/><path class="cls-10" d="M375.1,40.11c-4.31.36-8.74.19-12.9,1.15-14.33,3.32-29.11,2.91-43.52,5.55-3.25.6-5.58,1.64-6.88,4.8a8.32,8.32,0,0,1-7.67,5.48c-4.83.32-6,4.27-7.23,7.81-.91,2.69,1.76,3.12,3.56,3.84s4.08,1.35,4.09,3.78-2.28,3.28-4.11,3.76a14.11,14.11,0,0,0-9.15,7.14,6.67,6.67,0,0,1-4.87,3.22c-7.72,1.35-15.48,2.75-23.12-.45a6.38,6.38,0,0,0-4.86-.36c-6.76,2.61-14.23,3.08-20.45,7.4-5.37,3.73-11.32.75-17,.42-4-.22-7.55-1-10.23,2.91-1,1.45-2.89,1.56-4.58,1.52-4.13-.11-8.31-1-12.25,1.15a2,2,0,0,1-1.83-.25c-2.48-3.15-5.14-2.92-8.29-1a3.26,3.26,0,0,1-4.45-1.08c-1.12-1.57-.13-2.83,1-3.92,3.26-3.13,3-6-.53-8.76-.65-.51-1.51-1.12-1.66-1.82-1.46-6.72-7.42-5.17-11.61-5.78-3.8-.55-8,.39-11.81,1.42-11.86,3.19-24.06,2.75-36.12,3.78-2.51.21-5.22-.92-7.7-1.81-3-1.07-5.8-3.16-9-.36A1.23,1.23,0,0,1,100,78.34c1-3.54-1.81-3.21-3.66-3.92-11.61-4.49-22.52-1.84-33.18,3.25a20.09,20.09,0,0,1-9.72,1.73c-1.39-.06-2.76-.21-3.43-1.58s.45-2.48,1.35-3.44c1.14-1.21,2.26-2.71,4-2.91,10.34-1.2,17.19-8.84,25.53-13.72a72.19,72.19,0,0,0,7.27-5.23c.76-.57,1.81-1.35,1.48-2.39-.45-1.48-2-1-3-1-7.22.32-14.09,2.54-20.94,4.48-6.46,1.82-12.87,1.58-19.32,1.25-3-.15-6.81-.45-4.83-5.61.77-2-1.15-3-2.81-3.38-2.58-.63-5.26-1.59-7.83-1.42-9,.59-16.86-3.09-24.92-6.18A35,35,0,0,0,.1,37.11v-3c3.15-2.43,7-1.58,10.53-2.17.47-.08,1,.18,1.48.09C18,31,22.73,32,26.19,37.58c1.57,2.53,4.88,3.24,7.94,2.93,7.75-.79,14.33,1.4,19.82,7,2.44,2.5,5.45,2.62,8.86,1.88,7.61-1.66,15.33-2.64,22.66-5.6,4.69-1.9,9.85-1.19,14.83-1.22,2.27,0,3.89.89,4.55,3.09S104.68,49.37,103,51c-3.43,3.34-8.29,4.19-11.85,7.25-1.28,1.1-2.88,1.89-2.5,3.91s2.12,2.36,3.81,2.53c3.59.37,6.5,2.68,10,3.41,3.07.65,6,1.61,9.24,1.61s5.9.8,7.62,3.82a3.68,3.68,0,0,0,3.67,2c14.93-1.15,30.23,1,44.6-5.21,4.78-2.06,9.71-2.48,14.62,0s10.18.75,15-.29c8.91-1.92,17.85-3.79,26.62-6.33,6.63-1.92,13.37-3.71,19.59-6.66,7.23-3.45,14.51-5.66,22.57-5a8.25,8.25,0,0,0,8.66-4.67c.89-1.74,1.95-3,4-3.35,10.4-1.59,20.66-3.28,31.39-3.12,12.42.19,25.09.62,37.37-1.58,6-1.08,12.15-1.61,18.09-3.22,3.18-.87,6.55-1.5,9.51.93Z"/><path class="cls-11" d="M181.09,191.12a59.18,59.18,0,0,1,31,1.31,22.91,22.91,0,0,0,11.88.16c7.08-1.62,12,2.95,17.51,5.79,1.8.94,1.24,3,.08,4.39a29.77,29.77,0,0,1-3.47,3.08c.42,1.77,1.4,1.58,2.12,1.3,3.64-1.46,6.44-.19,9,2.47,3.37,3.57,7.37,4.91,12.23,3.46a5.35,5.35,0,0,0,3.41-2.62c2.6-4.51,8.83-7.27,13.77-6.21.16,0,.41,0,.48.1,3.06,4.65,7.4,1.52,11.13,1.68,4.41.19,8.81.62,12.54,2.86,5.43,3.25,9.26.75,12.46-3,3-3.51,6-7,8.32-11.09,2.2-3.93,1.15-6.11-2.69-7.08-4.91-1.23-9.8-3.44-15.08-1.26a2.72,2.72,0,0,1-3.9-2c-.54-1.94,1.08-2.46,2.52-3,4.73-1.94,9.41-4,14.18-5.9,4-1.57,8-3.33,12.54-2.52,1.85.34,3.6-.31,5.35-.93a19.9,19.9,0,0,1,10.27-.74c5.62.94,11.2-.94,16.69-2,3.91-.78,7.79-1.69,11.76-2.15v55a42.73,42.73,0,0,1-12.33,3.68c-4.17.71-8-2.76-12.39-3.53-2.45-.44-4.8-1.14-7.34-.88a19.93,19.93,0,0,1-7.88-.83c-5.51-1.66-11.22.28-16.81-.71a2.86,2.86,0,0,0-2.65,1.21c-3.29,5.45-9.06,3.89-13.86,5-2.37.54-4-.53-5.09-2.93-2-4.6-2.05-4.37-6.74-1.6-3.14,1.87-6.66,3.22-10.46,2.7-4.65-.64-8.6.23-11.39,4.36-.87,1.28-2.34,1.84-3.63,2.57-4.54,2.56-7.49,1.58-8.14-3.63-.58-4.75-2.59-6.62-6.93-8.6-5.08-2.32-9.78-5.34-15.35-6.77-3.27-.84-4.08-4.11-1.81-7.26,2-2.78,1.29-4.45-.58-6.89-2.09-2.71-3.88-2-6.45-1.1a31.94,31.94,0,0,1-22.4-.14,21.49,21.49,0,0,0-16,.1c-4.2,1.71-9,2.12-13.55,3.31-1.21.32-2.78.35-3.46,1.29-3.12,4.32-7.24,5.14-12.33,4.85-4.39-.25-8.8,1.29-13.26,1.43a3.31,3.31,0,0,0-2.28.63c-5.55,6-13.12,8.35-20.25,11.48-3.88,1.71-7.52,2.83-11.15-1.37-2.9-3.37-13.18-3.74-16.95-1.15a6.92,6.92,0,0,1-6.5,1.21c-2.77-.85-5.7-.34-8.43.09-4.54.71-8.86,2.23-13.6.46-2.13-.8-4,1.22-5.26,3.1-1.57,2.39-3.55,3.44-6.37,2.46-1.54-.54-2.93.38-4.41.43-2.45.1-4.57.06-6.94-1.63a11.29,11.29,0,0,0-14,.33c-4.56,3.53-9.93,4.45-15.08,6.14-2.62.86-4.47-.21-5-3.23-.84-4.79-5-8.44-4.5-13.84.15-1.67-2-3.3-3.45-4.73v-5c1.76-2.15,4-1.68,5.87-.55,3.54,2.12,6.14,2.16,9-1.49a5.06,5.06,0,0,1,9.08,1.7c1.28,4.71,6.54,5.6,8.06,9.82.27.73,1.55.71,2.3.36,5.14-2.39,9.86-.09,14.49,1.52,3.65,1.27,6.44.83,9-1.94,2.84-3,6.39-3.78,10.47-3.47a210,210,0,0,0,22.3.05,5,5,0,0,0,2.41-.61c6.76-4.18,13.55-2.48,20.27,0,7,2.58,10.26,1,12.22-6.24,1-3.58,6.13-6.83,9.76-6.13,1.18.22,1.18.22,2.34,3.52,3.26-5.24,7.32-6.31,13.42-4.8,6.53,1.61,13.66,2.81,19.88-2.35C173.81,190.14,177.83,192.58,181.09,191.12Z"/><path class="cls-11" d="M375.1,128.11c-11,2.65-22,4.68-33.13,6.56-11.53,1.94-22.89-1.66-34.13,1.37-4.47,1.21-9.16,1.64-13.62,2.86-6,1.66-10.42-1.7-14.65-4.69-2.62-1.86-.63-4.33,1.7-5.36a21.91,21.91,0,0,1,6.28-1.49c10.65-1.29,20.71-4.88,30.95-7.73,4.67-1.3,7.68-5.64,12.6-6.91,7.39-1.9,14.6-4.52,21.88-6.86,1.24-.4,3-.7,3-2.24,0-1.9-2-1.2-3.13-1.57-8.62-2.76-17.35-2.33-26.15-1.08-2.46.35-5,.41-7.25-1.09s-2.4-2.78-1.55-5.71c2.16-7.4,8-10.8,13.38-15a28.26,28.26,0,0,0,5.49-6.41c2-2.92-.12-4.72-2.44-5.92-2.9-1.51-5.4-3.2-6.5-6.49-1.48-4.41-.41-7,4-8.58,8.18-3,17-2.26,25.4-4.51C363,45.67,369.1,46,375.1,46.11Z"/><path class="cls-12" d="M.1,208.11C7,209.57,7,209.57,6.61,217a2.41,2.41,0,0,0,1.16,2.56c2.91,1.4,3.52,3.61,2.93,6.61-.45,2.36,1.09,3.17,3,2.36,3.51-1.47,7.38-2.68,10.21-5.06,4.77-4,9.91-5.14,15.78-4.29,1.13.17,2.79.21,3.25.93,2.72,4.29,6.07,3.55,10.27,2.49,2.44-.62,4.08-1.15,5.53-3.25,2.44-3.54,5.61-5.23,9.76-2.35a3.56,3.56,0,0,0,3.79.58c5.25-3,10.76-2.08,16.29-1.36.63.09,1.56.21,1.9-.13,5.65-5.75,12.18-2.26,18.4-1.83a5.94,5.94,0,0,1,5,3.63c1.31,2.51,3.34,2.51,5.47,1.18,7-4.35,14.49-8,21.8-11.67,5.66-2.84,12.84-3.07,19.49-2.77,2.53.12,4.67.17,6.13-2.13,2.12-3.35,5.41-4.25,9-4.34a21.07,21.07,0,0,0,9.59-2.52c7.2-4,14.09-3.47,21.38,0,6.19,2.92,12.81,2.07,19-.45,4.74-1.93,6.18,2,8.63,4.06s.79,4.07-.75,6c-2.14,2.66-1,4.51,1.95,5a24.9,24.9,0,0,1,13.81,6.28c2.39,2.21,6,.24,8.63,1.73,1.43.8,5.38.86,1.2,3.85-2.34,1.67-.78,4.3-.09,6.45a2.7,2.7,0,0,0,3,2.17c2.28-.27,3.17-1.85,4.06-3.84,2.15-4.87,6.78-5.64,11.27-5.37,5.78.36,11.06.63,13.37-6.21a2.15,2.15,0,0,1,3.28-1.24c1.76,1,4.61.84,4.66,3.78.06,2.63-.69,6.46,2.59,6.58,3.52.13,8.11,0,10.48-3.3,3.22-4.42,6.92-3.79,11.65-3.88,7-.13,13.68,2.53,20.6,1.45,5.39-.85,9.44,2.8,14.24,3.94,2.73.65,5,1.15,7.61-.25a10.23,10.23,0,0,1,9.18-.17v7c-3,.75-4.57,3.21-6.53,5.22-3.33,3.43-7.08,2.74-9-1.66-.53-1.21-.78-2.57-1.42-3.72-1-1.77-2.21-3.53-4.6-3.17a5.38,5.38,0,0,0-4.41,3.56c-1.78,4.2-3.62,4.28-6.48.55-1.43-1.85-1.87-5-5.37-4.18s-5.5,2.79-5.47,6.63c0,1.09-.77,2.18-1.15,3.28-.52,1.47-.71,3,.43,4.23,1.38,1.51,3.14,1.2,4.6.34,3.19-1.86,5.36-1.63,7.18,2,1.27,2.56,4,2.1,6.25,1.31a12.09,12.09,0,0,1,8.78.18c1.33.55,3.22.85,3.19,2.7s-1.77,2.35-3.09,2.91a17.54,17.54,0,0,1-5.25,1.52c-6,.55-11.94.88-17.91,1.29a8.27,8.27,0,0,1-7.14-2.85c-2.71-3-6.4-4.73-9.73-6.93-4.81-3.2-4.74-5.81.17-8.79a6.89,6.89,0,0,0,3.32-3.56c.62-1.82.93-3.75-1.11-4.85s-3.17.58-3.89,2c-2.18,4.39-4.26,5.66-8.3,1.41-2.42-2.55-6.26-1.77-9.42-.22s-6,2.86-9.4.66c-.71-.47-1.95-.27-2.92-.17-5.93.58-11.71,2.25-17.73,2.32-2.6,0-4.67,1.49-6.46,3.4-2.44,2.62-.29,4.32.84,6.53,1.68,3.28-.94,5.95-2.82,7.86s-2.58-1.55-4-2.19c-8.41-3.83-9.34-12.63-12.83-19.58-2.51-5-6.67-8.25-10.15-12.17-2.92-3.28-3.94-6.45-2.35-10.44.86-2.15,1.23-4.22-.52-6.05s-3.68-.48-5.54.07c-9.28,2.71-18.44,3.29-27.91.24-8.51-2.73-17.31-.78-24.31,3.79-7.85,5.12-16.2,5.4-24.69,6.31-3,.33-5.52,1-6.9,4a3.53,3.53,0,0,1-2.73,2,6.64,6.64,0,0,0-5.6,4.35,3.31,3.31,0,0,1-4,2.09c-5.39-.86-10.55.46-15.33,2.72-3.74,1.77-6.6,2.25-9.74-1.25-2.54-2.83-7.14-1.44-9.22,3-1.8,3.8-3.16,3.31-5.52.72-1.52-1.67-3.34-3.79-6-2.34s-5.86,2.84-5.8,6.8a14.84,14.84,0,0,1-.17,2c-1,7.89-.52,8.42,6.91,6.18,2-.6,3.48-.72,4.63,1.35,1.71,3.05,4.27,4,7.63,2.86,3.16-1,6.26-.29,9.32.62.93.27,2.16.31,2.39,1.49s-.89,1.64-1.67,2.23c-3.81,2.92-8.44,3-12.86,3.3-4.64.37-9.33.08-14,.1a7.11,7.11,0,0,1-5.82-2.3,26.22,26.22,0,0,0-8.45-6.05c-5.91-2.93-6.05-6.57-.66-10a7,7,0,0,0,3.27-3.63c.47-1.5.5-3.08-1-4.06s-2.81,0-3.87,1.11a3.29,3.29,0,0,0-.6.8c-2.19,5-4.49,5.53-8.3,1.05-2.35-2.77-6-2.4-9.19-.32-3.83,2.54-7.27,3-10.3-1.35-1.55-2.27-3.31-2-4.46.56s-3,2.24-5.32,2.58c-5.47.82-11.31.3-16.25,3.73-2.65,1.84-4,3.36-.84,6.09,4.05,3.49,0,6.73-1.42,9.17-1.87,3.17-4.19.11-6.06-1.35Z"/><path class="cls-13" d="M181.09,191.12c-7.17.11-12.94,4.81-19.78,6-4.91.88-9.79,2.13-14.4-1.24-1.6-1.17-3.16-.32-4.37,1.09a78.18,78.18,0,0,1-5.89,6.67c-1.28,1.17-3.55,2.25-4.93.66-1.1-1.27.74-2.55,1.76-3.6.82-.84,3.2-.88,2.14-2.62-.93-1.53-2.77-.41-4.12.07-3.26,1.17-5.14,3.31-3.59,6.88,1.15,2.65.16,3.59-2.12,5-5.26,3.2-10,3.2-15.26-.06-3.48-2.17-7.89-3-11.5-.93-5.34,3-11.22,3.06-16.74,3.26a67.59,67.59,0,0,1-13.22-.58c-4.17-.68-7.33.2-10.21,3.47s-6.28,4.3-10.64,1.94c-4.75-2.56-9.82-3.79-15.26-1.06-1,.5-7.57,4.82-4.28-2.94.19-.46-.27-1.72-.55-1.76-5.67-.87-5-7.11-8.47-9.74-1.11-.85-2.42.3-3.17,1.61-2.6,4.53-5.36,5.3-10,2.54A21.46,21.46,0,0,0,.1,203.11v-16C2,188.45,2,190.47,2.18,192.48c.15,1.74.68,3.41,2.58,3.87s2.73-.88,3.38-2.31c1.07-2.34,3.18-2.54,5.37-3,11.77-2.27,24-1.22,35.56-4.57,5.34-1.55,10.06-1.3,14.75,1.65,1.43.91,3.13,1.45,2.85,3.56A3.75,3.75,0,0,1,63.31,195c-5.66.92-11.28,3.11-17.12.81-1.24-.49-2.87-1-3.65.33-1,1.66,1.24,2,1.85,3,6.35,10.72,15.37,4.25,23.14,3.17,15.76-2.2,31.39-5.33,47.08-8a12,12,0,0,1,3,0c1.55.11,3.16.38,3,2.47-.14,1.67-1.45,2.22-2.9,2-3.88-.53-6.47,2.34-9.64,3.63-2,.79-1.16,2.71.29,2.68,3.94-.08,7.9,1.52,11.81,0,1.4-.54,3-1.22,3.44-2.7,1.42-5,5.36-6.21,9.77-7.17A165.28,165.28,0,0,1,155,191.65c1.21-.1,2.43-.22,3.3.67,3.68,3.78,7.23,3,11.1.18C172.94,190,177.18,191.48,181.09,191.12Z"/><path class="cls-14" d="M375.1,20.11c-8.29,4.57-17.56,3.6-26.46,4.68-1.66.2-3.34.21-4.7,1.3-7.11,5.69-15.33,5.56-23.93,5.55-7.95,0-14.69-3.06-21.81-5.45-1.31-.44-3.07-.94-2.72-2.38,1-4.26-1.31-7.68-2.32-11.42-1.35-5,2.28-8.3,3.94-12.28,24.7,0,49.41.11,74.12-.11,3.62,0,4.14,1,4,4.2C374.87,9.49,375.1,14.81,375.1,20.11Z"/><path class="cls-15" d="M375.1,37.11c-8.39-.11-16.51,1.74-24.66,3.36-10.7,2.12-21.56,1.39-32.35,1.88-7.63.35-15.27.53-22.91.83a16.85,16.85,0,0,0-7.58,2.31c-1.32.73-2.69,1.78-4.18,1.39-3.94-1-5.46.3-7.21,4.17-1.37,3-5.73,5-9.84,4.09-7.08-1.56-13.52.12-19.61,3.53s-12.89,4.47-19.43,6.07c-12.1,3-24.13,6.36-36.55,8-4.19.54-8.31.85-12.17-1.32-2.89-1.62-5.82-1.26-8.67,0-15.16,6.56-31.33,5.05-47.2,6-1.53.09-3.26-.25-4.08-1.52-2.73-4.19-6.86-4.65-11.3-5-6.83-.59-12.84-4.41-19.71-5.26-3.54-.45-3.55-3.17-1.37-5.5,2.63-2.82,6.09-4.52,9.43-6.4,2.91-1.63,7.71-2.71,6.76-6.86-1-4.58-5.88-2.32-9.07-2.55-3.87-.28-7.63.93-11.14,2.45-7.46,3.24-15.61,3.26-23.34,5.19-2.72.68-6,0-7.48-2.83-2.93-5.54-7.85-7.12-13.41-6.82-7,.38-12.88-1-17-7.11-1-1.39-2.32-1.56-4-1.48-5.65.26-11.3.34-16.95.49v-2c.24-.23.46-.61.73-.65,7.75-1,15.41-2.83,23.28-2.73,1.76,0,2.78,1.55,3.59,3.12a9.49,9.49,0,0,0,7.91,5.45c8,.52,14.78,4.41,22.06,6.9,6.21,2.12,11.83,3.14,18.42.41A50.33,50.33,0,0,1,95.21,40.4c5.9,0,11.74-1.54,17.69.12,2.22.61,4.37.92,4.65,3.61s-1.6,3.58-3.72,4.58c-4.62,2.16-8.73,5.32-13.67,6.94a4.09,4.09,0,0,0-3.09,3.79c0,2.19,1.69,3.34,3.46,3.77,5.09,1.25,9.53,5.07,15.45,3.37,2.41-.7,4.67,1.4,6.38,3.29,1.53,1.67,3.09,2.32,5.27,1.17a4.57,4.57,0,0,1,4.31-.42c9.69,5.29,19.34,1.23,29,0,1.27-.79,2.88-.67,4.15-1.49l3-1c3.57-1.4,7.43-1.51,11.07-2.54a5.37,5.37,0,0,1,4.18.4c4.79,2.76,9.34,2.42,14.65.94,7.66-2.15,15.58-3.38,23.1-6.13C227,58.63,232,54.52,238.24,53a5.12,5.12,0,0,0,3.28-2.94c3.09-7.4,9.93-7.7,16.24-8.24,9.8-.85,19.52-2.26,29.28-3.45,7.7-.94,15.5-.43,23.25-.55,14.85-.24,29.79,1.77,44.5-1.75,5.07-1.22,10-3.12,15.28-3.26,1.86-.05,3.65-.36,5,1.26Z"/><path class="cls-16" d="M209.1.11c1.78,3.41.76,5.39-2.83,6.83C196.13,11,187,17.36,176.6,20.86c-8.28,2.79-16.54,5.45-25.37,6.52-6.76.82-13.43,2.06-20.26,1.71a27.14,27.14,0,0,1-4.93-.62c-3.4-.83-4.22-3.65-4.21-6.56,0-3.25,2.86-2.5,4.87-2.83,7.12-1.19,13.89-3.16,19-8.79,2.77-3.09,1.66-4.67-2.07-5.11-3.46-.4-6.92-.87-10.4-1s-6.21-1-8.09-4Z"/><path class="cls-13" d="M33.09,137.12c4.8,1.68,9.49-.62,14.25-.35,14.49.81,28.05-4.85,42.24-6.07,2.2-.19,4.76-.95,5.08,2.19s-2.35,2.14-4.22,2.54c-6.48,1.4-13.79,1.72-19.08,5.12-5.11,3.29-9.71,6.41-15.72,8.15-3.49,1-6.51,2-9.93,1-3.79-1.05-6.36,0-8.25,3.53-2.56,4.79-6,8-12.06,5.5a4,4,0,0,0-2.91-.25c-7.25,4-14.94,1.1-22.39,1.61v-13a17.33,17.33,0,0,1,12.56-6.91c4.22-.38,8.22-2.44,12.4-3.43C27.68,136.14,30.52,134.79,33.09,137.12Z"/><path class="cls-17" d="M375.1,158.11c-5.63-1.26-10.84-2.54-16.81.52-5,2.57-11.26,2.7-17,3.87a4.43,4.43,0,0,1-2.45,0c-10.8-4.65-22.3-6.45-33.74-8.54-3.63-.66-4-2-2.12-5.48,5.06-9.41,13-10.19,22.45-9.79,12.21.51,24.61.8,36.58-2.75,4.29-1.28,9.1,0,13.05-2.83v11c-1.42,1.51-2.94,1.27-4.48.24-2.83-1.88-5.94-2-9.14-1.4-5.25.93-10.61.55-15.89,1.17-1.38.16-3.57-.85-3.86,1.09-.33,2.28,2,2.83,3.78,3.13a61.31,61.31,0,0,0,22.27-.42c2.48-.48,5.29-1.66,7.32,1.19Z"/><path class="cls-3" d="M33.09,137.12c-8.28,1.59-15.94,5.52-24.46,6.38-3,.3-5.08,3.77-8.53,3.61v-26C6,119,12.18,117.75,18,115.1c7.62-3.51,16.08-1.53,24.09-2.89,3.72-.63,7.62.13,11.42-.6,1.9-.36,3.79,0,4.72,1.93s-.53,3.12-1.43,4.49c-1.65,2.52-4.16,3-6.94,3.11-8.14.45-16.33.82-24.1,3.48-3.1,1.07-8.22,1.9-7.64,5.8.54,3.69,5.7,3.27,9,3.5a33.29,33.29,0,0,0,14.14-2.44c2-.78,4.06-1.53,6.28-1.27,1.46.18,3.43.13,3.58,2,.17,2-1.87,2-3.28,2.21C42.82,135,37.85,135.48,33.09,137.12Z"/><path class="cls-18" d="M16.1.11c-.29,3.77,1,5.78,5.21,6.17,4.75.44,9.07,3.19,14,3.13a2.61,2.61,0,0,1,2.89,2.8c-.16,1.8-1.83,2.41-3.28,2.55-4.09.42-8.29-.25-12.23,1.48-1.36.6-2.89.85-4.2,1.53a3.79,3.79,0,0,0-2.14,4.14c.28,2,1.77,2.73,3.51,3a28.58,28.58,0,0,0,9.92-.6c5.88-1.19,10.73-.36,13.76,5.84C46,35,50.48,36.76,55.91,37.22A113,113,0,0,0,77.67,37c7.41-.79,15,.62,22.42,2.13-.49,2.66-2.7,2-4.27,2a48.4,48.4,0,0,0-21.56,4.68,12.74,12.74,0,0,1-10.58.15c-4-1.88-8.24-2.72-12.35-4.07a48.62,48.62,0,0,1-14.23-7.3c-6.18-4.6-13.3-7-21.35-5.24a57.76,57.76,0,0,1-8.64,1.34C4,30.84,1.56,30,.1,27.11.1,19,.19,10.78,0,2.61,0,.46.44,0,2.6.05,7.09.26,11.6.11,16.1.11Z"/><path class="cls-19" d="M375.1,34.11c-14.75,1-29,5.75-44,5.1-11.78-.51-23.61-.3-35.38-.09-10.34.18-20.94.94-30.75,5.24-1.47.65-2.92.19-4.4.19-6.61,0-13.4-.37-16.75,7.29a6.51,6.51,0,0,1-4,3.65c-9.29,2.44-17,8.71-26.54,10.62-5.86,1.18-11.72,2.37-17.61,3.41-4.56.81-8.92,1.09-12.9-1.88-1.43-1.07-3.08-1-4.8-.78-3.29.48-6.6.84-9.9,1.25,6.81-2.81,13.61-5.71,21-2,2.52,1.27,4.52.15,6.4-1.33a35,35,0,0,1,19.6-7.72,10.84,10.84,0,0,0,5.06-2c3.65-2.3,7.22-4.71,11.59-5.59a6.78,6.78,0,0,0,3.33-2.08c7.53-8.14,16.75-10.43,27.46-8.62,7.31,1.23,14.57-.58,21.85-1.11,12.22-.89,24.37-1.9,36.71-.94,13.9,1.07,27.94,1.27,41.32-4.23a29.43,29.43,0,0,1,12.66-2.44Z"/><path class="cls-19" d="M.1,27.11c3.73,1.93,7.35,1.28,11.46.76,10.86-1.37,21.79-2,30.57,7.32,3.67,3.87,8.68,6.94,14.82,4.62,2-.78,3.51.17,4.75,1.74a9.52,9.52,0,0,0,11.76,2.92C81.15,41,89.07,40.1,97.26,40a10.51,10.51,0,0,0,2.83-.88h0a64.41,64.41,0,0,1,20.83.07c3.91.72,4.45,2.91,1.91,6-1.77,2.15-3.6,4.21-6.6,5-4.18,1.12-5.95,5.77-10,7.36-1.09.42-.11,1.75.81,2.27,1.59.91,3.33,2.2,5,2,7.43-1,13,5.21,20.52,4.75,3.38-.2,6.47,3.79,10.65,4.26,5.43.62,10.75,1.4,16.12-.2,1-.28,2-.48,2.73.51-4.45,3.63-9.92,2-14.9,2.79-5.36.88-10.84,2.3-16-1.06a3.47,3.47,0,0,0-3.39,0c-3.18,1.59-5.65,1.07-7.72-2a5.17,5.17,0,0,0-5.27-2.15c-8.3,1.2-14.89-4.15-22.41-6-2.11-.52-1.53-2.31-.23-3.48,2.73-2.46,5.54-5,9.12-6,4.6-1.29,8.09-4.59,12.41-6.34a2.38,2.38,0,0,0,1.79-2.66c-.23-1.38-1.36-1.72-2.52-2.06-9-2.58-17.74-.46-26.51,1-7.8,1.28-14.85,5.91-23.2,5A18.46,18.46,0,0,1,55.75,46c-6-3.43-12.2-5.91-19.31-5.94-4.92,0-9.14-2.05-11.07-7-1.13-2.86-3.38-3.6-5.58-2.63C13.34,33.25,6.67,31.78.1,32.11Z"/><path class="cls-20" d="M375.1,149.11c-9.14,1.57-18.16,3.55-27.62,2.18a18,18,0,0,1-9.38-3.92c-1.15-.94-2.65-1.89-2.15-3.61s2.36-2.36,4-2.44c2.64-.12,5.32.34,8,.1,4.95-.43,10,0,14.87-1.2s8.59,1.38,12.32,3.89Z"/><path class="cls-21" d="M29.1,526.11c2,0,4.14-.21,6,1-4.74,2.59-10.26,3.68-13,9.59a8.3,8.3,0,0,1-8.51,4.73A25,25,0,0,0,.1,543.11v-3c3.63-.52,7-1.59,9-5,1.09-6.41,6.84-6,11.08-6.74A50.26,50.26,0,0,0,29.1,526.11Z"/><path class="cls-2" d="M.1,528.11c1.71.22,3.46-3.29,4.43-1.08,1,2.36,3,5.4.62,8.36A6.62,6.62,0,0,1,.1,538.11Z"/><path class="cls-13" d="M.1,180.11c1-.15,1.93-.39,2.91-.45,1.93-.11,5-1.86,5.43.75.35,2-2,4.33-4.91,4.59-1.14.11-2.29.08-3.43.11Z"/><path class="cls-22" d="M367.1,424.11a21.11,21.11,0,0,1,8,0v5c-2.93.37-6.09,1.7-8-2A2.34,2.34,0,0,1,367.1,424.11Z"/><path class="cls-10" d="M262.63,127.68c-2,.28-4.07.21-5.88.91-8.36,3.21-17.25,4.83-25.44,8.59-3,1.37-4.92,2.94-3.41,6.43,1.08,2.47-.14,3.61-2.15,4.7-5,2.7-10.2,2.42-15.54,1.31-9.37-2-18.77-3.77-28.16-5.66a14.81,14.81,0,0,1-2.9-.71c-1.44-.62-4-.43-3.86-2.44s2.62-1.37,4.09-1.87c7-2.37,15.17-2,20.65-8.35a6,6,0,0,1,5.47-1.9c1.5.21,3.25.23,3.64-1.68.33-1.61-1.22-2.13-2.37-2.79s-3.42-.87-2.71-2.86c.64-1.81,2.55-.92,4-.76,6.17.73,14.88-5.36,16.49-11.42.89-3.35,3.51-4.73,6.69-5,14-1.13,28.06-2.66,42.18-1.69a23.89,23.89,0,0,1,8.55,2.62c3.81,1.8,7.65,3.18,12,3,3-.09,4.62,1,2.71,4.21-.5.85-1.31,2-1.09,2.72,1.67,5.73-2.79,5.93-6.19,7.1C280.67,125.16,271.88,127.5,262.63,127.68Z"/><path class="cls-3" d="M111.72,150c-3.87-.13-6.17-2.87-9-4.54-1.54-.92-.29-2.44.63-3.34,1.79-1.77,3.93-3.5,6.38-3.63,5-.27,9.56-2.67,14.67-2.05a16.35,16.35,0,0,0,9.15-1.52c2.3-1.09,4.8-.85,5.85,1.9,1.11,2.93-1.27,3.66-3.39,4.36-7.65,2.52-15.92,3.39-22.66,8.42A4,4,0,0,1,111.72,150Z"/><path class="cls-3" d="M59.31,153.91c3.37.72,7.45-1.22,7.81,2s-2.68,6.22-6.11,7c-6,1.33-12.1,2.12-18.18,3a4.23,4.23,0,0,1-4.61-2.35c-.87-2,1.8-2,2.42-3.11C45.23,152.1,53.67,156,59.31,153.91Z"/><path class="cls-13" d="M66.51,170c-.25,0-2,.2-2.35-1.32-.51-2,1.49-1.67,2.62-2.15a68.77,68.77,0,0,0,19.09-12.11c2.94-2.6,12.25-.54,13.39,3.17.91,3-1.7,3.87-3.71,4.18a63.39,63.39,0,0,1-9.46.36c-2.55,0-4.57.47-5.23,3.43-.49,2.2-2.15,3.26-4.36,3.48Z"/><path class="cls-3" d="M76.11,153.14A8.74,8.74,0,0,0,74,144.39c-1.13-1.22-1.06-2.24.65-3.07,5.29-2.57,16.11-1.12,20.37,2.75,2.11,1.92,1.9,4.16-.7,4.22C88,148.46,82.4,150.58,76.11,153.14Z"/><path class="cls-13" d="M20.07,180.57c4.17-3.08,7.84-2.31,11.08-3.1,2.48-.6,4.6-1.12,6.23-3.43,1.94-2.74,4.91-3.13,8-1.91a4.31,4.31,0,0,1,3,4.66c-.2,2.21-2.19,2.05-3.81,2.34A104.4,104.4,0,0,1,20.07,180.57Z"/><path class="cls-13" d="M75.61,190.64c5.31-2.61,11.17-3.26,15.9-7.43,3-2.67,6.35.14,8,2.64s-1.65,3.63-3.15,3.5c-6-.51-11.72,3.81-17.87,1.21C77.67,190.22,76.57,190.6,75.61,190.64Z"/><path class="cls-3" d="M75.37,184.07c-1.63-.08-3.5.2-4.45-1.54s.4-3.17,1.6-4.27c1.68-1.54,2.44-4.18,4.94-4.71A5.71,5.71,0,0,1,83.12,176c1.38,1.82-.25,3.42-1.36,4.83C80.15,182.85,78.15,184.25,75.37,184.07Z"/><path class="cls-3" d="M119.11,173c-6.36,5.88-14.63,4.66-19.63-2.55C105.53,175.17,112.14,175.37,119.11,173Z"/><path class="cls-11" d="M281.14,194.4c.24-2.09.22-4.55,3.06-4.85,2-.2,3.12,1.27,3,3.13a4.89,4.89,0,0,1-3.78,4.68C281.26,197.88,281.34,195.89,281.14,194.4Z"/><path class="cls-3" d="M67.64,109.13c1.4.2,3.38-.36,3.66,1.67.24,1.76-1.39,2.17-2.76,2-1.57-.22-3.86-.13-4-2.12C64.35,108.93,66.41,109.37,67.64,109.13Z"/><path class="cls-3" d="M129.92,174.09c-1.28-.18-2.94,0-3-1.7s1.37-2.08,2.73-1.95,3.29.48,3.32,2.19S131.06,173.87,129.92,174.09Z"/><path class="cls-3" d="M89.24,173.38c-1.27-.54-3.65.1-3.39-2.41.14-1.42,1.65-1.42,2.8-1.11,1.48.39,3.71.19,3.52,2.51C92.05,173.85,90.47,173.51,89.24,173.38Z"/><path class="cls-11" d="M301.14,198.56c-.3,1.3-1.39,1.76-2.54,2-.91.21-1.78-.11-1.51-1.24a2.6,2.6,0,0,1,2.65-1.88C300.44,197.41,301.06,197.64,301.14,198.56Z"/><path class="cls-3" d="M84.1,108.11c-1.2.4-2.45,1.29-3.61.06-.54-.57-.17-1.26.5-1.54,1.55-.65,2.46.17,3.1,1.49Z"/><path class="cls-21" d="M361.1,414.11h1c1.52-.42,3.24-1.65,4,1-2.74-.18-4.57,1.36-6.59,3-3.7,3-5.31,7.78-9.87,10.34-1.41.79-4.31,5.42-3.32,9,.63,2.3,9.16,5.81,11.78,5.42,2-.31,2.63-1.78,3.22-3.4a6.07,6.07,0,0,1,5.24-4.06c1.57-.22,3.15.18,3.81,1.73.85,2-.74,2.57-2.25,3-3.32,1.05-4.21,4.52-6.18,6.8-1.54,1.77,1.07,3.4,2.84,4.35,9.44,5.07,9.81,5.87.64,10.62-8.83,4.58-17.25,10.31-27.66,11.72a45.66,45.66,0,0,0-15.14,4.69c-1.45.77-3.2,1.45-3,3.54.19,1.93,1.79,2.66,3.37,3.29a3.66,3.66,0,0,1,.46.18c1.56.8,3.82.55,4.48,2.69a2,2,0,0,1-1.43,2.34,5.15,5.15,0,0,1-5.53-1.36c-1.89-1.95-3.71-2-6.2-1.65-3.57.44-5.85-3.86-9.68-3.3,1.48-3.42,3.81-1.78,6-1,2.62-6,7.21-8.41,13.63-7.65a2,2,0,0,0,1.33-.63c5.39-5,12.84-5.51,19.05-8.72,6.3-.92,11.09-5.36,16.76-7.72-3.49.23-6-3.21-9.76-3.28a7.41,7.41,0,0,0-5,2c-2.29.06-6.21,2.82-5-3l3-1c1.36-1.94.22-5.24,2.84-6-2.17.13-4.77.17-6.84-2-4-7.85-.77-15.39,1-23,1.15-2,3.19-2.83,5-4h0C351.21,414.83,356.91,417.14,361.1,414.11Z"/><path class="cls-21" d="M277.09,474.11c2,1.45,4,.38,6,0,3-2.05,6.37-1.34,9.65-1.52,1.78-.09,3.64.51,5.35-.48,4.82-1.49,4.9,1.76,5,5-2.78.74-4.22,3.08-6,5a28.8,28.8,0,0,1-3.23-4.39c-1.93-3.94-3.8-4.35-7.11-1.38-4.42,4-7.08,9.17-10.11,14.11-.52.84-.68,2.23-1.93,1.69-3.26-1.38-5.37-.12-7.19,2.49a1.38,1.38,0,0,1-2.18.17,3,3,0,0,1-.67-3.22c.37-1.2,1.54-2.59-.05-3.55s-3,.14-4.08,1.06a39.93,39.93,0,0,0-7.38,8.7c-1.36,2-.43,3.51,1.43,4.49,2.35,1.24,4.81,2.26,7.15,3.51a3.48,3.48,0,0,1,2,3.71c-.18,1.28-1.1,1.91-2.28,2.36a31.18,31.18,0,0,1-21.34.25,2.09,2.09,0,0,1,1.78-.49c4.31.05,5-2,3.22-5.51.49-3.72.73-7.49,1.55-11.14.61-2.69,2.82-4,5.4-5.26,4.25-2,10.05-1.92,12.05-7.6.71-2.14,2-4,3-6h0c2.15.14,4.37,1.05,6-1.42A2.7,2.7,0,0,1,277.09,474.11Z"/><path class="cls-22" d="M35.1,535.11a10.62,10.62,0,0,1,5.15,1.35,8.34,8.34,0,0,0,8,.11,12,12,0,0,1,10.91-.06c5.81,2.72,8.08,2.09,11.46-3.23,1.26-2,2.86-3.46,5.28-2.63s2.16,3.07,1.74,5.06c-.37,1.79-.15,3.29,1.43,4.4.63,2-1.55,1.13-2,2-1.45.24-3.17,1.3-4.32.35-4.23-3.54-8.44-1.22-12.68-.35-3,1.59-4.77-1-7-2-3.65-2.06-7.14,0-10.67.47-2.38.34-4.63.81-6.33-1.47C35.45,537.86,34.23,536.75,35.1,535.11Z"/><path class="cls-21" d="M77.1,542.11l2-2,4-1c2.68-6.8,8.93-8.27,15-10h0c4-2.6,8.91-.91,13-3a4.7,4.7,0,0,1,2,4,6.86,6.86,0,0,0-8,3.42c-1.56,3-3.66,3.59-6.19,4.07C91.63,539,84.64,541.88,77.1,542.11Z"/><path class="cls-22" d="M179.1,528.11c5.15-.07,7.59-3.92,9.93-7.53,2.94-4.53,6.56-7.76,12.07-8.47.91,3-1.77,3.64-3.35,4.72-2.7,1.85-4.08,3.84-2.08,6.92,1.45,2.23,0,3.3-1.57,4.36-3.16,0-4.75,2.52-6.85,4.26-1.83,1.54-3.73,3.66-6.15.74C180.41,531.45,178,530.48,179.1,528.11Z"/><path class="cls-22" d="M128.1,534.11c7.72-.43,15.3-2.3,23.09-2.22a6,6,0,0,0,5.44-3c2.77-5.62,7.2-6.1,12.47-4.73.25.23.34.45.25.67s-.17.33-.25.33c-5.17-.92-9.4-.67-11,5.81-.6,2.48-4,3.37-6.4,2.94-5.66-1-10.79,1.09-16.13,1.89C132.82,536.17,130.27,536.12,128.1,534.11Z"/><path class="cls-22" d="M297.1,482.11c-.37-5.57-.37-5.57,6-5-.52,1.3-2.57,2.18-1.73,3.72s2.65.38,4,.35c2.17-.05,4.25,0,5.7,1.93-2,.05-4.14-.21-6,1C301.9,485.55,299.12,485.36,297.1,482.11Z"/><path class="cls-21" d="M367.1,424.11v3c-1.84-1.83-3.25-2-4.3.83-.66,1.76-2,3.54-4.05,2.36-2.58-1.48-.84-3.52.29-5,1.95-2.48,3.07-6,7-6.22C364.49,421.17,364.73,422.85,367.1,424.11Z"/><path class="cls-22" d="M207.1,520.11l13,4c-5.1,4.66-7.24,4.86-11,1C207.56,523.8,205.26,522.78,207.1,520.11Z"/><path class="cls-21" d="M194.1,528.11c.34-.73,1.19-1.8,1-2.15-3.85-5.75.75-8.47,4-11.69.7-.68,1.34-1.44,2-2.16,2.44.3,5.3-.9,7,2-6.55-.66-11.57,3.71-11.3,10C196.89,526.23,196.14,527.53,194.1,528.11Z"/><path class="cls-21" d="M169.1,525.11v-1c1.31-.89,2.81-.28,4.21-.51,3.59-.6,5.39,1,5.79,4.51h0q1,2.5,2,5c-2.28-1.74-4.36-2.35-6,.82-.43.82-1.2,1.84-2.29.8-.66-.62-.4-1.55,0-2.28a8.64,8.64,0,0,1,1.2-1.56c1.18-1.21,2.41-2.44,1.47-4.29-.81-1.6-2.47-1.38-3.93-1.46C170.74,525.09,169.92,525.12,169.1,525.11Z"/><path class="cls-21" d="M35.1,535.11l1,4c-2.32-2-4.42-3.19-5.67,1-.35,1.2-1.18,2.77-2.84,1.49-1.24-1-.44-2.31.46-3,3.11-2.26,3.29-6.89,7.05-8.57.67,1.67-1.55,3.34,0,5Z"/><path class="cls-21" d="M290.83,485.65c-1.6,0-2.82-.73-2.94-2.21-.16-2.06,1.62-2.76,3.18-3.25,1.4-.43,2.3.57,2.37,1.85A3.25,3.25,0,0,1,290.83,485.65Z"/><path class="cls-22" d="M245.1,506.11c1.05,1.77,4.67,2.22,3.76,4.55s-4.09,1.19-6.29,1.44a22.61,22.61,0,0,1-2.47,0h-1C241.82,510.83,245.69,510.71,245.1,506.11Z"/><path class="cls-21" d="M292.93,490.12a8.78,8.78,0,0,1,4.15,3.95,1,1,0,0,1-1.15,1.45,6.29,6.29,0,0,1-4.11-4C291.56,490.83,292,490.25,292.93,490.12Z"/><path class="cls-21" d="M207.1,520.11c.66,1.67,1.33,3.34,2,5-5.4-2-5.74-3.24-2-7Z"/><path class="cls-22" d="M114.1,532.11c4,.7,8.12-.8,12,1C122.07,533.09,117.83,535.67,114.1,532.11Z"/><path class="cls-22" d="M366.1,415.11a6.72,6.72,0,0,0-4-1c1.86-1.05,3.8-1.44,5.19.54,1.22,1.74.76,3.39-1.19,4.46Z"/><path class="cls-22" d="M35.1,535.11c-1.22-1.66-.76-3.33,0-5v-3C39.18,529.78,34.48,532.45,35.1,535.11Z"/><path class="cls-21" d="M53.1,540.11l7,2C56.83,544.72,55.12,541.88,53.1,540.11Z"/><path class="cls-2" d="M293.68,443.75c.7.38,1.6.81,2.44,1.33,2.61,1.63,4.94,1.75,7-.94s4.68-2,7.27-1a7,7,0,0,1,4.5,6.14c.12,3.08-2.55,4.28-5.31,3.16a11.87,11.87,0,0,0-7.29-.5c-5.17,1.09-7.49-2.56-9.8-6.1C291.81,444.78,292,443.92,293.68,443.75Z"/><path class="cls-22" d="M352.1,455.11c5.15-.17,10.21,3.79,15.47.4.26-.16,1.05.13,1.3.44.5.61.11,1.24-.39,1.72a1.91,1.91,0,0,1-.81.57c-8,1.28-14.12,7.92-22.57,7.87,2.13-1.19,4.24-2.41,6.39-3.56,1.81-.95,4.59-1,4.91-3.46C356.76,456.26,353.47,456.54,352.1,455.11Z"/><path class="cls-22" d="M29.1,526.11c-2.35,2.21-4.71,3.53-8.36,3.3-4.58-.28-8.57,2.14-11.64,5.7-.37-4.19.39-6.69,5.76-6.83C19.56,528.16,24.25,526.29,29.1,526.11Z"/><path class="cls-22" d="M341.1,445.11c3.14,1.36,6,1.37,8.59-1.33,1.1-1.14,2.71-1.76,3.72.08s.19,3.57-1.7,3.84c-3.44.5-4.86,3.06-6.61,5.41C346.1,449.28,343.21,447.39,341.1,445.11Z"/><path class="cls-22" d="M98.1,529.11a15.27,15.27,0,0,1-3.21,2.27c-4.56,1.66-9,3.42-11.79,7.73.21-5.19,5.14-6.93,7.85-10.23C92.58,526.9,95.65,529.12,98.1,529.11Z"/><path class="cls-2" d="M230,504.3c1.68.21,3.42.61,3.6,2.61s-1.46,2.79-3.2,2.89-3.34-.68-3.54-2.61S228.12,504.41,230,504.3Z"/><path class="cls-22" d="M111.1,526.11c-3.83,3.2-8.43,3-13,3C101.53,524.2,106.69,526.78,111.1,526.11Z"/><path class="cls-22" d="M361.1,414.11c-3.77,4.51-9.38,2.54-14,4C350.9,413.75,356.39,415.32,361.1,414.11Z"/><path class="cls-22" d="M298.1,472.11c-4.84,1.91-10.13.42-15,2C287.67,470.27,293.11,472.91,298.1,472.11Z"/><path class="cls-22" d="M277.09,474.11a6.08,6.08,0,0,0-4.32,1.86c-1.87,2-3.76,1.2-5.67.14C270.69,476.75,273.18,471.88,277.09,474.11Z"/><path class="cls-22" d="M179.1,528.11c-1.94-4.81-6.14-4-10-4C176.07,521.92,178.07,522.72,179.1,528.11Z"/><path class="cls-22" d="M267.09,476.11a7.34,7.34,0,0,1-3,6C263.23,479.18,265.43,477.78,267.09,476.11Z"/><path class="cls-22" d="M342.1,454.11c.39,3.12,2.75,3,5,3-1.75,1-3.65,1.51-5.38.25C340.24,456.3,341.29,455.13,342.1,454.11Z"/><path class="cls-22" d="M347.09,418.11a10.39,10.39,0,0,1-5,4C342.72,419.48,344.47,418.25,347.09,418.11Z"/><path class="cls-2" d="M148.05,218.68c2.13.69,4.31,1.55,4.7,4.28.18,1.25-.44,2.59-1.86,2.32-2.51-.48-3.5-2.89-4.68-4.78C145.55,219.44,146.85,218.89,148.05,218.68Z"/><path class="cls-2" d="M112,233.74c2.32.81,4.47,1.27,4.38,4,0,.94-1.12,1.19-1.93.91C112.2,237.91,111.73,236.22,112,233.74Z"/><path class="cls-2" d="M53.26,237c-.27.23-.56.66-.94.74-.68.16-1.32-.15-1.29-.93a1.34,1.34,0,0,1,.86-.92C52.58,235.67,53.08,236.05,53.26,237Z"/><path class="cls-9" d="M223.62,18.6c.92,0,1.51.35,1.55,1.07a1.24,1.24,0,0,1-.82.9,1.09,1.09,0,0,1-1.33-1C223,19.22,223.45,18.86,223.62,18.6Z"/><path class="cls-18" d="M162.1,71.11c-6.09,1.14-12.24,1-18.39,1a16.22,16.22,0,0,1-9-2.31c-.84-.53-2.05-1.48-2.63-1.22-5.57,2.5-9-3-13.48-3.43A68.8,68.8,0,0,1,103.79,62c-1.57-.53-3.55-.72-3.84-2.66-.33-2.16,1.51-3.56,3.15-4,4.78-1.23,8.46-4.51,12.86-6.4a16.62,16.62,0,0,0,4.21-2.57c1.36-1.18,2.88-2.69,2-4.7s-2.88-2.16-4.7-2.22c-5.8-.19-11.6-.23-17.39-.34a44.44,44.44,0,0,1,23.42-.51c3.26.78,3.88,3.1,1.69,5.62-2.38,2.73-4.56,5.8-8.29,7-1.31.41-2.82,1.06-2.53,2.62.33,1.74,2.13,1.27,3.37,1.28,3.34,0,5.58,1,5,4.95a2.54,2.54,0,0,0,2.58,3.05c6.3.44,11.72,3.32,17.29,5.88a22.83,22.83,0,0,0,17,.82,27.72,27.72,0,0,1,5.43-.67Z"/><path class="cls-8" d="M134.09,48.18c4.71,0,9.26,4.55,9.31,8.68A2.6,2.6,0,0,1,142,59.27a3.38,3.38,0,0,1-4.14-.54,50.29,50.29,0,0,1-6.48-7.28C129.08,48.41,133,48.78,134.09,48.18Z"/><path class="cls-23" d="M238.42,129.09c-3.34.08-6.67.17-9.68-1.7-2-1.27-3-2.63-.9-4.71,4.62-4.49,9.47-8.86,14.32-13,5.24-4.41,13-3.94,19.67-2.17,7.27,1.92,14.64,3.08,22,4.42,2.34.42,4.81.75,5.09,3.8s-1.49,5-4.13,6.17a12.76,12.76,0,0,1-5.84,1.13A117.11,117.11,0,0,0,255.6,125c-2.67.43-5.32.71-7.56,2.27C245.08,129.31,241.76,129.17,238.42,129.09Z"/><path class="cls-5" d="M356.44,452.44c-.23-.26-.7-.57-.77-1a1.07,1.07,0,0,1,1-1.38,1.38,1.38,0,0,1,1,.89C357.82,451.71,357.44,452.27,356.44,452.44Z"/></g></g></svg>