<svg xmlns="http://www.w3.org/2000/svg" viewBox="0 0 375.2 177.98"><title>Asset 3</title><g id="Layer_2" data-name="Layer 2"><g id="Layer_1-2" data-name="Layer 1"><path d="M.1,53.89c10,4.85,20.21,9,29.37,15.54,3,2.11,7.12,4.43,11.43,1.59a3.33,3.33,0,0,1,2.88-.32c4.28,2.85,9.22,1.62,13.5,2.57,4,.89,7.33,2.86,11.36.58,3.66,5.08,8.18,2.7,12.81,2C82.67,75.61,85,77,87,77.39c4,.86,6.26-.41,9-3.34,2-2.18,6.31-2.18,9.06-1.3,3.13,1,5.69,0,8.46,0,6.32.15,10.41-2.8,14.42-7,1.77-1.86,4.51-3.36,6.48.39.4.77,1.88,1.22,2.08.69,1.6-4.42,6.36-1.07,8.74-3.71,1.06-1.18,3-.75,4.22.06,3.05,2,5.86-.14,7.93-1.23,2.62-1.39,4.24-3.65,7.92-4.32,3.14-.57,5.67-1.72,9.05-.51,3.81,1.36,6.87,0,10.16-3,2.66-2.43,7.3-2.71,11.09-3.84.57-.17,1.68.47,1.88.21,4.68-5.85,12.23-4.52,18.05-7.36A128.22,128.22,0,0,1,231,37c5.57-1.87,11.16-1.53,16.63-3a122.39,122.39,0,0,1,23.24-3.65c8.81-.56,17-3.93,25.9-4.47,4-.24,9.07-.94,12.92-4.54,2.77-2.59,7.47-1.59,11.26-3.1,10-4,20.07-8.26,30.52-10,6.82-1.14,11.91-4.59,17.68-7.2,2.15-1,3.94-1.67,6-.15q0,86.49.1,173c0,3.42-.68,4.09-4.1,4.09q-183.49-.16-367,0C.68,178,0,177.31,0,173.89.15,133.89.1,93.89.1,53.89Z"/></g></g></svg>