<svg xmlns="http://www.w3.org/2000/svg" viewBox="0 0 1495.67 965.24"><defs><style>.cls-1{fill:#fff;}</style></defs><title>After-l</title><g id="Layer_2" data-name="Layer 2"><g id="Layer_1-2" data-name="Layer 1"><path id="Path_1" data-name="Path 1" class="cls-1" d="M349.35,175C488.56,154,509.63,66.24,558.23,73.49S480.64,222.13,543.73,204,750.37-15.7,810.56,1s-37,219-26.1,269.73,44.23-84.11,110.21-78.31S956.3,336,1048.38,293.91s117.46-264.65,174-258.13-16,199.4,52.2,284.23,209.55-5.8,220.42,55.11-118.18,70.33-176.91,188.52-28.28,277-58,284.23-13-234.2-60.91-255.23-84.1,171.12-130.51,171.12,31.9-187.8-55.11-171.12S854.06,821.76,720.65,830.47s-100.06-235.65-240.73-203S212.37,1007.38,158,961,301.55,642.67,262.4,441.82-20.37,224.3,1.37,157.6,210.13,196,349.35,175Z"/><path d="M464.85,539.42c-3.88-5-6.16-14.82-6.39-29.41-.22-7.75-.45-13.68-.45-17.55l.23-6.16V474h-3a117.49,117.49,0,0,0-15.73.91l-2.51.46-2,5-5,14.14c-2,5.93-3,9.8-3,11.85l.46,2.51a3,3,0,0,1-.69,1.6,3.33,3.33,0,0,1-2,1.37,10.46,10.46,0,0,1-2.28.45,8.86,8.86,0,0,1-6.61-3,8.7,8.7,0,0,1-3-6.84l.23-3.65c.69-4.56,2.51-10.94,5-19.15.23,0,.23-.23.23-.46l-8.44,2.51a19.89,19.89,0,0,1-3.42,1.14l-1.82.68a48.7,48.7,0,0,0-11.4,5.25,8.69,8.69,0,0,1-5,1.59,17.44,17.44,0,0,1-3.42-.45,10,10,0,0,1-5.47-4.56,5.36,5.36,0,0,1-.46-1.83,3.85,3.85,0,0,1,.69-2.28,18.1,18.1,0,0,1,4.78-5.47l1.37-1.14a19.58,19.58,0,0,1,4.56-3q5.82-3.07,8.21-4.11c.23,0,.23,0,.23-.22a71.39,71.39,0,0,1,11.85-3.88l3-.68a58.05,58.05,0,0,1,9.12-1.37,2.61,2.61,0,0,0,1.59-.46,3.68,3.68,0,0,0,.69-1.37c1.82-5.47,3.65-10.71,5.47-15.5a42.07,42.07,0,0,1,2.28-5.7l2.05-6.38,1.6-3.65a36,36,0,0,1,2.28-5.24l1.14-2.74a79.84,79.84,0,0,1,6.84-15.05,178.94,178.94,0,0,1,9.8-18.69,47.44,47.44,0,0,0,3.42-6.84,115.41,115.41,0,0,1,10.94-19.16,4.14,4.14,0,0,1,3.65-2.05l1.37.23a12.36,12.36,0,0,1,7.52,5,15.49,15.49,0,0,1,2.74,8.66c0,1.6-.68,6.38-1.82,13.91l-5.48,34.2c-.68,4.33-1.36,8.43-1.82,12.31l-1.14,13.22q-1.37,13.33-1.37,19.84l-.91,15.05a75.3,75.3,0,0,0-.23,8,105.55,105.55,0,0,0-.45,10.94v9.12l.22,8.21c0,3.19,0,5,.23,5.47V523c0,8,1.37,13,3.88,15a3.2,3.2,0,0,1,1.82,2.73c-.23,2.05-1.59,3-4.56,3A12.5,12.5,0,0,1,464.85,539.42Zm-4.56-106,1.14-15.5-3.19,7.52-3.42,7.3-.92,1.83c-1.37,3.64-3,7.29-4.56,10.71l-6.61,15.5,9.12.46a36.19,36.19,0,0,1,6.84,1.14Z"/><path d="M497.68,508.64l-.23-20.52c0-13.9.46-22.34,1.14-25.76.23-1.6.46-3,.46-3.65a1.2,1.2,0,0,0-1.37-1.37l-.91.23a20.31,20.31,0,0,1-4.11.46,9.28,9.28,0,0,1-5.7-2.51c-2.51-2-3.87-4.33-3.87-6.61a3.26,3.26,0,0,1,1.36-2.74,34.68,34.68,0,0,1,10.49-4.79c4.56-1.59,7.07-2.73,7.75-3.42a2.56,2.56,0,0,0,.69-1.82,50.41,50.41,0,0,1,1.59-6.38l2.74-10a11.54,11.54,0,0,0,1.14-3q2.06-6.5,4.1-11.63a13.83,13.83,0,0,0,1.37-4.33v-.23a.85.85,0,0,0-.68-.22,15.16,15.16,0,0,0-3.88,1.14L505,403.08q-5.81,2.06-8.89,3.42a13.38,13.38,0,0,1-4.56,1.37,3.77,3.77,0,0,1-2.73-1.14,13.83,13.83,0,0,1-3.65-6.16l-.23-1.82a5.69,5.69,0,0,1,1.82-4.1c8-5.7,19.61-10.72,35.12-15,1.14-.23,2-1.6,3.19-4.56a33,33,0,0,1,3.87-7.3,2.88,2.88,0,0,1,2.51-1.37,9.76,9.76,0,0,1,5.93,2.28c2,1.6,3.65,3,4.33,4.56l.46.92h1.59q.69,0,11.63-2.06a119.57,119.57,0,0,1,18.24-1.82,35.68,35.68,0,0,1,7.52.68,14.71,14.71,0,0,1,11,9.35,19.06,19.06,0,0,1,1.82,7.07c0,3.88-2.28,7.3-6.61,10.72l-.91.22c-.69,0-1.14-.45-1.83-1.36a8.76,8.76,0,0,1-1.59-3.88l-.23-1.37a4.81,4.81,0,0,1,1.14-3,14.44,14.44,0,0,0,2-2.74,4.88,4.88,0,0,0-2.28-.45,34,34,0,0,0-5.47.68A106.86,106.86,0,0,0,562,389c-5.92,1.36-10.48,2.28-13.9,3s-5.7,1.14-7.3,1.6a4.3,4.3,0,0,0-3,2.05,14.9,14.9,0,0,0-1.6,4.56l-1.37,5.24c-5.24,16-8,25.08-8,27.59a1.93,1.93,0,0,0,.46,1.37,69,69,0,0,1,16.41,1.59,16.37,16.37,0,0,1,10.49,8.21,15.05,15.05,0,0,1,1.14,3.88,1.5,1.5,0,0,1-1.6,1.36c-.45,0-.68,0-.91-.22a12,12,0,0,0-7.29-2.06c-4.33,0-10.26,1.14-17.33,3.2-2.51.68-4.1.91-5,1.14-1.14.22-1.82.45-2.05,1.14q-.67,1-1.37,5.47c-1.14,5-2.28,10-3.42,14.82-3.87,16.19-5.7,27.81-5.7,34.88a32.38,32.38,0,0,1-.68,7.53c-.46,1.82-1.37,2.73-2.51,2.73C501.33,518,497.91,514.8,497.68,508.64Z"/><path d="M604.38,518.68a12.26,12.26,0,0,1-4.56-1.14,7.09,7.09,0,0,1-3.65-3c-.68-1.14-1.14-3.65-1.14-7.29,0-26.45,6.62-61.79,19.84-106.25a54.05,54.05,0,0,1,2.28-6.16,11.15,11.15,0,0,0,.68-3.19c0-.23-.22-.23-.45-.23-.69,0-3.42,1.37-8.67,3.88-13,6.61-22.34,12.77-28,18a4.28,4.28,0,0,1-3,1.6,5.88,5.88,0,0,1-2.51-.69,12.94,12.94,0,0,1-5.7-4.56,3.38,3.38,0,0,1-.91-2.5,6,6,0,0,1,1.14-3.2,72.91,72.91,0,0,1,22.57-19.83,218.65,218.65,0,0,1,24.39-12.09c7.07-3,11.4-5.24,13-7.29q2.05-2.75,4.1-2.74a9.08,9.08,0,0,1,3.42.69,5.55,5.55,0,0,0,3,.91h.68c2.51-.91,8.21-2.05,16.64-3.42a100.83,100.83,0,0,1,14.37-1.14c3.87,0,8.89.45,15.27,1.14,6.16.91,11.18,4.79,14.6,11.4a6.87,6.87,0,0,1,.45,2.05c0,1.14-.45,1.6-1.59,1.6a3.52,3.52,0,0,1-2.74-1.6,4.93,4.93,0,0,1-.91-1.14c-.23-.23-.69-.68-1.37-1.37s-3.88-.91-9.8-.91a72.46,72.46,0,0,0-18.24,2.28,206.23,206.23,0,0,0-21.43,6.84c-1.37.46-2.51.91-3.65,1.37s-4.11,10-9.35,28.95c-1.82,6.16-5.47,19.38-10.94,39.9-8,32.61-12.54,53.81-13.46,63.61a35.22,35.22,0,0,1-.68,4.11,1.59,1.59,0,0,1-1.82,1.37Z"/><path d="M650.21,521.18c-.91-.22-2.05-1.14-3.65-2.73a14.45,14.45,0,0,1-4.33-8l-.23-1.14c0-1.37.91-2.51,2.51-3.42a28,28,0,0,1,5.24-2.51,3.36,3.36,0,0,0,.92-.68l-.23-.69a6.73,6.73,0,0,1-1.14-3.42c0-1.59.91-3.42,2.51-5.47,0-.68,1.82-2.74,5.24-6.16a206,206,0,0,1,22.57-21.66h-.46a7,7,0,0,1-6.61-3.64,11.9,11.9,0,0,0-3.19-2.74c-3.87-3-5.7-6.61-5.7-10.72v-.68a68.16,68.16,0,0,1,4.79-21.43l.23-1.37a10.86,10.86,0,0,1,1.36-3.42,6.66,6.66,0,0,0,1.15-3c.45-2.05,2.73-7.07,6.61-15.05a118.65,118.65,0,0,1,8.2-12.54,45.8,45.8,0,0,1,7.53-8.89c3.88-3.88,6.61-6.39,8.43-7.53l.46-.22c4.33-3,8-4.56,11.4-4.56s7.07,1.59,10.72,5c5.47,4.56,8.2,10,8.2,16.65a52.11,52.11,0,0,1-2.5,15l-3.88,11a40,40,0,0,1-3.88,8l-2.5,5a16.55,16.55,0,0,1-4.56,5.93,3.66,3.66,0,0,1-2.06.68c-1.59,0-3.42-.91-5.47-3a6.93,6.93,0,0,1-2.28-5.24,46.91,46.91,0,0,1,2.51-14.82c1.14-3.88,2.51-7.75,3.65-11.63s2.05-7.75,3-11.63a.83.83,0,0,0,.23-.68l-.23-.46-2.05,1.83a128.49,128.49,0,0,0-21.2,23.94A87.68,87.68,0,0,0,680.76,432v.23a91.92,91.92,0,0,0-3.88,10c-.22.91-.68,1.82-.91,2.5s-.45,1.6-.68,2.28a1.22,1.22,0,0,0,.45.92,8.76,8.76,0,0,0,3.88.91,9.08,9.08,0,0,0,3.42-.69,34.89,34.89,0,0,1,16.19-4.1,18.22,18.22,0,0,1,13.68,6.16c.68.68.91,1.82.91,3.64v.23c-.23,3.42-2.28,6.84-5.93,9.81L705.61,466a40.15,40.15,0,0,1-6.84,5.47c-3,2.51-5.47,4.33-7.52,5.93a73.46,73.46,0,0,0-6.61,5.24,80.81,80.81,0,0,0-8.67,6.84,15.55,15.55,0,0,1-3,2.51,25.7,25.7,0,0,0-4.33,4.33l7.06-2.05a283.16,283.16,0,0,1,39.9-10.72,34.46,34.46,0,0,1,8.44-.91c7.52,0,12.54,3.19,14.82,9.81a9.06,9.06,0,0,1,.68,3.42c0,2.5-.68,3.87-1.82,3.87a3.08,3.08,0,0,1-1.6-.68h-.22a4.08,4.08,0,0,1-1.37-1.83c-.46-.68-1.37-1.14-3-1.14L727,497a118.66,118.66,0,0,0-12.31,2.73L705.84,502a196.27,196.27,0,0,0-22.34,6.84c-13.23,5-22.57,8.89-27.82,11.63a7.88,7.88,0,0,1-3.65.91A5.6,5.6,0,0,1,650.21,521.18Z"/><path d="M757.82,526.2c-4.33,0-8.2-1.82-11.62-5.24-2.06-2.28-3-6.39-3-12.54,0-16.19,6.39-48.11,19.38-95.53l2.74-9.81,2.73-10.71a60.89,60.89,0,0,0-7.06,3.42c-3,1.82-5.48,3.64-8,5.24-2.51,1.82-3.88,3-4.34,3.19-.22.23-.45.46-.45.69s.23.45.45.91a3.19,3.19,0,0,1,.46,1.37c0,.68-.68,1.36-2.28,1.82l-1.14.46a6.3,6.3,0,0,1-5.7,0,9.93,9.93,0,0,1-3.65-3,7.58,7.58,0,0,1-2-5.24,10.47,10.47,0,0,1,.68-3.65c3.42-7.07,11.4-13.91,23.72-20.06,5.92-3,9.12-4.56,9.57-4.56a61.86,61.86,0,0,1,7.75-3.2c.23.23.23.46.46.46s.23,0,.46-.23l.22-.23.23-.22a83.67,83.67,0,0,1,24.17-4.11q8.55,0,19.15,4.11c7.07,2.73,12.31,8.43,15.28,16.87a33.61,33.61,0,0,1,2.05,11.4,37.48,37.48,0,0,1-3.19,14.59c-5.7,10.72-18.47,23-37.85,36.71-3.88,3-6.61,5-7.75,6.15l7.29-.23a144.62,144.62,0,0,1,25.31,2.51c8.89,1.83,14.14,6.84,16.19,15.05a12,12,0,0,1-.23,3.19A1.8,1.8,0,0,1,836,477a2.75,2.75,0,0,1-2.06-1.37c-.68-.91-1.14-1.59-1.82-1.82a9.33,9.33,0,0,0-2.74-.23,69.57,69.57,0,0,0-11.85-.91H808c-12.76,0-21,.23-24.85.91-2,0-6.15.91-12.08,2.51a8.19,8.19,0,0,1-2.51.46,8,8,0,0,0-2.51.91c-.68.45-1.14,1.37-1.37,3s-.68,3.65-.91,5.7c-2.51,13-3.65,22.57-3.65,29a20.61,20.61,0,0,0,.23,3.87,7.55,7.55,0,0,0,.69,3.42,15.7,15.7,0,0,1,.45,2.51c-.23.69-.91,1.14-2.05,1.37Zm31.92-97.13q8.89-7.17,18.47-16.41,18.46-17.45,18.47-23.94a3.18,3.18,0,0,0-1.14-2.28,34.71,34.71,0,0,0-17.79-4.79c-.45,0-2.5,0-6.38.23a59.76,59.76,0,0,0-14.36,3c-5.7,1.83-9.81,3.19-11.86,4.11l-1.14.45c.23.23.23.46.46.46a.68.68,0,0,1,.45.23c7.07,1.59,10.72,5.24,10.72,10.94,0,5.93-2,15.5-6.38,29L777,438.42C779.48,437.05,783.59,433.86,789.74,429.07Z"/><path d="M825.77,521.41c-2.51-2-3.65-4.1-3.65-6.38,0-3,4.33-6.39,12.77-10.26a31,31,0,0,1,7.52-2.74l1.14-.45-.68-.69c-.23-.23-.46-.23-.69-.45a8.59,8.59,0,0,1-3.65-7.3v-3c0-6.62,1.83-18.24,5.48-35.34a36.5,36.5,0,0,0,1.14-5.25c.22-.91.22-1.59.45-2.28a2.86,2.86,0,0,0,.23-1.37c.68-2.73,1.37-5.47,2.28-8.2.23-.69.23-1.37.46-2.05,0-.69.91-4.56,3-11.4a213.41,213.41,0,0,1,6.61-22.58c.46-1.14.91-2.5,1.37-3.87a19.6,19.6,0,0,1,1.6-3.88l5-10.94a39,39,0,0,1,3.65-7.53,39.75,39.75,0,0,0,3.19-5.24,4.48,4.48,0,0,1,4.33-2.74l2.06.46a16.87,16.87,0,0,1,7.29,3.65,5.05,5.05,0,0,1,2.05,3.65c0,1.36-1.82,6.38-5.24,15.27l-2.51,7.3a49,49,0,0,1-1.59,5.47c-.69,2.05-1.37,4.1-2.06,6.16l-5.7,16.64c-.22.68-1.36,4.79-3.87,12.08l-3.42,10.26c-.23,1.14-.69,2.51-1.14,4.11a42.12,42.12,0,0,0-1.6,5c-.45,1.83-.91,3.42-1.37,5a19.51,19.51,0,0,0-1.36,5.24,50.64,50.64,0,0,1-1.6,5.47c-3,11.18-4.56,19.16-4.56,23.72.23.68.46,1.14,1.14,1.14a26.89,26.89,0,0,0,5-1.14c16.18-4.34,27.36-6.39,33.51-6.39q7.53,0,11.63,4.11a11.62,11.62,0,0,1,3.88,8c0,3-.92,4.33-3,4.33a3.27,3.27,0,0,1-1.37-.46,7.6,7.6,0,0,1-3.42-3.65,1.44,1.44,0,0,0-1.36-1.14,29.3,29.3,0,0,0-8.44,1.6,241.24,241.24,0,0,0-26.68,7.75c-3.42.91-8.66,2.74-16,5.47a11.11,11.11,0,0,1-2.5.92.73.73,0,0,1-.46.22l-.46.46c-.22.23-.68.23-.91.46-1.14.45-4.1,1.82-8.66,3.87a8.62,8.62,0,0,1-3.88.91A7.45,7.45,0,0,1,825.77,521.41Z"/><path d="M904.88,521.18c-5.47,0-9.12-1.36-11.17-3.87a6.11,6.11,0,0,1-1.14-3c0-3,3-4.78,8.89-5.92,2.28-.23,3.42-.92,3.42-1.6a258.31,258.31,0,0,1-2.51-34.2c0-11.63,1.37-25.08,3.88-40.58a295.08,295.08,0,0,1,9.35-40.36c2-7.07,3-11.4,3-13.45,0-.68,0-.91-.23-1.14a15.92,15.92,0,0,1-6.38-5.24,5.92,5.92,0,0,1-.68-2.51,2.74,2.74,0,0,1,.91-2,11,11,0,0,1,3.42-2.06,42,42,0,0,1,5-1.59c1.6-.23,2.74-.69,3.88-.91a2.3,2.3,0,0,0,1.82-1.14,2.67,2.67,0,0,1,2.51-1.6l1.37.23a27,27,0,0,0,7.75,1.59h1.6a80.67,80.67,0,0,1,8.43.46c3.88.68,6.84,2.51,8.44,5.47a3,3,0,0,1,.68,1.83,3.17,3.17,0,0,1-.45,1.36,1.72,1.72,0,0,1-1.6.92l-.68-.23a13.33,13.33,0,0,0-3.2-.46,21.46,21.46,0,0,0-7.06,1.37c-.91.23-1.83.23-2.74.46-1.14.22-1.59,1.14-1.82,2.28q-.35,7.86-5.47,28A682.29,682.29,0,0,0,916.74,503.4v.23c0,1.14.23,1.59.91,1.59a18.48,18.48,0,0,0,5-1.14l1.14-.22a10,10,0,0,1,2.28.45c.68.46,1.59,1.14,2.73,1.83a3.11,3.11,0,0,1,1.37,2.28c0,1.36-3.19,3.19-9.8,5.24-8.9,3-13.23,4.56-13.23,5v1.82c0,.46-.45.68-1.37.68Z"/><path d="M951.85,508.64l-.23-20.52c0-13.9.46-22.34,1.14-25.76.23-1.6.46-3,.46-3.65a1.2,1.2,0,0,0-1.37-1.37l-.91.23a20.31,20.31,0,0,1-4.11.46,9.28,9.28,0,0,1-5.7-2.51c-2.51-2-3.87-4.33-3.87-6.61a3.26,3.26,0,0,1,1.36-2.74,34.68,34.68,0,0,1,10.49-4.79c4.56-1.59,7.07-2.73,7.75-3.42a2.56,2.56,0,0,0,.69-1.82,50.41,50.41,0,0,1,1.59-6.38l2.74-10a11.54,11.54,0,0,0,1.14-3q2.06-6.5,4.1-11.63a13.83,13.83,0,0,0,1.37-4.33v-.23a.85.85,0,0,0-.68-.22,15.16,15.16,0,0,0-3.88,1.14l-4.79,1.59q-5.8,2.06-8.89,3.42a13.38,13.38,0,0,1-4.56,1.37,3.77,3.77,0,0,1-2.73-1.14,13.83,13.83,0,0,1-3.65-6.16l-.23-1.82a5.69,5.69,0,0,1,1.82-4.1c8-5.7,19.61-10.72,35.12-15,1.14-.23,2.05-1.6,3.19-4.56a33,33,0,0,1,3.87-7.3,2.88,2.88,0,0,1,2.51-1.37,9.76,9.76,0,0,1,5.93,2.28c2.05,1.6,3.65,3,4.33,4.56l.46.92h1.59q.69,0,11.63-2.06a119.57,119.57,0,0,1,18.24-1.82,35.62,35.62,0,0,1,7.52.68,14.71,14.71,0,0,1,11,9.35,19.06,19.06,0,0,1,1.82,7.07c0,3.88-2.28,7.3-6.61,10.72l-.91.22c-.69,0-1.14-.45-1.83-1.36a8.76,8.76,0,0,1-1.59-3.88l-.23-1.37a4.81,4.81,0,0,1,1.14-3,14.44,14.44,0,0,0,2-2.74,4.88,4.88,0,0,0-2.28-.45,34,34,0,0,0-5.47.68,106.86,106.86,0,0,0-16.19,2.74c-5.93,1.36-10.48,2.28-13.9,3s-5.71,1.14-7.3,1.6a4.3,4.3,0,0,0-3,2.05,14.9,14.9,0,0,0-1.6,4.56L989,405.36c-5.24,16-8,25.08-8,27.59a1.93,1.93,0,0,0,.46,1.37,69,69,0,0,1,16.41,1.59,16.37,16.37,0,0,1,10.49,8.21,15.48,15.48,0,0,1,1.14,3.88c-.23.91-.68,1.36-1.59,1.36-.46,0-.69,0-.92-.22a12,12,0,0,0-7.29-2.06c-4.33,0-10.26,1.14-17.33,3.2-2.51.68-4.1.91-5,1.14-1.14.22-1.82.45-2,1.14q-.68,1-1.37,5.47c-1.14,5-2.28,10-3.42,14.82-3.87,16.19-5.7,27.81-5.7,34.88a32.38,32.38,0,0,1-.68,7.53c-.46,1.82-1.37,2.73-2.51,2.73C955.5,518,952.08,514.8,951.85,508.64Z"/><path d="M1018,521.18c-.91-.22-2.05-1.14-3.65-2.73a14.45,14.45,0,0,1-4.33-8l-.23-1.14c0-1.37.91-2.51,2.51-3.42a27.74,27.74,0,0,1,5.24-2.51,3.14,3.14,0,0,0,.91-.68l-.22-.69a6.73,6.73,0,0,1-1.14-3.42c0-1.59.91-3.42,2.5-5.47,0-.68,1.83-2.74,5.25-6.16a205.1,205.1,0,0,1,22.57-21.66h-.46a7,7,0,0,1-6.61-3.64,11.9,11.9,0,0,0-3.19-2.74c-3.88-3-5.7-6.61-5.7-10.72v-.68a68.16,68.16,0,0,1,4.79-21.43l.23-1.37a10.63,10.63,0,0,1,1.36-3.42,6.53,6.53,0,0,0,1.14-3c.46-2.05,2.74-7.07,6.62-15.05a118.65,118.65,0,0,1,8.2-12.54,45.8,45.8,0,0,1,7.53-8.89c3.87-3.88,6.61-6.39,8.43-7.53l.46-.22c4.33-3,8-4.56,11.4-4.56s7.07,1.59,10.71,5c5.48,4.56,8.21,10,8.21,16.65a51.8,51.8,0,0,1-2.51,15l-3.87,11a40.59,40.59,0,0,1-3.88,8l-2.5,5a16.55,16.55,0,0,1-4.56,5.93,3.66,3.66,0,0,1-2.06.68c-1.59,0-3.42-.91-5.47-3a6.93,6.93,0,0,1-2.28-5.24,46.91,46.91,0,0,1,2.51-14.82c1.14-3.88,2.51-7.75,3.65-11.63s2-7.75,3-11.63a.83.83,0,0,0,.23-.68l-.23-.46-2,1.83a128.49,128.49,0,0,0-21.2,23.94A87.68,87.68,0,0,0,1048.52,432v.23a89.93,89.93,0,0,0-3.88,10c-.22.91-.68,1.82-.91,2.5s-.45,1.6-.68,2.28a1.22,1.22,0,0,0,.45.92,8.76,8.76,0,0,0,3.88.91,9.08,9.08,0,0,0,3.42-.69,34.89,34.89,0,0,1,16.19-4.1,18.22,18.22,0,0,1,13.68,6.16c.68.68.91,1.82.91,3.64v.23c-.23,3.42-2.28,6.84-5.93,9.81l-2.28,2.05a40.15,40.15,0,0,1-6.84,5.47c-3,2.51-5.47,4.33-7.52,5.93a73.46,73.46,0,0,0-6.61,5.24,80.81,80.81,0,0,0-8.67,6.84,15.55,15.55,0,0,1-3,2.51,25.7,25.7,0,0,0-4.33,4.33l7.06-2.05a283.16,283.16,0,0,1,39.9-10.72,34.4,34.4,0,0,1,8.44-.91c7.52,0,12.54,3.19,14.82,9.81a9.06,9.06,0,0,1,.68,3.42c0,2.5-.68,3.87-1.82,3.87a3.08,3.08,0,0,1-1.6-.68h-.22a4.08,4.08,0,0,1-1.37-1.83c-.46-.68-1.37-1.14-3-1.14l-4.56.92a118.66,118.66,0,0,0-12.31,2.73L1073.6,502a195.65,195.65,0,0,0-22.34,6.84c-13.23,5-22.58,8.89-27.82,11.63a7.88,7.88,0,0,1-3.65.91A5.6,5.6,0,0,1,1018,521.18Z"/></g></g></svg>