<svg xmlns="http://www.w3.org/2000/svg" xmlns:xlink="http://www.w3.org/1999/xlink" viewBox="0 0 298.58 262.3"><defs><style>.cls-1{fill:none;}.cls-2{fill:#fca89e;}.cls-3{fill:#0e97cd;}.cls-4{fill:#1958db;}.cls-5{fill:#b3e3ef;}.cls-6{fill:#025482;}.cls-7{fill:#0c5a9a;}.cls-8{fill:#03436b;}.cls-9{fill:#4396ca;}.cls-10{fill:#fff;}.cls-11{fill:#ff645f;}.cls-12{fill:#29266b;}.cls-13{fill:#da3f3a;}.cls-14{fill:#f7958d;}.cls-15{clip-path:url(#clip-path);}.cls-16{clip-path:url(#clip-path-2);}.cls-17{fill:#97c7d3;}.cls-18{clip-path:url(#clip-path-3);}.cls-19{fill:#d2f7ff;}.cls-20{clip-path:url(#clip-path-4);}.cls-21{clip-path:url(#clip-path-5);}.cls-22{fill:#f5abbc;}.cls-23{fill:#4e687f;}.cls-24{clip-path:url(#clip-path-7);}.cls-25{fill:#2a2873;}.cls-26{fill:#823024;}</style><clipPath id="clip-path"><path class="cls-1" d="M46.1,135.17c-1.45,4.88-5.53,4.13-10.41,2.69a9.22,9.22,0,0,1,5.22-17.68C45.8,121.62,47.54,130.29,46.1,135.17Z"/></clipPath><clipPath id="clip-path-2"><path class="cls-1" d="M50.09,182H27l-2.88-34.25A5.26,5.26,0,0,1,29.32,142H47.73A5.26,5.26,0,0,1,53,147.73l-4.08,28.09Z"/></clipPath><clipPath id="clip-path-3"><path class="cls-1" d="M50.09,182H27l2-6.85-4.86-27.4A5.26,5.26,0,0,1,29.32,142H47.73A5.26,5.26,0,0,1,53,147.73l-4.08,28.09Z"/></clipPath><clipPath id="clip-path-4"><path class="cls-2" d="M261.23,137.83c1.37,4.63,5.24,3.92,9.88,2.55a8.74,8.74,0,0,0-5-16.77C261.52,125,259.86,133.2,261.23,137.83Z"/></clipPath><clipPath id="clip-path-5"><path class="cls-1" d="M280.7,182.24H258.76L256,149.74a5,5,0,0,1,5-5.41h17.47a5,5,0,0,1,5,5.41Z"/></clipPath><clipPath id="clip-path-7"><rect class="cls-1" x="38.86" y="27.03" width="227.33" height="142.73" rx="6.41"/></clipPath></defs><title>Asset 1</title><g id="Layer_2" data-name="Layer 2"><g id="Layer_1-2" data-name="Layer 1"><polygon class="cls-3" points="6.47 200.01 36.03 172.65 272.5 172.65 298.58 200.01 6.47 200.01"/><path class="cls-4" d="M268.81,175.77H36.25a7.07,7.07,0,0,1-6.95-7.19V23a7.06,7.06,0,0,1,7-7.18H268.81A7.07,7.07,0,0,1,275.76,23V168.58A7.08,7.08,0,0,1,268.81,175.77Z"/><rect class="cls-5" x="38.86" y="27.03" width="227.33" height="142.73" rx="6.41"/><path class="cls-6" d="M155.13,20.5a2.61,2.61,0,1,1-2.6-2.6A2.6,2.6,0,0,1,155.13,20.5Z"/><path class="cls-7" d="M283.61,221.79H21.44a15,15,0,0,1-15-15V200H298.58v6.81A15,15,0,0,1,283.61,221.79Z"/><path class="cls-8" d="M102.1,175.69a2.61,2.61,0,0,1-2.61,2.61H69.93a2.6,2.6,0,0,1-2.6-2.61h0a2.6,2.6,0,0,1,2.6-2.61H99.49a2.61,2.61,0,0,1,2.61,2.61Z"/><path class="cls-8" d="M242.07,175.69a2.61,2.61,0,0,1-2.61,2.61H209.91a2.61,2.61,0,0,1-2.61-2.61h0a2.61,2.61,0,0,1,2.61-2.61h29.55a2.61,2.61,0,0,1,2.61,2.61Z"/><polygon class="cls-9" points="118.18 196.1 127.9 187.11 178.29 187.11 186.87 196.1 118.18 196.1"/><rect class="cls-10" x="144.93" y="181.62" width="16.29" height="0.79"/><rect class="cls-10" x="26.03" y="193.31" width="18.26" height="0.79"/><rect class="cls-10" x="41.47" y="181.62" width="16.29" height="0.79"/><rect class="cls-10" x="34.51" y="186.95" width="16.29" height="0.79"/><rect class="cls-10" x="73.2" y="181.62" width="16.29" height="0.79"/><rect class="cls-10" x="64.94" y="186.95" width="16.29" height="0.79"/><rect class="cls-10" x="84.71" y="193.31" width="18.26" height="0.79"/><rect class="cls-10" x="104.06" y="181.62" width="16.29" height="0.79"/><rect class="cls-10" x="95.81" y="186.95" width="16.29" height="0.79"/><rect class="cls-10" x="55.59" y="194.61" width="18.26" height="0.79"/><rect class="cls-10" x="263.81" y="193.31" width="18.26" height="0.79"/><rect class="cls-10" x="250.33" y="181.62" width="16.29" height="0.79"/><rect class="cls-10" x="257.29" y="186.95" width="16.29" height="0.79"/><rect class="cls-10" x="218.6" y="181.62" width="16.29" height="0.79"/><rect class="cls-10" x="226.86" y="186.95" width="16.29" height="0.79"/><rect class="cls-10" x="205.12" y="193.31" width="18.26" height="0.79"/><rect class="cls-10" x="187.74" y="181.62" width="16.29" height="0.79"/><rect class="cls-10" x="195.99" y="186.95" width="16.29" height="0.79"/><rect class="cls-10" x="234.25" y="194.61" width="18.26" height="0.79"/><path class="cls-11" d="M33.51,121.12S21.37,131.8,23.32,136.49,27,140,39.18,139.89c5.33,0,9.65.19,11.81-.81,4.21-1.94,3.18-4.75,2.11-6.47A121.75,121.75,0,0,0,45,121.28Z"/><path class="cls-12" d="M19.1,182.07h31v7.44a7.3,7.3,0,0,1-7.29,7.29H19.1a7.29,7.29,0,0,1-7.29-7.29v-.15A7.29,7.29,0,0,1,19.1,182.07Z"/><path class="cls-13" d="M50.09,182.07H26.76l2.18-6.94-4.86-27.4A5.26,5.26,0,0,1,29.32,142H47.73A5.26,5.26,0,0,1,53,147.73l-4.08,28.09Z"/><path class="cls-14" d="M40,144.15H36.39a2.16,2.16,0,0,1-2-2.27v-4.43a2.16,2.16,0,0,1,2-2.27H40a2.16,2.16,0,0,1,2,2.27v4.43A2.16,2.16,0,0,1,40,144.15Z"/><path class="cls-2" d="M46.1,135.17c-1.45,4.88-5.53,4.13-10.41,2.69a9.22,9.22,0,0,1,5.22-17.68C45.8,121.62,47.54,130.29,46.1,135.17Z"/><path class="cls-11" d="M31.25,125.3s13.35,1.63,17.38,0c3.79-1.53,5.15-4.26,2.25-7.24-3.71-3.82-9.71-1.87-15,1.79C34.15,121.06,31.25,125.3,31.25,125.3Z"/><g class="cls-15"><path class="cls-11" d="M35.94,124.74s0,3.25-.44,3.25-2.14-.67-3.37.9.11,3.14,1.57,3.48.45,4.15-3,3.48-4.72-8.87-2.92-12,7.52-6.62,9.54-6.4,3,5,3,5Z"/></g><path class="cls-12" d="M12.26,187.82,8.44,230.29h5.62s9-27.66,9.87-36.64-5.61-7.4-5.61-7.4Z"/><path class="cls-12" d="M30,187.82l-3.82,42.47h5.61s9-27.66,9.88-36.64-5.61-7.4-5.61-7.4Z"/><polygon class="cls-13" points="24.61 145.16 16.3 160.88 27.53 159.98 24.61 145.16"/><path class="cls-13" d="M51.6,143.76l14.48,20.88c.67,1.43.16,3.71-1.35,4.21L42.34,173.9,39.42,169l15.72-5.67L43.86,152Z"/><path class="cls-2" d="M42,172.7h-9.2l-.67-4H39a2.66,2.66,0,0,1,2.63,2.22Z"/><path class="cls-11" d="M8.56,230.29h5.5v4.22H2.9c-.73,0-1-1.65-.34-2Z"/><path class="cls-11" d="M26.18,230.29h5.5v4.22H20.52c-.73,0-1-1.65-.34-2Z"/><g class="cls-16"><rect class="cls-9" x="38.53" y="166.33" width="14.79" height="0.49" transform="translate(-51.57 23.92) rotate(-18.94)"/><rect class="cls-9" x="40.37" y="172.17" width="16.13" height="0.49" transform="translate(-14.27 4.66) rotate(-4.8)"/></g><polygon class="cls-17" points="37.16 172.74 8.18 172.74 4.21 154.79 33.19 154.79 37.16 172.74"/><rect class="cls-17" x="8.16" y="172.61" width="36.09" height="3.06"/><path class="cls-2" d="M22,164.25a1.91,1.91,0,1,1-1.91-1.91A1.91,1.91,0,0,1,22,164.25Z"/><rect class="cls-5" x="0.01" y="175.07" width="56.89" height="3.12"/><rect class="cls-5" y="175.36" width="0.9" height="72.32"/><rect class="cls-5" x="56" y="175.36" width="0.9" height="72.32"/><g class="cls-18"><path class="cls-14" d="M45.33,144.26a6.8,6.8,0,1,1-6.8-6.8A6.8,6.8,0,0,1,45.33,144.26Z"/></g><path class="cls-19" d="M251.3,182.33h29.4v7a6.92,6.92,0,0,1-6.92,6.92H251.3a6.92,6.92,0,0,1-6.92-6.92v-.13A6.92,6.92,0,0,1,251.3,182.33Z"/><path class="cls-12" d="M280.7,182.24H258.76L256,149.74a5,5,0,0,1,5-5.41h17.47a5,5,0,0,1,5,5.41Z"/><path class="cls-14" d="M271.11,146.35H267.7a2,2,0,0,1-1.91-2.16V140a2,2,0,0,1,1.91-2.16h3.41A2.05,2.05,0,0,1,273,140v4.2A2,2,0,0,1,271.11,146.35Z"/><path class="cls-2" d="M261.23,137.83c1.37,4.63,5.24,3.92,9.88,2.55a8.74,8.74,0,0,0-5-16.77C261.52,125,259.86,133.2,261.23,137.83Z"/><g class="cls-20"><path class="cls-13" d="M270.86,127.93s0,3.09.43,3.09a3,3,0,0,1,3.2.85c1.17,1.49-.11,3-1.5,3.3s-.42,3.94,2.88,3.3,4.47-8.41,2.77-11.39-7.14-6.28-9.05-6.07-18.15,5.12-18.15,5.12Z"/></g><polygon class="cls-12" points="256.52 147.31 246.11 165.22 254.21 168.65 260.66 158.06 256.52 147.31"/><path class="cls-12" d="M282.13,146l13.74,19.81c.64,1.36.15,3.52-1.28,4l-19.88,9.93L271.94,175l13.55-10.51-10.7-10.7Z"/><g class="cls-21"><rect class="cls-22" x="269.4" y="170.8" width="16.29" height="0.46" transform="translate(-40.61 242.14) rotate(-44.24)"/><rect class="cls-22" x="272.69" y="176.89" width="15.09" height="0.46" transform="translate(-50.23 150.78) rotate(-27.74)"/></g><rect class="cls-10" x="241.14" y="179.57" width="34.24" height="2.9"/><g class="cls-21"><path class="cls-14" d="M262.44,145.94a7.22,7.22,0,1,0,7.22-7.22A7.23,7.23,0,0,0,262.44,145.94Z"/></g><path class="cls-2" d="M275.07,179.65h-8.73l-.64-3.83h6.59a2.52,2.52,0,0,1,2.49,2.11Z"/><polygon class="cls-10" points="268.67 179.69 241.17 179.69 237.4 162.66 264.89 162.66 268.67 179.69"/><path class="cls-23" d="M254.3,171.64a1.81,1.81,0,1,1-1.81-1.81A1.81,1.81,0,0,1,254.3,171.64Z"/><path class="cls-2" d="M261.63,187.78,258,228.08h5.33s8.52-26.24,9.37-34.76-5.33-7-5.33-7Z"/><g class="cls-24"><rect class="cls-12" x="84.7" y="130.94" width="143.31" height="114.95" rx="44.78"/><path class="cls-14" d="M176.14,131.5s-2.8,12.5-18.85,11.57-18.66-12.32-18.66-12.32l.56-22.41H175Z"/><path class="cls-2" d="M144.11,118.46c16.77,13.42,28,4,39.48-14.2,13.66-21.55,13.75-42.83-3-56.26a38.9,38.9,0,0,0-54.67,6.07C112.47,70.84,127.33,105,144.11,118.46Z"/><polygon class="cls-10" points="148.92 77.55 177.32 93.95 148.92 110.34 148.92 77.55"/><path class="cls-25" d="M236.16,96.69l-.79-.08L239,61.68c1.27-12.12,1.1-21.26-12.87-28.62l.37-.71c14.38,7.58,14.55,17.38,13.29,29.41Z"/><polygon class="cls-4" points="202.11 32.01 105.5 29.97 119.54 69.68 193.38 69.57 202.11 32.01"/><polygon class="cls-12" points="155.95 59.41 86.88 32.1 158.51 0 227.97 32.81 155.95 59.41"/><polygon class="cls-25" points="229.34 106.09 236.39 93.57 241.09 107.15 229.34 106.09"/></g><path class="cls-13" d="M283.8,120c0,3.64-3.25,6.6-7.26,6.6s-7.25-3-7.25-6.6,3.25-6.6,7.25-6.6S283.8,116.39,283.8,120Z"/><path class="cls-2" d="M244.81,187.78l-3.62,40.3h5.32s8.52-26.24,9.37-34.76-5.32-7-5.32-7Z"/><path class="cls-12" d="M258,228.08h5.22v4H252.65c-.7,0-.94-1.57-.33-1.91Z"/><path class="cls-12" d="M241.43,228.08h5.22v4H236.06c-.7,0-.94-1.57-.32-1.91Z"/><path class="cls-10" d="M211.34,196.94H182.71l.76,61.17h5.47s4.14-30.77,5.7-47.78h3.79l3.85,22.36,15.89,17.07,4.18-3.67-12.06-18.47s1.1-22.78,1-26.73A37.47,37.47,0,0,0,211.34,196.94Z"/><path class="cls-11" d="M211.34,196.94H182.71l-3.58-38c-.32-3.1,2.68-5.76,6.49-5.76h22.8c3.81,0,6.81,2.66,6.49,5.76Z"/><path class="cls-14" d="M196.88,157.17c5.08,0,5.05-3.44,5.05-4.27v-5.62c0-1.27-1.9-1.16-3-1.16h-3.63c-1.13,0-3,1-3,2.3v4.48A4.31,4.31,0,0,0,196.88,157.17Z"/><path class="cls-11" d="M212.55,154.39s13.24,14.12,17.91,18.57c2.58,2.46,0,4.3-1.47,6.14-4.08,5.1-17.3,14.23-17.3,14.23l.74-7.73,8-9.33s-11.22-8.66-11.59-9.28c-1-1.7-.17-9.19-.17-9.19Z"/><path class="cls-11" d="M181.4,154.39S168.16,168.51,163.49,173c-2.58,2.46,0,4.3,1.47,6.14,4.08,5.1,19.36,14.55,19.36,14.55l-.26-8.18-10.51-9.2s11.22-8.66,11.59-9.28c1-1.7.17-9.19.17-9.19Z"/><path class="cls-25" d="M183.39,258H189v4.27H177.68c-.75,0-1-1.68-.35-2Z"/><path class="cls-25" d="M218.17,249.76l4.18-3.67,2.81,3.2-8.46,7.45c-.56.49-1.86-.59-1.61-1.29Z"/><path class="cls-2" d="M195.13,131.67c-3.58-.27-6.74,3.85-7.28,7.69s-.55,9.07,1.92,10.58c2.25,1.38,6.82,1.65,12.36-4.94C207.22,139,204.29,132.38,195.13,131.67Z"/><path class="cls-26" d="M192.07,128c2.21-1.79,4.29,1.11,6.75,2s6.69-1.41,9,1-.49,6.87-.62,8.59,1.12,5.73-.36,8.1c-1.35,2.14-4.73,3.37-8.47,1.59-2.45-1.16.61-5,1.1-7.12s.13-4.66-2.82-2.51c-1.33,1-3.69,2.08-3.5-1.23C193.42,134.22,187.22,131.89,192.07,128Z"/><path class="cls-19" d="M276.24,183.47l-27.33.15s-3.22.93-4.15,3.69-3.07,15.82-3.07,15.82h29.95l2-9.83Z"/></g></g></svg>