<svg xmlns="http://www.w3.org/2000/svg" xmlns:xlink="http://www.w3.org/1999/xlink" viewBox="0 0 596.23 329.75"><defs><style>.cls-1,.cls-5{fill:none;}.cls-2{isolation:isolate;}.cls-3{fill:#cee9ff;}.cls-10,.cls-11,.cls-12,.cls-13,.cls-14,.cls-29,.cls-4,.cls-6,.cls-8{fill:#fff;}.cls-10,.cls-11,.cls-12,.cls-13,.cls-14,.cls-4,.cls-5,.cls-6{stroke:#a7d9fc;}.cls-10,.cls-11,.cls-12,.cls-13,.cls-14,.cls-4,.cls-9{stroke-miterlimit:10;}.cls-29,.cls-5,.cls-6{stroke-linecap:round;stroke-linejoin:round;}.cls-7,.cls-9{fill:#a7d9fc;}.cls-9{stroke:#fff;}.cls-10{stroke-width:0.87px;}.cls-11{stroke-width:0.69px;}.cls-12{stroke-width:0.76px;}.cls-13{stroke-width:0.67px;}.cls-14{stroke-width:0.75px;}.cls-15{opacity:0.4;mix-blend-mode:multiply;}.cls-16,.cls-17{fill:#3ca1d3;}.cls-16,.cls-28{opacity:0.24;}.cls-16,.cls-20,.cls-28{mix-blend-mode:screen;}.cls-18{fill:#8e5429;}.cls-19,.cls-20{fill:#ef5b5b;}.cls-21{fill:#bc824a;}.cls-22{opacity:0.36;}.cls-23{fill:#b65b0b;}.cls-24,.cls-28{fill:#ffd53a;}.cls-25,.cls-27{fill:#303030;}.cls-25{opacity:0.18;}.cls-26{clip-path:url(#clip-path);}.cls-29{stroke:#89c9ef;}</style><clipPath id="clip-path"><path class="cls-1" d="M367.72,230.57H191a1.59,1.59,0,0,1-1.59-1.59V207.44a1.59,1.59,0,0,1,1.59-1.59h176.7a1.59,1.59,0,0,1,1.58,1.59V229A1.59,1.59,0,0,1,367.72,230.57Zm1.57,41.78V250.81a1.59,1.59,0,0,0-1.59-1.59H191a1.59,1.59,0,0,0-1.59,1.59v21.54a1.59,1.59,0,0,0,1.59,1.59H367.7A1.59,1.59,0,0,0,369.29,272.35Z"/></clipPath></defs><title>Asset 1</title><g class="cls-2"><g id="Layer_2" data-name="Layer 2"><g id="OBJECTS"><path class="cls-3" d="M152.7,252.22a103.09,103.09,0,0,1,13,42,106,106,0,0,1-.54,22.59c-.54,4.28,2,12.66-4.89,12.8-3.1.07-5.89-1.73-8.84-2.7-6.59-2.16-13.72-.16-20.61.61a116.25,116.25,0,0,1-16.59.24c-6.92-.24-13.9-.49-20.62-2.17s-13.24-4.93-17.66-10.26c-3.08-3.71-5.06-8.74-3.79-13.39a15.68,15.68,0,0,1,4-6.5,27.15,27.15,0,0,1,9.32-6.33c5.2-2.12,12-3.44,13.59-8.82,1.35-4.48-1.89-8.88-4.27-12.92s-3.57-10.13.37-12.66c3.08-2,7.43-.32,10.64-2.07,4.34-2.37,3.66-8.68,2.56-13.5-1.38-6-2.46-12.05-3.24-18.14-.63-4.92-.33-11.2,4.24-13.15,4.72-2,9.61,2.53,12.18,7A51.08,51.08,0,0,1,127.09,229c.86,3.79,1.35,7.8,3.46,11.06,3.86,6,7.83,2.44,12.95,3.54C147.74,244.52,150.55,248.46,152.7,252.22Z"/><path class="cls-4" d="M162.17,317.41c-.54-1.46-11.88-4.05-13.74-4.75q-6.8-2.57-13.45-5.49c-7.91-3.49-17.23-6.58-24.06-11.84-1.23-.95-2.51-2.16-2.51-3.72a3.52,3.52,0,0,1,2.66-3.13,7.75,7.75,0,0,1,4.34.24,2.56,2.56,0,0,0,1.63.11,1.61,1.61,0,0,0,.68-2.11A4.3,4.3,0,0,0,116,285c-5.34-3.67-11.68-5.61-17.3-8.83-5-2.87-10.57-7.94-11.58-14-1-5.83,4.89-9.76,5.35-15.58.36-4.46-2.36-8.5-4.5-12.43s-3.77-8.92-1.38-12.71c2.89-4.61,10.13-4.31,14.44-1s6.55,8.57,9.1,13.38c2,3.83,5.36,9.84,8.86,12.51,1.87,1.41,4.62,1.94,6.54.6,1.21-.84,1.88-2.25,2.89-3.32,3.7-4,10.94-2,13.87,2.54s2.57,10.48,1.37,15.77c-.52,2.28-1.19,4.64-.71,6.93s2.56,4.46,4.87,4.09c1.44-.24,2.65-1.38,4.1-1.46,1.73-.11,3.23,1.38,3.76,3a13.11,13.11,0,0,1,.18,5.15C154.74,293.19,157.54,304.92,162.17,317.41Z"/><path class="cls-3" d="M93.45,226a155.94,155.94,0,0,0,17.73,37.69c.09.48.18,1,.28,1.45a.56.56,0,0,0,.89.29c.42.63.84,1.27,1.28,1.9-6.53-4.64-13.06-8.89-18.47-15a.39.39,0,0,0-.59.5c5.72,6.66,12.39,13.53,20.69,16.91h0c8.92,12.48,20,25,32.87,33.3.56.36,1.35-.42.81-.9-5.93-5.39-11.75-10.68-17.27-16.26a76.88,76.88,0,0,0-7.45-33.2c-.13-.28-.62-.14-.52.17a187.15,187.15,0,0,1,6.82,31.84,147,147,0,0,1-14-16.41c-1.46-2-2.85-4.06-4.21-6.13-.7-9.2-4.27-18.26-8.8-26.14a.3.3,0,0,0-.54.26c3.55,7.29,5.56,14.78,7.18,22.53A167,167,0,0,1,94.3,225.74C94.13,225.27,93.29,225.53,93.45,226Z"/><path class="cls-5" d="M146.91,248.93A157.43,157.43,0,0,1,126,179.74c-.41-6.28-.44-12.75,1.69-18.67"/><path class="cls-6" d="M125.05,175.88q2-5.56,3.91-11.11c1.1-3.13,2.19-6.65.76-9.64a1.06,1.06,0,0,0-.56-.63c-.39-.15-.81.15-1.11.44-2.42,2.36-3.29,5.94-3.21,9.32s-.14,8.35.48,11.68"/><path class="cls-6" d="M126.26,191.33A28.13,28.13,0,0,1,114.62,179a2.58,2.58,0,0,1-.24-2.39c.54-.86,1.83-.8,2.75-.37a9.9,9.9,0,0,1,3.65,3.62,70.82,70.82,0,0,1,5.85,10.27"/><path class="cls-6" d="M129.39,207.24a29.51,29.51,0,0,1-12.18-12.91,2.71,2.71,0,0,1-.25-2.5c.57-.89,1.92-.84,2.88-.38a10.33,10.33,0,0,1,3.82,3.78A73.27,73.27,0,0,1,129.78,206"/><path class="cls-6" d="M135.51,225.4A29.45,29.45,0,0,1,119.86,217a2.69,2.69,0,0,1-1-2.29c.25-1,1.55-1.41,2.6-1.28a10.39,10.39,0,0,1,4.83,2.37,73.71,73.71,0,0,1,9.22,8.25"/><path class="cls-6" d="M126.37,182A25,25,0,0,0,133.91,169a2.26,2.26,0,0,0-.28-2.11c-.64-.63-1.75-.32-2.45.24a8.8,8.8,0,0,0-2.42,3.88,62.26,62.26,0,0,0-3,10.08"/><path class="cls-6" d="M128.78,197.56a29.82,29.82,0,0,0,9-15.58,2.7,2.7,0,0,0-.33-2.52c-.76-.76-2.09-.39-2.93.28a10.58,10.58,0,0,0-2.89,4.63,75.48,75.48,0,0,0-3.53,12"/><path class="cls-6" d="M133,214.54A29.9,29.9,0,0,0,142,199a2.7,2.7,0,0,0-.34-2.52c-.76-.76-2.08-.39-2.93.28a10.47,10.47,0,0,0-2.88,4.63,75.52,75.52,0,0,0-3.54,12"/><path class="cls-6" d="M139.12,232.42a29.93,29.93,0,0,0,9-15.59,2.7,2.7,0,0,0-.34-2.52c-.76-.76-2.09-.38-2.93.29a10.43,10.43,0,0,0-2.88,4.62,74.49,74.49,0,0,0-3.54,12"/><path class="cls-3" d="M394.87,252.22a94.62,94.62,0,0,0-13.79,64.6c.6,4.28-2.18,12.66,5.43,12.8,3.43.07,6.53-1.73,9.8-2.7,7.31-2.16,15.21-.16,22.86.61a142.81,142.81,0,0,0,18.39.24c7.68-.24,15.42-.49,22.87-2.17s14.69-4.93,19.59-10.26c3.41-3.71,5.61-8.74,4.2-13.39a15.42,15.42,0,0,0-4.42-6.5,30.4,30.4,0,0,0-10.33-6.33c-5.77-2.12-13.27-3.44-15.07-8.82-1.5-4.48,2.09-8.88,4.73-12.92s4-10.13-.4-12.66c-3.42-2-8.24-.32-11.81-2.07-4.81-2.37-4.06-8.68-2.83-13.5A171,171,0,0,0,447.67,221c.7-4.92.37-11.2-4.69-13.15-5.23-2-10.66,2.53-13.51,7a48.38,48.38,0,0,0-6.2,14.19c-1,3.79-1.5,7.8-3.84,11.06-4.28,6-8.68,2.44-14.36,3.54C400.37,244.52,397.25,248.46,394.87,252.22Z"/><path class="cls-4" d="M390.69,305c.56-1.5,12.17-4.15,14.08-4.86q7-2.62,13.78-5.63c8.1-3.57,17.65-6.74,24.64-12.13,1.26-1,2.58-2.22,2.58-3.81a3.63,3.63,0,0,0-2.72-3.21,8,8,0,0,0-4.45.25,2.71,2.71,0,0,1-1.68.12,1.68,1.68,0,0,1-.69-2.17,4.44,4.44,0,0,1,1.72-1.8c5.47-3.76,12-5.75,17.73-9.05,5.13-2.94,10.82-8.14,11.86-14.32,1-6-5-10-5.48-16-.37-4.57,2.41-8.71,4.61-12.74s3.86-9.14,1.42-13c-3-4.72-10.39-4.41-14.81-1s-6.71,8.78-9.31,13.71c-2.08,3.92-5.5,10.08-9.09,12.81-1.9,1.45-4.72,2-6.69.62-1.24-.87-1.93-2.3-3-3.41-3.79-4.06-11.21-2.07-14.21,2.6s-2.63,10.74-1.4,16.16c.53,2.34,1.21,4.75.72,7.1s-2.62,4.58-5,4.19c-1.47-.24-2.71-1.41-4.2-1.5-1.77-.1-3.3,1.42-3.85,3.11a13.57,13.57,0,0,0-.19,5.28C398.3,280.18,395.44,292.2,390.69,305Z"/><path class="cls-3" d="M461.1,211.37A160.73,160.73,0,0,1,442.94,250c-.1.49-.2,1-.29,1.48a.57.57,0,0,1-.91.3c-.44.65-.87,1.3-1.32,2,6.69-4.76,13.38-9.11,18.92-15.4a.4.4,0,0,1,.61.52c-5.86,6.83-12.7,13.86-21.19,17.32,0,0,0,0,0,0-9.14,12.79-20.43,25.59-33.67,34.12-.57.37-1.38-.43-.84-.93,6.08-5.52,12.05-10.93,17.7-16.65a78.8,78.8,0,0,1,7.63-34c.14-.28.63-.14.53.18a192.44,192.44,0,0,0-7,32.62,150.37,150.37,0,0,0,14.33-16.81c1.49-2,2.92-4.16,4.32-6.28.71-9.42,4.37-18.71,9-26.78.19-.33.72-.09.55.26-3.63,7.48-5.69,15.15-7.36,23.09a171.11,171.11,0,0,0,16.29-33.87C460.4,210.59,461.26,210.87,461.1,211.37Z"/><path class="cls-7" d="M409.52,310.8c15.81-.79,31.6-4.8,46.26-10.68a162.36,162.36,0,0,0,20.93-10.18c6.1-3.53,12.39-7.44,16.43-13.38.29-.42-.39-1-.72-.55-4.62,5.78-10.69,9.76-17.05,13.41a160,160,0,0,1-21.12,10.14A168.2,168.2,0,0,1,409.52,310c-.5.05-.52.82,0,.79Z"/><path class="cls-6" d="M482.29,286.31l7.67-8.94c2.16-2.51,4.67-5.21,8-5.47a1.08,1.08,0,0,1,.83.17c.32.27.27.77.17,1.18-.83,3.28-3.5,5.82-6.47,7.44s-7.17,4.29-10.36,5.41"/><path class="cls-6" d="M468.65,294.7a28.19,28.19,0,0,0,16.76,2.57c.83-.13,1.77-.39,2.1-1.16.4-.93-.38-2-1.25-2.47a10,10,0,0,0-5.05-.95,70.45,70.45,0,0,0-11.78,1"/><path class="cls-6" d="M453.77,301.15a29.46,29.46,0,0,0,17.55,2.69c.86-.14,1.85-.41,2.19-1.21.43-1-.39-2.05-1.31-2.59a10.32,10.32,0,0,0-5.28-1,73.85,73.85,0,0,0-12.33,1.07"/><path class="cls-6" d="M435.36,306.42a29.4,29.4,0,0,0,15.77,8.13,2.66,2.66,0,0,0,2.47-.45c.71-.78.28-2.07-.42-2.87a10.37,10.37,0,0,0-4.69-2.62,73.23,73.23,0,0,0-12-2.91"/><path class="cls-6" d="M475.38,289a24.94,24.94,0,0,1,6.46-13.63,2.3,2.3,0,0,1,1.9-1c.88.17,1.25,1.26,1.19,2.16a8.82,8.82,0,0,1-1.81,4.19,62.62,62.62,0,0,1-6.63,8.17"/><path class="cls-6" d="M462.09,296.16a29.82,29.82,0,0,1,7.72-16.26,2.7,2.7,0,0,1,2.26-1.16c1.06.2,1.5,1.5,1.43,2.57a10.65,10.65,0,0,1-2.17,5,75.41,75.41,0,0,1-7.91,9.75"/><path class="cls-6" d="M445.7,302.31A30,30,0,0,1,453.42,286c.6-.64,1.39-1.32,2.26-1.15,1.06.2,1.5,1.5,1.43,2.57a10.38,10.38,0,0,1-2.17,5,74,74,0,0,1-7.9,9.75"/><path class="cls-6" d="M427.53,307.44a29.88,29.88,0,0,1,7.72-16.27c.6-.64,1.39-1.32,2.26-1.15,1.06.2,1.5,1.5,1.43,2.57a10.65,10.65,0,0,1-2.17,5,75.47,75.47,0,0,1-7.91,9.74"/><path class="cls-4" d="M392,115.08h-7.06A43.76,43.76,0,0,0,378.66,100l5-5a3,3,0,0,0,0-4.21l-8.59-8.59a3,3,0,0,0-4.21,0l-5,5a44,44,0,0,0-15.14-6.31v-7a3,3,0,0,0-3-3H335.61a3,3,0,0,0-3,3v7a43.81,43.81,0,0,0-15.15,6.31l-5-5a3,3,0,0,0-4.22,0l-8.59,8.59a3,3,0,0,0,0,4.21l5,5a43.89,43.89,0,0,0-6.26,15.13h-7.06a3,3,0,0,0-3,3v12.15a3,3,0,0,0,3,3h7.12a43.75,43.75,0,0,0,6.28,15l-5.07,5.07a3,3,0,0,0,0,4.21l8.59,8.59a3,3,0,0,0,4.22,0l5.09-5.09a43.69,43.69,0,0,0,15,6.24v7.18a3,3,0,0,0,3,3h12.15a3,3,0,0,0,3-3v-7.19a43.7,43.7,0,0,0,15-6.23l5.1,5.09a3,3,0,0,0,4.21,0l8.59-8.59a3,3,0,0,0,0-4.21l-5.07-5.07a44,44,0,0,0,6.29-15H392a3,3,0,0,0,3-3V118.06A3,3,0,0,0,392,115.08Zm-66.65,25.3a23.13,23.13,0,1,1,32.71,0A23.13,23.13,0,0,1,325.33,140.38Zm5.21-27.5a15.78,15.78,0,0,1,22.28,0"/><path class="cls-4" d="M461.29,159.46h-5a31,31,0,0,0-4.4-10.62l3.51-3.51a2.09,2.09,0,0,0,0-3l-6-6a2.09,2.09,0,0,0-3,0L443,139.83a30.86,30.86,0,0,0-10.64-4.44v-4.9a2.1,2.1,0,0,0-2.09-2.1h-8.54a2.1,2.1,0,0,0-2.09,2.1v4.9A30.84,30.84,0,0,0,409,139.82l-3.48-3.48a2.09,2.09,0,0,0-3,0l-6,6a2.09,2.09,0,0,0,0,3l3.51,3.51a30.88,30.88,0,0,0-4.4,10.62h-5a2.09,2.09,0,0,0-2.09,2.09v8.53a2.09,2.09,0,0,0,2.09,2.1h5A30.79,30.79,0,0,0,400,182.74l-3.56,3.56a2.09,2.09,0,0,0,0,3l6,6a2.09,2.09,0,0,0,3,0l3.57-3.58a30.77,30.77,0,0,0,10.55,4.38v5.05a2.1,2.1,0,0,0,2.09,2.09h8.54a2.1,2.1,0,0,0,2.09-2.09V196.1a30.77,30.77,0,0,0,10.55-4.38l3.58,3.58a2.09,2.09,0,0,0,3,0l6-6a2.09,2.09,0,0,0,0-3l-3.56-3.56a30.87,30.87,0,0,0,4.41-10.56h5a2.09,2.09,0,0,0,2.09-2.1v-8.53A2.09,2.09,0,0,0,461.29,159.46Zm-46.82,17.77a16.25,16.25,0,1,1,23,0A16.26,16.26,0,0,1,414.47,177.23Z"/><path class="cls-4" d="M426,176.42a10.55,10.55,0,0,1-7.5-3.11"/><path class="cls-4" d="M418.46,158.32a10.6,10.6,0,0,1,18,8.75"/><path class="cls-4" d="M288.31,132.33H403.82a9.5,9.5,0,0,1,9.5,9.5V315.55H145.25V140.79a8.45,8.45,0,0,1,8.45-8.46H273"/><path class="cls-8" d="M126,328.09a12.55,12.55,0,0,1-12.54-12.54v-.5H445.13v.5a12.55,12.55,0,0,1-12.54,12.54Z"/><path class="cls-7" d="M444.63,315.55a12,12,0,0,1-12,12H126a12,12,0,0,1-12-12H444.63m1-1H112.94v1a13.06,13.06,0,0,0,13,13H432.59a13.06,13.06,0,0,0,13-13v-1Z"/><path class="cls-3" d="M243.91,315.55h70.75a0,0,0,0,1,0,0v4.89a2.49,2.49,0,0,1-2.49,2.49H246.39a2.49,2.49,0,0,1-2.49-2.49v-4.89A0,0,0,0,1,243.91,315.55Z"/><path class="cls-9" d="M404.77,143.08v153.3a3.33,3.33,0,0,1-3.4,3.25H157.2a3.33,3.33,0,0,1-3.4-3.25V143.08a3.33,3.33,0,0,1,3.4-3.24H401.37A3.33,3.33,0,0,1,404.77,143.08Z"/><path class="cls-8" d="M154.23,150.9v-7.65a3,3,0,0,1,3-3H401.37a3,3,0,0,1,3,3v7.65Z"/><path class="cls-7" d="M401.37,140.7a2.55,2.55,0,0,1,2.54,2.55v7.22H154.66v-7.22a2.55,2.55,0,0,1,2.54-2.55H401.37m0-.86H157.2a3.41,3.41,0,0,0-3.4,3.41v8.08h251v-8.08a3.41,3.41,0,0,0-3.4-3.41Z"/><rect class="cls-7" y="327.31" width="558.57" height="2.44"/><rect class="cls-10" x="243.41" y="0.44" width="30.18" height="13.13"/><rect class="cls-11" x="5.05" y="144.62" width="20.94" height="12.01"/><rect class="cls-12" x="87.68" y="64.75" width="37.16" height="13.08"/><rect class="cls-12" x="107.72" y="77.8" width="34.76" height="13.08"/><rect class="cls-12" x="107.72" y="51.65" width="34.76" height="13.08"/><rect class="cls-13" x="519.14" y="98.41" width="31.03" height="11.68"/><rect class="cls-13" x="505.7" y="86.73" width="31.03" height="11.68"/><rect class="cls-13" x="536.66" y="86.73" width="31.03" height="11.68"/><rect class="cls-14" x="499.52" y="197.52" width="25.7" height="12.97"/><rect class="cls-11" x="25.81" y="162.88" width="35.47" height="12.01"/><g class="cls-15"><path class="cls-16" d="M234.26,186.22l2,1.87A10,10,0,0,0,234.26,186.22Z"/><path class="cls-16" d="M233.9,195.15a6.24,6.24,0,0,0,2-1Z"/><path class="cls-16" d="M318.26,186.22l2,1.87A10,10,0,0,0,318.26,186.22Z"/><path class="cls-16" d="M317.9,195.15a6.24,6.24,0,0,0,2-1Z"/><path class="cls-17" d="M371.19,205.89a2.74,2.74,0,0,0-.7-.09H365.7v0H326.86v-9.21a4.45,4.45,0,1,0-3,0v9.24H243v-9.23a4.46,4.46,0,1,0-3,0v9.23H196.62a2.79,2.79,0,0,0-2.79,2.78v14.71h-.17v4.07a3,3,0,0,0,.57,1.78,2.77,2.77,0,0,0,2.39,1.38h9.31v18.65h-9.31a2.79,2.79,0,0,0-2.79,2.78v19.16a2.79,2.79,0,0,0,2.79,2.78h9.31v48.64h-4.36V327h15.75v-4.41H213V289.92H352.5v32.66h-4.36V327h15.75v-4.41h-4.36V273.94h11.3a2.79,2.79,0,0,0,2.78-2.78V252a2.79,2.79,0,0,0-2.78-2.78h-11.3V230.57h11.3a2.79,2.79,0,0,0,2.78-2.78V208.63A2.77,2.77,0,0,0,371.19,205.89ZM213,249.22V230.57H352.5v18.65Zm0,33.85v-9.13H352.5v9.13Z"/></g><rect class="cls-18" x="319.43" y="195.41" width="3.03" height="10.75"/><rect class="cls-18" x="235.59" y="195.41" width="3.03" height="10.75"/><path class="cls-19" d="M325.46,192.45A4.46,4.46,0,1,1,321,188,4.45,4.45,0,0,1,325.46,192.45Z"/><circle class="cls-19" cx="237.1" cy="192.45" r="4.46"/><path class="cls-20" d="M234.1,190a2.06,2.06,0,1,1,0,2.91A2.06,2.06,0,0,1,234.1,190Z"/><circle class="cls-20" cx="319.66" cy="191.41" r="2.05"/><path class="cls-19" d="M237.09,181.55a12.55,12.55,0,0,0,0,3.87.16.16,0,0,0,.3,0,12.55,12.55,0,0,0,0-3.87.18.18,0,0,0-.36,0Z"/><path class="cls-19" d="M232,188a5.92,5.92,0,0,0-2-2,.22.22,0,0,0-.26.34c.32.32.71.57,1,.87s.64.65.95,1c.14.14.39,0,.28-.21Z"/><path class="cls-19" d="M241.54,187.63a14.13,14.13,0,0,0,1.53-1.14c.43-.33,1.09-.66,1.32-1.15a.14.14,0,0,0-.16-.21c-.49.08-1,.63-1.38.94a10.56,10.56,0,0,0-1.49,1.34c-.09.12,0,.31.18.22Z"/><path class="cls-19" d="M242.71,193.29c.44.11.88.2,1.33.28a3,3,0,0,0,1.07.09.17.17,0,0,0,0-.3,2.9,2.9,0,0,0-1.05-.22q-.67-.09-1.35-.12a.14.14,0,0,0,0,.27Z"/><path class="cls-19" d="M229.5,195.27a4.38,4.38,0,0,0,2.12-.91c.24-.17,0-.57-.23-.4a16.11,16.11,0,0,1-1.95,1.08c-.11.06-.06.25.06.23Z"/><path class="cls-19" d="M321.09,181.55a12.55,12.55,0,0,0,0,3.87.16.16,0,0,0,.3,0,12.55,12.55,0,0,0,0-3.87.18.18,0,0,0-.36,0Z"/><path class="cls-19" d="M316,188a5.89,5.89,0,0,0-2-2,.22.22,0,0,0-.26.34c.32.32.71.57,1,.87s.64.65.95,1A.17.17,0,0,0,316,188Z"/><path class="cls-19" d="M325.53,187.63a14.24,14.24,0,0,0,1.54-1.14c.43-.33,1.09-.66,1.32-1.15a.14.14,0,0,0-.16-.21c-.5.08-1,.63-1.38.94a10.56,10.56,0,0,0-1.49,1.34c-.09.12,0,.31.17.22Z"/><path class="cls-19" d="M326.71,193.29c.44.11.88.2,1.33.28a3,3,0,0,0,1.07.09.17.17,0,0,0,0-.3,2.9,2.9,0,0,0-1-.22q-.68-.09-1.35-.12a.14.14,0,0,0,0,.27Z"/><path class="cls-19" d="M313.5,195.27a4.38,4.38,0,0,0,2.12-.91c.24-.17,0-.57-.23-.4a16.9,16.9,0,0,1-1.95,1.08c-.11.06-.06.25.06.23Z"/><rect class="cls-21" x="201.53" y="208.97" width="7.03" height="114.81"/><rect class="cls-21" x="207.36" y="283.07" width="142.01" height="6.85"/><g class="cls-22"><path class="cls-23" d="M203.26,213.25c-.17,7.54-.46,15.12-.39,22.65a.1.1,0,0,0,.19,0,178.31,178.31,0,0,0,.32-22.65c0-.07-.12-.07-.12,0Z"/><path class="cls-23" d="M204.57,233.85c-.06,3.44-.22,6.91,0,10.35a.12.12,0,0,0,.23,0c.17-3.44,0-6.91-.05-10.35,0-.08-.13-.08-.13,0Z"/><path class="cls-23" d="M206.6,230.32c-.07,9.06-.22,18.14-.13,27.2a.06.06,0,1,0,.12,0c.51-9,.44-18.17.11-27.2,0-.06-.1-.06-.1,0Z"/><path class="cls-23" d="M203.32,271.51c.25,6.52.13,13.05.31,19.57a.1.1,0,1,0,.19,0c.27-6.52-.11-13.05-.43-19.57,0,0-.07,0-.07,0Z"/><path class="cls-23" d="M205.52,268.67c.14,3.9.07,7.81.14,11.72a.11.11,0,0,0,.22,0c.16-3.91-.06-7.82-.28-11.72,0-.05-.08-.05-.08,0Z"/><path class="cls-23" d="M206.13,287.56c0,4.54-.15,9.11,0,13.65a.09.09,0,0,0,.17,0c.25-4.54.07-9.12-.1-13.65a0,0,0,1,0-.07,0Z"/><path class="cls-23" d="M203.74,296.32c-.17,6.85-.32,13.75-.06,20.59a.07.07,0,1,0,.15,0c.28-6.84.14-13.74,0-20.59a0,0,0,1,0-.07,0Z"/><path class="cls-23" d="M205.61,305.08a48.46,48.46,0,0,0-.06,6.6.1.1,0,0,0,.21,0,50.13,50.13,0,0,0,0-6.6c0-.06-.1-.06-.1,0Z"/></g><g class="cls-22"><path class="cls-23" d="M335,285c-7.53-.17-15.12-.46-22.65-.4a.1.1,0,0,0,0,.2,178.31,178.31,0,0,0,22.65.32.06.06,0,1,0,0-.12Z"/><path class="cls-23" d="M314.37,286.27c-3.44-.06-6.91-.22-10.35,0a.12.12,0,0,0,0,.23c3.44.17,6.91,0,10.35-.06a.06.06,0,0,0,0-.12Z"/><path class="cls-23" d="M317.9,288.3c-9.06-.07-18.14-.22-27.2-.14a.07.07,0,0,0,0,.13c9,.51,18.17.44,27.2.1a0,0,0,0,0,0-.09Z"/><path class="cls-23" d="M276.71,285c-6.52.25-13,.13-19.57.31a.1.1,0,0,0,0,.19c6.52.27,13.06-.11,19.57-.43,0,0,0-.07,0-.07Z"/><path class="cls-23" d="M279.55,287.22c-3.9.14-7.81.07-11.72.14a.11.11,0,0,0,0,.21,114.57,114.57,0,0,0,11.72-.28c.05,0,.06-.08,0-.07Z"/><path class="cls-23" d="M260.67,287.83c-4.55,0-9.11-.15-13.66,0a.09.09,0,0,0,0,.17c4.54.25,9.12.07,13.66-.1a0,0,0,1,0,0-.07Z"/><path class="cls-23" d="M251.9,285.43c-6.84-.17-13.74-.32-20.59-.05-.09,0-.09.14,0,.15,6.84.28,13.75.14,20.59,0,0,0,0-.07,0-.08Z"/><path class="cls-23" d="M243.14,287.31a48.46,48.46,0,0,0-6.6-.06.11.11,0,0,0,0,.21,50.13,50.13,0,0,0,6.6,0c.07,0,.07-.1,0-.1Z"/></g><rect class="cls-21" x="197.17" y="322.58" width="15.75" height="4.42"/><rect class="cls-21" x="348.1" y="208.97" width="7.03" height="114.81"/><g class="cls-22"><path class="cls-23" d="M350.24,213.25c-.18,7.54-.46,15.12-.4,22.65a.1.1,0,0,0,.19,0,176.48,176.48,0,0,0,.33-22.65c0-.07-.12-.07-.12,0Z"/><path class="cls-23" d="M351.55,233.85c-.07,3.44-.22,6.91-.06,10.35a.12.12,0,0,0,.24,0c.16-3.44,0-6.91-.06-10.35a.06.06,0,0,0-.12,0Z"/><path class="cls-23" d="M353.58,230.32c-.07,9.06-.23,18.14-.14,27.2a.06.06,0,0,0,.12,0c.51-9,.44-18.17.11-27.2a0,0,0,0,0-.09,0Z"/><path class="cls-23" d="M350.3,271.51c.25,6.52.12,13.05.31,19.57a.1.1,0,1,0,.19,0c.26-6.52-.11-13.05-.43-19.57,0,0-.07,0-.07,0Z"/><path class="cls-23" d="M352.49,268.67c.15,3.9.07,7.81.14,11.72a.11.11,0,0,0,.22,0c.16-3.91-.05-7.82-.28-11.72a0,0,0,0,0-.08,0Z"/><path class="cls-23" d="M353.1,287.56c0,4.54-.14,9.11,0,13.65a.09.09,0,0,0,.18,0c.24-4.54.06-9.12-.1-13.65a0,0,0,0,0-.08,0Z"/><path class="cls-23" d="M350.71,296.32c-.17,6.85-.32,13.75,0,20.59a.07.07,0,1,0,.14,0c.28-6.84.15-13.74,0-20.59a0,0,0,0,0-.08,0Z"/><path class="cls-23" d="M352.58,305.08a50.13,50.13,0,0,0-.05,6.6.11.11,0,1,0,.21,0,48.46,48.46,0,0,0-.06-6.6c0-.06-.09-.06-.1,0Z"/></g><rect class="cls-21" x="343.74" y="322.58" width="15.75" height="4.42"/><rect class="cls-24" x="189.43" y="205.85" width="179.78" height="24.72" rx="1.59"/><rect class="cls-24" x="189.43" y="249.22" width="179.78" height="24.72" rx="1.59"/><path class="cls-25" d="M369.21,252.33v18.5a3.11,3.11,0,0,1-3.12,3.11H192.73a3.11,3.11,0,0,1-3.12-3.11v-4.07H348.2a13.11,13.11,0,0,0,13.1-13.1v-4.44h4.79A3.12,3.12,0,0,1,369.21,252.33Z"/><path class="cls-25" d="M369.21,208.91v18.5a3.11,3.11,0,0,1-3.12,3.11H192.39a3.12,3.12,0,0,1-3.13-3.11v-4.07H348.2a13.11,13.11,0,0,0,13.1-13.1V205.8h4.79A3.12,3.12,0,0,1,369.21,208.91Z"/><g class="cls-26"><rect class="cls-27" x="191.52" y="176.87" width="13.47" height="127.25" transform="translate(163.44 -69.23) rotate(33.09)"/><rect class="cls-27" x="225.89" y="176.87" width="13.47" height="127.25" transform="translate(169.02 -87.99) rotate(33.09)"/><rect class="cls-27" x="260.25" y="176.87" width="13.47" height="127.25" transform="translate(174.59 -106.76) rotate(33.09)"/><rect class="cls-27" x="294.62" y="176.87" width="13.47" height="127.25" transform="translate(180.16 -125.52) rotate(33.09)"/><rect class="cls-27" x="328.99" y="176.87" width="13.47" height="127.25" transform="translate(185.74 -144.28) rotate(33.09)"/><rect class="cls-27" x="362.76" y="176.87" width="13.47" height="127.25" transform="translate(191.22 -162.72) rotate(33.09)"/></g><rect class="cls-28" x="193.81" y="210.98" width="107.93" height="8.52" rx="2.17"/><rect class="cls-28" x="193.81" y="254.63" width="107.93" height="8.52" rx="2.17"/><path class="cls-7" d="M163.14,145.64a1.92,1.92,0,1,1-1.92-1.92A1.92,1.92,0,0,1,163.14,145.64Z"/><path class="cls-7" d="M171.56,145.64a1.92,1.92,0,1,1-1.92-1.92A1.92,1.92,0,0,1,171.56,145.64Z"/><path class="cls-7" d="M180,145.64a1.92,1.92,0,1,1-1.92-1.92A1.92,1.92,0,0,1,180,145.64Z"/><path class="cls-4" d="M94,320.66H56l.29-.8,2.81-7.64,3.07-8.4L65.36,295l3.06-8.4,3.81-10.39a2.9,2.9,0,0,1,5.45,0l3.8,10.39,3.07,8.4,3.26,8.88,3.06,8.38,2.79,7.61Z"/><rect class="cls-4" x="51.58" y="319.86" width="46.75" height="6.84" rx="1.54"/><polygon class="cls-7" points="84.55 294.99 65.36 294.99 68.42 286.6 81.48 286.6 84.55 294.99"/><polygon class="cls-7" points="90.88 312.25 59.05 312.22 62.12 303.82 87.81 303.88 90.88 312.25"/><path class="cls-4" d="M532.58,320.66h-38l.29-.8,2.81-7.64,3.06-8.4L504,295l3.06-8.4,3.81-10.39a2.9,2.9,0,0,1,5.45,0l3.8,10.39,3.07,8.4,3.26,8.88,3.06,8.38,2.79,7.61Z"/><rect class="cls-4" x="490.2" y="319.86" width="46.75" height="6.84" rx="1.54"/><polygon class="cls-7" points="523.17 294.99 503.98 294.99 507.04 286.6 520.1 286.6 523.17 294.99"/><polygon class="cls-7" points="529.49 312.25 497.67 312.22 500.74 303.82 526.43 303.88 529.49 312.25"/><line class="cls-29" x1="181.18" y1="179.39" x2="237.83" y2="179.39"/><line class="cls-29" x1="199.31" y1="172.34" x2="255.97" y2="172.34"/><line class="cls-11" x1="539.58" y1="253.74" x2="596.23" y2="253.74"/><line class="cls-29" x1="344.8" y1="195.65" x2="380.25" y2="195.65"/><line class="cls-29" x1="356.15" y1="188.59" x2="391.6" y2="188.59"/><line class="cls-11" x1="2.17" y1="227.92" x2="37.62" y2="227.92"/><line class="cls-11" x1="379.93" y1="50.47" x2="415.38" y2="50.47"/><line class="cls-29" x1="163.66" y1="285.57" x2="185.39" y2="285.57"/><line class="cls-29" x1="170.62" y1="278.52" x2="192.35" y2="278.52"/><path class="cls-4" d="M248.85,116.55H196.12a4.17,4.17,0,0,1-3.59-6.28l10.87-18.5,3.17-5.39L209.13,82l9.76-16.6a4.16,4.16,0,0,1,7.18,0l26.37,44.85A4.17,4.17,0,0,1,248.85,116.55Z"/><path class="cls-7" d="M226.71,106a4.23,4.23,0,1,1-4.23-4.22A4.23,4.23,0,0,1,226.71,106Z"/><path class="cls-7" d="M226.71,84.58c0,2.33-1.89,13.73-4.23,13.73s-4.22-11.4-4.22-13.73a4.23,4.23,0,1,1,8.45,0Z"/><line class="cls-4" x1="204.05" y1="76.23" x2="194.09" y2="92.62"/></g></g></g></svg>