<svg xmlns="http://www.w3.org/2000/svg" viewBox="0 0 601.27 137.78"><defs><style>.cls-1{fill:#197198;}.cls-2{fill:#2193c2;}.cls-3{fill:#a1409b;}.cls-4{fill:#e35d9e;}.cls-5{fill:#707070;}</style></defs><title>Asset 1</title><g id="Layer_2" data-name="Layer 2"><g id="Layer_1-2" data-name="Layer 1"><path class="cls-1" d="M9,.78H9a9,9,0,0,1,9,9v119a9,9,0,0,1-9,9H9a9,9,0,0,1-9-9V9.78A9,9,0,0,1,9,.78Z"/><path class="cls-2" d="M34,.78h0a7,7,0,0,1,7,7v123a7,7,0,0,1-7,7h0a7,7,0,0,1-7-7V7.78A7,7,0,0,1,34,.78Z"/><path class="cls-3" d="M53.5.78h0A4.49,4.49,0,0,1,58,5.28v128a4.49,4.49,0,0,1-4.5,4.5h0a4.49,4.49,0,0,1-4.5-4.5V5.28A4.49,4.49,0,0,1,53.5.78Z"/><path class="cls-4" d="M71,.78h0a2,2,0,0,1,2,2v133a2,2,0,0,1-2,2h0a2,2,0,0,1-2-2V2.78A2,2,0,0,1,71,.78Z"/><path class="cls-5" d="M224.19.26c3,0,4.51,1.44,4.51,4.31V23.19c0,2.88-1.51,4.32-4.51,4.32H138.54a52.28,52.28,0,0,0-12.64,1.27,17,17,0,0,0-8,4.31,16.52,16.52,0,0,0-4.22,8.23,59.68,59.68,0,0,0-1.17,12.84v2H223.21q4.31,0,4.31,4.32V75.92q0,4.31-4.31,4.31H112.47v3.33a59.55,59.55,0,0,0,1.17,12.84,16.47,16.47,0,0,0,4.22,8.23,16.86,16.86,0,0,0,8,4.31,51.73,51.73,0,0,0,12.64,1.28h85.65c3,0,4.51,1.44,4.51,4.31v18.62c0,2.88-1.51,4.31-4.51,4.31H138q-14.89,0-25.29-2.74a38.63,38.63,0,0,1-17-8.92,35.93,35.93,0,0,1-9.6-16.07q-3-9.9-3-24V52q0-14.11,3-23.92a36,36,0,0,1,9.6-16,39.48,39.48,0,0,1,17-9Q123.06.27,138,.26Z"/><path class="cls-5" d="M354.13,0c1.08,0,1.67.36,1.79,1.09a2.13,2.13,0,0,1-.63,1.9L320,38.75,356.9,77.51a2.13,2.13,0,0,1,.63,1.9c-.12.73-.71,1.09-1.78,1.09H340a5.6,5.6,0,0,1-2.18-.35,3.78,3.78,0,0,1-1.5-1.26L307.9,49.1,279.38,78.89a4.83,4.83,0,0,1-1.55,1.26,5.56,5.56,0,0,1-2.24.35H260.64c-1,0-1.55-.36-1.67-1.09a2.13,2.13,0,0,1,.63-1.9l37.84-39.33L263.29,3a2.41,2.41,0,0,1-.58-1.9c.08-.73.65-1.09,1.73-1.09h15.75a5,5,0,0,1,2.19.4,4.88,4.88,0,0,1,1.49,1.21l25.07,26.68L335.5,1.61A4.8,4.8,0,0,1,337,.4a5,5,0,0,1,2.19-.4Z"/><path class="cls-5" d="M418.07,0a14.1,14.1,0,0,1,7.36,1.78q3,1.79,5.87,7l38.06,69.11a2.37,2.37,0,0,1,.29,1.9c-.19.5-.75.75-1.67.75h-14.6a2.63,2.63,0,0,1-2.65-1.5l-8.16-14.83H388.52L380.58,79a2.76,2.76,0,0,1-2.64,1.5H363c-1,0-1.59-.25-1.78-.75a2.36,2.36,0,0,1,.28-1.9L399.21,8.74q2.88-5.18,5.64-7A11.58,11.58,0,0,1,411.29,0ZM395.76,50.83h39.56L417,17.13a1.42,1.42,0,0,0-1.27-.8h-.69a1.42,1.42,0,0,0-1.26.8Z"/><path class="cls-5" d="M501.91,0a24.08,24.08,0,0,1,4.37.35,8.12,8.12,0,0,1,3.22,1.32A9.69,9.69,0,0,1,512,4.31a26.93,26.93,0,0,1,2.24,4.43l23.92,55.2a1.64,1.64,0,0,0,1.61,1h1.38a1.62,1.62,0,0,0,1.61-1l23.92-55.2a27.68,27.68,0,0,1,2.25-4.43,9.54,9.54,0,0,1,2.47-2.64A8,8,0,0,1,574.53.35,23.08,23.08,0,0,1,578.84,0h12.31c4,0,6.67.9,8.05,2.7s2.07,4.89,2.07,9.26V78c0,1.69-.88,2.53-2.65,2.53H586.89A2.24,2.24,0,0,1,584.36,78v-60c0-.77-.3-1.15-.92-1.15h-1a1.43,1.43,0,0,0-1.5.92L557.68,69.23a35.06,35.06,0,0,1-2.81,5.23A16.57,16.57,0,0,1,551.76,78a9.92,9.92,0,0,1-3.79,2,19.06,19.06,0,0,1-5,.58h-5.52a19,19,0,0,1-5-.58,9.85,9.85,0,0,1-3.79-2,16.3,16.3,0,0,1-3.11-3.51,34.14,34.14,0,0,1-2.82-5.23L499.49,17.71a1.43,1.43,0,0,0-1.49-.92h-1c-.61,0-.92.38-.92,1.15V78a2.23,2.23,0,0,1-2.53,2.53H481.78c-1.76,0-2.64-.84-2.64-2.53V12q0-6.56,2.07-9.26T489.37,0Z"/><path class="cls-5" d="M269.5,92.38a20.38,20.38,0,0,1,2.56.13,4.88,4.88,0,0,1,1.79.54,6.14,6.14,0,0,1,1.47,1.15,20.81,20.81,0,0,1,1.6,2l23.81,31.23a.88.88,0,0,0,.83.45h.58c.34,0,.51-.22.51-.64V93.79a1.25,1.25,0,0,1,1.41-1.41h6.72a1.24,1.24,0,0,1,1.4,1.41v36.73q0,3.91-1.4,5.28a6,6,0,0,1-4.36,1.38h-5.5a18.79,18.79,0,0,1-2.46-.13,5.18,5.18,0,0,1-1.76-.51,5.84,5.84,0,0,1-1.51-1.12,18.7,18.7,0,0,1-1.69-2l-23.88-31.23a1.08,1.08,0,0,0-.83-.45h-.57c-.35,0-.52.22-.52.64v33.41a1.24,1.24,0,0,1-1.4,1.41h-6.72c-1,0-1.48-.47-1.48-1.41V99q0-3.92,1.41-5.28a6,6,0,0,1,4.35-1.38Z"/><path class="cls-5" d="M393.85,92.38a1.25,1.25,0,0,1,1.41,1.41v6.27q0,1.47-1.41,1.47H361.78a16.84,16.84,0,0,0-4.12.42,5.32,5.32,0,0,0-2.6,1.41,5.62,5.62,0,0,0-1.37,2.65,17.71,17.71,0,0,0-.42,4.23v9.21a18.1,18.1,0,0,0,.42,4.26,5.72,5.72,0,0,0,1.37,2.69,5.31,5.31,0,0,0,2.6,1.4,16.84,16.84,0,0,0,4.12.42H382.9a3.15,3.15,0,0,0,2.44-.86,4.64,4.64,0,0,0,.76-3v-5.19c0-.55-.25-.83-.76-.83H366.58c-.94,0-1.4-.49-1.4-1.47V112c0-1,.46-1.47,1.4-1.47h26.69a1.7,1.7,0,0,1,1.92,1.92v14.91q0,5.37-2.05,7.58a7.62,7.62,0,0,1-5.88,2.21H361.4a32.67,32.67,0,0,1-8.26-.9,12.46,12.46,0,0,1-5.53-2.91,11.72,11.72,0,0,1-3.14-5.25,27,27,0,0,1-1-7.84v-11a26.65,26.65,0,0,1,1-7.81,11.84,11.84,0,0,1,3.14-5.22,12.92,12.92,0,0,1,5.53-2.94,31.66,31.66,0,0,1,8.26-.93Z"/><path class="cls-5" d="M434.94,92.38a1.24,1.24,0,0,1,1.4,1.41v42a1.24,1.24,0,0,1-1.4,1.41H428q-1.47,0-1.47-1.41v-42q0-1.41,1.47-1.41Z"/><path class="cls-5" d="M479.54,92.38a20.16,20.16,0,0,1,2.56.13,4.82,4.82,0,0,1,1.79.54,6,6,0,0,1,1.48,1.15,20.81,20.81,0,0,1,1.6,2l23.8,31.23a.89.89,0,0,0,.84.45h.57c.34,0,.51-.22.51-.64V93.79a1.25,1.25,0,0,1,1.41-1.41h6.72a1.25,1.25,0,0,1,1.41,1.41v36.73q0,3.91-1.41,5.28a6,6,0,0,1-4.35,1.38H511a18.86,18.86,0,0,1-2.47-.13,5.25,5.25,0,0,1-1.76-.51,6,6,0,0,1-1.5-1.12,18.62,18.62,0,0,1-1.7-2l-23.87-31.23a1.08,1.08,0,0,0-.83-.45h-.58c-.34,0-.51.22-.51.64v33.41a1.25,1.25,0,0,1-1.41,1.41h-6.72q-1.47,0-1.47-1.41V99q0-3.92,1.41-5.28a6,6,0,0,1,4.35-1.38Z"/><path class="cls-5" d="M599.61,92.38q1.47,0,1.47,1.41v6.08q0,1.41-1.47,1.41h-28a17.5,17.5,0,0,0-4.13.41,5.57,5.57,0,0,0-2.62,1.41,5.35,5.35,0,0,0-1.38,2.69,19.13,19.13,0,0,0-.38,4.19v.64h36.16a1.24,1.24,0,0,1,1.4,1.41v5a1.24,1.24,0,0,1-1.4,1.41H563.13v1.09a19.13,19.13,0,0,0,.38,4.19,5.35,5.35,0,0,0,1.38,2.69,5.57,5.57,0,0,0,2.62,1.41,17,17,0,0,0,4.13.41h28q1.47,0,1.47,1.41v6.08q0,1.41-1.47,1.41H571.45a32.61,32.61,0,0,1-8.26-.9,12.5,12.5,0,0,1-5.54-2.91,11.7,11.7,0,0,1-3.13-5.25,27,27,0,0,1-1-7.84v-11a26.65,26.65,0,0,1,1-7.81,11.82,11.82,0,0,1,3.13-5.22,13,13,0,0,1,5.54-2.94,31.61,31.61,0,0,1,8.26-.93Z"/></g></g></svg>