<svg xmlns="http://www.w3.org/2000/svg" xmlns:xlink="http://www.w3.org/1999/xlink" width="375" height="812" viewBox="0 0 375 812">
  <defs>
    <clipPath id="clip-iPhone_X_XS_11_Pro_1">
      <rect width="375" height="812"/>
    </clipPath>
  </defs>
  <g id="iPhone_X_XS_11_Pro_1" data-name="iPhone X/XS/11 Pro – 1" clip-path="url(#clip-iPhone_X_XS_11_Pro_1)">
    <rect width="375" height="812" fill="#fff"/>
    <g id="background" transform="translate(-210.859 53.015)">
      <path id="Path_66" data-name="Path 66" d="M196.382-105.192s-94.3,160.992-73.688,203.3,131.4-59.942,156.136-34.057S166.94,185.225,215.034,199.661,469.832,46.633,471.206,121.8,226.027,416.7,234.821,494.35s221.819-98.271,271.562-61.933S403.014,608.841,429.4,635.722s152.563-95.782,182.519-95.782S523.662,681.518,577.8,657.624s250.675-213.26,250.675-213.26l-5.5-589.379Z" transform="translate(42.381 13.731)" fill="#d4e5fb"/>
      <path id="Path_65" data-name="Path 65" d="M215.642-105.192S133.47,63.557,154.081,105.869s119.274-67.7,144.008-41.814-93.165,130.918-45.071,145.354S489.092,46.633,490.466,121.8,249.72,432.417,258.515,510.072,475.9,396.079,525.644,432.417,431.1,628.545,457.487,655.426,601.22,539.939,631.176,539.939s-67.332,153.318-13.192,129.424,229.753-225,229.753-225l-5.5-589.379Z" transform="translate(0 0)" fill="#54a0ff"/>
    </g>
  </g>
</svg>
