<svg xmlns="http://www.w3.org/2000/svg" xmlns:xlink="http://www.w3.org/1999/xlink" width="1366" height="768" viewBox="0 0 1366 768">
  <defs>
    <clipPath id="clip-Web_1366_1">
      <rect width="1366" height="768"/>
    </clipPath>
  </defs>
  <g id="Web_1366_1" data-name="Web 1366 – 1" clip-path="url(#clip-Web_1366_1)">
    <rect width="1366" height="768" fill="#fff"/>
    <g id="background" transform="translate(-88.297 -66.985)">
      <path id="Path_66" data-name="Path 66" d="M280.918-98.776S82.594,88.154,125.943,137.283s276.352-69.6,328.37-39.544S219,238.43,320.146,255.192,856.013,77.509,858.9,164.785,343.265,507.193,361.761,597.359s466.509-114.1,571.124-71.911S715.488,730.3,770.975,761.507s320.857-111.214,383.857-111.214-185.608,164.389-71.745,136.646,527.2-247.619,527.2-247.619l-11.56-684.335Z" transform="translate(54.918 15.943)" fill="#d4e5fb"/>
      <path id="Path_65" data-name="Path 65" d="M287.21-98.776S114.392,97.161,157.741,146.29,408.587,67.684,460.605,97.739s-195.937,152.01-94.79,168.772,496.49-189,499.38-101.725S358.88,525.448,377.376,615.614s457.187-132.359,561.8-90.166S740.35,753.174,795.837,784.386s302.286-134.093,365.287-134.093-141.606,178.02-27.743,150.276,483.2-261.249,483.2-261.249l-11.56-684.335Z" transform="translate(0)" fill="#54a0ff"/>
    </g>
  </g>
</svg>
