<svg xmlns="http://www.w3.org/2000/svg" viewBox="0 0 1668.1 309.85"><title>Asset 12</title><g id="Layer_2" data-name="Layer 2"><g id="Layer_1-2" data-name="Layer 1"><path d="M1668,14.73q0,145,.1,289.92c0,4-.59,5.2-5,5.2Q831.54,309.66,0,309.73a30.83,30.83,0,0,0,2.52-6.58c1.15-3.59,4.07-6,7.35-7.81,1.45-.81,3.13-1.36,4.15-2.71,1.79-2.36,3.32-4.36,6.91-2.56,2.06,1,3.48-1.31,4.84-2.75,2.56-2.73,5.14-5.32,9.44-3.3A2.48,2.48,0,0,0,38.66,283c1.73-3.1,4.58-3.85,7.71-3,2.63.73,3.83-.52,5.35-2.31,4.2-4.91,5.75-5.2,11.21-2.64a2.51,2.51,0,0,0,3.16-.41c1.55-1.49,3.66-2.21,5-4.05a3.42,3.42,0,0,1,4.43-1.32c3.77,2,5.6-.14,7-3.06,1.85-3.86,4.44-5.08,8.45-3.13,4.25,2.05,7.93,1.21,12-1.41a83.14,83.14,0,0,0,7.9-6.08c3.41-2.82,7.37-5,12.32-3.89,3.76.81,6.54-.89,8.92-4,5.63-7.34,7.93-7.71,16.57-3.48,2.08,1,3.87.27,5.69-.63,2.66-1.32,5.09-2.72,8.47-1.66,2.95.92,4-2.6,5.39-4.27,2-2.47,3.77-3.41,6.75-2.62a6.22,6.22,0,0,0,6.75-2.06c2.29-2.61,5.14-2.73,8.12-1.24,4.33,2.16,8.72,1.75,12.86-.22,3.29-1.57,6.57-.66,9.82-.68,3.77,0,7.27-.35,10.34-2.8a4.62,4.62,0,0,1,6.74.49c2.47,2.55,5,2.38,8.2,1.53s6.71-2.66,10,.2a1,1,0,0,0,.93.25c7.37-3.51,16.3-1.44,23.2-6.52a4,4,0,0,1,3.25-.95c5.05,1,9.09-1.91,13.58-3.31a44.29,44.29,0,0,1,17-1.67c15.1,1.23,27.78,8.45,40.75,15.21,2.68,1.4,5.6,3.1,9,2.14a2.57,2.57,0,0,1,2.67,1c4.88,5.76,12.55,7.27,18.15,12,4.87,4.09,10.9,6,16.67,8.44,1.72.71,2.61.08,4-.44,4.36-1.56,8.56-3.85,13.25.32,3.83,3.4,8.9,3.16,13.7,1.39,2.13-.78,4.46-1.46,5.86.83,3.19,5.18,8,3.51,11.42,1.76,4.13-2.12,6.3-.38,8.58,2,2.47,2.6,4.29,3.63,8,1.3,2.87-1.79,6.71-3.88,10.59.54,3,3.41,14.85.93,17.46-2.94,2-3,3.8-3.5,7.78-3.61,5.27-.14,10.31,1.32,15.06,1.06,6.24-.33,12.54-2.23,19-2.62,2.79-.17,4.93-4,7-6.45a28.46,28.46,0,0,1,7-5.44c2.61-1.64,5-1.2,6.5,1.25,2.1,3.36,3.87,4,6.06.21.5-.86,1.39-2,2.26-1.74,4.36,1.48,7.62-1.12,11.17-2.68a3.83,3.83,0,0,1,3.38.31,13.75,13.75,0,0,0,14-1.31c4.5-3.29,8.25-6.11,14.05-7.51,4.25-1,7.33-2,11.8-.63,6.32,2,12.13,2.38,16.9-5a3.72,3.72,0,0,1,3.37-1.73,22.74,22.74,0,0,0,10.82-2.51c1.48-.19,2.9-1.27,4.36-.85,2.88.84,4.17-.62,5.56-2.83,1.61-2.55,4.32-3.48,7.32-3.3.64,0,1.48.65,1.91.28,6.18-5.18,14.49-3.14,21.25-6.32.62-.29,1.38-.65,1.5-1.23,1.21-5.84,6.64-5.4,10.36-5.9a75.13,75.13,0,0,0,14.72-3.75c3-1.06,5.87-2.48,9-.4.75.49,1.57.13,2.38-.16a85.37,85.37,0,0,1,25.73-4.36,24.5,24.5,0,0,0,7.19-1.59c7.32-2.67,15.2-1.22,22.46-3.27,5.42-1.52,11.08-2.34,16.29-4.64.62-.27,1.39-.84,1.86-.56,4,2.44,8-.94,12,.07,1.4.35,2.54-.3,3.77-.86,3.4-1.53,6.6-3.87,10.72-2.92a2.65,2.65,0,0,0,2.36-.62c4.08-4.63,9.71-5.13,15.27-6.07,5.1-.87,9.43-5,15.09-3.69a.93.93,0,0,0,.89-.39c5.38-8.46,14.78-5.94,22.43-8.09,2.49-.7,4.19-2.52,6.62-3.31,6.25-2,13-2.22,19-4.43a76.33,76.33,0,0,0,13-6.28c4.09-2.47,8.28-7.55,14.79-4.41,2.72,1.31,5.72-1.28,7.94-3a14.87,14.87,0,0,1,8.82-3.61c3-.19,6.85-.59,9.08-2.77,2.88-2.81,5.93-2.75,9.11-2.08s5.58-.12,7.23-2.85c.65-1.08,1.22-1.9,2.64-1.79,8.71.66,15.86-3.56,23.09-7.49.3-.16.75-.24.85-.5,2.51-6.63,10-6.66,14.45-10.83s8.57-3.74,13.86-.19c2.56,1.71,4.8,1.25,6.48-1.11,2.67-3.76,6-6,10.74-6.21a4.35,4.35,0,0,0,3.55-1.58c2.3-3.19,5.6-4,9.21-3.88s7.07-.44,9.69-3.61c1-1.2,3.26-2.28,4.47-1.77,4.28,1.78,7.68-1.62,11.59-1.39.5,0,1.21,0,1.43-.28,3.22-4.73,8.31-2.92,12.65-3.69.65-.12,1.58.15,1.92-.34,3.29-4.73,7.55-2.76,11.7-1.85,3.51.77,5.84-2.39,8.87-3.32s7.14-1.37,9.81-4.23a4.08,4.08,0,0,1,4.74-.41c4,2.21,6.69.21,9-2.69,1.46-1.87,2.68-3.54,5.23-1.72.4.3,1.17.6,1.38.37,3.54-3.66,8-3.14,12.47-3.1a2.39,2.39,0,0,0,2.4-2.2c.06-3.89,2.67-4.51,5.69-4.81,1.32-.12,2.6-.75,3.93-.65,10.09.77,18.36-3.71,26.87-8.35,3.69-2,8.08-4.86,13.08-2.84a3.65,3.65,0,0,0,2.95,0c4.84-2.85,10.74-2.93,15.3-6.9a22.86,22.86,0,0,1,18.55-5.28,11.51,11.51,0,0,0,5.76-.7c5-1.78,10-3.8,15.42-3.3a3.28,3.28,0,0,0,2.35-.52,7.92,7.92,0,0,0,.77-.64c2.85-2.71,6-.37,9.06-.67,3.62-.36,2.85-5.45,6.63-6.15,3-.54,5.22,1,7.53,1.92s3.83,1.24,5.25-1.29c1.89-3.39,5.35-3.11,8.45-2.71,2.39.31,4.25.08,5.79-1.81.32-.38.75-1,1.12-.95,6.84.64,12.55-3.38,18.94-4.68,4.47-.91,8.54.74,12.77.14a4.39,4.39,0,0,1,2.84.56c3.7,2,7.37,3.3,10.74-.68a2.19,2.19,0,0,1,1.85-.63c6,1,12.77-2.61,17.59-.11,6.18,3.21,11.43,1,17.08.86,1.57,0,2.91-.09,4.2.9s2.54.46,3.49-.66c2.26-2.67,4.9-5,7.23-7.58,3.6-4,9.64-5.65,13.85-2.34,2.88,2.26,5.23,2.26,8.1,1.29,2.59-.87,4.86-1.14,6.44,1.72.63,1.14,1.84,1.23,3,1.34,6.43.6,12.89.84,19.3,1.6,2,.23,3.2-1.1,4.16-2.31,3-3.72,6.23-3.18,9.73-1.12a18.76,18.76,0,0,0,21.31-1.47c1.21-1,2.75-1.95,4.09-1.45,4.53,1.67,8.86.16,13.26-.33a8.54,8.54,0,0,0,4.92-2.1c4-3.54,9-3.39,12.77.41,3.61,3.63,7.55,1.11,11.23.66,2.36-.3,4.77-1.4,7.15-2,3.2-.8,6.61-1.11,9.41,1.51.61.56,1.4,1.55,2,1.3,4.94-1.94,9,2.17,13.89,1.89,3.53-.21,7.53,2,10.82,4.13,2,1.3,3.49,1.48,5.35,0,2.67-2.19,5.4-2.4,8,.23.6.6,1.54,1.31,2.19,1,4-2.12,8.67,1.35,12.73-2.14,2.53-2.17,6.08-.33,8.14,1.75,3.62,3.66,8.5,2.47,12.25,2.55,3.23.07,6.36-.05,9.36,1.14,2.21.88,4,1.09,6-.65,2.3-2.06,4.89-2.7,7.67-.68C1664.3,14.69,1666.38,13.74,1668,14.73Z"/></g></g></svg>