<svg xmlns="http://www.w3.org/2000/svg" viewBox="0 0 718.63 226.01"><defs><style>.cls-1{fill:#fdfdfd;}.cls-2{fill:#f70505;}.cls-3{fill:#2d2d2d;}.cls-4{fill:#2e2e2e;}.cls-5{fill:#2b2b2b;}.cls-6{fill:#f9e2df;}.cls-7{fill:#da1b23;}.cls-8{fill:#f8f8f8;}.cls-9{fill:#ebebeb;}.cls-10{fill:#fafafa;}.cls-11{fill:#f30708;}</style></defs><g id="Layer_2" data-name="Layer 2"><g id="Layer_1-2" data-name="Layer 1"><path class="cls-1" d="M0,0H718.63V226H0ZM153.14,86.37,151.84,85c-4.86-7.3-13-9-20.38-12.18l-2.59-1.46c-4.93-3.34-9.74-6.9-14.85-9.94-3.38-2-7.21-3.28-10.85-4.88.07-7.41-6-4.28-9.49-5.5l-5.45-4.17c-4.34,8.89-3.92,73.75.57,81.66l10.34-9c8.26-2.44,16.54-4.69,23.32-10.59,4.59-4,9.67-7.44,14.53-11.13l6.47-.39-4,9.41-.14.07c-8.2.29-14.77,4.12-16.15,9.41l-.08,0-1.21.7-1.27.82-2.71,1.46.08,0-4.27,2.5-2.61,1.55c-2.32.48-5,.32-6.88,1.54-5.19,3.43-10,7.41-15,11.18l-1.21.71c-9.32.84-15.87,7.28-23.38,11.75-.69.41-.68,2-1,3l0,.07-3.52.72-.43,2.36L69,157h0c4.09,3.19,7.88,6.9,12.35,9.43,5,2.84,10.64,4.62,16,6.86,2.56,1.34,5.41,2.34,7.64,4.11,4.91,3.89,9,3.37,14.32.07C138,165.78,157,154.71,175.78,143.37c12.06-7.25,24.06-14.58,36.48-22.12l-6.61-4.74c-3.18-2.36-7.53-4.08-9.28-7.24-3.2-5.77-8.72-5-13.4-6.67-1.18-5.81-5.5-5.45-9.86-5h0L166,93.64a.75.75,0,0,1-.85-.48c-6.83-2-11,.43-13.61,8l-1.33.14-6.75-3.86c1.63-1.5,3.28-3,4.89-4.5s3.25-3.16,4.87-4.74C153.19,87.6,153.17,87,153.14,86.37Zm382,49.49c10.63,8.91,22,9.14,31.11.84,10.08-9.18,11.76-26.07,3.76-37.69-7.84-11.38-18.49-13-34.66-5V74h-13v67.37C526.77,139.14,533.49,145.38,535.18,135.86Zm59.1-17.27h37.46c1-16.44-6.19-27.16-19.21-29.48-14.12-2.51-26.62,4.91-30.59,18.16-4.15,13.83,2,28,14.43,33.39,13.08,5.68,26.92,1.07,34.6-11.92l-10.42-5.24C609.38,134.38,598.07,132.55,594.28,118.59Zm-239.66-3c-.05-15.72-11.26-27.15-26.56-27.08-15.82.07-26.79,11.45-26.64,27.63.15,15.75,11.34,26.87,26.84,26.66S354.67,131.36,354.62,115.57ZM258,156.22c13.32,1.12,13.31,1.12,18.37-10.59q10.56-24.42,21.09-48.85c.84-2,1.39-4,2.25-6.53-2.76,0-4.83.34-6.75-.07-6.4-1.33-9.12,1.8-11,7.5-2.53,7.7-5.88,15.14-9.37,23.92-4.14-10-7.54-18.78-11.49-27.3-.85-1.84-3.57-3.49-5.69-3.89-3.37-.65-7-.17-11.2-.17,5.18,12,9.24,23.17,14.78,33.61,5.25,9.88,7,19,.12,28.57C258.36,153.41,258.32,154.9,258,156.22ZM362.49,90.49c0,11.57-.18,22.37.06,33.16.17,7.91,2.87,15,10.89,17.8s15.57,1.89,21.7-4.76a9.45,9.45,0,0,1,2-1.17c.35,1.93.65,3.56.95,5.22h11.78V90.55H396.47c0,9.32.34,18.33-.11,27.3-.38,7.67-5.43,12.4-11.78,12.15S376,126.62,376,117.44c-.06-8.91,0-17.81,0-26.95ZM463,90.57c0,11.86-.68,23.58.18,35.18,1,13,11.87,20,24.15,16.17,3.65-1.15,6.79-3.92,10.27-6,.36,1.62.76,3.38,1.09,4.88h11.53V90.65H497c0,2.86,0,5.31,0,7.77-.06,6.76.22,13.55-.33,20.28-.59,7.33-5.52,11.67-11.78,11.29-6.07-.37-8.44-3.65-8.5-12.09-.07-9,0-18,0-27.33Zm-44.36.14c.2,3.87.38,7.42.55,10.78l8.5.78c0,8.36-.26,16.23.06,24.08.58,14.31,15,21.32,27.47,13.24l-3.49-10.65c-6.87,1.39-9.91.36-10.22-4.27-.51-7.5-.14-15.07-.14-23h11.77V90.25h-12.2V74.83h-13.3v15ZM94.19,44.31c-.37-.16-.8-.52-1.06-.42s-.34.67-.5,1c.36.15.8.51,1.05.41S94,44.67,94.19,44.31Z"/><path class="cls-2" d="M120.57,117.86l1.27-.82,1.21-.7.08,0,16.15-9.41.14-.07,10.78-5.53,1.33-.14,6.61-3.81,4.17-2.75h0c4.34,1.6,6.88,7.56,12.81,5.31a.6.6,0,0,1,.74.35c1.46,4.15,4.42,5.79,8.71,5.18l21.08,11.06,6.61,4.74c-12.42,7.54-24.42,14.87-36.48,22.12C157,154.71,138,165.78,119.34,177.44c-5.28,3.3-9.41,3.82-14.32-.07-2.23-1.77-5.08-2.77-7.64-4.11L69,157h0l-5.45-5.37,0-.07L88,136.76l1.21-.71,21.84-12.72,2.61-1.55,4.27-2.5-.08,0Z"/><path class="cls-3" d="M535.18,135.86c-1.69,9.52-8.41,3.28-12.75,5.46V74h13V94c16.17-8,26.82-6.36,34.66,5,8,11.62,6.32,28.51-3.76,37.69C557.19,145,545.81,144.77,535.18,135.86ZM548,101.35c-7.77.05-13.5,6.44-13.27,14.8.21,8,5.95,13.91,13.55,13.86s13.53-6.53,13.31-14.8C561.35,107.26,555.5,101.3,548,101.35Zm-12.29-6-.34-.44c-.13.13-.36.26-.37.4s.2.29.32.44Z"/><path class="cls-4" d="M594.28,118.59c3.79,14,15.1,15.79,26.27,4.91L631,128.74c-7.68,13-21.52,17.6-34.6,11.92-12.46-5.41-18.58-19.56-14.43-33.39,4-13.25,16.47-20.67,30.59-18.16,13,2.32,20.17,13,19.21,29.48Zm24.34-9.54c-2.63-7.39-6.53-9.94-13.37-9.06-5.26.67-8.81,3.31-9.81,9.06Z"/><path class="cls-3" d="M354.62,115.57c.05,15.79-10.81,27-26.36,27.21s-26.69-10.91-26.84-26.66c-.15-16.18,10.82-27.56,26.64-27.63C343.36,88.42,354.57,99.85,354.62,115.57Zm-13.54.22c0-8.54-5.48-14.54-13.32-14.45-7.53.08-12.82,5.94-12.84,14.23s5.17,14.26,12.61,14.44C335.45,130.19,341,124.33,341.08,115.79Z"/><path class="cls-4" d="M258,156.22c.36-1.32.4-2.81,1.11-3.8,6.88-9.6,5.13-18.69-.12-28.57-5.54-10.44-9.6-21.66-14.78-33.61,4.25,0,7.83-.48,11.2.17,2.12.4,4.84,2,5.69,3.89,3.95,8.52,7.35,17.3,11.49,27.3,3.49-8.78,6.84-16.22,9.37-23.92,1.88-5.7,4.6-8.83,11-7.5,1.92.41,4,.07,6.75.07-.86,2.51-1.41,4.58-2.25,6.53q-10.5,24.43-21.09,48.85C271.27,157.34,271.28,157.34,258,156.22Z"/><path class="cls-5" d="M362.49,90.49H376c0,9.14-.05,18,0,27,.07,9.18,2.27,12.31,8.62,12.56s11.4-4.48,11.78-12.15c.45-9,.11-18,.11-27.3h13.36v50.19H398.05c-.3-1.66-.6-3.29-.95-5.22a9.45,9.45,0,0,0-2,1.17c-6.13,6.65-13.8,7.56-21.7,4.76s-10.72-9.89-10.89-17.8C362.31,112.86,362.49,102.06,362.49,90.49Z"/><path class="cls-5" d="M463,90.57h13.38c0,9.33-.06,18.33,0,27.33.06,8.44,2.43,11.72,8.5,12.09,6.26.38,11.19-4,11.78-11.29.55-6.73.27-13.52.33-20.28,0-2.46,0-4.91,0-7.77h13.21v50.13H498.66c-.33-1.5-.73-3.26-1.09-4.88-3.48,2.1-6.62,4.87-10.27,6-12.28,3.85-23.19-3.16-24.15-16.17C462.29,114.15,463,102.43,463,90.57Z"/><path class="cls-5" d="M418.61,90.71l9-.89v-15h13.3V90.25h12.2V101.7H441.34c0,7.9-.37,15.47.14,23,.31,4.63,3.35,5.66,10.22,4.27l3.49,10.65c-12.43,8.08-26.89,1.07-27.47-13.24-.32-7.85-.06-15.72-.06-24.08l-8.5-.78C419,98.13,418.81,94.58,418.61,90.71Z"/><path class="cls-6" d="M99.14,119.54l-10.34,9c-4.49-7.91-4.91-72.77-.57-81.66l5.45,4.17-.41.5L87.82,50v74.64l11-5.54Z"/><path class="cls-6" d="M137,97.82c-4.87,3.69-10,7.13-14.54,11.13-6.78,5.9-15.06,8.15-23.32,10.59l-.33-.41,37.82-21.77Z"/><path class="cls-6" d="M69,157l28.35,16.29c-5.36-2.24-11-4-16-6.86C76.91,163.87,73.12,160.16,69,157Z"/><path class="cls-6" d="M103.18,56.56c3.63,1.6,7.46,2.87,10.84,4.88,5.11,3,9.92,6.6,14.85,9.94l-.51.6L102.71,57Z"/><path class="cls-6" d="M88,136.76,63.64,151.54c.31-1,.3-2.62,1-3C72.14,144,78.69,137.6,88,136.76Z"/><path class="cls-6" d="M205.65,116.51l-21.08-11.06-2.08-2.34c.15-.18.32-.35.48-.51,4.68,1.69,10.2.9,13.4,6.67C198.12,112.43,202.47,114.15,205.65,116.51Z"/><path class="cls-6" d="M111.06,123.33,89.22,136.05c5-3.77,9.77-7.75,15-11.18C106,123.65,108.74,123.81,111.06,123.33Z"/><path class="cls-6" d="M131.47,72.84C138.8,76,147,77.72,151.84,85l-.35.33L131,73.41Z"/><path class="cls-6" d="M139.28,106.91l-16.15,9.41C124.51,111,131.08,107.2,139.28,106.91Z"/><path class="cls-6" d="M143.46,97.43l-6.46.39-.37-.46,16.1-9.57.48.42c-1.62,1.58-3.23,3.18-4.87,4.74s-3.26,3-4.89,4.5Z"/><path class="cls-6" d="M150.2,101.31l-10.78,5.53,4-9.41v0Z"/><path class="cls-6" d="M158.14,97.36l-6.61,3.81c2.64-7.58,6.78-10,13.61-8l-2.83,1.45h0Z"/><path class="cls-6" d="M93.68,51.06c3.52,1.22,9.56-1.91,9.49,5.5l-.46.45-9.44-5.45Z"/><path class="cls-7" d="M162.31,94.61l2.83-1.45a.75.75,0,0,0,.85.48l7.12,3.94h0l2,2.35C169.19,102.17,166.65,96.21,162.31,94.61Z"/><path class="cls-6" d="M175.12,99.92l-2-2.35c4.36-.42,8.68-.78,9.86,5-.16.16-.33.33-.48.51l-6.63-2.84A.6.6,0,0,0,175.12,99.92Z"/><path class="cls-6" d="M63.59,151.61,69,157l-9.4-2.29.43-2.36Z"/><path class="cls-6" d="M173.11,97.58,166,93.64Z"/><path class="cls-6" d="M117.94,119.28l-4.27,2.5Z"/><path class="cls-6" d="M94.19,44.31c-.16.36-.25.92-.51,1s-.69-.26-1.05-.41c.16-.36.24-.93.5-1S93.82,44.15,94.19,44.31Z"/><path class="cls-6" d="M128.87,71.38l2.59,1.46-.46.57L128.36,72Z"/><path class="cls-6" d="M120.57,117.86l-2.71,1.46Z"/><path class="cls-6" d="M123.05,116.34l-1.21.7Z"/><path class="cls-6" d="M153.15,86.37l.06,1.84-.48-.42c0-.34,0-.69,0-1Z"/><path class="cls-6" d="M151.84,85l1.31,1.35-.4.38-1.26-1.4Z"/><path class="cls-7" d="M175.86,100.27l6.63,2.84,2.08,2.34C180.28,106.06,177.32,104.42,175.86,100.27Z"/><path class="cls-7" d="M158.14,97.36l4.17-2.75Z"/><path class="cls-8" d="M548,101.35c7.53,0,13.38,5.91,13.59,13.86.22,8.27-5.61,14.75-13.31,14.8s-13.34-5.81-13.55-13.86C534.47,107.79,540.2,101.4,548,101.35Z"/><path class="cls-1" d="M535.68,95.3l-.39.4c-.12-.15-.33-.3-.32-.44s.24-.27.37-.4Z"/><path class="cls-9" d="M618.62,109.05H595.44c1-5.75,4.55-8.39,9.81-9.06C612.09,99.11,616,101.66,618.62,109.05Z"/><path class="cls-10" d="M341.08,115.79c0,8.54-5.63,14.4-13.55,14.22-7.44-.18-12.62-6.12-12.61-14.44s5.31-14.15,12.84-14.23C335.6,101.25,341.12,107.25,341.08,115.79Z"/><path class="cls-11" d="M151.49,85.35l1.26,1.4c0,.35,0,.7,0,1l-16.1,9.57L98.81,119.13l-11,5.54V50l5.45,1.53L102.71,57l25.65,15L131,73.41Z"/></g></g></svg>