<svg xmlns="http://www.w3.org/2000/svg" viewBox="0 0 718.63 249.38"><defs><style>.cls-1{fill:#fdfdfd;}.cls-2{fill:#f70505;}.cls-3{fill:#2d2d2d;}.cls-4{fill:#2e2e2e;}.cls-5{fill:#2b2b2b;}.cls-6{fill:#f9e2df;}.cls-7{fill:#da1b23;}.cls-8{fill:#f8f8f8;}.cls-9{fill:#ebebeb;}.cls-10{fill:#fafafa;}.cls-11{fill:#f30708;}.cls-12{font-size:24px;font-family:Roboto-Light, Roboto;font-weight:300;}.cls-13{letter-spacing:-0.04em;}.cls-14{letter-spacing:-0.02em;}.cls-15,.cls-16{font-family:Roboto-Bold, Roboto;font-weight:700;}.cls-16{fill:#fff;}</style></defs><g id="Layer_2" data-name="Layer 2"><g id="Layer_1-2" data-name="Layer 1"><path class="cls-1" d="M0,23.37H718.63v226H0Zm153.14,86.37-1.3-1.35c-4.86-7.3-13-9-20.38-12.18l-2.59-1.46c-4.93-3.34-9.74-6.9-14.85-9.94-3.38-2-7.21-3.28-10.85-4.88.07-7.41-6-4.29-9.49-5.5l-5.45-4.17c-4.34,8.89-3.92,73.75.57,81.66l10.34-9c8.26-2.44,16.54-4.69,23.32-10.59,4.59-4,9.67-7.44,14.53-11.13l6.47-.39q-2,4.71-4,9.4l-.14.08c-8.2.29-14.77,4.11-16.15,9.41l-.08,0-1.21.7-1.27.81-2.71,1.47.08,0-4.27,2.49-2.61,1.56c-2.32.47-5,.32-6.88,1.53-5.19,3.43-10,7.42-15,11.19l-1.21.71c-9.32.84-15.87,7.28-23.38,11.75-.69.41-.68,2-1,3l0,.06-3.52.72-.43,2.37,9.4,2.29h0c4.09,3.19,7.88,6.9,12.35,9.43,5,2.84,10.64,4.62,16,6.86,2.56,1.34,5.41,2.34,7.64,4.11,4.91,3.89,9,3.37,14.32.06C138,189.15,157,178.08,175.78,166.74c12.06-7.26,24.06-14.59,36.48-22.12l-6.61-4.74c-3.18-2.37-7.53-4.08-9.28-7.24-3.2-5.77-8.72-5-13.4-6.67-1.18-5.81-5.5-5.45-9.86-5h0L166,117a.73.73,0,0,1-.85-.47c-6.83-2-11,.43-13.61,8l-1.33.14-6.75-3.86c1.63-1.5,3.28-3,4.89-4.5s3.25-3.16,4.87-4.74C153.19,111,153.17,110.35,153.14,109.74Zm382,49.48c10.63,8.92,22,9.15,31.11.85,10.08-9.19,11.76-26.07,3.76-37.69-7.84-11.39-18.49-13-34.66-5v-20h-13v67.37C526.77,162.51,533.49,168.75,535.18,159.22ZM594.28,142h37.46c1-16.44-6.19-27.16-19.21-29.48-14.12-2.51-26.62,4.91-30.59,18.16-4.15,13.83,2,28,14.43,33.39,13.08,5.68,26.92,1.07,34.6-11.92l-10.42-5.25C609.38,157.74,598.07,155.92,594.28,142Zm-239.66-3c-.05-15.72-11.26-27.16-26.56-27.09-15.82.08-26.79,11.45-26.64,27.63.15,15.76,11.34,26.88,26.84,26.67S354.67,154.73,354.62,138.94ZM258,179.58c13.32,1.13,13.31,1.13,18.37-10.59q10.56-24.42,21.09-48.84c.84-2,1.39-4,2.25-6.54-2.76,0-4.83.34-6.75-.06-6.4-1.34-9.12,1.79-11,7.49-2.53,7.71-5.88,15.14-9.37,23.92-4.14-10-7.54-18.77-11.49-27.29-.85-1.84-3.57-3.49-5.69-3.89-3.37-.65-7-.18-11.2-.18,5.18,12,9.24,23.18,14.78,33.62,5.25,9.88,7,19,.12,28.56C258.36,176.78,258.32,178.27,258,179.58Zm104.53-65.72c0,11.57-.18,22.37.06,33.16.17,7.91,2.87,15,10.89,17.8s15.57,1.89,21.7-4.76a9.39,9.39,0,0,1,2-1.18c.35,1.94.65,3.57.95,5.23h11.78V113.92H396.47c0,9.32.34,18.33-.11,27.3-.38,7.67-5.43,12.4-11.78,12.15S376,150,376,140.81c-.06-8.91,0-17.81,0-26.95Zm100.48.08c0,11.86-.68,23.58.18,35.18,1,13,11.87,20,24.15,16.16,3.65-1.14,6.79-3.91,10.27-6,.36,1.62.76,3.38,1.09,4.87h11.53V114H497c0,2.85,0,5.31,0,7.77-.06,6.76.22,13.55-.33,20.28-.59,7.33-5.52,11.67-11.78,11.29-6.07-.37-8.44-3.65-8.5-12.09-.07-9,0-18,0-27.33Zm-44.36.14c.2,3.87.38,7.42.55,10.78l8.5.78c0,8.36-.26,16.23.06,24.08.58,14.31,15,21.32,27.47,13.23-1.16-3.52-2.33-7.1-3.49-10.64-6.87,1.39-9.91.36-10.22-4.27-.51-7.51-.14-15.07-.14-23h11.77V113.62h-12.2V98.2h-13.3v15ZM94.19,67.68c-.37-.16-.8-.52-1.06-.42s-.34.66-.5,1c.36.16.8.52,1.05.42S94,68,94.19,67.68Z"/><path class="cls-2" d="M120.57,141.22l1.27-.81,1.21-.7.08,0,16.15-9.41.14-.08,10.78-5.52,1.33-.14,6.61-3.82,4.17-2.75h0c4.34,1.6,6.88,7.56,12.81,5.3a.6.6,0,0,1,.74.36c1.46,4.15,4.42,5.78,8.71,5.18l21.08,11.06,6.61,4.74c-12.42,7.53-24.42,14.86-36.48,22.12C157,178.08,138,189.15,119.34,200.8c-5.28,3.31-9.41,3.83-14.32-.06-2.23-1.77-5.08-2.77-7.64-4.11L69,180.34h0L63.59,175l0-.06L88,160.13l1.21-.71,21.84-12.72,2.61-1.56,4.27-2.49-.08,0Z"/><path class="cls-3" d="M535.18,159.22c-1.69,9.53-8.41,3.29-12.75,5.47V97.32h13v20c16.17-8,26.82-6.37,34.66,5,8,11.62,6.32,28.5-3.76,37.69C557.19,168.37,545.81,168.14,535.18,159.22ZM548,124.72c-7.77,0-13.5,6.43-13.27,14.8.21,8,5.95,13.91,13.55,13.86s13.53-6.53,13.31-14.81C561.35,130.63,555.5,124.67,548,124.72Zm-12.29-6-.34-.44c-.13.13-.36.26-.37.4s.2.29.32.43Z"/><path class="cls-4" d="M594.28,142c3.79,14,15.1,15.78,26.27,4.9L631,152.11c-7.68,13-21.52,17.6-34.6,11.92-12.46-5.41-18.58-19.56-14.43-33.39,4-13.25,16.47-20.67,30.59-18.16,13,2.32,20.17,13,19.21,29.48Zm24.34-9.54c-2.63-7.4-6.53-9.94-13.37-9.06-5.26.67-8.81,3.31-9.81,9.06Z"/><path class="cls-3" d="M354.62,138.94c.05,15.79-10.81,27-26.36,27.21s-26.69-10.91-26.84-26.67c-.15-16.18,10.82-27.55,26.64-27.63C343.36,111.78,354.57,123.22,354.62,138.94Zm-13.54.21c0-8.53-5.48-14.53-13.32-14.45-7.53.08-12.82,5.94-12.84,14.23s5.17,14.27,12.61,14.44C335.45,153.56,341,147.69,341.08,139.15Z"/><path class="cls-4" d="M258,179.58c.36-1.31.4-2.8,1.11-3.8,6.88-9.6,5.13-18.68-.12-28.56-5.54-10.44-9.6-21.67-14.78-33.62,4.25,0,7.83-.47,11.2.18,2.12.4,4.84,2,5.69,3.89C265,126.19,268.41,135,272.55,145c3.49-8.78,6.84-16.21,9.37-23.92,1.88-5.7,4.6-8.83,11-7.49,1.92.4,4,.06,6.75.06-.86,2.52-1.41,4.59-2.25,6.54q-10.5,24.43-21.09,48.84C271.27,180.71,271.28,180.71,258,179.58Z"/><path class="cls-5" d="M362.49,113.86H376c0,9.14-.05,18,0,27,.07,9.18,2.27,12.31,8.62,12.56s11.4-4.48,11.78-12.15c.45-9,.11-18,.11-27.3h13.36v50.19H398.05c-.3-1.66-.6-3.29-.95-5.23a9.39,9.39,0,0,0-2,1.18c-6.13,6.65-13.8,7.56-21.7,4.76s-10.72-9.89-10.89-17.8C362.31,136.23,362.49,125.43,362.49,113.86Z"/><path class="cls-5" d="M463,113.94h13.38c0,9.32-.06,18.33,0,27.33.06,8.44,2.43,11.72,8.5,12.09,6.26.38,11.19-4,11.78-11.29.55-6.73.27-13.52.33-20.28,0-2.46,0-4.92,0-7.77h13.21v50.12H498.66c-.33-1.49-.73-3.25-1.09-4.87-3.48,2.1-6.62,4.87-10.27,6-12.28,3.86-23.19-3.15-24.15-16.16C462.29,137.52,463,125.8,463,113.94Z"/><path class="cls-5" d="M418.61,114.08l9-.9v-15h13.3v15.42h12.2v11.45H441.34c0,7.9-.37,15.46.14,23,.31,4.63,3.35,5.66,10.22,4.27,1.16,3.54,2.33,7.12,3.49,10.64C442.76,171,428.3,164,427.72,149.72c-.32-7.85-.06-15.72-.06-24.08l-8.5-.78C419,121.5,418.81,118,418.61,114.08Z"/><path class="cls-6" d="M99.14,142.91l-10.34,9c-4.49-7.91-4.91-72.77-.57-81.66l5.45,4.17-.41.5-5.45-1.54V148l11-5.54Z"/><path class="cls-6" d="M137,121.19c-4.87,3.69-10,7.13-14.54,11.13-6.78,5.9-15.06,8.15-23.32,10.59l-.33-.41,37.82-21.77Z"/><path class="cls-6" d="M69,180.34l28.35,16.29c-5.36-2.24-11-4-16-6.86C76.91,187.24,73.12,183.53,69,180.34Z"/><path class="cls-6" d="M103.18,79.93c3.63,1.6,7.46,2.87,10.84,4.88,5.11,3,9.92,6.6,14.85,9.94l-.51.6-25.65-15Z"/><path class="cls-6" d="M88,160.13,63.64,174.91c.31-1,.3-2.62,1-3C72.14,167.41,78.69,161,88,160.13Z"/><path class="cls-6" d="M205.65,139.88l-21.08-11.06-2.08-2.34c.15-.18.32-.35.48-.51,4.68,1.69,10.2.9,13.4,6.67C198.12,135.8,202.47,137.51,205.65,139.88Z"/><path class="cls-6" d="M111.06,146.7,89.22,159.42c5-3.77,9.77-7.76,15-11.19C106,147,108.74,147.17,111.06,146.7Z"/><path class="cls-6" d="M131.47,96.21c7.33,3.14,15.51,4.88,20.37,12.18l-.35.33L131,96.78Z"/><path class="cls-6" d="M139.28,130.28l-16.15,9.41C124.51,134.39,131.08,130.57,139.28,130.28Z"/><path class="cls-6" d="M143.46,120.8l-6.46.39-.37-.46,16.1-9.57.48.42c-1.62,1.58-3.23,3.18-4.87,4.74s-3.26,3-4.89,4.5Z"/><path class="cls-6" d="M150.2,124.68l-10.78,5.52q2-4.69,4-9.4v0Z"/><path class="cls-6" d="M158.14,120.72l-6.61,3.82c2.64-7.58,6.78-10,13.61-8L162.31,118h0Z"/><path class="cls-6" d="M93.68,74.43c3.52,1.21,9.56-1.91,9.49,5.5l-.46.44-9.44-5.44Z"/><path class="cls-7" d="M162.31,118l2.83-1.45a.73.73,0,0,0,.85.47l7.12,3.94h0l2,2.34C169.19,125.54,166.65,119.58,162.31,118Z"/><path class="cls-6" d="M175.12,123.28l-2-2.34c4.36-.42,8.68-.78,9.86,5-.16.16-.33.33-.48.51l-6.63-2.84A.6.6,0,0,0,175.12,123.28Z"/><path class="cls-6" d="M63.59,175,69,180.35l-9.4-2.29.43-2.37Z"/><path class="cls-6" d="M173.11,120.94,166,117Z"/><path class="cls-6" d="M117.94,142.65l-4.27,2.49Z"/><path class="cls-6" d="M94.19,67.68c-.16.36-.25.92-.51,1s-.69-.26-1.05-.42c.16-.36.24-.92.5-1S93.82,67.52,94.19,67.68Z"/><path class="cls-6" d="M128.87,94.75l2.59,1.46-.46.57-2.64-1.43Z"/><path class="cls-6" d="M120.57,141.22l-2.71,1.47Z"/><path class="cls-6" d="M123.05,139.71l-1.21.7Z"/><path class="cls-6" d="M153.15,109.73l.06,1.85-.48-.42c0-.34,0-.69,0-1Z"/><path class="cls-6" d="M151.84,108.39l1.31,1.35-.4.38-1.26-1.4Z"/><path class="cls-7" d="M175.86,123.64l6.63,2.84,2.08,2.34C180.28,129.42,177.32,127.79,175.86,123.64Z"/><path class="cls-7" d="M158.14,120.72l4.17-2.75Z"/><path class="cls-8" d="M548,124.72c7.53,0,13.38,5.91,13.59,13.85.22,8.28-5.61,14.76-13.31,14.81s-13.34-5.81-13.55-13.86C534.47,131.15,540.2,124.77,548,124.72Z"/><path class="cls-1" d="M535.68,118.67l-.39.39c-.12-.14-.33-.29-.32-.43s.24-.27.37-.4Z"/><path class="cls-9" d="M618.62,132.42H595.44c1-5.75,4.55-8.39,9.81-9.06C612.09,122.48,616,125,618.62,132.42Z"/><path class="cls-10" d="M341.08,139.15c0,8.54-5.63,14.41-13.55,14.22-7.44-.17-12.62-6.11-12.61-14.44s5.31-14.15,12.84-14.23C335.6,124.62,341.12,130.62,341.08,139.15Z"/><path class="cls-11" d="M151.49,108.72l1.26,1.4c0,.35,0,.7,0,1l-16.1,9.57L98.81,142.5l-11,5.54V73.39l5.45,1.54,9.44,5.44,25.65,15L131,96.78Z"/><text/><rect class="cls-2" x="463.03" y="185.13" width="168.16" height="47.61" rx="22.68"/><text class="cls-12" transform="translate(345.4 217.67)"><tspan class="cls-13">T</tspan><tspan class="cls-14" x="13.45" y="0">r</tspan><tspan x="21.06" y="0" xml:space="preserve">anscript  </tspan><tspan class="cls-15" x="117.75" y="0" xml:space="preserve">   </tspan><tspan class="cls-16" x="135.68" y="0">Summarizer</tspan></text></g></g></svg>